<svg width="128" height="162" viewBox="0 0 128 162" fill="none" xmlns="http://www.w3.org/2000/svg">
<path fill-rule="evenodd" clip-rule="evenodd" d="M52.0234 157.21C75.5041 159.896 99.7567 135.391 106.193 102.475C112.63 69.56 95.5554 39.198 72.0748 36.512C49.6108 33.9423 9.87849 47.7351 16.6886 85.9131C15.4276 86.0028 14.1302 86.5009 13.0322 87.5027L7.63282 92.4285C5.01805 94.814 5.5599 98.5534 8.70447 99.824L12.6722 101.427C13.376 101.712 14.119 101.836 14.856 101.821C9.81796 130.411 31.0866 154.815 52.0234 157.21Z" fill="#C09A73"/>
<path d="M20.6497 26.3209C-2.89793 22.6395 -1.58373 36.6972 2.01683 44.1862C6.55349 51.982 10.5682 55.7355 12.0084 56.6378L27.4683 41.8453C47.1273 52.6727 47.9239 62.232 47.9239 66.6532C52.2446 86.5758 64.4865 86.8645 70.0673 84.5186C79.3561 92.6656 65.7422 110.18 75.3221 117.982L92.5407 132.007C132.966 132.007 122.725 29.3887 100.312 19.283C32.0455 8.02242 18.7594 19.283 20.6497 26.3209Z" fill="#4A3128"/>
<path d="M83.0183 27.7886C62.1512 22.841 42.015 19.7377 18.3023 45.3361C14.7417 49.1799 12.6793 54.2001 12.2792 59.4244C6.7276 131.912 50.1702 105.051 68.4665 85.3906C82.3674 69.1983 105.409 33.0976 83.0183 27.7886Z" fill="#C09A73"/>
<g filter="url(#filter0_f_17167_10792)">
<ellipse cx="90.2062" cy="48.2838" rx="19.3585" ry="24.3971" fill="#7C584C" fill-opacity="0.81"/>
</g>
<g filter="url(#filter1_f_17167_10792)">
<ellipse cx="13.7205" cy="36.1149" rx="13.7205" ry="36.1149" transform="matrix(0.302041 0.953295 -0.953294 0.302043 84.8594 12)" fill="#7C584C" fill-opacity="0.8"/>
</g>
<path d="M65.8842 38.3438C65.7294 38.3438 65.6064 38.3489 65.4593 38.4004C64.83 38.6206 65.0979 38.5128 63.7313 38.8876C56.9484 40.7479 50.1375 42.6229 43.2335 43.9866C37.3616 45.1465 30.1109 46.4215 25.3984 41.7091" stroke="#7C584C" stroke-width="0.833937" stroke-linecap="round"/>
<path d="M69.1452 38.1408C69.017 38.0868 68.9045 38.0568 68.7656 38.0388C66.5926 37.7584 64.3271 37.5677 62.1766 37.325C54.7497 36.4867 47.1847 35.8582 39.8771 34.2203C38.7976 33.9783 37.7231 33.6775 36.7045 33.2458C34.6641 32.381 36.0913 32.4881 34.5742 31.4102" stroke="#7C584C" stroke-width="0.833937" stroke-linecap="round"/>
<path d="M40.796 27.0234C39.2241 27.1217 43.4833 28.7046 44.9545 29.267C48.0544 30.452 52.7002 32.1354 55.8436 33.1309C57.9443 33.7961 59.832 34.3712 61.9851 34.6152C63.1897 34.7518 64.462 34.6962 65.679 34.7739" stroke="#7C584C" stroke-width="0.833937" stroke-linecap="round"/>
<path d="M47.2188 22.6406C47.7623 23.5039 47.5785 23.3727 48.8617 24.2213C51.9692 26.2763 55.521 28.451 58.6744 30.2834C60.7966 31.5166 62.9171 32.7572 65.0991 33.881C95.2769 49.4244 55.4858 28.9641 71.9997 36.4079" stroke="#7C584C" stroke-width="0.833937" stroke-linecap="round"/>
<path d="M55.5781 20.5977C55.5866 20.7585 55.6056 21.0324 55.7254 21.1529C56.5148 21.9466 59.0215 23.9198 59.3174 24.1556C64.431 28.2317 65.7806 29.2089 71.2829 33.5491" stroke="#7C584C" stroke-width="0.833937" stroke-linecap="round"/>
<path d="M59.3555 20.9062C60.0228 22.3148 61.4101 23.3383 62.5282 24.3735C65.7543 27.3607 69.0163 30.413 72.6014 32.9738C73.3591 33.515 73.843 33.7498 74.6524 33.9596" stroke="#7C584C" stroke-width="0.833937" stroke-linecap="round"/>
<path d="M30.3905 35.4844C30.3532 35.5614 30.0335 36.1835 30.1639 36.2889C32.1261 37.8742 36.2221 38.9354 38.3392 39.6712C41.9862 40.9388 46.0895 42.6957 50.0499 42.266C52.1628 42.0368 54.3232 41.9177 56.3952 41.4219C59.4403 40.6931 62.4294 39.6574 65.2674 38.3398" stroke="#7C584C" stroke-width="0.833937" stroke-linecap="round"/>
<path d="M27.4414 38.2426C27.5818 38.3128 27.7232 38.3951 27.872 38.4466C33.9834 40.5599 40.2493 42.8645 46.6248 44.0158C53.5101 45.2591 60.3571 41.6174 65.9896 38.1406" stroke="#7C584C" stroke-width="0.833937" stroke-linecap="round"/>
<path d="M33.1461 33.957C32.9482 33.9694 32.8113 34.2307 32.9874 34.4103C33.4419 34.8736 34.8321 35.7919 35.0723 35.9513C36.5731 36.947 38.986 38.4686 40.5452 39.328C42.6721 40.5001 44.5712 41.1086 46.9586 41.3336C50.1835 41.6374 53.5186 41.4243 56.6806 40.733C59.6126 40.092 62.3451 38.5493 65.0656 37.3224" stroke="#7C584C" stroke-width="0.833937" stroke-linecap="round"/>
<path d="M39.1641 29.168C40.9542 31.7154 43.6162 33.9818 46.0647 35.8533C49.3879 38.3934 53.306 38.633 57.322 38.2725C60.6104 37.9772 63.7209 37.2505 66.8684 36.2669C67.4708 36.0786 68.057 35.6504 68.6361 35.8986" stroke="#7C584C" stroke-width="0.833937" stroke-linecap="round"/>
<path d="M45.5898 25.3897C45.7169 25.3084 46.0274 25.0747 46.2017 25.2084C49.4219 27.6783 51.6734 31.5031 55.3345 33.4234C59.1431 35.4211 63.8459 35.4857 68.0253 35.4857" stroke="#7C584C" stroke-width="0.833937" stroke-linecap="round"/>
<path d="M53.1367 22.0273C53.2257 22.2251 53.2515 22.5086 53.3633 22.6845C53.8246 23.4106 54.9946 24.687 55.3803 25.1094C57.5423 27.477 59.7474 29.9498 62.2695 31.9477C63.2581 32.7308 64.4681 32.9501 65.6292 33.3697C67.5679 34.0705 69.4758 34.8298 71.391 35.5906" stroke="#7C584C" stroke-width="0.833937" stroke-linecap="round"/>
<path d="M63.332 22.0273C66.0317 26.2899 69.4133 31.6286 74.8557 32.1233" stroke="#7C584C" stroke-width="0.833937" stroke-linecap="round"/>
<path d="M23.8711 41.8138C24.2261 42.2808 24.5914 42.3148 25.1968 42.454C30.0818 43.577 35.4187 45.0947 40.4711 44.6465C43.2238 44.4023 46.0226 44.0558 48.7314 43.5021C51.861 42.8624 54.9366 41.8676 57.8868 40.6524C59.3552 40.0475 60.8179 39.4197 62.2266 38.6864C71.5778 33.819 61.0873 38.8979 69.5578 33.8594" stroke="#7C584C" stroke-width="0.833937" stroke-linecap="round"/>
<path d="M68.941 19.8867C68.8021 19.9112 68.7479 19.9412 68.686 20.0793C68.5068 20.4791 68.5946 20.6833 68.6407 21.2464C68.8074 23.2823 69.0994 25.3708 69.4565 27.3709C69.8935 29.8177 70.2422 33.1704 72.0457 35.1383C72.5391 35.6768 73.4192 36.0956 74.0399 36.5094" stroke="#7C584C" stroke-width="0.833937" stroke-linecap="round"/>
<path d="M72.3112 21.6211C72.1281 22.3533 72.0421 22.7657 72.1469 23.6097C72.6158 27.3852 74.0804 30.9258 75.0647 34.5725" stroke="#7C584C" stroke-width="0.833937" stroke-linecap="round"/>
<path d="M74.5485 21.7188C74.1741 22.4988 73.6155 23.0982 74.2086 24.0076C75.1518 25.4539 76.3411 25.2729 77.6079 26.4098" stroke="#7C584C" stroke-width="0.833937" stroke-linecap="round"/>
<path d="M73.8365 19.9844C73.0416 21.5224 73.1093 21.1145 72.9754 23.5083C72.7163 28.1393 73.0908 29.6388 73.0207 34.5674" stroke="#7C584C" stroke-width="0.833937" stroke-linecap="round"/>
<path d="M67.5139 19.0703C67.1025 19.3951 67.2592 19.5112 67.5252 20.1751C69.1169 24.1469 71.4653 27.8306 73.4287 31.6138" stroke="#7C584C" stroke-width="0.833937" stroke-linecap="round"/>
<path d="M67.1092 19.8867C66.732 20.3058 66.7123 20.3198 66.8882 21.0482C67.712 24.4589 69.2802 27.7223 70.4745 31.0025" stroke="#7C584C" stroke-width="0.833937" stroke-linecap="round"/>
<path d="M75.6719 19.3711C75.2503 19.9258 75.0918 20.1353 75.043 20.9404C74.8341 24.3884 75.5181 27.8818 75.7739 31.3027" stroke="#7C584C" stroke-width="0.833937" stroke-linecap="round"/>
<path d="M74.25 37.8359C74.2583 38.06 74.312 38.2524 74.352 38.4705C75.3002 43.6474 75.5752 49.1391 77.536 54.0733C78.3675 56.1658 80.1456 57.7956 82.278 58.5095C84.0169 59.0916 85.7426 58.8558 87.5073 58.6398" stroke="#7C584C" stroke-width="0.833937" stroke-linecap="round"/>
<path d="M76.388 37.7266C76.37 37.7928 76.2749 38.1244 76.2861 38.1685C77.2854 42.1283 79.5575 46.4455 81.2944 50.0094C82.7462 52.9886 84.7512 57.2016 87.0449 59.8901C88.3251 61.3907 88.9777 61.0572 90.5631 60.9779" stroke="#7C584C" stroke-width="0.833937" stroke-linecap="round"/>
<path d="M77.2054 36.5078C77.1003 36.6129 76.9846 36.7135 76.8994 36.8364C76.5686 37.3142 76.8432 37.2958 77.3074 38.1678C78.6761 40.7393 80.6095 43.8209 82.1287 46.1505C83.2154 47.8169 84.2967 49.4895 85.477 51.0909C86.4739 52.4433 87.9704 54.5619 89.7262 55.34C90.9051 55.8625 92.608 55.383 93.828 55.272" stroke="#7C584C" stroke-width="0.833937" stroke-linecap="round"/>
<path d="M77.4062 34.2656C78.2447 38.8879 80.5942 43.4927 82.6412 47.6703C83.9776 50.3976 85.3787 52.7754 87.6155 54.8088C89.645 56.6538 92.1807 57.603 94.6408 58.7407" stroke="#7C584C" stroke-width="0.833937" stroke-linecap="round"/>
<path d="M78.0221 33.6523C77.5382 34.7714 79.3829 38.2506 79.5178 38.5814C80.7557 41.6161 82.8423 46.5379 84.2655 49.4592C85.2455 51.4707 86.2392 53.4653 87.7328 55.1474C89.6313 57.2853 92.1103 58.0951 94.7467 58.8413" stroke="#7C584C" stroke-width="0.833937" stroke-linecap="round"/>
<path d="M78.0209 30.8945C77.9057 31.1537 77.9178 31.3707 78.0435 31.6311C79.3351 34.3065 80.7352 36.9588 82.1567 39.5628C84.0019 42.9429 85.8456 46.6088 88.4681 49.4888C90.6941 51.9334 93.6943 52.4392 96.7851 52.9221" stroke="#7C584C" stroke-width="0.833937" stroke-linecap="round"/>
<path d="M79.1406 34.8711C83.3669 39.0974 88.7032 42.4049 92.2166 47.3126C93.0055 48.4144 93.5589 49.6631 94.4488 50.7006C95.3262 51.7234 96.4175 52.3544 97.4969 53.1254" stroke="#7C584C" stroke-width="0.833937" stroke-linecap="round"/>
<path d="M79.2422 34.7734C79.5015 34.7926 79.7436 34.8664 79.9447 35.0454C83.786 38.464 87.1384 42.4064 91.0151 45.7986C92.1393 46.7822 93.7639 48.2682 95.3889 48.6993C95.9842 48.8572 96.6202 48.6381 97.2359 48.654C97.9359 48.6721 98.6382 48.7561 99.3321 48.8466" stroke="#7C584C" stroke-width="0.833937" stroke-linecap="round"/>
<path d="M79.8555 33.957C79.9159 34.1202 79.9785 34.273 80.0708 34.4216C80.1067 34.4795 80.1283 34.5525 80.1841 34.5916C81.1857 35.2936 84.5298 37.1342 84.7731 37.2657C89.8547 40.0112 95.095 42.9975 100.693 44.5742C102.152 44.985 103.004 44.875 104.33 44.5629" stroke="#7C584C" stroke-width="0.833937" stroke-linecap="round"/>
<path d="M81.6895 32.5312C81.5737 32.6181 81.4448 32.6954 81.4005 32.8428C81.389 32.8812 81.3609 32.9288 81.3836 32.9618C82.1803 34.1268 83.181 35.1408 84.1483 36.1685C87.7 39.942 91.3757 43.7293 95.8419 46.4345C96.6988 46.9534 97.6349 47.3302 98.5501 47.7375C99.9014 48.339 101.221 49.0144 102.595 49.5618" stroke="#7C584C" stroke-width="0.833937" stroke-linecap="round"/>
<path d="M82.4023 32.9375C82.4093 32.9583 82.527 33.3114 82.527 33.3114C83.9952 35.9641 85.8703 38.5618 87.6373 40.9939C89.2269 43.1819 91.1524 45.9189 93.3198 47.6962C94.9905 49.0662 97.1104 49.214 99.1269 49.6621" stroke="#7C584C" stroke-width="0.833937" stroke-linecap="round"/>
<path d="M85.3608 31.5078C85.2838 31.5531 85.0081 31.7263 85.0775 31.8591C85.4347 32.5426 87.0288 34.4274 87.1171 34.5332C88.5613 36.2643 91.0279 39.1122 92.5673 40.7426C94.0467 42.3095 95.0685 43.3742 97.0657 43.9267C97.7721 44.122 98.3654 44.3725 99.026 44.6632" stroke="#7C584C" stroke-width="0.833937" stroke-linecap="round"/>
<path d="M83.5242 32.6289C83.4793 32.7807 83.4336 32.9276 83.4336 33.0878C83.4336 33.4885 83.6021 33.4675 84.0228 33.9093C85.3403 35.293 87.2478 37.1274 88.5439 38.3454C90.3935 40.0837 92.561 42.5191 95.0026 43.5407C95.6781 43.8234 96.5667 43.8896 97.2914 44.0506" stroke="#7C584C" stroke-width="0.833937" stroke-linecap="round"/>
<path d="M85.5664 30.3867C85.7156 32.0278 87.1081 33.5143 88.0989 34.7038C89.3041 36.1509 90.8643 38.1737 92.8296 38.681C93.9857 38.9795 95.483 38.6471 96.6821 38.6471" stroke="#7C584C" stroke-width="0.833937" stroke-linecap="round"/>
<path d="M78.8349 34.0579C78.4926 33.5888 78.4522 33.5074 78.3874 32.7888C78.0595 29.154 78.2013 25.4621 78.1211 21.8203" stroke="#7C584C" stroke-width="0.833937" stroke-linecap="round"/>
<path d="M79.957 31.9217C79.5842 31.3005 79.4785 30.7946 79.4471 30.0181C79.3158 26.7799 80.1788 23.6855 80.5688 20.5" stroke="#7C584C" stroke-width="0.833937" stroke-linecap="round"/>
<path d="M81.8903 31.5067C80.5132 28.5075 81.2784 25.4173 81.2784 22.2266" stroke="#7C584C" stroke-width="0.833937" stroke-linecap="round"/>
<path d="M83.3233 31.5131C83.0146 31.1881 83.0204 31.2312 83.1703 30.601C83.9003 27.5323 85.2446 24.5859 86.2807 21.6211" stroke="#7C584C" stroke-width="0.833937" stroke-linecap="round"/>
<path d="M85.4609 29.2639C85.8655 27.3757 86.7396 25.7297 87.5005 23.9609" stroke="#7C584C" stroke-width="0.833937" stroke-linecap="round"/>
<path d="M86.7891 31.0039C87.0842 31.3833 87.1989 31.401 87.7635 31.5875C90.7908 32.5872 93.9179 33.3136 96.987 34.1653" stroke="#7C584C" stroke-width="0.833937" stroke-linecap="round"/>
<path d="M86.9961 31.6148C87.209 31.1996 87.308 31.0062 87.7383 30.7026C89.6186 29.3761 91.809 28.5076 93.8287 27.4336" stroke="#7C584C" stroke-width="0.833937" stroke-linecap="round"/>
<path d="M88.9297 31.7148C89.0404 32.0873 89.0268 32.2503 89.5246 32.3041C91.5008 32.5173 93.6169 31.9168 95.5583 31.7148" stroke="#7C584C" stroke-width="0.833937" stroke-linecap="round"/>
<path d="M88.4219 31.5078C88.5712 31.9258 88.5653 31.9163 89.1017 32.1933C91.7599 33.5662 94.6436 34.5368 97.3961 35.689" stroke="#7C584C" stroke-width="0.833937" stroke-linecap="round"/>
<path d="M86.4883 31.6151C87.1258 30.4094 87.8398 29.2401 88.5732 28.0912C89.4481 26.7206 90.4138 25.7058 91.3833 24.4766" stroke="#7C584C" stroke-width="0.833937" stroke-linecap="round"/>
<path d="M27.3164 39.494C27.3195 39.5491 27.3263 39.5947 27.3459 39.6469C27.4498 39.9238 27.4935 39.8409 27.9223 40.175C29.3729 41.3053 30.6633 42.249 32.2466 43.2741C34.1115 44.4817 35.8431 45.5992 37.9596 46.2928C39.3407 46.7455 39.9685 46.6717 41.3161 46.5153C43.1314 46.3047 44.8967 45.8234 46.6484 45.3197C49.5589 44.4827 52.4425 43.6027 55.2674 42.5074C57.8839 41.4929 60.4372 40.3454 62.9777 39.1562" stroke="#4A3128" stroke-width="0.833937" stroke-linecap="round"/>
<path d="M33.9805 33.7969C35.2054 34.4094 36.4923 35.3136 37.6426 35.9523C40.2362 37.3925 43.9465 39.3995 46.645 40.5796C48.631 41.448 50.4363 42.1555 52.5805 42.3061C52.9347 42.3309 55.4513 42.0792 55.8191 42.0326C56.6521 41.9271 58.1027 41.6867 58.9182 41.4804C61.5815 40.8065 63.7939 39.4143 66.2156 38.1882" stroke="#4A3128" stroke-width="0.833937" stroke-linecap="round"/>
<path d="M37.2578 30.3281C37.2814 30.3703 37.4361 30.6554 37.4669 30.6713C37.9018 30.8963 38.3587 31.0781 38.8181 31.2477C42.0851 32.4535 45.6715 33.5756 48.9733 34.5077C53.1095 35.6752 56.9818 36.7436 61.2358 37.2475C62.2993 37.3735 63.3776 37.3849 64.4475 37.336C64.996 37.3109 67.3215 36.8047 67.9487 36.698" stroke="#4A3128" stroke-width="0.833937" stroke-linecap="round"/>
<path d="M44.3021 27.4336C43.9624 27.6762 44.2125 27.6922 44.6667 28.203C48.3656 32.3631 53.031 35.9914 58.2588 37.9937C60.879 38.9972 63.6347 39.2637 66.4088 39.0955C68.2685 38.9828 69.9738 38.454 71.7598 38.0017" stroke="#4A3128" stroke-width="0.833937" stroke-linecap="round"/>
<path d="M50.2891 24.1016C50.5565 24.6672 50.5818 24.6995 51.2676 25.2356C54.132 27.4747 57.3513 29.3977 60.5676 31.0773C62.4244 32.0469 64.484 33.1402 66.6533 32.9137C68.2396 32.7481 69.4391 31.9823 70.8944 31.4365" stroke="#4A3128" stroke-width="0.833937" stroke-linecap="round"/>
<path d="M54.1406 20.3398C54.6909 21.3562 54.6047 21.283 55.7116 22.506C58.511 25.5989 61.628 28.4806 65.3039 30.5085C67.1877 31.5478 68.7755 32.1644 70.8909 32.2591C71.5173 32.2872 72.1559 32.2263 72.7621 32.0661C74.5563 31.592 73.8243 31.2843 75.4216 30.5219" stroke="#4A3128" stroke-width="0.833937" stroke-linecap="round"/>
<path d="M59.9356 19.9531C59.8945 20.0079 59.8775 20.0564 59.8605 20.1247C59.8485 20.1727 59.8121 20.2228 59.8283 20.2695C60.1439 21.1778 61.3106 23.2458 61.5334 23.6313C62.2939 24.9477 63.0669 26.2581 63.8926 27.5347C65.2236 29.5927 66.8991 32.2432 68.8844 33.867C70.4663 35.1609 71.5844 34.5776 73.3508 34.5265" stroke="#4A3128" stroke-width="0.833937" stroke-linecap="round"/>
<path d="M44.9766 24.9219C45.2026 25.3219 45.3128 25.2628 45.931 25.6618C48.1566 27.0985 50.228 28.3619 52.5715 29.6858C55.2903 31.2217 57.9072 32.6945 60.8341 33.7796C63.6114 34.8092 66.391 34.548 69.2012 33.9458" stroke="#4A3128" stroke-width="0.833937" stroke-linecap="round"/>
<path d="M40.1094 30.3281C40.5147 30.6119 40.5589 30.5855 41.2863 30.8697C46.7796 33.0155 52.4382 35.1763 58.2537 36.261C60.5287 36.6853 62.6622 36.548 64.9184 36.1403C66.121 35.923 67.8553 35.4935 69.0363 35.1377C72.9413 33.961 68.5241 35.2323 71.5724 34.1886" stroke="#4A3128" stroke-width="0.833937" stroke-linecap="round"/>
<path d="M36.7227 31.8242C37.1172 31.976 37.6333 32.3674 37.9317 32.5266C41.354 34.3518 44.8357 36.1069 48.3792 37.6847C50.7195 38.7267 52.9289 39.5436 55.4407 39.9688C58.4018 40.4701 61.5942 41.0705 64.5611 40.2905C66.8155 39.6978 68.9084 38.4944 70.695 37.0359" stroke="#4A3128" stroke-width="0.833937" stroke-linecap="round"/>
<path d="M29.3906 36.9844C29.4053 37.0104 29.4681 37.124 29.4818 37.1345C31.2733 38.5156 33.4581 39.7134 35.4119 40.7752C38.8111 42.6225 42.2126 44.2547 46.0926 44.7483C48.8381 45.0975 51.7637 44.9633 54.5133 44.7322C58.1914 44.423 61.8762 43.6122 65.3415 42.3355C67.5757 41.5123 69.2871 40.2711 71.0839 38.7699" stroke="#4A3128" stroke-width="0.833937" stroke-linecap="round"/>
<path d="M31.2266 34.5273C33.6212 36.3152 36.1643 37.6789 38.8778 38.9508C42.4161 40.6093 45.994 42.0308 49.8642 42.6773C52.5114 43.1195 55.27 43.2632 57.9498 43.3395C59.8305 43.393 61.7463 43.3943 63.6225 43.2188C66.5419 42.9458 69.5347 42.0943 72.1585 40.7792C72.8641 40.4256 73.538 40.0766 74.2711 39.7873" stroke="#4A3128" stroke-width="0.833937" stroke-linecap="round"/>
<path d="M64.6203 21.9822C64.5151 21.8243 64.339 21.3668 64.371 21.9125C64.6088 25.9705 65.9206 29.925 68.0063 33.3895C68.9108 34.892 69.8903 36.3727 71.1081 37.6441C71.4715 38.0234 71.8666 38.3871 72.3574 38.5931C72.8407 38.796 73.2857 38.7566 73.789 38.8237" stroke="#4A3128" stroke-width="0.833937" stroke-linecap="round"/>
<path d="M66.0664 20.8672C66.2606 21.1642 66.2268 21.3184 66.2862 21.7465C66.5232 23.4527 66.6553 24.4768 66.9672 26.3014C67.3284 28.4146 67.5872 30.9102 68.7527 32.7919C69.6208 34.1934 71.1988 35.5872 72.6373 36.3789C73.0553 36.609 73.3722 36.7388 73.8276 36.84C74.2342 36.9304 74.3864 36.8324 74.7525 36.7918" stroke="#4A3128" stroke-width="0.833937" stroke-linecap="round"/>
<path d="M70.7939 20.4844C70.7695 20.4853 70.5163 20.4978 70.5151 20.5219C70.4839 21.1783 70.6748 21.8273 70.7939 22.4736C71.0632 23.9343 71.5539 26.3793 71.9199 27.7872C72.4382 29.7809 73.1219 31.5507 74.4882 33.1061C74.9904 33.6777 75.4505 33.9271 76.1021 34.2374" stroke="#4A3128" stroke-width="0.833937" stroke-linecap="round"/>
<path d="M68.2385 20.1445C68.2245 20.1555 68.0926 20.2532 68.0938 20.2732C68.1068 20.4978 68.1557 20.7196 68.209 20.9381C68.5776 22.4482 69.1846 24.3966 69.638 25.7878C70.4587 28.3068 71.1423 31.3311 73.1607 33.2113C73.6757 33.6911 74.1215 34.0654 74.8014 34.2354" stroke="#4A3128" stroke-width="0.833937" stroke-linecap="round"/>
<path d="M73.8369 20.4844C73.7767 21.956 74.036 23.4641 74.2793 24.9052C74.6145 26.891 74.9518 29.03 75.8583 30.8595C76.1078 31.3628 76.4624 31.9002 77.0218 31.7281" stroke="#4A3128" stroke-width="0.833937" stroke-linecap="round"/>
<path d="M76.3946 21.1602C76.2275 21.5109 76.2405 21.567 76.2525 22.0877C76.3066 24.4385 76.538 26.8297 76.9146 29.1493C77.0881 30.2174 77.2269 31.5526 78.1237 32.2966C78.3414 32.4772 78.5682 32.6 78.8074 32.7417" stroke="#4A3128" stroke-width="0.833937" stroke-linecap="round"/>
<path d="M80.7821 20.9141C80.5737 21.2891 80.4949 21.2791 80.4148 21.8497C80.104 24.0642 79.9711 26.3524 80.0422 28.5868C80.0651 29.3081 80.1099 30.5331 80.514 31.2731C80.6991 31.612 80.8751 31.4732 81.1199 31.6752" stroke="#4A3128" stroke-width="0.833937" stroke-linecap="round"/>
<path d="M84.3547 21.8359C84.3506 21.9091 84.3347 21.9718 84.3064 22.0397C84.0667 22.6149 83.7867 23.1713 83.5504 23.7501C83.0966 24.8614 82.5197 26.3241 82.1778 27.4712C81.9929 28.0915 81.763 28.8947 81.8453 29.5838C81.8721 29.808 82.088 30.0604 82.2314 30.2325" stroke="#4A3128" stroke-width="0.833937" stroke-linecap="round"/>
<path d="M88.0497 22.1172C87.019 23.3405 86.5142 24.7068 85.9934 26.2217C85.7595 26.9022 85.5433 27.5893 85.3527 28.2833C83.3297 35.6475 85.8999 26.3392 85.0096 30.369" stroke="#4A3128" stroke-width="0.833937" stroke-linecap="round"/>
<path d="M90.5087 23.9062C89.945 24.1881 89.7847 24.7125 89.5115 25.3003C88.9204 26.5718 88.3363 27.883 87.9297 29.2278C87.8216 29.5855 87.8285 29.5813 87.9029 29.8418" stroke="#4A3128" stroke-width="0.833937" stroke-linecap="round"/>
<path d="M75.8861 38.0977C75.8399 38.2055 75.7657 38.3857 75.7789 38.4998C75.8751 39.3319 76.3466 41.172 76.4652 41.6257C77.0329 43.7968 78.0553 47.4306 78.7815 49.5022C79.8901 52.6645 81.2234 55.6541 84.1862 57.4592C85.0018 57.9561 86.1412 58.3856 87.0923 58.5583C88.9901 58.903 87.4606 58.4493 89.1566 58.5583" stroke="#4A3128" stroke-width="0.833937" stroke-linecap="round"/>
<path d="M73.5715 39.7852C73.4826 39.7877 73.3947 39.788 73.3088 39.8146C73.2831 39.8226 73.2405 39.8181 73.2337 39.8441C73.0521 40.5452 73.0814 41.2863 73.0675 42.0103C73.0098 45.0097 73.067 48.0388 73.7967 50.9672C74.2946 52.965 75.2682 54.8623 76.2203 56.6749C77.4021 58.9248 78.8206 61.0648 80.8368 62.6533C82.5401 63.9953 84.6656 64.6971 86.649 65.5058" stroke="#4A3128" stroke-width="0.833937" stroke-linecap="round"/>
<path d="M75.4579 39.0117C75.3607 39.5297 75.7158 39.9196 75.9324 40.4406C78.031 45.489 80.1928 50.5385 82.6051 55.4457C83.561 57.3901 84.8458 60.6545 86.9804 61.8664C87.6416 62.2418 88.3049 62.3521 89.0179 62.5608" stroke="#4A3128" stroke-width="0.833937" stroke-linecap="round"/>
<path d="M77.4306 36.4531C77.3774 36.5205 77.3544 36.5556 77.3743 36.6461C77.4625 37.048 77.9487 37.6852 78.0204 37.8016C79.5699 40.3178 80.9578 42.4934 82.6556 44.9972C83.7368 46.5917 84.8152 48.1897 85.9665 49.7343C87.2332 51.4337 88.8543 53.5323 90.6099 54.887C91.1737 55.3222 92.4664 55.8799 93.1835 56.0827C94.5397 56.4664 93.9897 56.1359 95.3336 56.383" stroke="#4A3128" stroke-width="0.833937" stroke-linecap="round"/>
<path d="M81.1914 35.9219C81.4847 36.2369 81.6913 36.5941 81.9447 36.9567C84.4005 40.4707 86.8325 44.0688 89.647 47.3104C90.4013 48.1792 91.1913 49.0304 92.0893 49.75C93.2567 50.6855 93.5722 50.6504 94.7889 50.4148C95.5812 50.2614 96.236 49.9224 96.9712 49.6267" stroke="#4A3128" stroke-width="0.833937" stroke-linecap="round"/>
<path d="M80.8545 35.0117C80.5973 35.5715 81.3442 37.3282 81.4067 37.5264C82.5905 41.2748 83.7101 45.3151 85.9535 48.5985C87.328 50.6101 89.2494 52.5045 91.3261 53.7888C91.9576 54.1794 92.9189 54.6339 93.637 54.8772C95.4358 55.4867 93.6456 54.794 95.1866 55.1829" stroke="#4A3128" stroke-width="0.833937" stroke-linecap="round"/>
<path d="M82.4961 32.9844C85.5416 38.1729 88.0027 43.7361 91.7452 48.4961C93.1441 50.2753 94.9523 51.6017 97.1177 52.2386" stroke="#4A3128" stroke-width="0.833937" stroke-linecap="round"/>
<path d="M86.6035 31.8711C86.3273 32.1319 86.6136 32.3864 86.7777 32.7826C88.0509 35.8555 89.5461 38.8689 91.0913 41.8119C91.9495 43.4464 92.808 45.2165 94.236 46.4445C95.0783 47.1689 95.9892 47.5355 96.9303 48.0852" stroke="#4A3128" stroke-width="0.833937" stroke-linecap="round"/>
<path d="M88.4297 31.4844C88.5695 31.8417 88.7142 32.1717 88.8747 32.5326C89.7867 34.5826 90.4578 36.0916 91.5074 38.2C92.5957 40.3863 93.7187 42.6725 95.1936 44.6449C96.4304 46.299 98.2902 47.3812 100.301 47.7467" stroke="#4A3128" stroke-width="0.833937" stroke-linecap="round"/>
<path d="M87.7539 30.9502C87.9949 30.8328 88.151 30.7888 88.4456 30.7223C90.4225 30.2764 92.4249 29.9393 94.4133 29.5508" stroke="#4A3128" stroke-width="0.833937" stroke-linecap="round"/>
<path d="M88.5312 31.583C89.6722 31.5232 89.8908 31.4507 91.1049 31.6849C93.5382 32.1542 92.7101 32.2309 95.2871 32.8859" stroke="#4A3128" stroke-width="0.833937" stroke-linecap="round"/>
<path d="M90.1719 33.3203C93.2197 35.5322 96.4428 37.5173 99.5818 39.5936" stroke="#4A3128" stroke-width="0.833937" stroke-linecap="round"/>
<path d="M79.5547 35.4396C79.5771 35.4117 79.6974 35.1263 79.6995 35.2359C79.6999 35.2594 79.6988 35.4746 79.6995 35.4772C80.3122 38.065 81.2854 40.7342 82.2356 43.1848C83.5772 46.6451 84.5873 49.047 86.466 52.1926C87.0041 53.0936 87.6205 53.9482 88.2676 54.7743C89.8671 56.8163 88.9671 55.3581 90.3158 56.7689" stroke="#4A3128" stroke-width="0.833937" stroke-linecap="round"/>
<path d="M85.0987 32.7383C84.5413 32.7383 84.7568 32.7399 85.0666 33.6954C86.4359 37.9202 87.9968 42.1179 89.8171 46.1696C90.8032 48.3645 91.7719 50.4653 93.4953 52.1373" stroke="#4A3128" stroke-width="0.833937" stroke-linecap="round"/>
<defs>
<filter id="filter0_f_17167_10792" x="52.501" y="5.5401" width="75.412" height="85.4882" filterUnits="userSpaceOnUse" color-interpolation-filters="sRGB">
<feFlood flood-opacity="0" result="BackgroundImageFix"/>
<feBlend mode="normal" in="SourceGraphic" in2="BackgroundImageFix" result="shape"/>
<feGaussianBlur stdDeviation="9.17331" result="effect1_foregroundBlur_17167_10792"/>
</filter>
<filter id="filter1_f_17167_10792" x="1.54791" y="0.610409" width="106.053" height="70.7557" filterUnits="userSpaceOnUse" color-interpolation-filters="sRGB">
<feFlood flood-opacity="0" result="BackgroundImageFix"/>
<feBlend mode="normal" in="SourceGraphic" in2="BackgroundImageFix" result="shape"/>
<feGaussianBlur stdDeviation="9.17331" result="effect1_foregroundBlur_17167_10792"/>
</filter>
</defs>
</svg>
