<svg width="120" height="146" viewBox="0 0 120 146" fill="none" xmlns="http://www.w3.org/2000/svg">
<path fill-rule="evenodd" clip-rule="evenodd" d="M48.6193 140.022C74.233 146.802 102.625 123.826 112.034 88.7041C121.444 53.582 104.834 17.4325 79.2207 10.6523C53.607 3.87212 5.99084 13.6615 15.8057 61.9699C15.2007 63.1866 14.6483 64.4075 14.1465 65.6309C12.7201 65.571 11.2428 66.1011 10.0911 67.4039L6.46162 71.5094C4.20123 74.0662 4.99579 78.0542 8.06189 79.5412L10.4094 80.6798C7.73408 108.543 27.6731 134.477 48.6193 140.022Z" fill="#C09A73"/>
<path d="M27.57 1.24278C2.85264 -2.61217 4.23213 12.1085 8.01155 19.9506C12.7736 28.1141 16.9877 32.0446 18.4995 32.9894L34.7274 17.4993C55.363 28.8374 56.1992 38.8474 56.1992 43.4772C60.7345 64.3392 73.5845 64.6416 79.4426 62.185C80.9544 63.5078 80.293 69.2146 65.5532 81.4598L103.032 111.912C130.362 87.5254 118.652 56.1277 109.381 43.4772C98.5786 35.635 71.3143 19.8722 68.8709 9.72556C65.5532 -4.05101 38.6363 0.662018 27.57 1.24278Z" fill="#4A3128"/>
</svg>
