<svg width="416" height="95" viewBox="0 0 416 95" fill="none" xmlns="http://www.w3.org/2000/svg">
<rect x="0.5" y="0.974609" width="415" height="93" rx="11.5" stroke="#CCCCCC" stroke-opacity="0.8"/>
<path d="M17.0114 29.4746V17.8382H21.6705C22.5265 17.8382 23.2405 17.9651 23.8125 18.2189C24.3845 18.4727 24.8144 18.825 25.1023 19.2757C25.3902 19.7227 25.5341 20.2379 25.5341 20.8212C25.5341 21.2757 25.4432 21.6754 25.2614 22.0201C25.0795 22.361 24.8295 22.6413 24.5114 22.861C24.197 23.0769 23.8371 23.2303 23.4318 23.3212V23.4348C23.875 23.4538 24.2898 23.5788 24.6761 23.8098C25.0663 24.0409 25.3826 24.3648 25.625 24.7814C25.8674 25.1943 25.9886 25.6867 25.9886 26.2587C25.9886 26.8761 25.8352 27.4273 25.5284 27.9121C25.2254 28.3932 24.7765 28.7739 24.1818 29.0542C23.5871 29.3345 22.8542 29.4746 21.983 29.4746H17.0114ZM19.4716 27.4632H21.4773C22.1629 27.4632 22.6629 27.3326 22.9773 27.0712C23.2917 26.806 23.4489 26.4538 23.4489 26.0144C23.4489 25.6924 23.3712 25.4083 23.2159 25.1621C23.0606 24.9159 22.839 24.7227 22.5511 24.5826C22.267 24.4424 21.928 24.3723 21.5341 24.3723H19.4716V27.4632ZM19.4716 22.7076H21.2955C21.6326 22.7076 21.9318 22.6489 22.1932 22.5314C22.4583 22.4102 22.6667 22.2398 22.8182 22.0201C22.9735 21.8004 23.0511 21.5371 23.0511 21.2303C23.0511 20.8098 22.9015 20.4708 22.6023 20.2132C22.3068 19.9557 21.8864 19.8269 21.3409 19.8269H19.4716V22.7076ZM31.6013 29.6451C30.7036 29.6451 29.9309 29.4632 29.2831 29.0996C28.6392 28.7322 28.143 28.2132 27.7945 27.5428C27.446 26.8685 27.2718 26.0712 27.2718 25.1507C27.2718 24.253 27.446 23.4651 27.7945 22.7871C28.143 22.1091 28.6335 21.5807 29.2661 21.2019C29.9024 20.8231 30.6487 20.6337 31.5047 20.6337C32.0805 20.6337 32.6165 20.7265 33.1127 20.9121C33.6127 21.0939 34.0483 21.3685 34.4195 21.736C34.7945 22.1034 35.0862 22.5655 35.2945 23.1223C35.5028 23.6754 35.607 24.3231 35.607 25.0655V25.7303H28.2377V24.2303H33.3286C33.3286 23.8818 33.2528 23.5731 33.1013 23.3042C32.9498 23.0352 32.7396 22.825 32.4706 22.6735C32.2055 22.5182 31.8968 22.4405 31.5445 22.4405C31.1771 22.4405 30.8513 22.5257 30.5672 22.6962C30.2869 22.8629 30.0672 23.0882 29.9081 23.3723C29.749 23.6526 29.6676 23.9651 29.6638 24.3098V25.736C29.6638 26.1678 29.7434 26.5409 29.9024 26.8553C30.0653 27.1697 30.2945 27.4121 30.5899 27.5826C30.8854 27.753 31.2358 27.8382 31.6411 27.8382C31.91 27.8382 32.1562 27.8004 32.3797 27.7246C32.6032 27.6489 32.7945 27.5352 32.9536 27.3837C33.1127 27.2322 33.2339 27.0466 33.3172 26.8269L35.5559 26.9746C35.4422 27.5125 35.2093 27.9822 34.857 28.3837C34.5085 28.7814 34.0577 29.092 33.5047 29.3155C32.9555 29.5352 32.321 29.6451 31.6013 29.6451ZM44.5279 23.236L42.312 23.3723C42.2741 23.1829 42.1927 23.0125 42.0677 22.861C41.9427 22.7057 41.7779 22.5826 41.5734 22.4917C41.3726 22.397 41.1321 22.3496 40.8518 22.3496C40.4768 22.3496 40.1605 22.4292 39.9029 22.5882C39.6453 22.7435 39.5165 22.9519 39.5165 23.2132C39.5165 23.4216 39.5999 23.5977 39.7665 23.7417C39.9332 23.8856 40.2192 24.0011 40.6245 24.0882L42.204 24.4064C43.0525 24.5807 43.6851 24.861 44.1018 25.2473C44.5184 25.6337 44.7268 26.1413 44.7268 26.7701C44.7268 27.342 44.5582 27.8439 44.2211 28.2757C43.8877 28.7076 43.4294 29.0447 42.8461 29.2871C42.2665 29.5257 41.598 29.6451 40.8404 29.6451C39.6851 29.6451 38.7646 29.4045 38.079 28.9235C37.3972 28.4386 36.9976 27.7795 36.8802 26.9462L39.2609 26.8212C39.3328 27.1735 39.5071 27.4424 39.7836 27.628C40.0601 27.8098 40.4143 27.9007 40.8461 27.9007C41.2703 27.9007 41.6112 27.8193 41.8688 27.6564C42.1302 27.4898 42.2627 27.2757 42.2665 27.0144C42.2627 26.7947 42.1699 26.6148 41.9881 26.4746C41.8063 26.3307 41.526 26.2208 41.1472 26.1451L39.6359 25.8439C38.7836 25.6735 38.1491 25.378 37.7324 24.9576C37.3196 24.5371 37.1131 24.0011 37.1131 23.3496C37.1131 22.789 37.2646 22.306 37.5677 21.9007C37.8745 21.4954 38.3044 21.1829 38.8574 20.9632C39.4143 20.7435 40.0658 20.6337 40.812 20.6337C41.9143 20.6337 42.7817 20.8667 43.4143 21.3326C44.0506 21.7985 44.4218 22.4329 44.5279 23.236ZM50.973 20.7473V22.5655H45.7173V20.7473H50.973ZM46.9105 18.6564H49.3309V26.7928C49.3309 27.0163 49.365 27.1905 49.4332 27.3155C49.5014 27.4367 49.5961 27.522 49.7173 27.5712C49.8423 27.6204 49.9862 27.6451 50.1491 27.6451C50.2627 27.6451 50.3764 27.6356 50.49 27.6167C50.6036 27.5939 50.6908 27.5769 50.7514 27.5655L51.132 29.3667C51.0108 29.4045 50.8404 29.4481 50.6207 29.4973C50.401 29.5504 50.1339 29.5826 49.8195 29.5939C49.2362 29.6167 48.7248 29.539 48.2855 29.361C47.8498 29.1829 47.5108 28.9064 47.2684 28.5314C47.026 28.1564 46.9067 27.6829 46.9105 27.111V18.6564ZM56.4582 29.4746V17.8382H64.1628V19.8667H58.9185V22.6394H63.6514V24.6678H58.9185V29.4746H56.4582ZM69.1547 29.6451C68.2721 29.6451 67.5089 29.4576 66.8649 29.0826C66.2248 28.7038 65.7305 28.1773 65.382 27.503C65.0335 26.825 64.8593 26.039 64.8593 25.1451C64.8593 24.2435 65.0335 23.4557 65.382 22.7814C65.7305 22.1034 66.2248 21.5769 66.8649 21.2019C67.5089 20.8231 68.2721 20.6337 69.1547 20.6337C70.0373 20.6337 70.7987 20.8231 71.4388 21.2019C72.0827 21.5769 72.579 22.1034 72.9274 22.7814C73.2759 23.4557 73.4502 24.2435 73.4502 25.1451C73.4502 26.039 73.2759 26.825 72.9274 27.503C72.579 28.1773 72.0827 28.7038 71.4388 29.0826C70.7987 29.4576 70.0373 29.6451 69.1547 29.6451ZM69.1661 27.7701C69.5676 27.7701 69.9028 27.6564 70.1718 27.4292C70.4407 27.1981 70.6434 26.8837 70.7797 26.486C70.9199 26.0882 70.9899 25.6356 70.9899 25.128C70.9899 24.6204 70.9199 24.1678 70.7797 23.7701C70.6434 23.3723 70.4407 23.0579 70.1718 22.8269C69.9028 22.5958 69.5676 22.4803 69.1661 22.4803C68.7608 22.4803 68.4199 22.5958 68.1434 22.8269C67.8706 23.0579 67.6642 23.3723 67.524 23.7701C67.3877 24.1678 67.3195 24.6204 67.3195 25.128C67.3195 25.6356 67.3877 26.0882 67.524 26.486C67.6642 26.8837 67.8706 27.1981 68.1434 27.4292C68.4199 27.6564 68.7608 27.7701 69.1661 27.7701ZM75.104 29.4746V20.7473H77.4506V22.2701H77.5415C77.7006 21.7284 77.9677 21.3193 78.3427 21.0428C78.7177 20.7625 79.1495 20.6223 79.6381 20.6223C79.7593 20.6223 79.89 20.6299 80.0302 20.6451C80.1703 20.6602 80.2934 20.681 80.3995 20.7076V22.8553C80.2859 22.8212 80.1287 22.7909 79.9279 22.7644C79.7271 22.7379 79.5434 22.7246 79.3768 22.7246C79.0207 22.7246 78.7025 22.8023 78.4222 22.9576C78.1457 23.1091 77.926 23.3212 77.7631 23.5939C77.604 23.8667 77.5245 24.181 77.5245 24.5371V29.4746H75.104Z" fill="#848484" fill-opacity="0.7"/>
<path d="M17.0114 55.4746V43.8382H21.6705C22.5265 43.8382 23.2405 43.9651 23.8125 44.2189C24.3845 44.4727 24.8144 44.825 25.1023 45.2757C25.3902 45.7227 25.5341 46.2379 25.5341 46.8212C25.5341 47.2757 25.4432 47.6754 25.2614 48.0201C25.0795 48.361 24.8295 48.6413 24.5114 48.861C24.197 49.0769 23.8371 49.2303 23.4318 49.3212V49.4348C23.875 49.4538 24.2898 49.5788 24.6761 49.8098C25.0663 50.0409 25.3826 50.3648 25.625 50.7814C25.8674 51.1943 25.9886 51.6867 25.9886 52.2587C25.9886 52.8761 25.8352 53.4273 25.5284 53.9121C25.2254 54.3932 24.7765 54.7739 24.1818 55.0542C23.5871 55.3345 22.8542 55.4746 21.983 55.4746H17.0114ZM19.4716 53.4632H21.4773C22.1629 53.4632 22.6629 53.3326 22.9773 53.0712C23.2917 52.806 23.4489 52.4538 23.4489 52.0144C23.4489 51.6924 23.3712 51.4083 23.2159 51.1621C23.0606 50.9159 22.839 50.7227 22.5511 50.5826C22.267 50.4424 21.928 50.3723 21.5341 50.3723H19.4716V53.4632ZM19.4716 48.7076H21.2955C21.6326 48.7076 21.9318 48.6489 22.1932 48.5314C22.4583 48.4102 22.6667 48.2398 22.8182 48.0201C22.9735 47.8004 23.0511 47.5371 23.0511 47.2303C23.0511 46.8098 22.9015 46.4708 22.6023 46.2132C22.3068 45.9557 21.8864 45.8269 21.3409 45.8269H19.4716V48.7076ZM31.6013 55.6451C30.7036 55.6451 29.9309 55.4632 29.2831 55.0996C28.6392 54.7322 28.143 54.2132 27.7945 53.5428C27.446 52.8685 27.2718 52.0712 27.2718 51.1507C27.2718 50.253 27.446 49.4651 27.7945 48.7871C28.143 48.1091 28.6335 47.5807 29.2661 47.2019C29.9024 46.8231 30.6487 46.6337 31.5047 46.6337C32.0805 46.6337 32.6165 46.7265 33.1127 46.9121C33.6127 47.0939 34.0483 47.3685 34.4195 47.736C34.7945 48.1034 35.0862 48.5655 35.2945 49.1223C35.5028 49.6754 35.607 50.3231 35.607 51.0655V51.7303H28.2377V50.2303H33.3286C33.3286 49.8818 33.2528 49.5731 33.1013 49.3042C32.9498 49.0352 32.7396 48.825 32.4706 48.6735C32.2055 48.5182 31.8968 48.4405 31.5445 48.4405C31.1771 48.4405 30.8513 48.5257 30.5672 48.6962C30.2869 48.8629 30.0672 49.0882 29.9081 49.3723C29.749 49.6526 29.6676 49.9651 29.6638 50.3098V51.736C29.6638 52.1678 29.7434 52.5409 29.9024 52.8553C30.0653 53.1697 30.2945 53.4121 30.5899 53.5826C30.8854 53.753 31.2358 53.8382 31.6411 53.8382C31.91 53.8382 32.1562 53.8004 32.3797 53.7246C32.6032 53.6489 32.7945 53.5352 32.9536 53.3837C33.1127 53.2322 33.2339 53.0466 33.3172 52.8269L35.5559 52.9746C35.4422 53.5125 35.2093 53.9822 34.857 54.3837C34.5085 54.7814 34.0577 55.092 33.5047 55.3155C32.9555 55.5352 32.321 55.6451 31.6013 55.6451ZM41.9086 46.7473V48.5655H36.6529V46.7473H41.9086ZM37.8461 44.6564H40.2665V52.7928C40.2665 53.0163 40.3006 53.1905 40.3688 53.3155C40.437 53.4367 40.5317 53.522 40.6529 53.5712C40.7779 53.6204 40.9218 53.6451 41.0847 53.6451C41.1984 53.6451 41.312 53.6356 41.4256 53.6167C41.5393 53.5939 41.6264 53.5769 41.687 53.5655L42.0677 55.3667C41.9465 55.4045 41.776 55.4481 41.5563 55.4973C41.3366 55.5504 41.0696 55.5826 40.7552 55.5939C40.1718 55.6167 39.6605 55.539 39.2211 55.361C38.7855 55.1829 38.4465 54.9064 38.204 54.5314C37.9616 54.1564 37.8423 53.6829 37.8461 53.111V44.6564ZM48.2073 46.7473V48.5655H42.9516V46.7473H48.2073ZM44.1448 44.6564H46.5653V52.7928C46.5653 53.0163 46.5994 53.1905 46.6676 53.3155C46.7357 53.4367 46.8304 53.522 46.9516 53.5712C47.0766 53.6204 47.2206 53.6451 47.3835 53.6451C47.4971 53.6451 47.6107 53.6356 47.7244 53.6167C47.838 53.5939 47.9251 53.5769 47.9857 53.5655L48.3664 55.3667C48.2452 55.4045 48.0748 55.4481 47.8551 55.4973C47.6354 55.5504 47.3683 55.5826 47.0539 55.5939C46.4706 55.6167 45.9592 55.539 45.5198 55.361C45.0842 55.1829 44.7452 54.9064 44.5028 54.5314C44.2604 54.1564 44.141 53.6829 44.1448 53.111V44.6564ZM53.7476 55.6451C52.8498 55.6451 52.0771 55.4632 51.4294 55.0996C50.7854 54.7322 50.2892 54.2132 49.9407 53.5428C49.5923 52.8685 49.418 52.0712 49.418 51.1507C49.418 50.253 49.5923 49.4651 49.9407 48.7871C50.2892 48.1091 50.7798 47.5807 51.4123 47.2019C52.0487 46.8231 52.7949 46.6337 53.651 46.6337C54.2267 46.6337 54.7627 46.7265 55.2589 46.9121C55.7589 47.0939 56.1945 47.3685 56.5657 47.736C56.9407 48.1034 57.2324 48.5655 57.4407 49.1223C57.6491 49.6754 57.7532 50.3231 57.7532 51.0655V51.7303H50.3839V50.2303H55.4748C55.4748 49.8818 55.3991 49.5731 55.2476 49.3042C55.096 49.0352 54.8858 48.825 54.6169 48.6735C54.3517 48.5182 54.043 48.4405 53.6907 48.4405C53.3233 48.4405 52.9976 48.5257 52.7135 48.6962C52.4332 48.8629 52.2135 49.0882 52.0544 49.3723C51.8953 49.6526 51.8138 49.9651 51.8101 50.3098V51.736C51.8101 52.1678 51.8896 52.5409 52.0487 52.8553C52.2116 53.1697 52.4407 53.4121 52.7362 53.5826C53.0316 53.753 53.382 53.8382 53.7873 53.8382C54.0563 53.8382 54.3025 53.8004 54.526 53.7246C54.7495 53.6489 54.9407 53.5352 55.0998 53.3837C55.2589 53.2322 55.3801 53.0466 55.4635 52.8269L57.7021 52.9746C57.5885 53.5125 57.3555 53.9822 57.0032 54.3837C56.6548 54.7814 56.204 55.092 55.651 55.3155C55.1017 55.5352 54.4673 55.6451 53.7476 55.6451ZM59.4128 55.4746V46.7473H61.7594V48.2701H61.8503C62.0094 47.7284 62.2764 47.3193 62.6514 47.0428C63.0264 46.7625 63.4582 46.6223 63.9469 46.6223C64.0681 46.6223 64.1988 46.6299 64.3389 46.6451C64.4791 46.6602 64.6022 46.681 64.7082 46.7076V48.8553C64.5946 48.8212 64.4374 48.7909 64.2366 48.7644C64.0359 48.7379 63.8522 48.7246 63.6855 48.7246C63.3295 48.7246 63.0113 48.8023 62.731 48.9576C62.4545 49.1091 62.2348 49.3212 62.0719 49.5939C61.9128 49.8667 61.8332 50.181 61.8332 50.5371V55.4746H59.4128ZM77.0841 49.236L74.8682 49.3723C74.8304 49.1829 74.7489 49.0125 74.6239 48.861C74.4989 48.7057 74.3341 48.5826 74.1296 48.4917C73.9288 48.397 73.6883 48.3496 73.408 48.3496C73.033 48.3496 72.7167 48.4292 72.4591 48.5882C72.2016 48.7435 72.0728 48.9519 72.0728 49.2132C72.0728 49.4216 72.1561 49.5977 72.3228 49.7417C72.4895 49.8856 72.7754 50.0011 73.1807 50.0882L74.7603 50.4064C75.6088 50.5807 76.2413 50.861 76.658 51.2473C77.0747 51.6337 77.283 52.1413 77.283 52.7701C77.283 53.342 77.1145 53.8439 76.7773 54.2757C76.444 54.7076 75.9857 55.0447 75.4023 55.2871C74.8228 55.5257 74.1542 55.6451 73.3966 55.6451C72.2413 55.6451 71.3209 55.4045 70.6353 54.9235C69.9535 54.4386 69.5538 53.7795 69.4364 52.9462L71.8171 52.8212C71.8891 53.1735 72.0633 53.4424 72.3398 53.628C72.6163 53.8098 72.9705 53.9007 73.4023 53.9007C73.8266 53.9007 74.1675 53.8193 74.4251 53.6564C74.6864 53.4898 74.819 53.2757 74.8228 53.0144C74.819 52.7947 74.7262 52.6148 74.5444 52.4746C74.3626 52.3307 74.0823 52.2208 73.7035 52.1451L72.1921 51.8439C71.3398 51.6735 70.7054 51.378 70.2887 50.9576C69.8758 50.5371 69.6694 50.0011 69.6694 49.3496C69.6694 48.789 69.8209 48.306 70.1239 47.9007C70.4307 47.4954 70.8607 47.1829 71.4137 46.9632C71.9705 46.7435 72.622 46.6337 73.3682 46.6337C74.4705 46.6337 75.3379 46.8667 75.9705 47.3326C76.6069 47.7985 76.9781 48.4329 77.0841 49.236ZM82.8644 55.6451C81.9667 55.6451 81.194 55.4632 80.5462 55.0996C79.9023 54.7322 79.4061 54.2132 79.0576 53.5428C78.7091 52.8685 78.5349 52.0712 78.5349 51.1507C78.5349 50.253 78.7091 49.4651 79.0576 48.7871C79.4061 48.1091 79.8966 47.5807 80.5292 47.2019C81.1656 46.8231 81.9118 46.6337 82.7678 46.6337C83.3436 46.6337 83.8796 46.7265 84.3758 46.9121C84.8758 47.0939 85.3114 47.3685 85.6826 47.736C86.0576 48.1034 86.3493 48.5655 86.5576 49.1223C86.7659 49.6754 86.8701 50.3231 86.8701 51.0655V51.7303H79.5008V50.2303H84.5917C84.5917 49.8818 84.5159 49.5731 84.3644 49.3042C84.2129 49.0352 84.0027 48.825 83.7337 48.6735C83.4686 48.5182 83.1599 48.4405 82.8076 48.4405C82.4402 48.4405 82.1144 48.5257 81.8303 48.6962C81.55 48.8629 81.3303 49.0882 81.1712 49.3723C81.0122 49.6526 80.9307 49.9651 80.9269 50.3098V51.736C80.9269 52.1678 81.0065 52.5409 81.1656 52.8553C81.3284 53.1697 81.5576 53.4121 81.8531 53.5826C82.1485 53.753 82.4989 53.8382 82.9042 53.8382C83.1731 53.8382 83.4194 53.8004 83.6428 53.7246C83.8663 53.6489 84.0576 53.5352 84.2167 53.3837C84.3758 53.2322 84.497 53.0466 84.5803 52.8269L86.819 52.9746C86.7053 53.5125 86.4724 53.9822 86.1201 54.3837C85.7716 54.7814 85.3209 55.092 84.7678 55.3155C84.2186 55.5352 83.5841 55.6451 82.8644 55.6451ZM90.3961 46.7473L91.9984 49.7985L93.6405 46.7473H96.1234L93.595 51.111L96.1916 55.4746H93.72L91.9984 52.4576L90.3052 55.4746H87.8052L90.3961 51.111L87.8961 46.7473H90.3961ZM100.272 53.8837L100.209 54.5087C100.16 55.0087 100.065 55.5068 99.925 56.003C99.7886 56.503 99.6447 56.9557 99.4932 57.361C99.3455 57.7663 99.2261 58.0845 99.1352 58.3155H97.567C97.6239 58.092 97.7015 57.7795 97.8 57.378C97.8985 56.9803 97.9913 56.5333 98.0784 56.0371C98.1655 55.5409 98.2205 55.0352 98.2432 54.5201L98.2716 53.8837H100.272ZM17.0114 77.4746V65.8382H19.4318V70.2132H19.5057C19.6117 69.9784 19.7652 69.7398 19.9659 69.4973C20.1705 69.2511 20.4356 69.0466 20.7614 68.8837C21.0909 68.717 21.5 68.6337 21.9886 68.6337C22.625 68.6337 23.2121 68.8004 23.75 69.1337C24.2879 69.4632 24.7178 69.9614 25.0398 70.628C25.3617 71.2909 25.5227 72.1223 25.5227 73.1223C25.5227 74.0958 25.3655 74.9178 25.0511 75.5882C24.7405 76.2549 24.3163 76.7606 23.7784 77.1053C23.2443 77.4462 22.6458 77.6167 21.983 77.6167C21.5133 77.6167 21.1136 77.539 20.7841 77.3837C20.4583 77.2284 20.1913 77.0333 19.983 76.7985C19.7746 76.5598 19.6155 76.3193 19.5057 76.0769H19.3977V77.4746H17.0114ZM19.3807 73.111C19.3807 73.6299 19.4527 74.0826 19.5966 74.4689C19.7405 74.8553 19.9489 75.1564 20.2216 75.3723C20.4943 75.5845 20.8258 75.6905 21.2159 75.6905C21.6098 75.6905 21.9432 75.5826 22.2159 75.3667C22.4886 75.147 22.6951 74.8439 22.8352 74.4576C22.9792 74.0674 23.0511 73.6185 23.0511 73.111C23.0511 72.6072 22.9811 72.164 22.8409 71.7814C22.7008 71.3989 22.4943 71.0996 22.2216 70.8837C21.9489 70.6678 21.6136 70.5598 21.2159 70.5598C20.822 70.5598 20.4886 70.664 20.2159 70.8723C19.947 71.0807 19.7405 71.3761 19.5966 71.7587C19.4527 72.1413 19.3807 72.592 19.3807 73.111ZM31.1951 77.6451C30.2973 77.6451 29.5246 77.4632 28.8769 77.0996C28.2329 76.7322 27.7367 76.2132 27.3882 75.5428C27.0398 74.8685 26.8655 74.0712 26.8655 73.1507C26.8655 72.253 27.0398 71.4651 27.3882 70.7871C27.7367 70.1091 28.2273 69.5807 28.8598 69.2019C29.4962 68.8231 30.2424 68.6337 31.0985 68.6337C31.6742 68.6337 32.2102 68.7265 32.7064 68.9121C33.2064 69.0939 33.642 69.3685 34.0132 69.736C34.3882 70.1034 34.6799 70.5655 34.8882 71.1223C35.0966 71.6754 35.2007 72.3231 35.2007 73.0655V73.7303H27.8314V72.2303H32.9223C32.9223 71.8818 32.8466 71.5731 32.6951 71.3042C32.5435 71.0352 32.3333 70.825 32.0644 70.6735C31.7992 70.5182 31.4905 70.4405 31.1382 70.4405C30.7708 70.4405 30.4451 70.5257 30.161 70.6962C29.8807 70.8629 29.661 71.0882 29.5019 71.3723C29.3428 71.6526 29.2613 71.9651 29.2576 72.3098V73.736C29.2576 74.1678 29.3371 74.5409 29.4962 74.8553C29.6591 75.1697 29.8882 75.4121 30.1837 75.5826C30.4791 75.753 30.8295 75.8382 31.2348 75.8382C31.5038 75.8382 31.75 75.8004 31.9735 75.7246C32.197 75.6489 32.3882 75.5352 32.5473 75.3837C32.7064 75.2322 32.8276 75.0466 32.911 74.8269L35.1496 74.9746C35.036 75.5125 34.803 75.9822 34.4507 76.3837C34.1023 76.7814 33.6515 77.092 33.0985 77.3155C32.5492 77.5352 31.9148 77.6451 31.1951 77.6451ZM41.5023 68.7473V70.5655H36.2466V68.7473H41.5023ZM37.4398 66.6564H39.8603V74.7928C39.8603 75.0163 39.8944 75.1905 39.9626 75.3155C40.0307 75.4367 40.1254 75.522 40.2466 75.5712C40.3716 75.6204 40.5156 75.6451 40.6785 75.6451C40.7921 75.6451 40.9057 75.6356 41.0194 75.6167C41.133 75.5939 41.2201 75.5769 41.2807 75.5655L41.6614 77.3667C41.5402 77.4045 41.3698 77.4481 41.1501 77.4973C40.9304 77.5504 40.6633 77.5826 40.3489 77.5939C39.7656 77.6167 39.2542 77.539 38.8148 77.361C38.3792 77.1829 38.0402 76.9064 37.7978 76.5314C37.5554 76.1564 37.436 75.6829 37.4398 75.111V66.6564ZM47.8011 68.7473V70.5655H42.5454V68.7473H47.8011ZM43.7386 66.6564H46.159V74.7928C46.159 75.0163 46.1931 75.1905 46.2613 75.3155C46.3295 75.4367 46.4242 75.522 46.5454 75.5712C46.6704 75.6204 46.8143 75.6451 46.9772 75.6451C47.0909 75.6451 47.2045 75.6356 47.3181 75.6167C47.4318 75.5939 47.5189 75.5769 47.5795 75.5655L47.9602 77.3667C47.839 77.4045 47.6685 77.4481 47.4488 77.4973C47.2291 77.5504 46.9621 77.5826 46.6477 77.5939C46.0643 77.6167 45.553 77.539 45.1136 77.361C44.678 77.1829 44.339 76.9064 44.0965 76.5314C43.8541 76.1564 43.7348 75.6829 43.7386 75.111V66.6564ZM53.3413 77.6451C52.4436 77.6451 51.6709 77.4632 51.0231 77.0996C50.3792 76.7322 49.883 76.2132 49.5345 75.5428C49.186 74.8685 49.0118 74.0712 49.0118 73.1507C49.0118 72.253 49.186 71.4651 49.5345 70.7871C49.883 70.1091 50.3735 69.5807 51.0061 69.2019C51.6424 68.8231 52.3887 68.6337 53.2447 68.6337C53.8205 68.6337 54.3565 68.7265 54.8527 68.9121C55.3527 69.0939 55.7883 69.3685 56.1595 69.736C56.5345 70.1034 56.8262 70.5655 57.0345 71.1223C57.2428 71.6754 57.347 72.3231 57.347 73.0655V73.7303H49.9777V72.2303H55.0686C55.0686 71.8818 54.9928 71.5731 54.8413 71.3042C54.6898 71.0352 54.4796 70.825 54.2106 70.6735C53.9455 70.5182 53.6368 70.4405 53.2845 70.4405C52.9171 70.4405 52.5913 70.5257 52.3072 70.6962C52.0269 70.8629 51.8072 71.0882 51.6481 71.3723C51.489 71.6526 51.4076 71.9651 51.4038 72.3098V73.736C51.4038 74.1678 51.4834 74.5409 51.6424 74.8553C51.8053 75.1697 52.0345 75.4121 52.3299 75.5826C52.6254 75.753 52.9758 75.8382 53.3811 75.8382C53.65 75.8382 53.8962 75.8004 54.1197 75.7246C54.3432 75.6489 54.5345 75.5352 54.6936 75.3837C54.8527 75.2322 54.9739 75.0466 55.0572 74.8269L57.2959 74.9746C57.1822 75.5125 56.9493 75.9822 56.597 76.3837C56.2485 76.7814 55.7977 77.092 55.2447 77.3155C54.6955 77.5352 54.061 77.6451 53.3413 77.6451ZM59.0065 77.4746V68.7473H61.3531V70.2701H61.444C61.6031 69.7284 61.8702 69.3193 62.2452 69.0428C62.6202 68.7625 63.052 68.6223 63.5406 68.6223C63.6618 68.6223 63.7925 68.6299 63.9327 68.6451C64.0728 68.6602 64.1959 68.681 64.302 68.7076V70.8553C64.1884 70.8212 64.0312 70.7909 63.8304 70.7644C63.6296 70.7379 63.4459 70.7246 63.2793 70.7246C62.9232 70.7246 62.605 70.8023 62.3247 70.9576C62.0482 71.1091 61.8285 71.3212 61.6656 71.5939C61.5065 71.8667 61.427 72.181 61.427 72.5371V77.4746H59.0065ZM71.837 72.4292V77.4746H69.4165V65.8382H71.7688V70.2871H71.8711C72.0681 69.772 72.3862 69.3685 72.8256 69.0769C73.265 68.7814 73.8162 68.6337 74.479 68.6337C75.0851 68.6337 75.6135 68.7663 76.0643 69.0314C76.5188 69.2928 76.8711 69.6697 77.1211 70.1621C77.3749 70.6507 77.4999 71.236 77.4961 71.9178V77.4746H75.0756V72.3496C75.0794 71.8117 74.9431 71.3932 74.6665 71.0939C74.3938 70.7947 74.0112 70.6451 73.5188 70.6451C73.1893 70.6451 72.8976 70.7151 72.6438 70.8553C72.3938 70.9954 72.1968 71.2 72.0529 71.4689C71.9127 71.7341 71.8408 72.0542 71.837 72.4292ZM81.9695 77.6394C81.4127 77.6394 80.9165 77.5428 80.4809 77.3496C80.0453 77.1526 79.7006 76.8629 79.4468 76.4803C79.1968 76.0939 79.0718 75.6129 79.0718 75.0371C79.0718 74.5523 79.1608 74.1451 79.3389 73.8155C79.5169 73.486 79.7593 73.2208 80.0661 73.0201C80.373 72.8193 80.7214 72.6678 81.1116 72.5655C81.5055 72.4632 81.9184 72.3913 82.3502 72.3496C82.8578 72.2966 83.2669 72.2473 83.5775 72.2019C83.8881 72.1526 84.1135 72.0807 84.2536 71.986C84.3938 71.8913 84.4639 71.7511 84.4639 71.5655V71.5314C84.4639 71.1716 84.3502 70.8932 84.123 70.6962C83.8995 70.4992 83.5813 70.4007 83.1684 70.4007C82.7328 70.4007 82.3862 70.4973 82.1286 70.6905C81.8711 70.8799 81.7006 71.1185 81.6173 71.4064L79.3786 71.2246C79.4923 70.6943 79.7158 70.236 80.0491 69.8496C80.3824 69.4595 80.8123 69.1602 81.3389 68.9519C81.8692 68.7398 82.4828 68.6337 83.1798 68.6337C83.6646 68.6337 84.1286 68.6905 84.5718 68.8042C85.0188 68.9178 85.4146 69.0939 85.7593 69.3326C86.1078 69.5712 86.3824 69.878 86.5832 70.253C86.7839 70.6242 86.8843 71.0693 86.8843 71.5882V77.4746H84.5889V76.2644H84.5207C84.3805 76.5371 84.193 76.7776 83.9582 76.986C83.7233 77.1905 83.4411 77.3515 83.1116 77.4689C82.782 77.5826 82.4014 77.6394 81.9695 77.6394ZM82.6627 75.9689C83.0188 75.9689 83.3332 75.8989 83.6059 75.7587C83.8786 75.6148 84.0927 75.4216 84.248 75.1792C84.4033 74.9367 84.4809 74.6621 84.4809 74.3553V73.4292C84.4052 73.4784 84.301 73.5239 84.1684 73.5655C84.0396 73.6034 83.8938 73.6394 83.7309 73.6735C83.568 73.7038 83.4052 73.7322 83.2423 73.7587C83.0794 73.7814 82.9317 73.8023 82.7991 73.8212C82.515 73.8629 82.2669 73.9292 82.0548 74.0201C81.8427 74.111 81.6779 74.2341 81.5605 74.3894C81.443 74.5409 81.3843 74.7303 81.3843 74.9576C81.3843 75.2871 81.5036 75.539 81.7423 75.7132C81.9847 75.8837 82.2915 75.9689 82.6627 75.9689ZM88.8422 77.4746V68.7473H91.2626V77.4746H88.8422ZM90.0581 67.6223C89.6982 67.6223 89.3895 67.503 89.1319 67.2644C88.8781 67.022 88.7513 66.7322 88.7513 66.3951C88.7513 66.0617 88.8781 65.7757 89.1319 65.5371C89.3895 65.2947 89.6982 65.1735 90.0581 65.1735C90.4179 65.1735 90.7247 65.2947 90.9785 65.5371C91.2361 65.7757 91.3649 66.0617 91.3649 66.3951C91.3649 66.7322 91.2361 67.022 90.9785 67.2644C90.7247 67.503 90.4179 67.6223 90.0581 67.6223ZM93.2815 77.4746V68.7473H95.6281V70.2701H95.719C95.8781 69.7284 96.1452 69.3193 96.5202 69.0428C96.8952 68.7625 97.327 68.6223 97.8156 68.6223C97.9368 68.6223 98.0675 68.6299 98.2077 68.6451C98.3478 68.6602 98.4709 68.681 98.577 68.7076V70.8553C98.4634 70.8212 98.3062 70.7909 98.1054 70.7644C97.9046 70.7379 97.7209 70.7246 97.5543 70.7246C97.1982 70.7246 96.88 70.8023 96.5997 70.9576C96.3232 71.1091 96.1035 71.3212 95.9406 71.5939C95.7815 71.8667 95.702 72.181 95.702 72.5371V77.4746H93.2815Z" fill="#1B1B1B"/>
<line x1="129.25" y1="8.47461" x2="129.25" y2="86.4746" stroke="#D8D8D8"/>
<path d="M155.824 32.1848C155.778 31.7265 155.583 31.3704 155.239 31.1167C154.894 30.8629 154.426 30.736 153.835 30.736C153.434 30.736 153.095 30.7928 152.818 30.9064C152.542 31.0163 152.33 31.1697 152.182 31.3667C152.038 31.5636 151.966 31.7871 151.966 32.0371C151.958 32.2454 152.002 32.4273 152.097 32.5826C152.195 32.7379 152.33 32.8723 152.5 32.986C152.67 33.0958 152.867 33.1924 153.091 33.2757C153.314 33.3553 153.553 33.4235 153.807 33.4803L154.852 33.7303C155.36 33.8439 155.826 33.9954 156.25 34.1848C156.674 34.3742 157.042 34.6072 157.352 34.8837C157.663 35.1602 157.903 35.486 158.074 35.861C158.248 36.236 158.337 36.6659 158.341 37.1507C158.337 37.8629 158.155 38.4803 157.795 39.003C157.439 39.522 156.924 39.9254 156.25 40.2132C155.58 40.4973 154.771 40.6394 153.824 40.6394C152.884 40.6394 152.066 40.4954 151.369 40.2076C150.676 39.9197 150.134 39.4935 149.744 38.9292C149.358 38.361 149.155 37.6583 149.136 36.8212H151.517C151.544 37.2114 151.655 37.5371 151.852 37.7985C152.053 38.056 152.32 38.2511 152.653 38.3837C152.991 38.5125 153.371 38.5769 153.795 38.5769C154.212 38.5769 154.574 38.5163 154.881 38.3951C155.191 38.2739 155.432 38.1053 155.602 37.8894C155.773 37.6735 155.858 37.4254 155.858 37.1451C155.858 36.8837 155.78 36.664 155.625 36.486C155.473 36.3079 155.25 36.1564 154.955 36.0314C154.663 35.9064 154.305 35.7928 153.881 35.6905L152.614 35.3723C151.633 35.1337 150.858 34.7606 150.29 34.253C149.722 33.7454 149.439 33.0617 149.443 32.2019C149.439 31.4973 149.627 30.8818 150.006 30.3553C150.388 29.8288 150.913 29.4178 151.58 29.1223C152.246 28.8269 153.004 28.6792 153.852 28.6792C154.716 28.6792 155.47 28.8269 156.114 29.1223C156.761 29.4178 157.265 29.8288 157.625 30.3553C157.985 30.8818 158.17 31.4917 158.182 32.1848H155.824ZM165.627 36.7587V31.7473H168.047V40.4746H165.723V38.8894H165.633C165.436 39.4007 165.108 39.8117 164.65 40.1223C164.195 40.4329 163.64 40.5882 162.985 40.5882C162.401 40.5882 161.888 40.4557 161.445 40.1905C161.002 39.9254 160.655 39.5485 160.405 39.0598C160.159 38.5712 160.034 37.986 160.03 37.3042V31.7473H162.451V36.8723C162.455 37.3875 162.593 37.7947 162.866 38.0939C163.138 38.3932 163.504 38.5428 163.962 38.5428C164.254 38.5428 164.526 38.4765 164.78 38.3439C165.034 38.2076 165.239 38.0068 165.394 37.7417C165.553 37.4765 165.631 37.1489 165.627 36.7587ZM170.063 43.7473V31.7473H172.45V33.2132H172.558C172.664 32.9784 172.817 32.7398 173.018 32.4973C173.223 32.2511 173.488 32.0466 173.813 31.8837C174.143 31.717 174.552 31.6337 175.041 31.6337C175.677 31.6337 176.264 31.8004 176.802 32.1337C177.34 32.4632 177.77 32.9614 178.092 33.628C178.414 34.2909 178.575 35.1223 178.575 36.1223C178.575 37.0958 178.418 37.9178 178.103 38.5882C177.793 39.2549 177.368 39.7606 176.83 40.1053C176.296 40.4462 175.698 40.6167 175.035 40.6167C174.565 40.6167 174.166 40.539 173.836 40.3837C173.51 40.2284 173.243 40.0333 173.035 39.7985C172.827 39.5598 172.668 39.3193 172.558 39.0769H172.484V43.7473H170.063ZM172.433 36.111C172.433 36.6299 172.505 37.0826 172.649 37.4689C172.793 37.8553 173.001 38.1564 173.274 38.3723C173.546 38.5845 173.878 38.6905 174.268 38.6905C174.662 38.6905 174.995 38.5826 175.268 38.3667C175.541 38.147 175.747 37.8439 175.887 37.4576C176.031 37.0674 176.103 36.6185 176.103 36.111C176.103 35.6072 176.033 35.164 175.893 34.7814C175.753 34.3989 175.546 34.0996 175.274 33.8837C175.001 33.6678 174.666 33.5598 174.268 33.5598C173.874 33.5598 173.541 33.664 173.268 33.8723C172.999 34.0807 172.793 34.3761 172.649 34.7587C172.505 35.1413 172.433 35.592 172.433 36.111ZM180.268 43.7473V31.7473H182.655V33.2132H182.763C182.869 32.9784 183.022 32.7398 183.223 32.4973C183.428 32.2511 183.693 32.0466 184.018 31.8837C184.348 31.717 184.757 31.6337 185.246 31.6337C185.882 31.6337 186.469 31.8004 187.007 32.1337C187.545 32.4632 187.975 32.9614 188.297 33.628C188.619 34.2909 188.78 35.1223 188.78 36.1223C188.78 37.0958 188.623 37.9178 188.308 38.5882C187.998 39.2549 187.573 39.7606 187.035 40.1053C186.501 40.4462 185.903 40.6167 185.24 40.6167C184.77 40.6167 184.371 40.539 184.041 40.3837C183.715 40.2284 183.448 40.0333 183.24 39.7985C183.032 39.5598 182.873 39.3193 182.763 39.0769H182.689V43.7473H180.268ZM182.638 36.111C182.638 36.6299 182.71 37.0826 182.854 37.4689C182.998 37.8553 183.206 38.1564 183.479 38.3723C183.751 38.5845 184.083 38.6905 184.473 38.6905C184.867 38.6905 185.2 38.5826 185.473 38.3667C185.746 38.147 185.952 37.8439 186.092 37.4576C186.236 37.0674 186.308 36.6185 186.308 36.111C186.308 35.6072 186.238 35.164 186.098 34.7814C185.958 34.3989 185.751 34.0996 185.479 33.8837C185.206 33.6678 184.871 33.5598 184.473 33.5598C184.079 33.5598 183.746 33.664 183.473 33.8723C183.204 34.0807 182.998 34.3761 182.854 34.7587C182.71 35.1413 182.638 35.592 182.638 36.111ZM194.417 40.6451C193.534 40.6451 192.771 40.4576 192.127 40.0826C191.487 39.7038 190.992 39.1773 190.644 38.503C190.295 37.825 190.121 37.039 190.121 36.1451C190.121 35.2435 190.295 34.4557 190.644 33.7814C190.992 33.1034 191.487 32.5769 192.127 32.2019C192.771 31.8231 193.534 31.6337 194.417 31.6337C195.299 31.6337 196.061 31.8231 196.701 32.2019C197.345 32.5769 197.841 33.1034 198.189 33.7814C198.538 34.4557 198.712 35.2435 198.712 36.1451C198.712 37.039 198.538 37.825 198.189 38.503C197.841 39.1773 197.345 39.7038 196.701 40.0826C196.061 40.4576 195.299 40.6451 194.417 40.6451ZM194.428 38.7701C194.829 38.7701 195.165 38.6564 195.434 38.4292C195.703 38.1981 195.905 37.8837 196.042 37.486C196.182 37.0882 196.252 36.6356 196.252 36.128C196.252 35.6204 196.182 35.1678 196.042 34.7701C195.905 34.3723 195.703 34.0579 195.434 33.8269C195.165 33.5958 194.829 33.4803 194.428 33.4803C194.023 33.4803 193.682 33.5958 193.405 33.8269C193.132 34.0579 192.926 34.3723 192.786 34.7701C192.65 35.1678 192.581 35.6204 192.581 36.128C192.581 36.6356 192.65 37.0882 192.786 37.486C192.926 37.8837 193.132 38.1981 193.405 38.4292C193.682 38.6564 194.023 38.7701 194.428 38.7701ZM200.366 40.4746V31.7473H202.713V33.2701H202.803C202.963 32.7284 203.23 32.3193 203.605 32.0428C203.98 31.7625 204.411 31.6223 204.9 31.6223C205.021 31.6223 205.152 31.6299 205.292 31.6451C205.432 31.6602 205.555 31.681 205.661 31.7076V33.8553C205.548 33.8212 205.391 33.7909 205.19 33.7644C204.989 33.7379 204.805 33.7246 204.639 33.7246C204.283 33.7246 203.964 33.8023 203.684 33.9576C203.408 34.1091 203.188 34.3212 203.025 34.5939C202.866 34.8667 202.786 35.181 202.786 35.5371V40.4746H200.366ZM212.072 31.7473V33.5655H206.817V31.7473H212.072ZM208.01 29.6564H210.43V37.7928C210.43 38.0163 210.464 38.1905 210.533 38.3155C210.601 38.4367 210.695 38.522 210.817 38.5712C210.942 38.6204 211.086 38.6451 211.248 38.6451C211.362 38.6451 211.476 38.6356 211.589 38.6167C211.703 38.5939 211.79 38.5769 211.851 38.5655L212.231 40.3667C212.11 40.4045 211.94 40.4481 211.72 40.4973C211.5 40.5504 211.233 40.5826 210.919 40.5939C210.336 40.6167 209.824 40.539 209.385 40.361C208.949 40.1829 208.61 39.9064 208.368 39.5314C208.125 39.1564 208.006 38.6829 208.01 38.111V29.6564ZM220.881 34.236L218.665 34.3723C218.627 34.1829 218.546 34.0125 218.421 33.861C218.296 33.7057 218.131 33.5826 217.926 33.4917C217.726 33.397 217.485 33.3496 217.205 33.3496C216.83 33.3496 216.514 33.4292 216.256 33.5882C215.998 33.7435 215.87 33.9519 215.87 34.2132C215.87 34.4216 215.953 34.5977 216.12 34.7417C216.286 34.8856 216.572 35.0011 216.978 35.0882L218.557 35.4064C219.406 35.5807 220.038 35.861 220.455 36.2473C220.872 36.6337 221.08 37.1413 221.08 37.7701C221.08 38.342 220.911 38.8439 220.574 39.2757C220.241 39.7076 219.783 40.0447 219.199 40.2871C218.62 40.5257 217.951 40.6451 217.194 40.6451C216.038 40.6451 215.118 40.4045 214.432 39.9235C213.75 39.4386 213.351 38.7795 213.233 37.9462L215.614 37.8212C215.686 38.1735 215.86 38.4424 216.137 38.628C216.413 38.8098 216.767 38.9007 217.199 38.9007C217.623 38.9007 217.964 38.8193 218.222 38.6564C218.483 38.4898 218.616 38.2757 218.62 38.0144C218.616 37.7947 218.523 37.6148 218.341 37.4746C218.159 37.3307 217.879 37.2208 217.5 37.1451L215.989 36.8439C215.137 36.6735 214.502 36.378 214.086 35.9576C213.673 35.5371 213.466 35.0011 213.466 34.3496C213.466 33.789 213.618 33.306 213.921 32.9007C214.228 32.4954 214.658 32.1829 215.211 31.9632C215.767 31.7435 216.419 31.6337 217.165 31.6337C218.267 31.6337 219.135 31.8667 219.767 32.3326C220.404 32.7985 220.775 33.4329 220.881 34.236ZM227.961 43.7473C227.655 43.7473 227.367 43.7227 227.098 43.6735C226.833 43.628 226.613 43.5693 226.439 43.4973L226.984 41.6905C227.268 41.7776 227.524 41.825 227.751 41.8326C227.982 41.8401 228.181 41.7871 228.348 41.6735C228.518 41.5598 228.657 41.3667 228.763 41.0939L228.905 40.7246L225.774 31.7473H228.319L230.126 38.1564H230.217L232.041 31.7473H234.604L231.211 41.4178C231.049 41.8875 230.827 42.2966 230.547 42.6451C230.27 42.9973 229.92 43.2682 229.496 43.4576C229.071 43.6507 228.56 43.7473 227.961 43.7473ZM239.584 40.6451C238.702 40.6451 237.938 40.4576 237.294 40.0826C236.654 39.7038 236.16 39.1773 235.811 38.503C235.463 37.825 235.289 37.039 235.289 36.1451C235.289 35.2435 235.463 34.4557 235.811 33.7814C236.16 33.1034 236.654 32.5769 237.294 32.2019C237.938 31.8231 238.702 31.6337 239.584 31.6337C240.467 31.6337 241.228 31.8231 241.868 32.2019C242.512 32.5769 243.008 33.1034 243.357 33.7814C243.705 34.4557 243.88 35.2435 243.88 36.1451C243.88 37.039 243.705 37.825 243.357 38.503C243.008 39.1773 242.512 39.7038 241.868 40.0826C241.228 40.4576 240.467 40.6451 239.584 40.6451ZM239.595 38.7701C239.997 38.7701 240.332 38.6564 240.601 38.4292C240.87 38.1981 241.073 37.8837 241.209 37.486C241.349 37.0882 241.419 36.6356 241.419 36.128C241.419 35.6204 241.349 35.1678 241.209 34.7701C241.073 34.3723 240.87 34.0579 240.601 33.8269C240.332 33.5958 239.997 33.4803 239.595 33.4803C239.19 33.4803 238.849 33.5958 238.573 33.8269C238.3 34.0579 238.094 34.3723 237.953 34.7701C237.817 35.1678 237.749 35.6204 237.749 36.128C237.749 36.6356 237.817 37.0882 237.953 37.486C238.094 37.8837 238.3 38.1981 238.573 38.4292C238.849 38.6564 239.19 38.7701 239.595 38.7701ZM251.13 36.7587V31.7473H253.55V40.4746H251.227V38.8894H251.136C250.939 39.4007 250.611 39.8117 250.153 40.1223C249.698 40.4329 249.143 40.5882 248.488 40.5882C247.905 40.5882 247.391 40.4557 246.948 40.1905C246.505 39.9254 246.158 39.5485 245.908 39.0598C245.662 38.5712 245.537 37.986 245.533 37.3042V31.7473H247.954V36.8723C247.958 37.3875 248.096 37.7947 248.369 38.0939C248.641 38.3932 249.007 38.5428 249.465 38.5428C249.757 38.5428 250.03 38.4765 250.283 38.3439C250.537 38.2076 250.742 38.0068 250.897 37.7417C251.056 37.4765 251.134 37.1489 251.13 36.7587Z" fill="#848484" fill-opacity="0.7"/>
<path d="M149.443 66.4746V64.7019L153.585 60.8667C153.938 60.5257 154.233 60.2189 154.472 59.9462C154.714 59.6735 154.898 59.4064 155.023 59.1451C155.148 58.8799 155.21 58.5939 155.21 58.2871C155.21 57.9462 155.133 57.6526 154.977 57.4064C154.822 57.1564 154.61 56.9651 154.341 56.8326C154.072 56.6962 153.767 56.628 153.426 56.628C153.07 56.628 152.759 56.7 152.494 56.8439C152.229 56.9879 152.025 57.1943 151.881 57.4632C151.737 57.7322 151.665 58.0523 151.665 58.4235H149.33C149.33 57.6621 149.502 57.0011 149.847 56.4405C150.191 55.8799 150.674 55.4462 151.295 55.1394C151.917 54.8326 152.633 54.6792 153.443 54.6792C154.277 54.6792 155.002 54.8269 155.619 55.1223C156.241 55.414 156.723 55.8193 157.068 56.3382C157.413 56.8572 157.585 57.4519 157.585 58.1223C157.585 58.5617 157.498 58.9954 157.324 59.4235C157.153 59.8515 156.848 60.3269 156.409 60.8496C155.97 61.3685 155.35 61.9917 154.551 62.7189L152.852 64.3837V64.4632H157.739V66.4746H149.443ZM159.175 64.4292V62.4917L164.033 54.8382H165.704V57.5201H164.715L161.652 62.3667V62.4576H168.556V64.4292H159.175ZM164.76 66.4746V63.8382L164.806 62.9803V54.8382H167.113V66.4746H164.76ZM175.366 54.2928L171.616 68.2246H169.531L173.281 54.2928H175.366ZM177.05 66.4746L181.874 56.9292V56.8496H176.254V54.8382H184.419V56.878L179.589 66.4746H177.05Z" fill="#1B1B1B"/>
<line x1="275.75" y1="8.47461" x2="275.75" y2="86.4746" stroke="#D8D8D8"/>
<path d="M295.568 30.8667V28.8382H305.125V30.8667H301.562V40.4746H299.131V30.8667H295.568ZM308.035 40.6394C307.478 40.6394 306.982 40.5428 306.546 40.3496C306.11 40.1526 305.766 39.8629 305.512 39.4803C305.262 39.0939 305.137 38.6129 305.137 38.0371C305.137 37.5523 305.226 37.1451 305.404 36.8155C305.582 36.486 305.824 36.2208 306.131 36.0201C306.438 35.8193 306.786 35.6678 307.177 35.5655C307.571 35.4632 307.983 35.3913 308.415 35.3496C308.923 35.2966 309.332 35.2473 309.642 35.2019C309.953 35.1526 310.178 35.0807 310.319 34.986C310.459 34.8913 310.529 34.7511 310.529 34.5655V34.5314C310.529 34.1716 310.415 33.8932 310.188 33.6962C309.964 33.4992 309.646 33.4007 309.233 33.4007C308.798 33.4007 308.451 33.4973 308.194 33.6905C307.936 33.8799 307.766 34.1185 307.682 34.4064L305.444 34.2246C305.557 33.6943 305.781 33.236 306.114 32.8496C306.447 32.4595 306.877 32.1602 307.404 31.9519C307.934 31.7398 308.548 31.6337 309.245 31.6337C309.73 31.6337 310.194 31.6905 310.637 31.8042C311.084 31.9178 311.48 32.0939 311.824 32.3326C312.173 32.5712 312.447 32.878 312.648 33.253C312.849 33.6242 312.949 34.0693 312.949 34.5882V40.4746H310.654V39.2644H310.586C310.446 39.5371 310.258 39.7776 310.023 39.986C309.788 40.1905 309.506 40.3515 309.177 40.4689C308.847 40.5826 308.466 40.6394 308.035 40.6394ZM308.728 38.9689C309.084 38.9689 309.398 38.8989 309.671 38.7587C309.944 38.6148 310.158 38.4216 310.313 38.1792C310.468 37.9367 310.546 37.6621 310.546 37.3553V36.4292C310.47 36.4784 310.366 36.5239 310.233 36.5655C310.105 36.6034 309.959 36.6394 309.796 36.6735C309.633 36.7038 309.47 36.7322 309.307 36.7587C309.144 36.7814 308.997 36.8023 308.864 36.8212C308.58 36.8629 308.332 36.9292 308.12 37.0201C307.908 37.111 307.743 37.2341 307.625 37.3894C307.508 37.5409 307.449 37.7303 307.449 37.9576C307.449 38.2871 307.569 38.539 307.807 38.7132C308.05 38.8837 308.357 38.9689 308.728 38.9689ZM317.1 37.9632L317.106 35.0598H317.458L320.254 31.7473H323.032L319.276 36.1337H318.703L317.1 37.9632ZM314.907 40.4746V28.8382H317.328V40.4746H314.907ZM320.362 40.4746L317.794 36.6735L319.407 34.9632L323.197 40.4746H320.362ZM327.918 40.6451C327.02 40.6451 326.247 40.4632 325.599 40.0996C324.955 39.7322 324.459 39.2132 324.111 38.5428C323.762 37.8685 323.588 37.0712 323.588 36.1507C323.588 35.253 323.762 34.4651 324.111 33.7871C324.459 33.1091 324.95 32.5807 325.582 32.2019C326.219 31.8231 326.965 31.6337 327.821 31.6337C328.397 31.6337 328.933 31.7265 329.429 31.9121C329.929 32.0939 330.365 32.3685 330.736 32.736C331.111 33.1034 331.402 33.5655 331.611 34.1223C331.819 34.6754 331.923 35.3231 331.923 36.0655V36.7303H324.554V35.2303H329.645C329.645 34.8818 329.569 34.5731 329.418 34.3042C329.266 34.0352 329.056 33.825 328.787 33.6735C328.522 33.5182 328.213 33.4405 327.861 33.4405C327.493 33.4405 327.168 33.5257 326.883 33.6962C326.603 33.8629 326.383 34.0882 326.224 34.3723C326.065 34.6526 325.984 34.9651 325.98 35.3098V36.736C325.98 37.1678 326.06 37.5409 326.219 37.8553C326.382 38.1697 326.611 38.4121 326.906 38.5826C327.202 38.753 327.552 38.8382 327.957 38.8382C328.226 38.8382 328.472 38.8004 328.696 38.7246C328.919 38.6489 329.111 38.5352 329.27 38.3837C329.429 38.2322 329.55 38.0466 329.633 37.8269L331.872 37.9746C331.758 38.5125 331.526 38.9822 331.173 39.3837C330.825 39.7814 330.374 40.092 329.821 40.3155C329.272 40.5352 328.637 40.6451 327.918 40.6451Z" fill="#848484" fill-opacity="0.7"/>
<path d="M306.705 60.6564C306.705 61.9254 306.464 63.0049 305.983 63.8951C305.506 64.7852 304.854 65.4651 304.028 65.9348C303.206 66.4007 302.282 66.6337 301.256 66.6337C300.222 66.6337 299.294 66.3989 298.472 65.9292C297.65 65.4595 297 64.7795 296.523 63.8894C296.045 62.9992 295.807 61.9216 295.807 60.6564C295.807 59.3875 296.045 58.3079 296.523 57.4178C297 56.5276 297.65 55.8496 298.472 55.3837C299.294 54.914 300.222 54.6792 301.256 54.6792C302.282 54.6792 303.206 54.914 304.028 55.3837C304.854 55.8496 305.506 56.5276 305.983 57.4178C306.464 58.3079 306.705 59.3875 306.705 60.6564ZM304.21 60.6564C304.21 59.8345 304.087 59.1413 303.841 58.5769C303.598 58.0125 303.256 57.5845 302.812 57.2928C302.369 57.0011 301.85 56.8553 301.256 56.8553C300.661 56.8553 300.142 57.0011 299.699 57.2928C299.256 57.5845 298.911 58.0125 298.665 58.5769C298.422 59.1413 298.301 59.8345 298.301 60.6564C298.301 61.4784 298.422 62.1716 298.665 62.736C298.911 63.3004 299.256 63.7284 299.699 64.0201C300.142 64.3117 300.661 64.4576 301.256 64.4576C301.85 64.4576 302.369 64.3117 302.812 64.0201C303.256 63.7284 303.598 63.3004 303.841 62.736C304.087 62.1716 304.21 61.4784 304.21 60.6564ZM310.982 61.4292V66.4746H308.562V57.7473H310.868V59.2871H310.971C311.164 58.7795 311.488 58.378 311.942 58.0826C312.397 57.7833 312.948 57.6337 313.596 57.6337C314.202 57.6337 314.73 57.7663 315.181 58.0314C315.632 58.2966 315.982 58.6754 316.232 59.1678C316.482 59.6564 316.607 60.2398 316.607 60.9178V66.4746H314.187V61.3496C314.19 60.8155 314.054 60.3989 313.777 60.0996C313.501 59.7966 313.12 59.6451 312.635 59.6451C312.31 59.6451 312.022 59.7151 311.772 59.8553C311.526 59.9954 311.332 60.2 311.192 60.4689C311.056 60.7341 310.986 61.0542 310.982 61.4292ZM322.538 66.6451C321.644 66.6451 320.875 66.4557 320.231 66.0769C319.591 65.6943 319.098 65.164 318.754 64.486C318.413 63.8079 318.242 63.0276 318.242 62.1451C318.242 61.2511 318.415 60.467 318.759 59.7928C319.108 59.1148 319.602 58.5864 320.242 58.2076C320.883 57.825 321.644 57.6337 322.526 57.6337C323.288 57.6337 323.955 57.772 324.526 58.0485C325.098 58.325 325.551 58.7132 325.884 59.2132C326.218 59.7132 326.401 60.3004 326.436 60.9746H324.151C324.087 60.539 323.917 60.1886 323.64 59.9235C323.367 59.6545 323.009 59.5201 322.566 59.5201C322.191 59.5201 321.864 59.6223 321.583 59.8269C321.307 60.0276 321.091 60.3212 320.936 60.7076C320.78 61.0939 320.703 61.5617 320.703 62.111C320.703 62.6678 320.778 63.1413 320.93 63.5314C321.085 63.9216 321.303 64.2189 321.583 64.4235C321.864 64.628 322.191 64.7303 322.566 64.7303C322.843 64.7303 323.091 64.6735 323.311 64.5598C323.534 64.4462 323.718 64.2814 323.862 64.0655C324.009 63.8458 324.106 63.5826 324.151 63.2757H326.436C326.398 63.9424 326.216 64.5295 325.89 65.0371C325.568 65.5409 325.123 65.9348 324.555 66.2189C323.987 66.503 323.314 66.6451 322.538 66.6451ZM332.043 66.6451C331.145 66.6451 330.372 66.4632 329.724 66.0996C329.08 65.7322 328.584 65.2132 328.236 64.5428C327.887 63.8685 327.713 63.0712 327.713 62.1507C327.713 61.253 327.887 60.4651 328.236 59.7871C328.584 59.1091 329.075 58.5807 329.707 58.2019C330.344 57.8231 331.09 57.6337 331.946 57.6337C332.522 57.6337 333.058 57.7265 333.554 57.9121C334.054 58.0939 334.49 58.3685 334.861 58.736C335.236 59.1034 335.527 59.5655 335.736 60.1223C335.944 60.6754 336.048 61.3231 336.048 62.0655V62.7303H328.679V61.2303H333.77C333.77 60.8818 333.694 60.5731 333.543 60.3042C333.391 60.0352 333.181 59.825 332.912 59.6735C332.647 59.5182 332.338 59.4405 331.986 59.4405C331.618 59.4405 331.293 59.5257 331.008 59.6962C330.728 59.8629 330.508 60.0882 330.349 60.3723C330.19 60.6526 330.109 60.9651 330.105 61.3098V62.736C330.105 63.1678 330.185 63.5409 330.344 63.8553C330.507 64.1697 330.736 64.4121 331.031 64.5826C331.327 64.753 331.677 64.8382 332.082 64.8382C332.351 64.8382 332.597 64.8004 332.821 64.7246C333.044 64.6489 333.236 64.5352 333.395 64.3837C333.554 64.2322 333.675 64.0466 333.758 63.8269L335.997 63.9746C335.883 64.5125 335.651 64.9822 335.298 65.3837C334.95 65.7814 334.499 66.092 333.946 66.3155C333.397 66.5352 332.762 66.6451 332.043 66.6451ZM344.707 66.6167C344.044 66.6167 343.444 66.4462 342.906 66.1053C342.372 65.7606 341.947 65.2549 341.633 64.5882C341.322 63.9178 341.167 63.0958 341.167 62.1223C341.167 61.1223 341.328 60.2909 341.65 59.628C341.972 58.9614 342.4 58.4632 342.934 58.1337C343.472 57.8004 344.061 57.6337 344.701 57.6337C345.19 57.6337 345.597 57.717 345.923 57.8837C346.252 58.0466 346.517 58.2511 346.718 58.4973C346.923 58.7398 347.078 58.9784 347.184 59.2132H347.258V54.8382H349.673V66.4746H347.286V65.0769H347.184C347.07 65.3193 346.909 65.5598 346.701 65.7985C346.497 66.0333 346.23 66.2284 345.9 66.3837C345.574 66.539 345.177 66.6167 344.707 66.6167ZM345.474 64.6905C345.864 64.6905 346.194 64.5845 346.463 64.3723C346.735 64.1564 346.944 63.8553 347.088 63.4689C347.235 63.0826 347.309 62.6299 347.309 62.111C347.309 61.592 347.237 61.1413 347.093 60.7587C346.949 60.3761 346.741 60.0807 346.468 59.8723C346.195 59.664 345.864 59.5598 345.474 59.5598C345.076 59.5598 344.741 59.6678 344.468 59.8837C344.195 60.0996 343.989 60.3989 343.849 60.7814C343.709 61.164 343.639 61.6072 343.639 62.111C343.639 62.6185 343.709 63.0674 343.849 63.4576C343.993 63.8439 344.199 64.147 344.468 64.3667C344.741 64.5826 345.076 64.6905 345.474 64.6905ZM354.231 66.6394C353.675 66.6394 353.178 66.5428 352.743 66.3496C352.307 66.1526 351.962 65.8629 351.709 65.4803C351.459 65.0939 351.334 64.6129 351.334 64.0371C351.334 63.5523 351.423 63.1451 351.601 62.8155C351.779 62.486 352.021 62.2208 352.328 62.0201C352.635 61.8193 352.983 61.6678 353.373 61.5655C353.767 61.4632 354.18 61.3913 354.612 61.3496C355.12 61.2966 355.529 61.2473 355.839 61.2019C356.15 61.1526 356.375 61.0807 356.516 60.986C356.656 60.8913 356.726 60.7511 356.726 60.5655V60.5314C356.726 60.1716 356.612 59.8932 356.385 59.6962C356.161 59.4992 355.843 59.4007 355.43 59.4007C354.995 59.4007 354.648 59.4973 354.391 59.6905C354.133 59.8799 353.962 60.1185 353.879 60.4064L351.641 60.2246C351.754 59.6943 351.978 59.236 352.311 58.8496C352.644 58.4595 353.074 58.1602 353.601 57.9519C354.131 57.7398 354.745 57.6337 355.442 57.6337C355.926 57.6337 356.391 57.6905 356.834 57.8042C357.281 57.9178 357.676 58.0939 358.021 58.3326C358.37 58.5712 358.644 58.878 358.845 59.253C359.046 59.6242 359.146 60.0693 359.146 60.5882V66.4746H356.851V65.2644H356.783C356.642 65.5371 356.455 65.7776 356.22 65.986C355.985 66.1905 355.703 66.3515 355.373 66.4689C355.044 66.5826 354.663 66.6394 354.231 66.6394ZM354.925 64.9689C355.281 64.9689 355.595 64.8989 355.868 64.7587C356.141 64.6148 356.355 64.4216 356.51 64.1792C356.665 63.9367 356.743 63.6621 356.743 63.3553V62.4292C356.667 62.4784 356.563 62.5239 356.43 62.5655C356.301 62.6034 356.156 62.6394 355.993 62.6735C355.83 62.7038 355.667 62.7322 355.504 62.7587C355.341 62.7814 355.194 62.8023 355.061 62.8212C354.777 62.8629 354.529 62.9292 354.317 63.0201C354.105 63.111 353.94 63.2341 353.822 63.3894C353.705 63.5409 353.646 63.7303 353.646 63.9576C353.646 64.2871 353.766 64.539 354.004 64.7132C354.247 64.8837 354.553 64.9689 354.925 64.9689ZM361.104 66.4746V57.7473H363.524V66.4746H361.104ZM362.32 56.6223C361.96 56.6223 361.651 56.503 361.394 56.2644C361.14 56.022 361.013 55.7322 361.013 55.3951C361.013 55.0617 361.14 54.7757 361.394 54.5371C361.651 54.2947 361.96 54.1735 362.32 54.1735C362.68 54.1735 362.987 54.2947 363.24 54.5371C363.498 54.7757 363.627 55.0617 363.627 55.3951C363.627 55.7322 363.498 56.022 363.24 56.2644C362.987 56.503 362.68 56.6223 362.32 56.6223ZM367.964 54.8382V66.4746H365.543V54.8382H367.964ZM371.477 69.7473C371.17 69.7473 370.882 69.7227 370.613 69.6735C370.348 69.628 370.129 69.5693 369.954 69.4973L370.5 67.6905C370.784 67.7776 371.04 67.825 371.267 67.8326C371.498 67.8401 371.697 67.7871 371.863 67.6735C372.034 67.5598 372.172 67.3667 372.278 67.0939L372.42 66.7246L369.29 57.7473H371.835L373.642 64.1564H373.733L375.557 57.7473H378.119L374.727 67.4178C374.564 67.8875 374.343 68.2966 374.062 68.6451C373.786 68.9973 373.435 69.2682 373.011 69.4576C372.587 69.6507 372.076 69.7473 371.477 69.7473Z" fill="#1B1B1B"/>
</svg>
