<svg width="450" height="403" viewBox="0 0 450 403" fill="none" xmlns="http://www.w3.org/2000/svg">
<path d="M1 120.533H2.5V120.133H1V120.533ZM3.5 120.533H6.5V120.133H3.5V120.533ZM7.5 120.533H10.5V120.133H7.5V120.533ZM11.5 120.533H14.5V120.133H11.5V120.533ZM15.5 120.533H18.5V120.133H15.5V120.533ZM19.5 120.533H22.5V120.133H19.5V120.533ZM23.5 120.533H26.5V120.133H23.5V120.533ZM27.5 120.533H30.5V120.133H27.5V120.533ZM31.5 120.533H34.5V120.133H31.5V120.533ZM35.5 120.533H38.5V120.133H35.5V120.533ZM39.5 120.533H42.5V120.133H39.5V120.533ZM43.5 120.533H46.5V120.133H43.5V120.533ZM47.5 120.533H50.5V120.133H47.5V120.533ZM51.5 120.533H54.5V120.133H51.5V120.533ZM55.5 120.533H58.5V120.133H55.5V120.533ZM59.5 120.533H62.5V120.133H59.5V120.533ZM63.5 120.533H66.5V120.133H63.5V120.533ZM67.5 120.533H70.5V120.133H67.5V120.533ZM71.5 120.533H74.5V120.133H71.5V120.533ZM75.5 120.533H78.5V120.133H75.5V120.533ZM79.5 120.533H82.5V120.133H79.5V120.533ZM83.5 120.533H86.5V120.133H83.5V120.533ZM87.5 120.533H90.5V120.133H87.5V120.533ZM91.5 120.533H94.5V120.133H91.5V120.533ZM95.5 120.533H98.5V120.133H95.5V120.533ZM99.5 120.533H102.5V120.133H99.5V120.533ZM103.5 120.533H106.5V120.133H103.5V120.533ZM107.5 120.533H110.5V120.133H107.5V120.533ZM111.5 120.533H114.5V120.133H111.5V120.533ZM115.5 120.533H118.5V120.133H115.5V120.533ZM119.5 120.533H122.5V120.133H119.5V120.533ZM123.5 120.533H126.5V120.133H123.5V120.533ZM127.5 120.533H130.5V120.133H127.5V120.533ZM131.5 120.533H134.5V120.133H131.5V120.533ZM135.5 120.533H138.5V120.133H135.5V120.533ZM139.5 120.533H142.5V120.133H139.5V120.533ZM143.5 120.533H146.5V120.133H143.5V120.533ZM147.5 120.533H150.5V120.133H147.5V120.533ZM151.5 120.533H154.5V120.133H151.5V120.533ZM155.5 120.533H158.5V120.133H155.5V120.533ZM159.5 120.533H162.5V120.133H159.5V120.533ZM163.5 120.533H166.5V120.133H163.5V120.533ZM167.5 120.533H170.5V120.133H167.5V120.533ZM171.5 120.533H174.5V120.133H171.5V120.533ZM175.5 120.533H178.5V120.133H175.5V120.533ZM179.5 120.533H182.5V120.133H179.5V120.533ZM183.5 120.533H186.5V120.133H183.5V120.533ZM187.5 120.533H190.5V120.133H187.5V120.533ZM191.5 120.533H194.5V120.133H191.5V120.533ZM195.5 120.533H198.5V120.133H195.5V120.533ZM199.5 120.533H202.5V120.133H199.5V120.533ZM203.5 120.533H206.5V120.133H203.5V120.533ZM207.5 120.533H210.5V120.133H207.5V120.533ZM211.5 120.533H214.5V120.133H211.5V120.533ZM215.5 120.533H218.5V120.133H215.5V120.533ZM219.5 120.533H222.5V120.133H219.5V120.533ZM223.5 120.533H226.5V120.133H223.5V120.533ZM227.5 120.533H230.5V120.133H227.5V120.533ZM231.5 120.533H234.5V120.133H231.5V120.533ZM235.5 120.533H238.5V120.133H235.5V120.533ZM239.5 120.533H242.5V120.133H239.5V120.533ZM243.5 120.533H246.5V120.133H243.5V120.533ZM247.5 120.533H250.5V120.133H247.5V120.533ZM251.5 120.533H254.5V120.133H251.5V120.533ZM255.5 120.533H258.5V120.133H255.5V120.533ZM259.5 120.533H262.5V120.133H259.5V120.533ZM263.5 120.533H266.5V120.133H263.5V120.533ZM267.5 120.533H270.5V120.133H267.5V120.533ZM271.5 120.533H274.5V120.133H271.5V120.533ZM275.5 120.533H278.5V120.133H275.5V120.533ZM279.5 120.533H282.5V120.133H279.5V120.533ZM283.5 120.533H286.5V120.133H283.5V120.533ZM287.5 120.533H290.5V120.133H287.5V120.533ZM291.5 120.533H294.5V120.133H291.5V120.533ZM295.5 120.533H298.5V120.133H295.5V120.533ZM299.5 120.533H302.5V120.133H299.5V120.533ZM303.5 120.533H306.5V120.133H303.5V120.533ZM307.5 120.533H310.5V120.133H307.5V120.533ZM311.5 120.533H314.5V120.133H311.5V120.533ZM315.5 120.533H318.5V120.133H315.5V120.533ZM319.5 120.533H322.5V120.133H319.5V120.533ZM323.5 120.533H326.5V120.133H323.5V120.533ZM327.5 120.533H330.5V120.133H327.5V120.533ZM331.5 120.533H334.5V120.133H331.5V120.533ZM335.5 120.533H338.5V120.133H335.5V120.533ZM339.5 120.533H342.5V120.133H339.5V120.533ZM343.5 120.533H346.5V120.133H343.5V120.533ZM347.5 120.533H350.5V120.133H347.5V120.533ZM351.5 120.533H354.5V120.133H351.5V120.533ZM355.5 120.533H358.5V120.133H355.5V120.533ZM359.5 120.533H362.5V120.133H359.5V120.533ZM363.5 120.533H366.5V120.133H363.5V120.533ZM367.5 120.533H370.5V120.133H367.5V120.533ZM371.5 120.533H374.5V120.133H371.5V120.533ZM375.5 120.533H378.5V120.133H375.5V120.533ZM379.5 120.533H382.5V120.133H379.5V120.533ZM383.5 120.533H386.5V120.133H383.5V120.533ZM387.5 120.533H390.5V120.133H387.5V120.533ZM391.5 120.533H394.5V120.133H391.5V120.533ZM395.5 120.533H398.5V120.133H395.5V120.533ZM399.5 120.533H402.5V120.133H399.5V120.533ZM403.5 120.533H406.5V120.133H403.5V120.533ZM407.5 120.533H410.5V120.133H407.5V120.533ZM411.5 120.533H414.5V120.133H411.5V120.533ZM415.5 120.533H418.5V120.133H415.5V120.533ZM419.5 120.533H422.5V120.133H419.5V120.533ZM423.5 120.533H426.5V120.133H423.5V120.533ZM427.5 120.533H430.5V120.133H427.5V120.533ZM431.5 120.533H434.5V120.133H431.5V120.533ZM435.5 120.533H438.5V120.133H435.5V120.533ZM439.5 120.533H442.5V120.133H439.5V120.533ZM443.5 120.533H446.5V120.133H443.5V120.533ZM447.5 120.533H449V120.133H447.5V120.533ZM449 10.8H447.5V11.2H449V10.8ZM446.5 10.8H443.5V11.2H446.5V10.8ZM442.5 10.8H439.5V11.2H442.5V10.8ZM438.5 10.8H435.5V11.2H438.5V10.8ZM434.5 10.8H431.5V11.2H434.5V10.8ZM430.5 10.8H427.5V11.2H430.5V10.8ZM426.5 10.8H423.5V11.2H426.5V10.8ZM422.5 10.8H419.5V11.2H422.5V10.8ZM418.5 10.8H415.5V11.2H418.5V10.8ZM414.5 10.8H411.5V11.2H414.5V10.8ZM410.5 10.8H407.5V11.2H410.5V10.8ZM406.5 10.8H403.5V11.2H406.5V10.8ZM402.5 10.8H399.5V11.2H402.5V10.8ZM398.5 10.8H395.5V11.2H398.5V10.8ZM394.5 10.8H391.5V11.2H394.5V10.8ZM390.5 10.8H387.5V11.2H390.5V10.8ZM386.5 10.8H383.5V11.2H386.5V10.8ZM382.5 10.8H379.5V11.2H382.5V10.8ZM378.5 10.8H375.5V11.2H378.5V10.8ZM374.5 10.8H371.5V11.2H374.5V10.8ZM370.5 10.8H367.5V11.2H370.5V10.8ZM366.5 10.8H363.5V11.2H366.5V10.8ZM362.5 10.8H359.5V11.2H362.5V10.8ZM358.5 10.8H355.5V11.2H358.5V10.8ZM354.5 10.8H351.5V11.2H354.5V10.8ZM350.5 10.8H347.5V11.2H350.5V10.8ZM346.5 10.8H343.5V11.2H346.5V10.8ZM342.5 10.8H339.5V11.2H342.5V10.8ZM338.5 10.8H335.5V11.2H338.5V10.8ZM334.5 10.8H331.5V11.2H334.5V10.8ZM330.5 10.8H327.5V11.2H330.5V10.8ZM326.5 10.8H323.5V11.2H326.5V10.8ZM322.5 10.8H319.5V11.2H322.5V10.8ZM318.5 10.8H315.5V11.2H318.5V10.8ZM314.5 10.8H311.5V11.2H314.5V10.8ZM310.5 10.8H307.5V11.2H310.5V10.8ZM306.5 10.8H303.5V11.2H306.5V10.8ZM302.5 10.8H299.5V11.2H302.5V10.8ZM298.5 10.8H295.5V11.2H298.5V10.8ZM294.5 10.8H291.5V11.2H294.5V10.8ZM290.5 10.8H287.5V11.2H290.5V10.8ZM286.5 10.8H283.5V11.2H286.5V10.8ZM282.5 10.8H279.5V11.2H282.5V10.8ZM278.5 10.8H275.5V11.2H278.5V10.8ZM274.5 10.8H271.5V11.2H274.5V10.8ZM270.5 10.8H267.5V11.2H270.5V10.8ZM266.5 10.8H263.5V11.2H266.5V10.8ZM262.5 10.8H259.5V11.2H262.5V10.8ZM258.5 10.8H255.5V11.2H258.5V10.8ZM254.5 10.8H251.5V11.2H254.5V10.8ZM250.5 10.8H247.5V11.2H250.5V10.8ZM246.5 10.8H243.5V11.2H246.5V10.8ZM242.5 10.8H239.5V11.2H242.5V10.8ZM238.5 10.8H235.5V11.2H238.5V10.8ZM234.5 10.8H231.5V11.2H234.5V10.8ZM230.5 10.8H227.5V11.2H230.5V10.8ZM226.5 10.8H223.5V11.2H226.5V10.8ZM222.5 10.8H219.5V11.2H222.5V10.8ZM218.5 10.8H215.5V11.2H218.5V10.8ZM214.5 10.8H211.5V11.2H214.5V10.8ZM210.5 10.8H207.5V11.2H210.5V10.8ZM206.5 10.8H203.5V11.2H206.5V10.8ZM202.5 10.8H199.5V11.2H202.5V10.8ZM198.5 10.8H195.5V11.2H198.5V10.8ZM194.5 10.8H191.5V11.2H194.5V10.8ZM190.5 10.8H187.5V11.2H190.5V10.8ZM186.5 10.8H183.5V11.2H186.5V10.8ZM182.5 10.8H179.5V11.2H182.5V10.8ZM178.5 10.8H175.5V11.2H178.5V10.8ZM174.5 10.8H171.5V11.2H174.5V10.8ZM170.5 10.8H167.5V11.2H170.5V10.8ZM166.5 10.8H163.5V11.2H166.5V10.8ZM162.5 10.8H159.5V11.2H162.5V10.8ZM158.5 10.8H155.5V11.2H158.5V10.8ZM154.5 10.8H151.5V11.2H154.5V10.8ZM150.5 10.8H147.5V11.2H150.5V10.8ZM146.5 10.8H143.5V11.2H146.5V10.8ZM142.5 10.8H139.5V11.2H142.5V10.8ZM138.5 10.8H135.5V11.2H138.5V10.8ZM134.5 10.8H131.5V11.2H134.5V10.8ZM130.5 10.8H127.5V11.2H130.5V10.8ZM126.5 10.8H123.5V11.2H126.5V10.8ZM122.5 10.8H119.5V11.2H122.5V10.8ZM118.5 10.8H115.5V11.2H118.5V10.8ZM114.5 10.8H111.5V11.2H114.5V10.8ZM110.5 10.8H107.5V11.2H110.5V10.8ZM106.5 10.8H103.5V11.2H106.5V10.8ZM102.5 10.8H99.5V11.2H102.5V10.8ZM98.5 10.8H95.5V11.2H98.5V10.8ZM94.5 10.8H91.5V11.2H94.5V10.8ZM90.5 10.8H87.5V11.2H90.5V10.8ZM86.5 10.8H83.5V11.2H86.5V10.8ZM82.5 10.8H79.5V11.2H82.5V10.8ZM78.5 10.8H75.5V11.2H78.5V10.8ZM74.5 10.8H71.5V11.2H74.5V10.8ZM70.5 10.8H67.5V11.2H70.5V10.8ZM66.5 10.8H63.5V11.2H66.5V10.8ZM62.5 10.8H59.5V11.2H62.5V10.8ZM58.5 10.8H55.5V11.2H58.5V10.8ZM54.5 10.8H51.5V11.2H54.5V10.8ZM50.5 10.8H47.5V11.2H50.5V10.8ZM46.5 10.8H43.5V11.2H46.5V10.8ZM42.5 10.8H39.5V11.2H42.5V10.8ZM38.5 10.8H35.5V11.2H38.5V10.8ZM34.5 10.8H31.5V11.2H34.5V10.8ZM30.5 10.8H27.5V11.2H30.5V10.8ZM26.5 10.8H23.5V11.2H26.5V10.8ZM22.5 10.8H19.5V11.2H22.5V10.8ZM18.5 10.8H15.5V11.2H18.5V10.8ZM14.5 10.8H11.5V11.2H14.5V10.8ZM10.5 10.8H7.49999V11.2H10.5V10.8ZM6.49999 10.8H3.5V11.2H6.49999V10.8ZM2.50001 10.8H1V11.2H2.50001V10.8Z" fill="#D7D7D7"/>
<path d="M1 229.869H2.5V229.469H1V229.869ZM3.5 229.869H6.5V229.469H3.5V229.869ZM7.5 229.869H10.5V229.469H7.5V229.869ZM11.5 229.869H14.5V229.469H11.5V229.869ZM15.5 229.869H18.5V229.469H15.5V229.869ZM19.5 229.869H22.5V229.469H19.5V229.869ZM23.5 229.869H26.5V229.469H23.5V229.869ZM27.5 229.869H30.5V229.469H27.5V229.869ZM31.5 229.869H34.5V229.469H31.5V229.869ZM35.5 229.869H38.5V229.469H35.5V229.869ZM39.5 229.869H42.5V229.469H39.5V229.869ZM43.5 229.869H46.5V229.469H43.5V229.869ZM47.5 229.869H50.5V229.469H47.5V229.869ZM51.5 229.869H54.5V229.469H51.5V229.869ZM55.5 229.869H58.5V229.469H55.5V229.869ZM59.5 229.869H62.5V229.469H59.5V229.869ZM63.5 229.869H66.5V229.469H63.5V229.869ZM67.5 229.869H70.5V229.469H67.5V229.869ZM71.5 229.869H74.5V229.469H71.5V229.869ZM75.5 229.869H78.5V229.469H75.5V229.869ZM79.5 229.869H82.5V229.469H79.5V229.869ZM83.5 229.869H86.5V229.469H83.5V229.869ZM87.5 229.869H90.5V229.469H87.5V229.869ZM91.5 229.869H94.5V229.469H91.5V229.869ZM95.5 229.869H98.5V229.469H95.5V229.869ZM99.5 229.869H102.5V229.469H99.5V229.869ZM103.5 229.869H106.5V229.469H103.5V229.869ZM107.5 229.869H110.5V229.469H107.5V229.869ZM111.5 229.869H114.5V229.469H111.5V229.869ZM115.5 229.869H118.5V229.469H115.5V229.869ZM119.5 229.869H122.5V229.469H119.5V229.869ZM123.5 229.869H126.5V229.469H123.5V229.869ZM127.5 229.869H130.5V229.469H127.5V229.869ZM131.5 229.869H134.5V229.469H131.5V229.869ZM135.5 229.869H138.5V229.469H135.5V229.869ZM139.5 229.869H142.5V229.469H139.5V229.869ZM143.5 229.869H146.5V229.469H143.5V229.869ZM147.5 229.869H150.5V229.469H147.5V229.869ZM151.5 229.869H154.5V229.469H151.5V229.869ZM155.5 229.869H158.5V229.469H155.5V229.869ZM159.5 229.869H162.5V229.469H159.5V229.869ZM163.5 229.869H166.5V229.469H163.5V229.869ZM167.5 229.869H170.5V229.469H167.5V229.869ZM171.5 229.869H174.5V229.469H171.5V229.869ZM175.5 229.869H178.5V229.469H175.5V229.869ZM179.5 229.869H182.5V229.469H179.5V229.869ZM183.5 229.869H186.5V229.469H183.5V229.869ZM187.5 229.869H190.5V229.469H187.5V229.869ZM191.5 229.869H194.5V229.469H191.5V229.869ZM195.5 229.869H198.5V229.469H195.5V229.869ZM199.5 229.869H202.5V229.469H199.5V229.869ZM203.5 229.869H206.5V229.469H203.5V229.869ZM207.5 229.869H210.5V229.469H207.5V229.869ZM211.5 229.869H214.5V229.469H211.5V229.869ZM215.5 229.869H218.5V229.469H215.5V229.869ZM219.5 229.869H222.5V229.469H219.5V229.869ZM223.5 229.869H226.5V229.469H223.5V229.869ZM227.5 229.869H230.5V229.469H227.5V229.869ZM231.5 229.869H234.5V229.469H231.5V229.869ZM235.5 229.869H238.5V229.469H235.5V229.869ZM239.5 229.869H242.5V229.469H239.5V229.869ZM243.5 229.869H246.5V229.469H243.5V229.869ZM247.5 229.869H250.5V229.469H247.5V229.869ZM251.5 229.869H254.5V229.469H251.5V229.869ZM255.5 229.869H258.5V229.469H255.5V229.869ZM259.5 229.869H262.5V229.469H259.5V229.869ZM263.5 229.869H266.5V229.469H263.5V229.869ZM267.5 229.869H270.5V229.469H267.5V229.869ZM271.5 229.869H274.5V229.469H271.5V229.869ZM275.5 229.869H278.5V229.469H275.5V229.869ZM279.5 229.869H282.5V229.469H279.5V229.869ZM283.5 229.869H286.5V229.469H283.5V229.869ZM287.5 229.869H290.5V229.469H287.5V229.869ZM291.5 229.869H294.5V229.469H291.5V229.869ZM295.5 229.869H298.5V229.469H295.5V229.869ZM299.5 229.869H302.5V229.469H299.5V229.869ZM303.5 229.869H306.5V229.469H303.5V229.869ZM307.5 229.869H310.5V229.469H307.5V229.869ZM311.5 229.869H314.5V229.469H311.5V229.869ZM315.5 229.869H318.5V229.469H315.5V229.869ZM319.5 229.869H322.5V229.469H319.5V229.869ZM323.5 229.869H326.5V229.469H323.5V229.869ZM327.5 229.869H330.5V229.469H327.5V229.869ZM331.5 229.869H334.5V229.469H331.5V229.869ZM335.5 229.869H338.5V229.469H335.5V229.869ZM339.5 229.869H342.5V229.469H339.5V229.869ZM343.5 229.869H346.5V229.469H343.5V229.869ZM347.5 229.869H350.5V229.469H347.5V229.869ZM351.5 229.869H354.5V229.469H351.5V229.869ZM355.5 229.869H358.5V229.469H355.5V229.869ZM359.5 229.869H362.5V229.469H359.5V229.869ZM363.5 229.869H366.5V229.469H363.5V229.869ZM367.5 229.869H370.5V229.469H367.5V229.869ZM371.5 229.869H374.5V229.469H371.5V229.869ZM375.5 229.869H378.5V229.469H375.5V229.869ZM379.5 229.869H382.5V229.469H379.5V229.869ZM383.5 229.869H386.5V229.469H383.5V229.869ZM387.5 229.869H390.5V229.469H387.5V229.869ZM391.5 229.869H394.5V229.469H391.5V229.869ZM395.5 229.869H398.5V229.469H395.5V229.869ZM399.5 229.869H402.5V229.469H399.5V229.869ZM403.5 229.869H406.5V229.469H403.5V229.869ZM407.5 229.869H410.5V229.469H407.5V229.869ZM411.5 229.869H414.5V229.469H411.5V229.869ZM415.5 229.869H418.5V229.469H415.5V229.869ZM419.5 229.869H422.5V229.469H419.5V229.869ZM423.5 229.869H426.5V229.469H423.5V229.869ZM427.5 229.869H430.5V229.469H427.5V229.869ZM431.5 229.869H434.5V229.469H431.5V229.869ZM435.5 229.869H438.5V229.469H435.5V229.869ZM439.5 229.869H442.5V229.469H439.5V229.869ZM443.5 229.869H446.5V229.469H443.5V229.869ZM447.5 229.869H449V229.469H447.5V229.869ZM449 120.136H447.5V120.536H449V120.136ZM446.5 120.136H443.5V120.536H446.5V120.136ZM442.5 120.136H439.5V120.536H442.5V120.136ZM438.5 120.136H435.5V120.536H438.5V120.136ZM434.5 120.136H431.5V120.536H434.5V120.136ZM430.5 120.136H427.5V120.536H430.5V120.136ZM426.5 120.136H423.5V120.536H426.5V120.136ZM422.5 120.136H419.5V120.536H422.5V120.136ZM418.5 120.136H415.5V120.536H418.5V120.136ZM414.5 120.136H411.5V120.536H414.5V120.136ZM410.5 120.136H407.5V120.536H410.5V120.136ZM406.5 120.136H403.5V120.536H406.5V120.136ZM402.5 120.136H399.5V120.536H402.5V120.136ZM398.5 120.136H395.5V120.536H398.5V120.136ZM394.5 120.136H391.5V120.536H394.5V120.136ZM390.5 120.136H387.5V120.536H390.5V120.136ZM386.5 120.136H383.5V120.536H386.5V120.136ZM382.5 120.136H379.5V120.536H382.5V120.136ZM378.5 120.136H375.5V120.536H378.5V120.136ZM374.5 120.136H371.5V120.536H374.5V120.136ZM370.5 120.136H367.5V120.536H370.5V120.136ZM366.5 120.136H363.5V120.536H366.5V120.136ZM362.5 120.136H359.5V120.536H362.5V120.136ZM358.5 120.136H355.5V120.536H358.5V120.136ZM354.5 120.136H351.5V120.536H354.5V120.136ZM350.5 120.136H347.5V120.536H350.5V120.136ZM346.5 120.136H343.5V120.536H346.5V120.136ZM342.5 120.136H339.5V120.536H342.5V120.136ZM338.5 120.136H335.5V120.536H338.5V120.136ZM334.5 120.136H331.5V120.536H334.5V120.136ZM330.5 120.136H327.5V120.536H330.5V120.136ZM326.5 120.136H323.5V120.536H326.5V120.136ZM322.5 120.136H319.5V120.536H322.5V120.136ZM318.5 120.136H315.5V120.536H318.5V120.136ZM314.5 120.136H311.5V120.536H314.5V120.136ZM310.5 120.136H307.5V120.536H310.5V120.136ZM306.5 120.136H303.5V120.536H306.5V120.136ZM302.5 120.136H299.5V120.536H302.5V120.136ZM298.5 120.136H295.5V120.536H298.5V120.136ZM294.5 120.136H291.5V120.536H294.5V120.136ZM290.5 120.136H287.5V120.536H290.5V120.136ZM286.5 120.136H283.5V120.536H286.5V120.136ZM282.5 120.136H279.5V120.536H282.5V120.136ZM278.5 120.136H275.5V120.536H278.5V120.136ZM274.5 120.136H271.5V120.536H274.5V120.136ZM270.5 120.136H267.5V120.536H270.5V120.136ZM266.5 120.136H263.5V120.536H266.5V120.136ZM262.5 120.136H259.5V120.536H262.5V120.136ZM258.5 120.136H255.5V120.536H258.5V120.136ZM254.5 120.136H251.5V120.536H254.5V120.136ZM250.5 120.136H247.5V120.536H250.5V120.136ZM246.5 120.136H243.5V120.536H246.5V120.136ZM242.5 120.136H239.5V120.536H242.5V120.136ZM238.5 120.136H235.5V120.536H238.5V120.136ZM234.5 120.136H231.5V120.536H234.5V120.136ZM230.5 120.136H227.5V120.536H230.5V120.136ZM226.5 120.136H223.5V120.536H226.5V120.136ZM222.5 120.136H219.5V120.536H222.5V120.136ZM218.5 120.136H215.5V120.536H218.5V120.136ZM214.5 120.136H211.5V120.536H214.5V120.136ZM210.5 120.136H207.5V120.536H210.5V120.136ZM206.5 120.136H203.5V120.536H206.5V120.136ZM202.5 120.136H199.5V120.536H202.5V120.136ZM198.5 120.136H195.5V120.536H198.5V120.136ZM194.5 120.136H191.5V120.536H194.5V120.136ZM190.5 120.136H187.5V120.536H190.5V120.136ZM186.5 120.136H183.5V120.536H186.5V120.136ZM182.5 120.136H179.5V120.536H182.5V120.136ZM178.5 120.136H175.5V120.536H178.5V120.136ZM174.5 120.136H171.5V120.536H174.5V120.136ZM170.5 120.136H167.5V120.536H170.5V120.136ZM166.5 120.136H163.5V120.536H166.5V120.136ZM162.5 120.136H159.5V120.536H162.5V120.136ZM158.5 120.136H155.5V120.536H158.5V120.136ZM154.5 120.136H151.5V120.536H154.5V120.136ZM150.5 120.136H147.5V120.536H150.5V120.136ZM146.5 120.136H143.5V120.536H146.5V120.136ZM142.5 120.136H139.5V120.536H142.5V120.136ZM138.5 120.136H135.5V120.536H138.5V120.136ZM134.5 120.136H131.5V120.536H134.5V120.136ZM130.5 120.136H127.5V120.536H130.5V120.136ZM126.5 120.136H123.5V120.536H126.5V120.136ZM122.5 120.136H119.5V120.536H122.5V120.136ZM118.5 120.136H115.5V120.536H118.5V120.136ZM114.5 120.136H111.5V120.536H114.5V120.136ZM110.5 120.136H107.5V120.536H110.5V120.136ZM106.5 120.136H103.5V120.536H106.5V120.136ZM102.5 120.136H99.5V120.536H102.5V120.136ZM98.5 120.136H95.5V120.536H98.5V120.136ZM94.5 120.136H91.5V120.536H94.5V120.136ZM90.5 120.136H87.5V120.536H90.5V120.136ZM86.5 120.136H83.5V120.536H86.5V120.136ZM82.5 120.136H79.5V120.536H82.5V120.136ZM78.5 120.136H75.5V120.536H78.5V120.136ZM74.5 120.136H71.5V120.536H74.5V120.136ZM70.5 120.136H67.5V120.536H70.5V120.136ZM66.5 120.136H63.5V120.536H66.5V120.136ZM62.5 120.136H59.5V120.536H62.5V120.136ZM58.5 120.136H55.5V120.536H58.5V120.136ZM54.5 120.136H51.5V120.536H54.5V120.136ZM50.5 120.136H47.5V120.536H50.5V120.136ZM46.5 120.136H43.5V120.536H46.5V120.136ZM42.5 120.136H39.5V120.536H42.5V120.136ZM38.5 120.136H35.5V120.536H38.5V120.136ZM34.5 120.136H31.5V120.536H34.5V120.136ZM30.5 120.136H27.5V120.536H30.5V120.136ZM26.5 120.136H23.5V120.536H26.5V120.136ZM22.5 120.136H19.5V120.536H22.5V120.136ZM18.5 120.136H15.5V120.536H18.5V120.136ZM14.5 120.136H11.5V120.536H14.5V120.136ZM10.5 120.136H7.49999V120.536H10.5V120.136ZM6.49999 120.136H3.5V120.536H6.49999V120.136ZM2.50001 120.136H1V120.536H2.50001V120.136Z" fill="#D7D7D7"/>
<path d="M1 339.197H2.5V338.797H1V339.197ZM3.5 339.197H6.5V338.797H3.5V339.197ZM7.5 339.197H10.5V338.797H7.5V339.197ZM11.5 339.197H14.5V338.797H11.5V339.197ZM15.5 339.197H18.5V338.797H15.5V339.197ZM19.5 339.197H22.5V338.797H19.5V339.197ZM23.5 339.197H26.5V338.797H23.5V339.197ZM27.5 339.197H30.5V338.797H27.5V339.197ZM31.5 339.197H34.5V338.797H31.5V339.197ZM35.5 339.197H38.5V338.797H35.5V339.197ZM39.5 339.197H42.5V338.797H39.5V339.197ZM43.5 339.197H46.5V338.797H43.5V339.197ZM47.5 339.197H50.5V338.797H47.5V339.197ZM51.5 339.197H54.5V338.797H51.5V339.197ZM55.5 339.197H58.5V338.797H55.5V339.197ZM59.5 339.197H62.5V338.797H59.5V339.197ZM63.5 339.197H66.5V338.797H63.5V339.197ZM67.5 339.197H70.5V338.797H67.5V339.197ZM71.5 339.197H74.5V338.797H71.5V339.197ZM75.5 339.197H78.5V338.797H75.5V339.197ZM79.5 339.197H82.5V338.797H79.5V339.197ZM83.5 339.197H86.5V338.797H83.5V339.197ZM87.5 339.197H90.5V338.797H87.5V339.197ZM91.5 339.197H94.5V338.797H91.5V339.197ZM95.5 339.197H98.5V338.797H95.5V339.197ZM99.5 339.197H102.5V338.797H99.5V339.197ZM103.5 339.197H106.5V338.797H103.5V339.197ZM107.5 339.197H110.5V338.797H107.5V339.197ZM111.5 339.197H114.5V338.797H111.5V339.197ZM115.5 339.197H118.5V338.797H115.5V339.197ZM119.5 339.197H122.5V338.797H119.5V339.197ZM123.5 339.197H126.5V338.797H123.5V339.197ZM127.5 339.197H130.5V338.797H127.5V339.197ZM131.5 339.197H134.5V338.797H131.5V339.197ZM135.5 339.197H138.5V338.797H135.5V339.197ZM139.5 339.197H142.5V338.797H139.5V339.197ZM143.5 339.197H146.5V338.797H143.5V339.197ZM147.5 339.197H150.5V338.797H147.5V339.197ZM151.5 339.197H154.5V338.797H151.5V339.197ZM155.5 339.197H158.5V338.797H155.5V339.197ZM159.5 339.197H162.5V338.797H159.5V339.197ZM163.5 339.197H166.5V338.797H163.5V339.197ZM167.5 339.197H170.5V338.797H167.5V339.197ZM171.5 339.197H174.5V338.797H171.5V339.197ZM175.5 339.197H178.5V338.797H175.5V339.197ZM179.5 339.197H182.5V338.797H179.5V339.197ZM183.5 339.197H186.5V338.797H183.5V339.197ZM187.5 339.197H190.5V338.797H187.5V339.197ZM191.5 339.197H194.5V338.797H191.5V339.197ZM195.5 339.197H198.5V338.797H195.5V339.197ZM199.5 339.197H202.5V338.797H199.5V339.197ZM203.5 339.197H206.5V338.797H203.5V339.197ZM207.5 339.197H210.5V338.797H207.5V339.197ZM211.5 339.197H214.5V338.797H211.5V339.197ZM215.5 339.197H218.5V338.797H215.5V339.197ZM219.5 339.197H222.5V338.797H219.5V339.197ZM223.5 339.197H226.5V338.797H223.5V339.197ZM227.5 339.197H230.5V338.797H227.5V339.197ZM231.5 339.197H234.5V338.797H231.5V339.197ZM235.5 339.197H238.5V338.797H235.5V339.197ZM239.5 339.197H242.5V338.797H239.5V339.197ZM243.5 339.197H246.5V338.797H243.5V339.197ZM247.5 339.197H250.5V338.797H247.5V339.197ZM251.5 339.197H254.5V338.797H251.5V339.197ZM255.5 339.197H258.5V338.797H255.5V339.197ZM259.5 339.197H262.5V338.797H259.5V339.197ZM263.5 339.197H266.5V338.797H263.5V339.197ZM267.5 339.197H270.5V338.797H267.5V339.197ZM271.5 339.197H274.5V338.797H271.5V339.197ZM275.5 339.197H278.5V338.797H275.5V339.197ZM279.5 339.197H282.5V338.797H279.5V339.197ZM283.5 339.197H286.5V338.797H283.5V339.197ZM287.5 339.197H290.5V338.797H287.5V339.197ZM291.5 339.197H294.5V338.797H291.5V339.197ZM295.5 339.197H298.5V338.797H295.5V339.197ZM299.5 339.197H302.5V338.797H299.5V339.197ZM303.5 339.197H306.5V338.797H303.5V339.197ZM307.5 339.197H310.5V338.797H307.5V339.197ZM311.5 339.197H314.5V338.797H311.5V339.197ZM315.5 339.197H318.5V338.797H315.5V339.197ZM319.5 339.197H322.5V338.797H319.5V339.197ZM323.5 339.197H326.5V338.797H323.5V339.197ZM327.5 339.197H330.5V338.797H327.5V339.197ZM331.5 339.197H334.5V338.797H331.5V339.197ZM335.5 339.197H338.5V338.797H335.5V339.197ZM339.5 339.197H342.5V338.797H339.5V339.197ZM343.5 339.197H346.5V338.797H343.5V339.197ZM347.5 339.197H350.5V338.797H347.5V339.197ZM351.5 339.197H354.5V338.797H351.5V339.197ZM355.5 339.197H358.5V338.797H355.5V339.197ZM359.5 339.197H362.5V338.797H359.5V339.197ZM363.5 339.197H366.5V338.797H363.5V339.197ZM367.5 339.197H370.5V338.797H367.5V339.197ZM371.5 339.197H374.5V338.797H371.5V339.197ZM375.5 339.197H378.5V338.797H375.5V339.197ZM379.5 339.197H382.5V338.797H379.5V339.197ZM383.5 339.197H386.5V338.797H383.5V339.197ZM387.5 339.197H390.5V338.797H387.5V339.197ZM391.5 339.197H394.5V338.797H391.5V339.197ZM395.5 339.197H398.5V338.797H395.5V339.197ZM399.5 339.197H402.5V338.797H399.5V339.197ZM403.5 339.197H406.5V338.797H403.5V339.197ZM407.5 339.197H410.5V338.797H407.5V339.197ZM411.5 339.197H414.5V338.797H411.5V339.197ZM415.5 339.197H418.5V338.797H415.5V339.197ZM419.5 339.197H422.5V338.797H419.5V339.197ZM423.5 339.197H426.5V338.797H423.5V339.197ZM427.5 339.197H430.5V338.797H427.5V339.197ZM431.5 339.197H434.5V338.797H431.5V339.197ZM435.5 339.197H438.5V338.797H435.5V339.197ZM439.5 339.197H442.5V338.797H439.5V339.197ZM443.5 339.197H446.5V338.797H443.5V339.197ZM447.5 339.197H449V338.797H447.5V339.197ZM449 229.464H447.5V229.864H449V229.464ZM446.5 229.464H443.5V229.864H446.5V229.464ZM442.5 229.464H439.5V229.864H442.5V229.464ZM438.5 229.464H435.5V229.864H438.5V229.464ZM434.5 229.464H431.5V229.864H434.5V229.464ZM430.5 229.464H427.5V229.864H430.5V229.464ZM426.5 229.464H423.5V229.864H426.5V229.464ZM422.5 229.464H419.5V229.864H422.5V229.464ZM418.5 229.464H415.5V229.864H418.5V229.464ZM414.5 229.464H411.5V229.864H414.5V229.464ZM410.5 229.464H407.5V229.864H410.5V229.464ZM406.5 229.464H403.5V229.864H406.5V229.464ZM402.5 229.464H399.5V229.864H402.5V229.464ZM398.5 229.464H395.5V229.864H398.5V229.464ZM394.5 229.464H391.5V229.864H394.5V229.464ZM390.5 229.464H387.5V229.864H390.5V229.464ZM386.5 229.464H383.5V229.864H386.5V229.464ZM382.5 229.464H379.5V229.864H382.5V229.464ZM378.5 229.464H375.5V229.864H378.5V229.464ZM374.5 229.464H371.5V229.864H374.5V229.464ZM370.5 229.464H367.5V229.864H370.5V229.464ZM366.5 229.464H363.5V229.864H366.5V229.464ZM362.5 229.464H359.5V229.864H362.5V229.464ZM358.5 229.464H355.5V229.864H358.5V229.464ZM354.5 229.464H351.5V229.864H354.5V229.464ZM350.5 229.464H347.5V229.864H350.5V229.464ZM346.5 229.464H343.5V229.864H346.5V229.464ZM342.5 229.464H339.5V229.864H342.5V229.464ZM338.5 229.464H335.5V229.864H338.5V229.464ZM334.5 229.464H331.5V229.864H334.5V229.464ZM330.5 229.464H327.5V229.864H330.5V229.464ZM326.5 229.464H323.5V229.864H326.5V229.464ZM322.5 229.464H319.5V229.864H322.5V229.464ZM318.5 229.464H315.5V229.864H318.5V229.464ZM314.5 229.464H311.5V229.864H314.5V229.464ZM310.5 229.464H307.5V229.864H310.5V229.464ZM306.5 229.464H303.5V229.864H306.5V229.464ZM302.5 229.464H299.5V229.864H302.5V229.464ZM298.5 229.464H295.5V229.864H298.5V229.464ZM294.5 229.464H291.5V229.864H294.5V229.464ZM290.5 229.464H287.5V229.864H290.5V229.464ZM286.5 229.464H283.5V229.864H286.5V229.464ZM282.5 229.464H279.5V229.864H282.5V229.464ZM278.5 229.464H275.5V229.864H278.5V229.464ZM274.5 229.464H271.5V229.864H274.5V229.464ZM270.5 229.464H267.5V229.864H270.5V229.464ZM266.5 229.464H263.5V229.864H266.5V229.464ZM262.5 229.464H259.5V229.864H262.5V229.464ZM258.5 229.464H255.5V229.864H258.5V229.464ZM254.5 229.464H251.5V229.864H254.5V229.464ZM250.5 229.464H247.5V229.864H250.5V229.464ZM246.5 229.464H243.5V229.864H246.5V229.464ZM242.5 229.464H239.5V229.864H242.5V229.464ZM238.5 229.464H235.5V229.864H238.5V229.464ZM234.5 229.464H231.5V229.864H234.5V229.464ZM230.5 229.464H227.5V229.864H230.5V229.464ZM226.5 229.464H223.5V229.864H226.5V229.464ZM222.5 229.464H219.5V229.864H222.5V229.464ZM218.5 229.464H215.5V229.864H218.5V229.464ZM214.5 229.464H211.5V229.864H214.5V229.464ZM210.5 229.464H207.5V229.864H210.5V229.464ZM206.5 229.464H203.5V229.864H206.5V229.464ZM202.5 229.464H199.5V229.864H202.5V229.464ZM198.5 229.464H195.5V229.864H198.5V229.464ZM194.5 229.464H191.5V229.864H194.5V229.464ZM190.5 229.464H187.5V229.864H190.5V229.464ZM186.5 229.464H183.5V229.864H186.5V229.464ZM182.5 229.464H179.5V229.864H182.5V229.464ZM178.5 229.464H175.5V229.864H178.5V229.464ZM174.5 229.464H171.5V229.864H174.5V229.464ZM170.5 229.464H167.5V229.864H170.5V229.464ZM166.5 229.464H163.5V229.864H166.5V229.464ZM162.5 229.464H159.5V229.864H162.5V229.464ZM158.5 229.464H155.5V229.864H158.5V229.464ZM154.5 229.464H151.5V229.864H154.5V229.464ZM150.5 229.464H147.5V229.864H150.5V229.464ZM146.5 229.464H143.5V229.864H146.5V229.464ZM142.5 229.464H139.5V229.864H142.5V229.464ZM138.5 229.464H135.5V229.864H138.5V229.464ZM134.5 229.464H131.5V229.864H134.5V229.464ZM130.5 229.464H127.5V229.864H130.5V229.464ZM126.5 229.464H123.5V229.864H126.5V229.464ZM122.5 229.464H119.5V229.864H122.5V229.464ZM118.5 229.464H115.5V229.864H118.5V229.464ZM114.5 229.464H111.5V229.864H114.5V229.464ZM110.5 229.464H107.5V229.864H110.5V229.464ZM106.5 229.464H103.5V229.864H106.5V229.464ZM102.5 229.464H99.5V229.864H102.5V229.464ZM98.5 229.464H95.5V229.864H98.5V229.464ZM94.5 229.464H91.5V229.864H94.5V229.464ZM90.5 229.464H87.5V229.864H90.5V229.464ZM86.5 229.464H83.5V229.864H86.5V229.464ZM82.5 229.464H79.5V229.864H82.5V229.464ZM78.5 229.464H75.5V229.864H78.5V229.464ZM74.5 229.464H71.5V229.864H74.5V229.464ZM70.5 229.464H67.5V229.864H70.5V229.464ZM66.5 229.464H63.5V229.864H66.5V229.464ZM62.5 229.464H59.5V229.864H62.5V229.464ZM58.5 229.464H55.5V229.864H58.5V229.464ZM54.5 229.464H51.5V229.864H54.5V229.464ZM50.5 229.464H47.5V229.864H50.5V229.464ZM46.5 229.464H43.5V229.864H46.5V229.464ZM42.5 229.464H39.5V229.864H42.5V229.464ZM38.5 229.464H35.5V229.864H38.5V229.464ZM34.5 229.464H31.5V229.864H34.5V229.464ZM30.5 229.464H27.5V229.864H30.5V229.464ZM26.5 229.464H23.5V229.864H26.5V229.464ZM22.5 229.464H19.5V229.864H22.5V229.464ZM18.5 229.464H15.5V229.864H18.5V229.464ZM14.5 229.464H11.5V229.864H14.5V229.464ZM10.5 229.464H7.49999V229.864H10.5V229.464ZM6.49999 229.464H3.5V229.864H6.49999V229.464ZM2.50001 229.464H1V229.864H2.50001V229.464Z" fill="#D7D7D7"/>
<circle cx="156" cy="375" r="7.5" fill="url(#paint0_radial_1190_2646)" stroke="#E38869"/>
<path d="M179.469 379H176.879V371H179.551C180.335 371 181.008 371.16 181.57 371.48C182.133 371.798 182.564 372.255 182.863 372.852C183.165 373.445 183.316 374.158 183.316 374.988C183.316 375.822 183.164 376.538 182.859 377.137C182.557 377.736 182.12 378.197 181.547 378.52C180.974 378.84 180.281 379 179.469 379ZM178.086 377.945H179.402C180.012 377.945 180.518 377.831 180.922 377.602C181.326 377.37 181.628 377.035 181.828 376.598C182.029 376.158 182.129 375.621 182.129 374.988C182.129 374.361 182.029 373.828 181.828 373.391C181.63 372.953 181.335 372.621 180.941 372.395C180.548 372.168 180.06 372.055 179.477 372.055H178.086V377.945ZM184.724 379V373H185.892V379H184.724ZM185.313 372.074C185.11 372.074 184.936 372.007 184.79 371.871C184.647 371.733 184.575 371.569 184.575 371.379C184.575 371.186 184.647 371.022 184.79 370.887C184.936 370.749 185.11 370.68 185.313 370.68C185.517 370.68 185.69 370.749 185.833 370.887C185.979 371.022 186.052 371.186 186.052 371.379C186.052 371.569 185.979 371.733 185.833 371.871C185.69 372.007 185.517 372.074 185.313 372.074ZM190.049 379.121C189.458 379.121 188.949 378.995 188.521 378.742C188.097 378.487 187.769 378.129 187.537 377.668C187.308 377.204 187.193 376.661 187.193 376.039C187.193 375.424 187.308 374.883 187.537 374.414C187.769 373.945 188.092 373.579 188.506 373.316C188.923 373.053 189.41 372.922 189.967 372.922C190.305 372.922 190.633 372.978 190.951 373.09C191.269 373.202 191.554 373.378 191.807 373.617C192.059 373.857 192.258 374.168 192.404 374.551C192.55 374.931 192.623 375.393 192.623 375.937V376.352H187.854V375.477H191.479C191.479 375.169 191.416 374.897 191.291 374.66C191.166 374.421 190.99 374.232 190.764 374.094C190.54 373.956 190.277 373.887 189.975 373.887C189.646 373.887 189.36 373.967 189.115 374.129C188.873 374.288 188.686 374.496 188.553 374.754C188.423 375.009 188.357 375.286 188.357 375.586V376.27C188.357 376.671 188.428 377.012 188.568 377.293C188.712 377.574 188.911 377.789 189.166 377.937C189.421 378.083 189.719 378.156 190.061 378.156C190.282 378.156 190.484 378.125 190.666 378.062C190.848 377.997 191.006 377.901 191.139 377.773C191.271 377.646 191.373 377.488 191.443 377.301L192.549 377.5C192.46 377.826 192.301 378.111 192.072 378.355C191.846 378.598 191.561 378.786 191.217 378.922C190.876 379.055 190.486 379.121 190.049 379.121ZM196.72 373V373.937H193.442V373H196.72ZM194.321 371.562H195.489V377.238C195.489 377.465 195.523 377.635 195.591 377.75C195.659 377.862 195.746 377.939 195.853 377.98C195.962 378.02 196.08 378.039 196.208 378.039C196.302 378.039 196.384 378.033 196.454 378.02C196.524 378.007 196.579 377.996 196.618 377.988L196.829 378.953C196.761 378.979 196.665 379.005 196.54 379.031C196.415 379.06 196.259 379.076 196.071 379.078C195.764 379.083 195.478 379.029 195.212 378.914C194.946 378.799 194.731 378.622 194.567 378.383C194.403 378.143 194.321 377.842 194.321 377.48V371.562ZM202.224 379L200.458 373H201.665L202.841 377.406H202.899L204.079 373H205.286L206.458 377.387H206.517L207.685 373H208.892L207.13 379H205.938L204.72 374.668H204.63L203.411 379H202.224ZM210 379V373H211.168V379H210ZM210.59 372.074C210.387 372.074 210.212 372.007 210.066 371.871C209.923 371.733 209.852 371.569 209.852 371.379C209.852 371.186 209.923 371.022 210.066 370.887C210.212 370.749 210.387 370.68 210.59 370.68C210.793 370.68 210.966 370.749 211.109 370.887C211.255 371.022 211.328 371.186 211.328 371.379C211.328 371.569 211.255 371.733 211.109 371.871C210.966 372.007 210.793 372.074 210.59 372.074ZM215.54 373V373.937H212.263V373H215.54ZM213.142 371.562H214.31V377.238C214.31 377.465 214.343 377.635 214.411 377.75C214.479 377.862 214.566 377.939 214.673 377.98C214.782 378.02 214.901 378.039 215.028 378.039C215.122 378.039 215.204 378.033 215.274 378.02C215.345 378.007 215.399 377.996 215.438 377.988L215.649 378.953C215.582 378.979 215.485 379.005 215.36 379.031C215.235 379.06 215.079 379.076 214.892 379.078C214.584 379.083 214.298 379.029 214.032 378.914C213.767 378.799 213.552 378.622 213.388 378.383C213.224 378.143 213.142 377.842 213.142 377.48V371.562ZM218.129 375.437V379H216.961V371H218.113V373.977H218.188C218.328 373.654 218.543 373.397 218.832 373.207C219.121 373.017 219.499 372.922 219.965 372.922C220.376 372.922 220.736 373.007 221.043 373.176C221.353 373.345 221.592 373.598 221.762 373.934C221.934 374.267 222.02 374.684 222.02 375.184V379H220.852V375.324C220.852 374.884 220.738 374.543 220.512 374.301C220.285 374.056 219.97 373.934 219.566 373.934C219.29 373.934 219.043 373.992 218.824 374.109C218.608 374.227 218.438 374.398 218.313 374.625C218.19 374.849 218.129 375.12 218.129 375.437ZM226.105 379.121C225.543 379.121 225.052 378.992 224.633 378.734C224.214 378.477 223.888 378.116 223.656 377.652C223.424 377.189 223.309 376.647 223.309 376.027C223.309 375.405 223.424 374.861 223.656 374.395C223.888 373.928 224.214 373.566 224.633 373.309C225.052 373.051 225.543 372.922 226.105 372.922C226.668 372.922 227.159 373.051 227.578 373.309C227.997 373.566 228.323 373.928 228.555 374.395C228.786 374.861 228.902 375.405 228.902 376.027C228.902 376.647 228.786 377.189 228.555 377.652C228.323 378.116 227.997 378.477 227.578 378.734C227.159 378.992 226.668 379.121 226.105 379.121ZM226.109 378.141C226.474 378.141 226.776 378.044 227.016 377.852C227.255 377.659 227.432 377.402 227.547 377.082C227.664 376.762 227.723 376.409 227.723 376.023C227.723 375.641 227.664 375.289 227.547 374.969C227.432 374.646 227.255 374.387 227.016 374.191C226.776 373.996 226.474 373.898 226.109 373.898C225.742 373.898 225.438 373.996 225.195 374.191C224.956 374.387 224.777 374.646 224.66 374.969C224.546 375.289 224.488 375.641 224.488 376.023C224.488 376.409 224.546 376.762 224.66 377.082C224.777 377.402 224.956 377.659 225.195 377.852C225.438 378.044 225.742 378.141 226.109 378.141ZM234.007 376.512V373H235.179V379H234.03V377.961H233.968C233.83 378.281 233.608 378.548 233.304 378.762C233.002 378.973 232.625 379.078 232.175 379.078C231.789 379.078 231.448 378.993 231.151 378.824C230.857 378.652 230.625 378.398 230.456 378.062C230.289 377.727 230.206 377.311 230.206 376.816V373H231.374V376.676C231.374 377.085 231.487 377.41 231.714 377.652C231.94 377.895 232.235 378.016 232.597 378.016C232.815 378.016 233.033 377.961 233.249 377.852C233.468 377.742 233.649 377.577 233.792 377.355C233.938 377.134 234.009 376.853 234.007 376.512ZM239.549 373V373.937H236.271V373H239.549ZM237.15 371.562H238.318V377.238C238.318 377.465 238.352 377.635 238.42 377.75C238.488 377.862 238.575 377.939 238.682 377.98C238.791 378.02 238.91 378.039 239.037 378.039C239.131 378.039 239.213 378.033 239.283 378.02C239.354 378.007 239.408 377.996 239.447 377.988L239.658 378.953C239.59 378.979 239.494 379.005 239.369 379.031C239.244 379.06 239.088 379.076 238.9 379.078C238.593 379.083 238.307 379.029 238.041 378.914C237.775 378.799 237.561 378.622 237.396 378.383C237.232 378.143 237.15 377.842 237.15 377.48V371.562ZM243.752 379V373H244.873V373.977H244.947C245.072 373.646 245.277 373.388 245.561 373.203C245.844 373.016 246.184 372.922 246.58 372.922C246.981 372.922 247.317 373.016 247.588 373.203C247.861 373.391 248.063 373.648 248.193 373.977H248.256C248.399 373.656 248.627 373.401 248.939 373.211C249.252 373.018 249.624 372.922 250.057 372.922C250.601 372.922 251.045 373.092 251.389 373.434C251.735 373.775 251.908 374.289 251.908 374.977V379H250.74V375.086C250.74 374.68 250.63 374.385 250.408 374.203C250.187 374.021 249.923 373.93 249.615 373.93C249.235 373.93 248.939 374.047 248.729 374.281C248.518 374.513 248.412 374.811 248.412 375.176V379H247.248V375.012C247.248 374.686 247.146 374.424 246.943 374.227C246.74 374.029 246.476 373.93 246.15 373.93C245.929 373.93 245.725 373.988 245.537 374.105C245.352 374.22 245.202 374.38 245.088 374.586C244.976 374.792 244.92 375.03 244.92 375.301V379H243.752ZM256.06 379.121C255.468 379.121 254.959 378.995 254.532 378.742C254.108 378.487 253.78 378.129 253.548 377.668C253.319 377.204 253.204 376.661 253.204 376.039C253.204 375.424 253.319 374.883 253.548 374.414C253.78 373.945 254.103 373.579 254.517 373.316C254.933 373.053 255.42 372.922 255.978 372.922C256.316 372.922 256.644 372.978 256.962 373.09C257.28 373.202 257.565 373.378 257.817 373.617C258.07 373.857 258.269 374.168 258.415 374.551C258.561 374.931 258.634 375.393 258.634 375.937V376.352H253.864V375.477H257.489C257.489 375.169 257.427 374.897 257.302 374.66C257.177 374.421 257.001 374.232 256.774 374.094C256.55 373.956 256.287 373.887 255.985 373.887C255.657 373.887 255.371 373.967 255.126 374.129C254.884 374.288 254.696 374.496 254.563 374.754C254.433 375.009 254.368 375.286 254.368 375.586V376.27C254.368 376.671 254.438 377.012 254.579 377.293C254.722 377.574 254.922 377.789 255.177 377.937C255.432 378.083 255.73 378.156 256.071 378.156C256.293 378.156 256.494 378.125 256.677 378.062C256.859 377.997 257.017 377.901 257.149 377.773C257.282 377.646 257.384 377.488 257.454 377.301L258.56 377.5C258.471 377.826 258.312 378.111 258.083 378.355C257.856 378.598 257.571 378.786 257.228 378.922C256.886 379.055 256.497 379.121 256.06 379.121ZM262.176 379.117C261.691 379.117 261.259 378.993 260.879 378.746C260.501 378.496 260.204 378.141 259.988 377.68C259.775 377.216 259.668 376.66 259.668 376.012C259.668 375.363 259.776 374.809 259.992 374.348C260.211 373.887 260.51 373.534 260.891 373.289C261.271 373.044 261.702 372.922 262.184 372.922C262.556 372.922 262.855 372.984 263.082 373.109C263.311 373.232 263.488 373.375 263.613 373.539C263.741 373.703 263.84 373.848 263.91 373.973H263.98V371H265.148V379H264.008V378.066H263.91C263.84 378.194 263.738 378.34 263.605 378.504C263.475 378.668 263.296 378.811 263.066 378.934C262.837 379.056 262.54 379.117 262.176 379.117ZM262.434 378.121C262.77 378.121 263.053 378.033 263.285 377.855C263.52 377.676 263.697 377.427 263.816 377.109C263.939 376.792 264 376.422 264 376C264 375.583 263.94 375.219 263.82 374.906C263.701 374.594 263.525 374.35 263.293 374.176C263.061 374.001 262.775 373.914 262.434 373.914C262.082 373.914 261.789 374.005 261.555 374.188C261.32 374.37 261.143 374.618 261.023 374.934C260.906 375.249 260.848 375.604 260.848 376C260.848 376.401 260.908 376.762 261.027 377.082C261.147 377.402 261.324 377.656 261.559 377.844C261.796 378.029 262.087 378.121 262.434 378.121ZM266.815 379V373H267.983V379H266.815ZM267.405 372.074C267.202 372.074 267.028 372.007 266.882 371.871C266.739 371.733 266.667 371.569 266.667 371.379C266.667 371.186 266.739 371.022 266.882 370.887C267.028 370.749 267.202 370.68 267.405 370.68C267.608 370.68 267.782 370.749 267.925 370.887C268.071 371.022 268.144 371.186 268.144 371.379C268.144 371.569 268.071 371.733 267.925 371.871C267.782 372.007 267.608 372.074 267.405 372.074ZM272.082 379.121C271.501 379.121 271.001 378.99 270.582 378.727C270.165 378.461 269.845 378.095 269.621 377.629C269.397 377.163 269.285 376.629 269.285 376.027C269.285 375.418 269.4 374.88 269.629 374.414C269.858 373.945 270.181 373.579 270.598 373.316C271.014 373.053 271.505 372.922 272.07 372.922C272.526 372.922 272.932 373.007 273.289 373.176C273.646 373.342 273.934 373.577 274.152 373.879C274.374 374.181 274.505 374.534 274.547 374.937H273.41C273.348 374.656 273.204 374.414 272.98 374.211C272.759 374.008 272.462 373.906 272.09 373.906C271.764 373.906 271.479 373.992 271.234 374.164C270.992 374.333 270.803 374.576 270.668 374.891C270.533 375.203 270.465 375.573 270.465 376C270.465 376.437 270.531 376.815 270.664 377.133C270.797 377.451 270.984 377.697 271.227 377.871C271.471 378.046 271.759 378.133 272.09 378.133C272.311 378.133 272.512 378.092 272.691 378.012C272.874 377.928 273.026 377.81 273.148 377.656C273.273 377.503 273.361 377.318 273.41 377.102H274.547C274.505 377.49 274.379 377.836 274.168 378.141C273.957 378.445 273.674 378.685 273.32 378.859C272.969 379.034 272.556 379.121 272.082 379.121ZM277.542 379.133C277.162 379.133 276.818 379.063 276.511 378.922C276.203 378.779 275.96 378.572 275.78 378.301C275.603 378.03 275.515 377.698 275.515 377.305C275.515 376.966 275.58 376.687 275.71 376.469C275.84 376.25 276.016 376.077 276.237 375.949C276.459 375.822 276.706 375.725 276.979 375.66C277.253 375.595 277.532 375.546 277.815 375.512C278.175 375.47 278.466 375.436 278.69 375.41C278.914 375.382 279.077 375.336 279.179 375.273C279.28 375.211 279.331 375.109 279.331 374.969V374.941C279.331 374.6 279.235 374.336 279.042 374.148C278.852 373.961 278.568 373.867 278.19 373.867C277.797 373.867 277.487 373.954 277.261 374.129C277.037 374.301 276.882 374.492 276.796 374.703L275.698 374.453C275.828 374.089 276.019 373.794 276.269 373.57C276.521 373.344 276.812 373.18 277.14 373.078C277.468 372.974 277.813 372.922 278.175 372.922C278.414 372.922 278.668 372.951 278.937 373.008C279.207 373.062 279.46 373.164 279.694 373.312C279.931 373.461 280.125 373.673 280.276 373.949C280.427 374.223 280.503 374.578 280.503 375.016V379H279.362V378.18H279.315C279.24 378.331 279.127 378.479 278.976 378.625C278.825 378.771 278.631 378.892 278.394 378.988C278.157 379.085 277.873 379.133 277.542 379.133ZM277.796 378.195C278.119 378.195 278.395 378.132 278.624 378.004C278.856 377.876 279.032 377.71 279.151 377.504C279.274 377.296 279.335 377.073 279.335 376.836V376.062C279.293 376.104 279.213 376.143 279.093 376.18C278.976 376.214 278.841 376.243 278.69 376.27C278.539 376.293 278.392 376.315 278.249 376.336C278.106 376.354 277.986 376.37 277.89 376.383C277.663 376.411 277.456 376.46 277.269 376.527C277.084 376.595 276.935 376.693 276.823 376.82C276.714 376.945 276.659 377.112 276.659 377.32C276.659 377.609 276.766 377.828 276.979 377.977C277.193 378.122 277.465 378.195 277.796 378.195ZM284.859 373V373.937H281.582V373H284.859ZM282.461 371.562H283.629V377.238C283.629 377.465 283.663 377.635 283.73 377.75C283.798 377.862 283.885 377.939 283.992 377.98C284.102 378.02 284.22 378.039 284.348 378.039C284.441 378.039 284.523 378.033 284.594 378.02C284.664 378.007 284.719 377.996 284.758 377.988L284.969 378.953C284.901 378.979 284.805 379.005 284.68 379.031C284.555 379.06 284.398 379.076 284.211 379.078C283.904 379.083 283.617 379.029 283.352 378.914C283.086 378.799 282.871 378.622 282.707 378.383C282.543 378.143 282.461 377.842 282.461 377.48V371.562ZM286.151 379V373H287.319V379H286.151ZM286.741 372.074C286.538 372.074 286.364 372.007 286.218 371.871C286.075 371.733 286.003 371.569 286.003 371.379C286.003 371.186 286.075 371.022 286.218 370.887C286.364 370.749 286.538 370.68 286.741 370.68C286.944 370.68 287.118 370.749 287.261 370.887C287.407 371.022 287.479 371.186 287.479 371.379C287.479 371.569 287.407 371.733 287.261 371.871C287.118 372.007 286.944 372.074 286.741 372.074ZM291.418 379.121C290.855 379.121 290.365 378.992 289.945 378.734C289.526 378.477 289.201 378.116 288.969 377.652C288.737 377.189 288.621 376.647 288.621 376.027C288.621 375.405 288.737 374.861 288.969 374.395C289.201 373.928 289.526 373.566 289.945 373.309C290.365 373.051 290.855 372.922 291.418 372.922C291.98 372.922 292.471 373.051 292.891 373.309C293.31 373.566 293.635 373.928 293.867 374.395C294.099 374.861 294.215 375.405 294.215 376.027C294.215 376.647 294.099 377.189 293.867 377.652C293.635 378.116 293.31 378.477 292.891 378.734C292.471 378.992 291.98 379.121 291.418 379.121ZM291.422 378.141C291.786 378.141 292.089 378.044 292.328 377.852C292.568 377.659 292.745 377.402 292.859 377.082C292.977 376.762 293.035 376.409 293.035 376.023C293.035 375.641 292.977 375.289 292.859 374.969C292.745 374.646 292.568 374.387 292.328 374.191C292.089 373.996 291.786 373.898 291.422 373.898C291.055 373.898 290.75 373.996 290.508 374.191C290.268 374.387 290.09 374.646 289.973 374.969C289.858 375.289 289.801 375.641 289.801 376.023C289.801 376.409 289.858 376.762 289.973 377.082C290.09 377.402 290.268 377.659 290.508 377.852C290.75 378.044 291.055 378.141 291.422 378.141ZM296.687 375.437V379H295.519V373H296.64V373.977H296.714C296.852 373.659 297.068 373.404 297.362 373.211C297.659 373.018 298.033 372.922 298.483 372.922C298.892 372.922 299.25 373.008 299.558 373.18C299.865 373.349 300.103 373.602 300.272 373.937C300.442 374.273 300.526 374.689 300.526 375.184V379H299.358V375.324C299.358 374.889 299.245 374.549 299.019 374.305C298.792 374.057 298.481 373.934 298.085 373.934C297.814 373.934 297.573 373.992 297.362 374.109C297.154 374.227 296.989 374.398 296.866 374.625C296.746 374.849 296.687 375.12 296.687 375.437Z" fill="black"/>
<circle cx="156" cy="395" r="7.5" fill="url(#paint1_radial_1190_2646)" stroke="#005315"/>
<path d="M178.445 399L176.227 391H177.496L179.055 397.195H179.129L180.75 391H182.008L183.629 397.199H183.703L185.258 391H186.531L184.309 399H183.094L181.41 393.008H181.348L179.664 399H178.445ZM187.538 399V393H188.706V399H187.538ZM188.128 392.074C187.925 392.074 187.75 392.007 187.604 391.871C187.461 391.733 187.39 391.569 187.39 391.379C187.39 391.186 187.461 391.022 187.604 390.887C187.75 390.749 187.925 390.68 188.128 390.68C188.331 390.68 188.504 390.749 188.647 390.887C188.793 391.022 188.866 391.186 188.866 391.379C188.866 391.569 188.793 391.733 188.647 391.871C188.504 392.007 188.331 392.074 188.128 392.074ZM193.078 393V393.937H189.801V393H193.078ZM190.68 391.562H191.848V397.238C191.848 397.465 191.882 397.635 191.949 397.75C192.017 397.862 192.104 397.939 192.211 397.98C192.32 398.02 192.439 398.039 192.566 398.039C192.66 398.039 192.742 398.033 192.813 398.02C192.883 398.007 192.938 397.996 192.977 397.988L193.188 398.953C193.12 398.979 193.023 399.005 192.898 399.031C192.773 399.06 192.617 399.076 192.43 399.078C192.122 399.083 191.836 399.029 191.57 398.914C191.305 398.799 191.09 398.622 190.926 398.383C190.762 398.143 190.68 397.842 190.68 397.48V391.562ZM195.667 395.437V399H194.499V391H195.651V393.977H195.726C195.866 393.654 196.081 393.397 196.37 393.207C196.659 393.017 197.037 392.922 197.503 392.922C197.914 392.922 198.274 393.007 198.581 393.176C198.891 393.345 199.131 393.598 199.3 393.934C199.472 394.267 199.558 394.684 199.558 395.184V399H198.39V395.324C198.39 394.884 198.276 394.543 198.05 394.301C197.823 394.056 197.508 393.934 197.104 393.934C196.828 393.934 196.581 393.992 196.362 394.109C196.146 394.227 195.976 394.398 195.851 394.625C195.728 394.849 195.667 395.12 195.667 395.437ZM209.535 393.527C209.46 393.29 209.358 393.078 209.23 392.891C209.105 392.701 208.956 392.539 208.781 392.406C208.607 392.271 208.408 392.168 208.184 392.098C207.962 392.027 207.719 391.992 207.453 391.992C207.003 391.992 206.596 392.108 206.234 392.34C205.872 392.572 205.586 392.911 205.375 393.359C205.167 393.805 205.062 394.35 205.062 394.996C205.062 395.645 205.168 396.193 205.379 396.641C205.59 397.089 205.879 397.428 206.246 397.66C206.613 397.892 207.031 398.008 207.5 398.008C207.935 398.008 208.314 397.919 208.637 397.742C208.962 397.565 209.214 397.315 209.391 396.992C209.57 396.667 209.66 396.284 209.66 395.844L209.973 395.902H207.684V394.906H210.828V395.816C210.828 396.488 210.685 397.072 210.398 397.566C210.115 398.059 209.721 398.439 209.219 398.707C208.719 398.975 208.146 399.109 207.5 399.109C206.776 399.109 206.141 398.943 205.594 398.609C205.049 398.276 204.625 397.803 204.32 397.191C204.016 396.577 203.863 395.848 203.863 395.004C203.863 394.366 203.952 393.793 204.129 393.285C204.306 392.777 204.555 392.346 204.875 391.992C205.198 391.635 205.577 391.363 206.012 391.176C206.449 390.986 206.927 390.891 207.445 390.891C207.878 390.891 208.28 390.954 208.652 391.082C209.027 391.21 209.361 391.391 209.652 391.625C209.947 391.859 210.19 392.138 210.383 392.461C210.576 392.781 210.706 393.137 210.773 393.527H209.535ZM212.36 399V391H213.567V397.961H217.192V399H212.36ZM218.569 399V391H221.421C222.043 391 222.559 391.113 222.968 391.34C223.377 391.566 223.683 391.876 223.886 392.27C224.089 392.66 224.19 393.1 224.19 393.59C224.19 394.082 224.088 394.525 223.882 394.918C223.679 395.309 223.371 395.618 222.96 395.848C222.551 396.074 222.037 396.188 221.417 396.188H219.456V395.164H221.308C221.701 395.164 222.02 395.096 222.265 394.961C222.509 394.823 222.689 394.635 222.804 394.398C222.918 394.161 222.976 393.892 222.976 393.59C222.976 393.288 222.918 393.02 222.804 392.785C222.689 392.551 222.508 392.367 222.261 392.234C222.016 392.102 221.693 392.035 221.292 392.035H219.776V399H218.569ZM228.639 394.492V395.508H225.092V394.492H228.639ZM233.215 391V399H232.004V392.211H231.957L230.043 393.461V392.305L232.039 391H233.215ZM238.306 399V393H239.427V393.977H239.501C239.626 393.646 239.83 393.388 240.114 393.203C240.398 393.016 240.738 392.922 241.134 392.922C241.535 392.922 241.871 393.016 242.142 393.203C242.415 393.391 242.617 393.648 242.747 393.977H242.81C242.953 393.656 243.181 393.401 243.493 393.211C243.806 393.018 244.178 392.922 244.61 392.922C245.155 392.922 245.599 393.092 245.942 393.434C246.289 393.775 246.462 394.289 246.462 394.977V399H245.294V395.086C245.294 394.68 245.183 394.385 244.962 394.203C244.741 394.021 244.476 393.93 244.169 393.93C243.789 393.93 243.493 394.047 243.282 394.281C243.071 394.513 242.966 394.811 242.966 395.176V399H241.802V395.012C241.802 394.686 241.7 394.424 241.497 394.227C241.294 394.029 241.03 393.93 240.704 393.93C240.483 393.93 240.278 393.988 240.091 394.105C239.906 394.22 239.756 394.38 239.642 394.586C239.53 394.792 239.474 395.03 239.474 395.301V399H238.306ZM250.613 399.121C250.022 399.121 249.513 398.995 249.086 398.742C248.661 398.487 248.333 398.129 248.102 397.668C247.872 397.204 247.758 396.661 247.758 396.039C247.758 395.424 247.872 394.883 248.102 394.414C248.333 393.945 248.656 393.579 249.07 393.316C249.487 393.053 249.974 392.922 250.531 392.922C250.87 392.922 251.198 392.978 251.516 393.09C251.833 393.202 252.118 393.378 252.371 393.617C252.624 393.857 252.823 394.168 252.969 394.551C253.115 394.931 253.188 395.393 253.188 395.937V396.352H248.418V395.477H252.043C252.043 395.169 251.98 394.897 251.855 394.66C251.73 394.421 251.555 394.232 251.328 394.094C251.104 393.956 250.841 393.887 250.539 393.887C250.211 393.887 249.924 393.967 249.68 394.129C249.438 394.288 249.25 394.496 249.117 394.754C248.987 395.009 248.922 395.286 248.922 395.586V396.27C248.922 396.671 248.992 397.012 249.133 397.293C249.276 397.574 249.475 397.789 249.73 397.937C249.986 398.083 250.284 398.156 250.625 398.156C250.846 398.156 251.048 398.125 251.23 398.062C251.413 397.997 251.57 397.901 251.703 397.773C251.836 397.646 251.938 397.488 252.008 397.301L253.113 397.5C253.025 397.826 252.866 398.111 252.637 398.355C252.41 398.598 252.125 398.786 251.781 398.922C251.44 399.055 251.051 399.121 250.613 399.121ZM256.729 399.117C256.245 399.117 255.813 398.993 255.433 398.746C255.055 398.496 254.758 398.141 254.542 397.68C254.328 397.216 254.222 396.66 254.222 396.012C254.222 395.363 254.33 394.809 254.546 394.348C254.765 393.887 255.064 393.534 255.444 393.289C255.825 393.044 256.256 392.922 256.737 392.922C257.11 392.922 257.409 392.984 257.636 393.109C257.865 393.232 258.042 393.375 258.167 393.539C258.295 393.703 258.394 393.848 258.464 393.973H258.534V391H259.702V399H258.562V398.066H258.464C258.394 398.194 258.292 398.34 258.159 398.504C258.029 398.668 257.849 398.811 257.62 398.934C257.391 399.056 257.094 399.117 256.729 399.117ZM256.987 398.121C257.323 398.121 257.607 398.033 257.839 397.855C258.073 397.676 258.25 397.427 258.37 397.109C258.493 396.792 258.554 396.422 258.554 396C258.554 395.583 258.494 395.219 258.374 394.906C258.254 394.594 258.078 394.35 257.847 394.176C257.615 394.001 257.328 393.914 256.987 393.914C256.636 393.914 256.343 394.005 256.108 394.188C255.874 394.37 255.697 394.618 255.577 394.934C255.46 395.249 255.401 395.604 255.401 396C255.401 396.401 255.461 396.762 255.581 397.082C255.701 397.402 255.878 397.656 256.112 397.844C256.349 398.029 256.641 398.121 256.987 398.121ZM261.369 399V393H262.537V399H261.369ZM261.959 392.074C261.756 392.074 261.581 392.007 261.436 391.871C261.292 391.733 261.221 391.569 261.221 391.379C261.221 391.186 261.292 391.022 261.436 390.887C261.581 390.749 261.756 390.68 261.959 390.68C262.162 390.68 262.335 390.749 262.479 390.887C262.624 391.022 262.697 391.186 262.697 391.379C262.697 391.569 262.624 391.733 262.479 391.871C262.335 392.007 262.162 392.074 261.959 392.074ZM266.636 399.121C266.055 399.121 265.555 398.99 265.136 398.727C264.719 398.461 264.399 398.095 264.175 397.629C263.951 397.163 263.839 396.629 263.839 396.027C263.839 395.418 263.953 394.88 264.183 394.414C264.412 393.945 264.735 393.579 265.151 393.316C265.568 393.053 266.059 392.922 266.624 392.922C267.08 392.922 267.486 393.007 267.843 393.176C268.2 393.342 268.487 393.577 268.706 393.879C268.927 394.181 269.059 394.534 269.101 394.937H267.964C267.901 394.656 267.758 394.414 267.534 394.211C267.313 394.008 267.016 393.906 266.644 393.906C266.318 393.906 266.033 393.992 265.788 394.164C265.546 394.333 265.357 394.576 265.222 394.891C265.086 395.203 265.019 395.573 265.019 396C265.019 396.437 265.085 396.815 265.218 397.133C265.351 397.451 265.538 397.697 265.78 397.871C266.025 398.046 266.313 398.133 266.644 398.133C266.865 398.133 267.065 398.092 267.245 398.012C267.427 397.928 267.58 397.81 267.702 397.656C267.827 397.503 267.914 397.318 267.964 397.102H269.101C269.059 397.49 268.933 397.836 268.722 398.141C268.511 398.445 268.228 398.685 267.874 398.859C267.522 399.034 267.11 399.121 266.636 399.121ZM272.096 399.133C271.715 399.133 271.372 399.063 271.064 398.922C270.757 398.779 270.514 398.572 270.334 398.301C270.157 398.03 270.068 397.698 270.068 397.305C270.068 396.966 270.133 396.687 270.264 396.469C270.394 396.25 270.57 396.077 270.791 395.949C271.012 395.822 271.26 395.725 271.533 395.66C271.807 395.595 272.085 395.546 272.369 395.512C272.729 395.47 273.02 395.436 273.244 395.41C273.468 395.382 273.631 395.336 273.732 395.273C273.834 395.211 273.885 395.109 273.885 394.969V394.941C273.885 394.6 273.788 394.336 273.596 394.148C273.406 393.961 273.122 393.867 272.744 393.867C272.351 393.867 272.041 393.954 271.814 394.129C271.59 394.301 271.436 394.492 271.35 394.703L270.252 394.453C270.382 394.089 270.572 393.794 270.822 393.57C271.075 393.344 271.365 393.18 271.693 393.078C272.021 392.974 272.367 392.922 272.729 392.922C272.968 392.922 273.222 392.951 273.49 393.008C273.761 393.062 274.014 393.164 274.248 393.312C274.485 393.461 274.679 393.673 274.83 393.949C274.981 394.223 275.057 394.578 275.057 395.016V399H273.916V398.18H273.869C273.794 398.331 273.68 398.479 273.529 398.625C273.378 398.771 273.184 398.892 272.947 398.988C272.71 399.085 272.426 399.133 272.096 399.133ZM272.35 398.195C272.673 398.195 272.949 398.132 273.178 398.004C273.41 397.876 273.585 397.71 273.705 397.504C273.827 397.296 273.889 397.073 273.889 396.836V396.062C273.847 396.104 273.766 396.143 273.646 396.18C273.529 396.214 273.395 396.243 273.244 396.27C273.093 396.293 272.946 396.315 272.803 396.336C272.66 396.354 272.54 396.37 272.443 396.383C272.217 396.411 272.01 396.46 271.822 396.527C271.637 396.595 271.489 396.693 271.377 396.82C271.268 396.945 271.213 397.112 271.213 397.32C271.213 397.609 271.32 397.828 271.533 397.977C271.747 398.122 272.019 398.195 272.35 398.195ZM279.413 393V393.937H276.136V393H279.413ZM277.015 391.562H278.183V397.238C278.183 397.465 278.216 397.635 278.284 397.75C278.352 397.862 278.439 397.939 278.546 397.98C278.655 398.02 278.774 398.039 278.901 398.039C278.995 398.039 279.077 398.033 279.147 398.02C279.218 398.007 279.272 397.996 279.312 397.988L279.522 398.953C279.455 398.979 279.358 399.005 279.233 399.031C279.108 399.06 278.952 399.076 278.765 399.078C278.457 399.083 278.171 399.029 277.905 398.914C277.64 398.799 277.425 398.622 277.261 398.383C277.097 398.143 277.015 397.842 277.015 397.48V391.562ZM280.705 399V393H281.873V399H280.705ZM281.295 392.074C281.092 392.074 280.917 392.007 280.771 391.871C280.628 391.733 280.557 391.569 280.557 391.379C280.557 391.186 280.628 391.022 280.771 390.887C280.917 390.749 281.092 390.68 281.295 390.68C281.498 390.68 281.671 390.749 281.814 390.887C281.96 391.022 282.033 391.186 282.033 391.379C282.033 391.569 281.96 391.733 281.814 391.871C281.671 392.007 281.498 392.074 281.295 392.074ZM285.972 399.121C285.409 399.121 284.918 398.992 284.499 398.734C284.08 398.477 283.754 398.116 283.522 397.652C283.291 397.189 283.175 396.647 283.175 396.027C283.175 395.405 283.291 394.861 283.522 394.395C283.754 393.928 284.08 393.566 284.499 393.309C284.918 393.051 285.409 392.922 285.972 392.922C286.534 392.922 287.025 393.051 287.444 393.309C287.864 393.566 288.189 393.928 288.421 394.395C288.653 394.861 288.769 395.405 288.769 396.027C288.769 396.647 288.653 397.189 288.421 397.652C288.189 398.116 287.864 398.477 287.444 398.734C287.025 398.992 286.534 399.121 285.972 399.121ZM285.976 398.141C286.34 398.141 286.642 398.044 286.882 397.852C287.121 397.659 287.299 397.402 287.413 397.082C287.53 396.762 287.589 396.409 287.589 396.023C287.589 395.641 287.53 395.289 287.413 394.969C287.299 394.646 287.121 394.387 286.882 394.191C286.642 393.996 286.34 393.898 285.976 393.898C285.608 393.898 285.304 393.996 285.062 394.191C284.822 394.387 284.644 394.646 284.526 394.969C284.412 395.289 284.354 395.641 284.354 396.023C284.354 396.409 284.412 396.762 284.526 397.082C284.644 397.402 284.822 397.659 285.062 397.852C285.304 398.044 285.608 398.141 285.976 398.141ZM291.24 395.437V399H290.072V393H291.193V393.977H291.268C291.406 393.659 291.622 393.404 291.916 393.211C292.213 393.018 292.587 392.922 293.037 392.922C293.446 392.922 293.804 393.008 294.111 393.18C294.419 393.349 294.657 393.602 294.826 393.937C294.995 394.273 295.08 394.689 295.08 395.184V399H293.912V395.324C293.912 394.889 293.799 394.549 293.572 394.305C293.346 394.057 293.035 393.934 292.639 393.934C292.368 393.934 292.127 393.992 291.916 394.109C291.708 394.227 291.542 394.398 291.42 394.625C291.3 394.849 291.24 395.12 291.24 395.437Z" fill="black"/>
<path d="M2.05791 60.1701C1.59957 59.862 0.978229 59.9837 0.670101 60.4421C0.361974 60.9004 0.483746 61.5218 0.942086 61.8299L2.05791 60.1701ZM122.679 115.098L122.818 114.108L122.679 115.098ZM0.942086 61.8299C12.8924 69.8637 33.187 82.0023 55.5265 92.841C77.8479 103.671 102.3 113.247 122.54 116.089L122.818 114.108C102.895 111.311 78.6707 101.847 56.3995 91.0416C34.1465 80.2448 13.9329 68.1532 2.05791 60.1701L0.942086 61.8299ZM122.54 116.089C147.736 119.626 194.834 119.621 239.804 118.741C284.843 117.859 327.752 116.098 344.764 116.098V114.098C327.74 114.098 284.709 115.861 239.765 116.741C194.752 117.623 147.825 117.618 122.818 114.108L122.54 116.089ZM344.764 116.098C361.732 116.098 383.812 117.696 403.083 120.174C412.718 121.414 421.635 122.871 428.849 124.454C436.111 126.048 441.512 127.742 444.223 129.405L445.268 127.7C442.235 125.839 436.522 124.09 429.278 122.5C421.987 120.9 413.008 119.434 403.338 118.191C384 115.704 361.833 114.098 344.764 114.098V116.098Z" fill="#E38869"/>
<path d="M1 60C1 60 1.5 296.217 1.5 318H448.5V247.5C448.5 247.5 394.5 188.5 301 185.5C259.5 185.5 212.631 178.854 154.5 163C99.5 148 1 60 1 60Z" fill="url(#paint2_linear_1190_2646)" fill-opacity="0.5"/>
<path d="M2.17448 59.9777C1.80836 59.5642 1.17636 59.5258 0.76287 59.8919C0.349376 60.258 0.310967 60.89 0.677083 61.3035L2.17448 59.9777ZM135 155.5L135.467 154.616L135 155.5ZM338 189.5L337.892 190.494L338 189.5ZM0.677083 61.3035C13.246 75.499 37.9817 94.6487 63.8797 112.527C89.8001 130.421 116.988 147.111 134.533 156.384L135.467 154.616C118.012 145.389 90.8927 128.745 65.0159 110.881C39.1168 93.002 14.5654 73.9721 2.17448 59.9777L0.677083 61.3035ZM134.533 156.384C159.598 169.633 198.104 176.792 236.423 181.326C255.604 183.596 274.777 185.212 292.25 186.598C309.734 187.986 325.496 189.142 337.892 190.494L338.108 188.506C325.674 187.15 309.867 185.99 292.409 184.605C274.94 183.218 255.798 181.605 236.658 179.34C198.333 174.805 160.168 167.672 135.467 154.616L134.533 156.384ZM337.892 190.494C360.086 192.915 385.767 205.131 406.921 218.093C417.483 224.564 426.883 231.201 434.116 236.854C441.382 242.534 446.374 247.156 448.199 249.598L449.801 248.401C447.797 245.719 442.605 240.951 435.347 235.278C428.055 229.579 418.592 222.898 407.966 216.387C386.745 203.385 360.754 190.976 338.108 188.506L337.892 190.494Z" fill="#005315"/>
<path d="M32 1C32 0.447715 31.5523 2.41411e-08 31 0C30.4477 -2.41411e-08 30 0.447715 30 1L32 1ZM30.2929 359.707C30.6834 360.098 31.3166 360.098 31.7071 359.707L38.0711 353.343C38.4616 352.953 38.4616 352.319 38.0711 351.929C37.6805 351.538 37.0474 351.538 36.6568 351.929L31 357.586L25.3431 351.929C24.9526 351.538 24.3194 351.538 23.9289 351.929C23.5384 352.319 23.5384 352.953 23.9289 353.343L30.2929 359.707ZM30 1L30 359L32 359L32 1L30 1Z" fill="#005315"/>
<path d="M65.108 8.28977H62.983C62.9223 7.94129 62.8106 7.63258 62.6477 7.36364C62.4848 7.09091 62.2822 6.85985 62.0398 6.67045C61.7973 6.48106 61.5208 6.33901 61.2102 6.24432C60.9034 6.14583 60.572 6.09659 60.2159 6.09659C59.5833 6.09659 59.0227 6.25568 58.5341 6.57386C58.0455 6.88826 57.6629 7.35038 57.3864 7.96023C57.1098 8.56629 56.9716 9.30682 56.9716 10.1818C56.9716 11.072 57.1098 11.822 57.3864 12.4318C57.6667 13.0379 58.0492 13.4962 58.5341 13.8068C59.0227 14.1136 59.5814 14.267 60.2102 14.267C60.5587 14.267 60.8845 14.2216 61.1875 14.1307C61.4943 14.036 61.7689 13.8977 62.0114 13.7159C62.2576 13.5341 62.464 13.3106 62.6307 13.0455C62.8011 12.7803 62.9186 12.4773 62.983 12.1364L65.108 12.1477C65.0284 12.7008 64.8561 13.2197 64.5909 13.7045C64.3295 14.1894 63.9867 14.6174 63.5625 14.9886C63.1383 15.3561 62.642 15.6439 62.0739 15.8523C61.5057 16.0568 60.875 16.1591 60.1818 16.1591C59.1591 16.1591 58.2462 15.9223 57.4432 15.4489C56.6402 14.9754 56.0076 14.2917 55.5455 13.3977C55.0833 12.5038 54.8523 11.4318 54.8523 10.1818C54.8523 8.92803 55.0852 7.85606 55.5511 6.96591C56.017 6.07197 56.6515 5.38826 57.4545 4.91477C58.2576 4.44129 59.1667 4.20455 60.1818 4.20455C60.8295 4.20455 61.4318 4.29545 61.9886 4.47727C62.5455 4.65909 63.0417 4.92614 63.4773 5.27841C63.9129 5.62689 64.2708 6.05492 64.5511 6.5625C64.8352 7.06629 65.0208 7.64205 65.108 8.28977ZM69.0843 4.36364V16H67.0274V4.36364H69.0843ZM71.2793 16V7.27273H73.3361V16H71.2793ZM72.3134 6.03409C71.9877 6.03409 71.7073 5.92614 71.4725 5.71023C71.2377 5.49053 71.1202 5.22727 71.1202 4.92045C71.1202 4.60985 71.2377 4.34659 71.4725 4.13068C71.7073 3.91098 71.9877 3.80114 72.3134 3.80114C72.643 3.80114 72.9233 3.91098 73.1543 4.13068C73.3892 4.34659 73.5066 4.60985 73.5066 4.92045C73.5066 5.22727 73.3892 5.49053 73.1543 5.71023C72.9233 5.92614 72.643 6.03409 72.3134 6.03409ZM79.3948 16.1705C78.5198 16.1705 77.7641 15.9886 77.1278 15.625C76.4952 15.2576 76.0085 14.7386 75.6676 14.0682C75.3266 13.3939 75.1562 12.6004 75.1562 11.6875C75.1562 10.7898 75.3266 10.0019 75.6676 9.32386C76.0123 8.64205 76.4933 8.11174 77.1107 7.73295C77.7282 7.35038 78.4535 7.15909 79.2869 7.15909C79.8248 7.15909 80.3323 7.24621 80.8096 7.42045C81.2907 7.59091 81.7149 7.85606 82.0823 8.21591C82.4535 8.57576 82.7452 9.03409 82.9573 9.59091C83.1695 10.1439 83.2755 10.803 83.2755 11.5682V12.1989H76.1221V10.8125H81.3039C81.3001 10.4186 81.2149 10.0682 81.0482 9.76136C80.8816 9.45076 80.6486 9.20644 80.3494 9.02841C80.0539 8.85038 79.7092 8.76136 79.3153 8.76136C78.8948 8.76136 78.5255 8.86364 78.2073 9.06818C77.8891 9.26894 77.641 9.53409 77.463 9.86364C77.2888 10.1894 77.1998 10.5473 77.196 10.9375V12.1477C77.196 12.6553 77.2888 13.0909 77.4744 13.4545C77.66 13.8144 77.9195 14.0909 78.2528 14.2841C78.5861 14.4735 78.9763 14.5682 79.4232 14.5682C79.7225 14.5682 79.9933 14.5265 80.2357 14.4432C80.4782 14.3561 80.6884 14.2292 80.8664 14.0625C81.0445 13.8958 81.1789 13.6894 81.2698 13.4432L83.1903 13.6591C83.0691 14.1667 82.838 14.6098 82.4971 14.9886C82.16 15.3636 81.7282 15.6553 81.2016 15.8636C80.6751 16.0682 80.0729 16.1705 79.3948 16.1705ZM87.1524 10.8864V16H85.0956V7.27273H87.0615V8.75568H87.1637C87.3645 8.26705 87.6846 7.87879 88.124 7.59091C88.5672 7.30303 89.1145 7.15909 89.766 7.15909C90.3683 7.15909 90.8929 7.28788 91.3399 7.54545C91.7906 7.80303 92.1391 8.17614 92.3853 8.66477C92.6353 9.15341 92.7584 9.74621 92.7547 10.4432V16H90.6978V10.7614C90.6978 10.178 90.5463 9.72159 90.2433 9.39205C89.9441 9.0625 89.5293 8.89773 88.999 8.89773C88.6391 8.89773 88.3191 8.97727 88.0387 9.13636C87.7622 9.29167 87.5444 9.51705 87.3853 9.8125C87.23 10.108 87.1524 10.4659 87.1524 10.8864ZM99.2835 7.27273V8.86364H94.2665V7.27273H99.2835ZM95.5051 5.18182H97.5619V13.375C97.5619 13.6515 97.6036 13.8636 97.6869 14.0114C97.7741 14.1553 97.8877 14.2538 98.0278 14.3068C98.168 14.3598 98.3233 14.3864 98.4938 14.3864C98.6225 14.3864 98.74 14.3769 98.846 14.358C98.9559 14.339 99.0392 14.322 99.096 14.3068L99.4426 15.9148C99.3328 15.9527 99.1756 15.9943 98.971 16.0398C98.7703 16.0852 98.5241 16.1117 98.2324 16.1193C97.7172 16.1345 97.2532 16.0568 96.8403 15.8864C96.4275 15.7121 96.0998 15.4432 95.8574 15.0795C95.6188 14.7159 95.5013 14.2614 95.5051 13.7159V5.18182ZM107.644 16.1761C107.091 16.1761 106.593 16.0777 106.149 15.8807C105.71 15.6799 105.362 15.3845 105.104 14.9943C104.85 14.6042 104.723 14.1231 104.723 13.5511C104.723 13.0587 104.814 12.6515 104.996 12.3295C105.178 12.0076 105.426 11.75 105.74 11.5568C106.055 11.3636 106.409 11.2178 106.803 11.1193C107.201 11.017 107.612 10.9432 108.036 10.8977C108.547 10.8447 108.962 10.7973 109.28 10.7557C109.598 10.7102 109.829 10.642 109.973 10.5511C110.121 10.4564 110.195 10.3106 110.195 10.1136V10.0795C110.195 9.65152 110.068 9.32008 109.814 9.08523C109.56 8.85038 109.195 8.73295 108.718 8.73295C108.214 8.73295 107.814 8.8428 107.519 9.0625C107.227 9.2822 107.03 9.54167 106.928 9.84091L105.007 9.56818C105.159 9.03788 105.409 8.5947 105.757 8.23864C106.106 7.87879 106.532 7.60985 107.036 7.43182C107.54 7.25 108.096 7.15909 108.706 7.15909C109.127 7.15909 109.545 7.20833 109.962 7.30682C110.379 7.4053 110.759 7.56818 111.104 7.79545C111.449 8.01894 111.725 8.32386 111.934 8.71023C112.146 9.09659 112.252 9.57955 112.252 10.1591V16H110.274V14.8011H110.206C110.081 15.0436 109.905 15.2708 109.678 15.483C109.454 15.6913 109.172 15.8598 108.831 15.9886C108.494 16.1136 108.098 16.1761 107.644 16.1761ZM108.178 14.6648C108.591 14.6648 108.949 14.5833 109.252 14.4205C109.555 14.2538 109.788 14.0341 109.951 13.7614C110.117 13.4886 110.201 13.1913 110.201 12.8693V11.8409C110.136 11.8939 110.026 11.9432 109.871 11.9886C109.72 12.0341 109.549 12.0739 109.36 12.108C109.17 12.142 108.983 12.1723 108.797 12.1989C108.612 12.2254 108.451 12.2481 108.314 12.267C108.007 12.3087 107.733 12.3769 107.49 12.4716C107.248 12.5663 107.057 12.6989 106.917 12.8693C106.776 13.036 106.706 13.2519 106.706 13.517C106.706 13.8958 106.845 14.1818 107.121 14.375C107.398 14.5682 107.75 14.6648 108.178 14.6648ZM121.883 7.27273L118.775 16H116.502L113.394 7.27273H115.587L117.593 13.7557H117.684L119.695 7.27273H121.883ZM126.885 19.4545C126.146 19.4545 125.512 19.3542 124.981 19.1534C124.451 18.9564 124.025 18.6913 123.703 18.358C123.381 18.0246 123.158 17.6553 123.033 17.25L124.885 16.8011C124.968 16.9716 125.089 17.1402 125.248 17.3068C125.408 17.4773 125.622 17.6174 125.89 17.7273C126.163 17.8409 126.506 17.8977 126.919 17.8977C127.502 17.8977 127.985 17.7557 128.368 17.4716C128.75 17.1913 128.942 16.7292 128.942 16.0852V14.4318H128.839C128.733 14.6439 128.578 14.8617 128.373 15.0852C128.173 15.3087 127.906 15.4962 127.572 15.6477C127.243 15.7992 126.828 15.875 126.328 15.875C125.658 15.875 125.05 15.7178 124.504 15.4034C123.962 15.0852 123.531 14.6117 123.209 13.983C122.89 13.3504 122.731 12.5587 122.731 11.608C122.731 10.6496 122.89 9.84091 123.209 9.18182C123.531 8.51894 123.964 8.01705 124.51 7.67614C125.055 7.33144 125.663 7.15909 126.334 7.15909C126.845 7.15909 127.265 7.24621 127.595 7.42045C127.928 7.59091 128.193 7.79735 128.39 8.03977C128.587 8.27841 128.737 8.50379 128.839 8.71591H128.953V7.27273H130.981V16.142C130.981 16.8883 130.803 17.5057 130.447 17.9943C130.091 18.483 129.604 18.8485 128.987 19.0909C128.37 19.3333 127.669 19.4545 126.885 19.4545ZM126.902 14.2614C127.337 14.2614 127.709 14.1553 128.015 13.9432C128.322 13.7311 128.555 13.4261 128.714 13.0284C128.873 12.6307 128.953 12.1534 128.953 11.5966C128.953 11.0473 128.873 10.5663 128.714 10.1534C128.559 9.74053 128.328 9.42045 128.021 9.19318C127.718 8.96212 127.345 8.84659 126.902 8.84659C126.443 8.84659 126.061 8.96591 125.754 9.20455C125.447 9.44318 125.216 9.77083 125.061 10.1875C124.906 10.6004 124.828 11.0701 124.828 11.5966C124.828 12.1307 124.906 12.5985 125.061 13C125.22 13.3977 125.453 13.7083 125.76 13.9318C126.07 14.1515 126.451 14.2614 126.902 14.2614ZM134.436 16.125C134.092 16.125 133.796 16.0038 133.55 15.7614C133.304 15.5189 133.183 15.2235 133.186 14.875C133.183 14.5341 133.304 14.2424 133.55 14C133.796 13.7576 134.092 13.6364 134.436 13.6364C134.77 13.6364 135.059 13.7576 135.306 14C135.556 14.2424 135.683 14.5341 135.686 14.875C135.683 15.1061 135.622 15.3163 135.505 15.5057C135.391 15.6951 135.239 15.8466 135.05 15.9602C134.864 16.0701 134.66 16.125 134.436 16.125ZM56.858 35L54.392 26.2727H56.4886L58.0227 32.4091H58.1023L59.6705 26.2727H61.7443L63.3125 32.375H63.3977L64.9091 26.2727H67.0114L64.5398 35H62.3977L60.7614 29.1023H60.642L59.0057 35H56.858ZM72.1411 35.1705C71.2661 35.1705 70.5104 34.9886 69.874 34.625C69.2415 34.2576 68.7547 33.7386 68.4138 33.0682C68.0729 32.3939 67.9024 31.6004 67.9024 30.6875C67.9024 29.7898 68.0729 29.0019 68.4138 28.3239C68.7585 27.642 69.2396 27.1117 69.857 26.733C70.4744 26.3504 71.1998 26.1591 72.0331 26.1591C72.571 26.1591 73.0786 26.2462 73.5559 26.4205C74.0369 26.5909 74.4612 26.8561 74.8286 27.2159C75.1998 27.5758 75.4915 28.0341 75.7036 28.5909C75.9157 29.1439 76.0218 29.803 76.0218 30.5682V31.1989H68.8684V29.8125H74.0502C74.0464 29.4186 73.9612 29.0682 73.7945 28.7614C73.6278 28.4508 73.3949 28.2064 73.0956 28.0284C72.8002 27.8504 72.4555 27.7614 72.0615 27.7614C71.6411 27.7614 71.2718 27.8636 70.9536 28.0682C70.6354 28.2689 70.3873 28.5341 70.2093 28.8636C70.035 29.1894 69.946 29.5473 69.9422 29.9375V31.1477C69.9422 31.6553 70.035 32.0909 70.2206 32.4545C70.4062 32.8144 70.6657 33.0909 70.999 33.2841C71.3324 33.4735 71.7225 33.5682 72.1695 33.5682C72.4687 33.5682 72.7396 33.5265 72.982 33.4432C73.2244 33.3561 73.4346 33.2292 73.6127 33.0625C73.7907 32.8958 73.9252 32.6894 74.0161 32.4432L75.9365 32.6591C75.8153 33.1667 75.5843 33.6098 75.2434 33.9886C74.9062 34.3636 74.4744 34.6553 73.9479 34.8636C73.4214 35.0682 72.8191 35.1705 72.1411 35.1705ZM77.8418 35V26.2727H79.8986V35H77.8418ZM78.8759 25.0341C78.5502 25.0341 78.2698 24.9261 78.035 24.7102C77.8002 24.4905 77.6827 24.2273 77.6827 23.9205C77.6827 23.6098 77.8002 23.3466 78.035 23.1307C78.2698 22.911 78.5502 22.8011 78.8759 22.8011C79.2055 22.8011 79.4858 22.911 79.7168 23.1307C79.9517 23.3466 80.0691 23.6098 80.0691 23.9205C80.0691 24.2273 79.9517 24.4905 79.7168 24.7102C79.4858 24.9261 79.2055 25.0341 78.8759 25.0341ZM85.8891 38.4545C85.1505 38.4545 84.516 38.3542 83.9857 38.1534C83.4554 37.9564 83.0293 37.6913 82.7073 37.358C82.3854 37.0246 82.1619 36.6553 82.0369 36.25L83.8891 35.8011C83.9725 35.9716 84.0937 36.1402 84.2528 36.3068C84.4119 36.4773 84.6259 36.6174 84.8948 36.7273C85.1676 36.8409 85.5104 36.8977 85.9232 36.8977C86.5066 36.8977 86.9895 36.7557 87.3721 36.4716C87.7547 36.1913 87.946 35.7292 87.946 35.0852V33.4318H87.8437C87.7376 33.6439 87.5823 33.8617 87.3778 34.0852C87.177 34.3087 86.91 34.4962 86.5766 34.6477C86.2471 34.7992 85.8323 34.875 85.3323 34.875C84.6619 34.875 84.0539 34.7178 83.5085 34.4034C82.9668 34.0852 82.535 33.6117 82.213 32.983C81.8948 32.3504 81.7357 31.5587 81.7357 30.608C81.7357 29.6496 81.8948 28.8409 82.213 28.1818C82.535 27.5189 82.9687 27.017 83.5141 26.6761C84.0596 26.3314 84.6676 26.1591 85.338 26.1591C85.8494 26.1591 86.2698 26.2462 86.5994 26.4205C86.9327 26.5909 87.1979 26.7973 87.3948 27.0398C87.5918 27.2784 87.7414 27.5038 87.8437 27.7159H87.9573V26.2727H89.9857V35.142C89.9857 35.8883 89.8077 36.5057 89.4516 36.9943C89.0956 37.483 88.6088 37.8485 87.9914 38.0909C87.374 38.3333 86.6732 38.4545 85.8891 38.4545ZM85.9062 33.2614C86.3418 33.2614 86.713 33.1553 87.0198 32.9432C87.3266 32.7311 87.5596 32.4261 87.7187 32.0284C87.8778 31.6307 87.9573 31.1534 87.9573 30.5966C87.9573 30.0473 87.8778 29.5663 87.7187 29.1534C87.5634 28.7405 87.3323 28.4205 87.0255 28.1932C86.7225 27.9621 86.3494 27.8466 85.9062 27.8466C85.4479 27.8466 85.0653 27.9659 84.7585 28.2045C84.4516 28.4432 84.2206 28.7708 84.0653 29.1875C83.91 29.6004 83.8323 30.0701 83.8323 30.5966C83.8323 31.1307 83.91 31.5985 84.0653 32C84.2244 32.3977 84.4573 32.7083 84.7641 32.9318C85.0748 33.1515 85.4554 33.2614 85.9062 33.2614ZM94.2305 29.8864V35H92.1737V23.3636H94.1851V27.7557H94.2873C94.4919 27.2633 94.8082 26.875 95.2362 26.5909C95.668 26.303 96.2173 26.1591 96.8839 26.1591C97.49 26.1591 98.0184 26.286 98.4691 26.5398C98.9199 26.7936 99.2684 27.1648 99.5146 27.6534C99.7646 28.142 99.8896 28.7386 99.8896 29.4432V35H97.8328V29.7614C97.8328 29.1742 97.6813 28.7178 97.3782 28.392C97.079 28.0625 96.6585 27.8977 96.1169 27.8977C95.7532 27.8977 95.4275 27.9773 95.1396 28.1364C94.8555 28.2917 94.632 28.517 94.4691 28.8125C94.3101 29.108 94.2305 29.4659 94.2305 29.8864ZM106.424 26.2727V27.8636H101.407V26.2727H106.424ZM102.646 24.1818H104.703V32.375C104.703 32.6515 104.744 32.8636 104.828 33.0114C104.915 33.1553 105.028 33.2538 105.168 33.3068C105.309 33.3598 105.464 33.3864 105.634 33.3864C105.763 33.3864 105.881 33.3769 105.987 33.358C106.096 33.339 106.18 33.322 106.237 33.3068L106.583 34.9148C106.473 34.9527 106.316 34.9943 106.112 35.0398C105.911 35.0852 105.665 35.1117 105.373 35.1193C104.858 35.1345 104.394 35.0568 103.981 34.8864C103.568 34.7121 103.24 34.4432 102.998 34.0795C102.759 33.7159 102.642 33.2614 102.646 32.7159V24.1818Z" fill="black"/>
<circle cx="400" cy="215" r="7.5" fill="url(#paint3_radial_1190_2646)" stroke="#005315"/>
<circle cx="400" cy="120" r="7.5" fill="url(#paint4_radial_1190_2646)" stroke="#E38869"/>
<defs>
<radialGradient id="paint0_radial_1190_2646" cx="0" cy="0" r="1" gradientUnits="userSpaceOnUse" gradientTransform="translate(156 375) rotate(90) scale(8)">
<stop stop-color="#FFFAF2"/>
<stop offset="1" stop-color="#E38869"/>
</radialGradient>
<radialGradient id="paint1_radial_1190_2646" cx="0" cy="0" r="1" gradientUnits="userSpaceOnUse" gradientTransform="translate(156 395) rotate(90) scale(8)">
<stop stop-color="#FFFAF2"/>
<stop offset="1" stop-color="#005315"/>
</radialGradient>
<linearGradient id="paint2_linear_1190_2646" x1="177.562" y1="179.116" x2="176" y2="293" gradientUnits="userSpaceOnUse">
<stop stop-color="#005315"/>
<stop offset="1" stop-color="#005315" stop-opacity="0"/>
</linearGradient>
<radialGradient id="paint3_radial_1190_2646" cx="0" cy="0" r="1" gradientUnits="userSpaceOnUse" gradientTransform="translate(400 215) rotate(90) scale(8)">
<stop stop-color="#FFFAF2"/>
<stop offset="1" stop-color="#005315"/>
</radialGradient>
<radialGradient id="paint4_radial_1190_2646" cx="0" cy="0" r="1" gradientUnits="userSpaceOnUse" gradientTransform="translate(400 120) rotate(90) scale(8)">
<stop stop-color="#FFFAF2"/>
<stop offset="1" stop-color="#E38869"/>
</radialGradient>
</defs>
</svg>
