<svg width="580" height="325" viewBox="0 0 580 325" fill="none" xmlns="http://www.w3.org/2000/svg">
<path d="M11 35C11 35 11.6346 271.217 11.6346 293H579V222.5C579 222.5 510.459 163.5 391.782 160.5C339.107 160.5 279.617 153.854 205.834 138C136.023 123 11 35 11 35Z" fill="url(#paint0_linear_19812_86374)" fill-opacity="0.5"/>
<path d="M11.6641 35.2524C11.2512 34.8856 10.6191 34.923 10.2524 35.3359C9.88558 35.7488 9.92299 36.3809 10.3359 36.7476L11.6641 35.2524ZM180.514 130.678L180.898 129.755L180.514 130.678ZM438.134 164.614L438.048 165.61L438.134 164.614ZM10.3359 36.7476C26.2701 50.9013 57.6397 70.0029 90.5017 87.8448C123.39 105.701 157.881 122.353 180.13 131.602L180.898 129.755C158.729 120.539 124.302 103.92 91.456 86.0871C58.5843 68.24 27.4055 49.2347 11.6641 35.2524L10.3359 36.7476ZM180.13 131.602C211.865 144.794 260.656 151.934 309.282 156.46C333.614 158.724 357.939 160.337 380.113 161.72C402.294 163.105 422.308 164.26 438.048 165.61L438.219 163.617C422.449 162.264 402.4 161.107 380.237 159.724C358.067 158.341 333.768 156.73 309.467 154.468C260.828 149.942 212.319 142.817 180.898 129.755L180.13 131.602ZM438.048 165.61C466.32 168.035 498.976 180.262 525.828 193.202C539.242 199.666 551.182 206.295 560.368 211.943C569.594 217.615 575.948 222.239 578.275 224.689L579.725 223.311C577.193 220.646 570.622 215.899 561.416 210.239C552.17 204.555 540.17 197.893 526.696 191.4C499.77 178.425 466.853 166.074 438.219 163.617L438.048 165.61Z" fill="#005315"/>
<path d="M10.8 0V1.00342H11.2V0H10.8ZM10.8 3.01027V5.01712H11.2V3.01027H10.8ZM10.8 7.02397V9.03082H11.2V7.02397H10.8ZM10.8 11.0377V13.0445H11.2V11.0377H10.8ZM10.8 15.0514V17.0582H11.2V15.0514H10.8ZM10.8 19.0651V21.0719H11.2V19.0651H10.8ZM10.8 23.0788V25.0856H11.2V23.0788H10.8ZM10.8 27.0925V29.0993H11.2V27.0925H10.8ZM10.8 31.1062V33.113H11.2V31.1062H10.8ZM10.8 35.1199V37.1267H11.2V35.1199H10.8ZM10.8 39.1336V41.1404H11.2V39.1336H10.8ZM10.8 43.1473V45.1541H11.2V43.1473H10.8ZM10.8 47.161V49.1678H11.2V47.161H10.8ZM10.8 51.1747V53.1815H11.2V51.1747H10.8ZM10.8 55.1884V57.1952H11.2V55.1884H10.8ZM10.8 59.2021V61.2089H11.2V59.2021H10.8ZM10.8 63.2158V65.2226H11.2V63.2158H10.8ZM10.8 67.2295V69.2363H11.2V67.2295H10.8ZM10.8 71.2432V73.25H11.2V71.2432H10.8ZM10.8 75.2569V77.2637H11.2V75.2569H10.8ZM10.8 79.2706V81.2774H11.2V79.2706H10.8ZM10.8 83.2843V85.2911H11.2V83.2843H10.8ZM10.8 87.298V89.3048H11.2V87.298H10.8ZM10.8 91.3117V93.3185H11.2V91.3117H10.8ZM10.8 95.3254V97.3322H11.2V95.3254H10.8ZM10.8 99.3391V101.346H11.2V99.3391H10.8ZM10.8 103.353V105.36H11.2V103.353H10.8ZM10.8 107.367V109.373H11.2V107.367H10.8ZM10.8 111.38V113.387H11.2V111.38H10.8ZM10.8 115.394V117.401H11.2V115.394H10.8ZM10.8 119.408V121.414H11.2V119.408H10.8ZM10.8 123.421V125.428H11.2V123.421H10.8ZM10.8 127.435V129.442H11.2V127.435H10.8ZM10.8 131.449V133.456H11.2V131.449H10.8ZM10.8 135.462V137.469H11.2V135.462H10.8ZM10.8 139.476V141.483H11.2V139.476H10.8ZM10.8 143.49V145.497H11.2V143.49H10.8ZM10.8 147.504V149.51H11.2V147.504H10.8ZM10.8 151.517V153.524H11.2V151.517H10.8ZM10.8 155.531V157.538H11.2V155.531H10.8ZM10.8 159.545V161.551H11.2V159.545H10.8ZM10.8 163.558V165.565H11.2V163.558H10.8ZM10.8 167.572V169.579H11.2V167.572H10.8ZM10.8 171.586V173.593H11.2V171.586H10.8ZM10.8 175.599V177.606H11.2V175.599H10.8ZM10.8 179.613V181.62H11.2V179.613H10.8ZM10.8 183.627V185.634H11.2V183.627H10.8ZM10.8 187.641V189.647H11.2V187.641H10.8ZM10.8 191.654V193.661H11.2V191.654H10.8ZM10.8 195.668V197.675H11.2V195.668H10.8ZM10.8 199.682V201.689H11.2V199.682H10.8ZM10.8 203.695V205.702H11.2V203.695H10.8ZM10.8 207.709V209.716H11.2V207.709H10.8ZM10.8 211.723V213.73H11.2V211.723H10.8ZM10.8 215.736V217.743H11.2V215.736H10.8ZM10.8 219.75V221.757H11.2V219.75H10.8ZM10.8 223.764V225.771H11.2V223.764H10.8ZM10.8 227.778V229.784H11.2V227.778H10.8ZM10.8 231.791V233.798H11.2V231.791H10.8ZM10.8 235.805V237.812H11.2V235.805H10.8ZM10.8 239.819V241.826H11.2V239.819H10.8ZM10.8 243.832V245.839H11.2V243.832H10.8ZM10.8 247.846V249.853H11.2V247.846H10.8ZM10.8 251.86V253.867H11.2V251.86H10.8ZM10.8 255.873V257.88H11.2V255.873H10.8ZM10.8 259.887V261.894H11.2V259.887H10.8ZM10.8 263.901V265.908H11.2V263.901H10.8ZM10.8 267.915V269.921H11.2V267.915H10.8ZM10.8 271.928V273.935H11.2V271.928H10.8ZM10.8 275.942V277.949H11.2V275.942H10.8ZM10.8 279.956V281.962H11.2V279.956H10.8ZM10.8 283.969V285.976H11.2V283.969H10.8ZM10.8 287.983V289.99H11.2V287.983H10.8ZM10.8 291.997V293H11.2V291.997H10.8ZM200.533 293V291.997H200.133V293H200.533ZM200.533 289.99V287.983H200.133V289.99H200.533ZM200.533 285.976V283.969H200.133V285.976H200.533ZM200.533 281.962V279.955H200.133V281.962H200.533ZM200.533 277.949V275.942H200.133V277.949H200.533ZM200.533 273.935V271.928H200.133V273.935H200.533ZM200.533 269.921V267.914H200.133V269.921H200.533ZM200.533 265.908V263.901H200.133V265.908H200.533ZM200.533 261.894V259.887H200.133V261.894H200.533ZM200.533 257.88V255.873H200.133V257.88H200.533ZM200.533 253.866V251.86H200.133V253.866H200.533ZM200.533 249.853V247.846H200.133V249.853H200.533ZM200.533 245.839V243.832H200.133V245.839H200.533ZM200.533 241.825V239.818H200.133V241.825H200.533ZM200.533 237.812V235.805H200.133V237.812H200.533ZM200.533 233.798V231.791H200.133V233.798H200.533ZM200.533 229.784V227.777H200.133V229.784H200.533ZM200.533 225.771V223.764H200.133V225.771H200.533ZM200.533 221.757V219.75H200.133V221.757H200.533ZM200.533 217.743V215.736H200.133V217.743H200.533ZM200.533 213.729V211.723H200.133V213.729H200.533ZM200.533 209.716V207.709H200.133V209.716H200.533ZM200.533 205.702V203.695H200.133V205.702H200.533ZM200.533 201.688V199.681H200.133V201.688H200.533ZM200.533 197.675V195.668H200.133V197.675H200.533ZM200.533 193.661V191.654H200.133V193.661H200.533ZM200.533 189.647V187.64H200.133V189.647H200.533ZM200.533 185.633V183.627H200.133V185.633H200.533ZM200.533 181.62V179.613H200.133V181.62H200.533ZM200.533 177.606V175.599H200.133V177.606H200.533ZM200.533 173.592V171.586H200.133V173.592H200.533ZM200.533 169.579V167.572H200.133V169.579H200.533ZM200.533 165.565V163.558H200.133V165.565H200.533ZM200.533 161.551V159.544H200.133V161.551H200.533ZM200.533 157.538V155.531H200.133V157.538H200.533ZM200.533 153.524V151.517H200.133V153.524H200.533ZM200.533 149.51V147.503H200.133V149.51H200.533ZM200.533 145.496V143.49H200.133V145.496H200.533ZM200.533 141.483V139.476H200.133V141.483H200.533ZM200.533 137.469V135.462H200.133V137.469H200.533ZM200.533 133.455V131.449H200.133V133.455H200.533ZM200.533 129.442V127.435H200.133V129.442H200.533ZM200.533 125.428V123.421H200.133V125.428H200.533ZM200.533 121.414V119.407H200.133V121.414H200.533ZM200.533 117.401V115.394H200.133V117.401H200.533ZM200.533 113.387V111.38H200.133V113.387H200.533ZM200.533 109.373V107.366H200.133V109.373H200.533ZM200.533 105.359V103.353H200.133V105.359H200.533ZM200.533 101.346V99.3389H200.133V101.346H200.533ZM200.533 97.332V95.3252H200.133V97.332H200.533ZM200.533 93.3183V91.3115H200.133V93.3183H200.533ZM200.533 89.3046V87.2978H200.133V89.3046H200.533ZM200.533 85.2909V83.2841H200.133V85.2909H200.533ZM200.533 81.2772V79.2704H200.133V81.2772H200.533ZM200.533 77.2635V75.2567H200.133V77.2635H200.533ZM200.533 73.2498V71.243H200.133V73.2498H200.533ZM200.533 69.2361V67.2293H200.133V69.2361H200.533ZM200.533 65.2224V63.2156H200.133V65.2224H200.533ZM200.533 61.2087V59.2019H200.133V61.2087H200.533ZM200.533 57.195V55.1882H200.133V57.195H200.533ZM200.533 53.1813V51.1745H200.133V53.1813H200.533ZM200.533 49.1676V47.1608H200.133V49.1676H200.533ZM200.533 45.1539V43.1471H200.133V45.1539H200.533ZM200.533 41.1402V39.1334H200.133V41.1402H200.533ZM200.533 37.1265V35.1197H200.133V37.1265H200.533ZM200.533 33.1128V31.106H200.133V33.1128H200.533ZM200.533 29.0992V27.0923H200.133V29.0992H200.533ZM200.533 25.0855V23.0786H200.133V25.0855H200.533ZM200.533 21.0718V19.065H200.133V21.0718H200.533ZM200.533 17.0581V15.0513H200.133V17.0581H200.533ZM200.533 13.0445V11.0376H200.133V13.0445H200.533ZM200.533 9.03079V7.02396H200.133V9.03079H200.533ZM200.533 5.01712V3.01028H200.133V5.01712H200.533ZM200.533 1.00346V0H200.133V1.00346H200.533Z" fill="#D7D7D7"/>
<path d="M11 293.5H200.333V292.5H11V293.5Z" fill="#D7D7D7"/>
<path d="M11 293L11 297" stroke="#D7D7D7"/>
<path d="M200.332 293L200.332 297" stroke="#D7D7D7"/>
<path d="M200.132 0V1.00342H200.532V0H200.132ZM200.132 3.01027V5.01712H200.532V3.01027H200.132ZM200.132 7.02397V9.03082H200.532V7.02397H200.132ZM200.132 11.0377V13.0445H200.532V11.0377H200.132ZM200.132 15.0514V17.0582H200.532V15.0514H200.132ZM200.132 19.0651V21.0719H200.532V19.0651H200.132ZM200.132 23.0788V25.0856H200.532V23.0788H200.132ZM200.132 27.0925V29.0993H200.532V27.0925H200.132ZM200.132 31.1062V33.113H200.532V31.1062H200.132ZM200.132 35.1199V37.1267H200.532V35.1199H200.132ZM200.132 39.1336V41.1404H200.532V39.1336H200.132ZM200.132 43.1473V45.1541H200.532V43.1473H200.132ZM200.132 47.161V49.1678H200.532V47.161H200.132ZM200.132 51.1747V53.1815H200.532V51.1747H200.132ZM200.132 55.1884V57.1952H200.532V55.1884H200.132ZM200.132 59.2021V61.2089H200.532V59.2021H200.132ZM200.132 63.2158V65.2226H200.532V63.2158H200.132ZM200.132 67.2295V69.2363H200.532V67.2295H200.132ZM200.132 71.2432V73.25H200.532V71.2432H200.132ZM200.132 75.2569V77.2637H200.532V75.2569H200.132ZM200.132 79.2706V81.2774H200.532V79.2706H200.132ZM200.132 83.2843V85.2911H200.532V83.2843H200.132ZM200.132 87.298V89.3048H200.532V87.298H200.132ZM200.132 91.3117V93.3185H200.532V91.3117H200.132ZM200.132 95.3254V97.3322H200.532V95.3254H200.132ZM200.132 99.3391V101.346H200.532V99.3391H200.132ZM200.132 103.353V105.36H200.532V103.353H200.132ZM200.132 107.367V109.373H200.532V107.367H200.132ZM200.132 111.38V113.387H200.532V111.38H200.132ZM200.132 115.394V117.401H200.532V115.394H200.132ZM200.132 119.408V121.414H200.532V119.408H200.132ZM200.132 123.421V125.428H200.532V123.421H200.132ZM200.132 127.435V129.442H200.532V127.435H200.132ZM200.132 131.449V133.456H200.532V131.449H200.132ZM200.132 135.462V137.469H200.532V135.462H200.132ZM200.132 139.476V141.483H200.532V139.476H200.132ZM200.132 143.49V145.497H200.532V143.49H200.132ZM200.132 147.504V149.51H200.532V147.504H200.132ZM200.132 151.517V153.524H200.532V151.517H200.132ZM200.132 155.531V157.538H200.532V155.531H200.132ZM200.132 159.545V161.551H200.532V159.545H200.132ZM200.132 163.558V165.565H200.532V163.558H200.132ZM200.132 167.572V169.579H200.532V167.572H200.132ZM200.132 171.586V173.593H200.532V171.586H200.132ZM200.132 175.599V177.606H200.532V175.599H200.132ZM200.132 179.613V181.62H200.532V179.613H200.132ZM200.132 183.627V185.634H200.532V183.627H200.132ZM200.132 187.641V189.647H200.532V187.641H200.132ZM200.132 191.654V193.661H200.532V191.654H200.132ZM200.132 195.668V197.675H200.532V195.668H200.132ZM200.132 199.682V201.689H200.532V199.682H200.132ZM200.132 203.695V205.702H200.532V203.695H200.132ZM200.132 207.709V209.716H200.532V207.709H200.132ZM200.132 211.723V213.73H200.532V211.723H200.132ZM200.132 215.736V217.743H200.532V215.736H200.132ZM200.132 219.75V221.757H200.532V219.75H200.132ZM200.132 223.764V225.771H200.532V223.764H200.132ZM200.132 227.778V229.784H200.532V227.778H200.132ZM200.132 231.791V233.798H200.532V231.791H200.132ZM200.132 235.805V237.812H200.532V235.805H200.132ZM200.132 239.819V241.826H200.532V239.819H200.132ZM200.132 243.832V245.839H200.532V243.832H200.132ZM200.132 247.846V249.853H200.532V247.846H200.132ZM200.132 251.86V253.867H200.532V251.86H200.132ZM200.132 255.873V257.88H200.532V255.873H200.132ZM200.132 259.887V261.894H200.532V259.887H200.132ZM200.132 263.901V265.908H200.532V263.901H200.132ZM200.132 267.915V269.921H200.532V267.915H200.132ZM200.132 271.928V273.935H200.532V271.928H200.132ZM200.132 275.942V277.949H200.532V275.942H200.132ZM200.132 279.956V281.962H200.532V279.956H200.132ZM200.132 283.969V285.976H200.532V283.969H200.132ZM200.132 287.983V289.99H200.532V287.983H200.132ZM200.132 291.997V293H200.532V291.997H200.132ZM389.865 293V291.997H389.465V293H389.865ZM389.865 289.99V287.983H389.465V289.99H389.865ZM389.865 285.976V283.969H389.465V285.976H389.865ZM389.865 281.962V279.955H389.465V281.962H389.865ZM389.865 277.949V275.942H389.465V277.949H389.865ZM389.865 273.935V271.928H389.465V273.935H389.865ZM389.865 269.921V267.914H389.465V269.921H389.865ZM389.865 265.908V263.901H389.465V265.908H389.865ZM389.865 261.894V259.887H389.465V261.894H389.865ZM389.865 257.88V255.873H389.465V257.88H389.865ZM389.865 253.866V251.86H389.465V253.866H389.865ZM389.865 249.853V247.846H389.465V249.853H389.865ZM389.865 245.839V243.832H389.465V245.839H389.865ZM389.865 241.825V239.818H389.465V241.825H389.865ZM389.865 237.812V235.805H389.465V237.812H389.865ZM389.865 233.798V231.791H389.465V233.798H389.865ZM389.865 229.784V227.777H389.465V229.784H389.865ZM389.865 225.771V223.764H389.465V225.771H389.865ZM389.865 221.757V219.75H389.465V221.757H389.865ZM389.865 217.743V215.736H389.465V217.743H389.865ZM389.865 213.729V211.723H389.465V213.729H389.865ZM389.865 209.716V207.709H389.465V209.716H389.865ZM389.865 205.702V203.695H389.465V205.702H389.865ZM389.865 201.688V199.681H389.465V201.688H389.865ZM389.865 197.675V195.668H389.465V197.675H389.865ZM389.865 193.661V191.654H389.465V193.661H389.865ZM389.865 189.647V187.64H389.465V189.647H389.865ZM389.865 185.633V183.627H389.465V185.633H389.865ZM389.865 181.62V179.613H389.465V181.62H389.865ZM389.865 177.606V175.599H389.465V177.606H389.865ZM389.865 173.592V171.586H389.465V173.592H389.865ZM389.865 169.579V167.572H389.465V169.579H389.865ZM389.865 165.565V163.558H389.465V165.565H389.865ZM389.865 161.551V159.544H389.465V161.551H389.865ZM389.865 157.538V155.531H389.465V157.538H389.865ZM389.865 153.524V151.517H389.465V153.524H389.865ZM389.865 149.51V147.503H389.465V149.51H389.865ZM389.865 145.496V143.49H389.465V145.496H389.865ZM389.865 141.483V139.476H389.465V141.483H389.865ZM389.865 137.469V135.462H389.465V137.469H389.865ZM389.865 133.455V131.449H389.465V133.455H389.865ZM389.865 129.442V127.435H389.465V129.442H389.865ZM389.865 125.428V123.421H389.465V125.428H389.865ZM389.865 121.414V119.407H389.465V121.414H389.865ZM389.865 117.401V115.394H389.465V117.401H389.865ZM389.865 113.387V111.38H389.465V113.387H389.865ZM389.865 109.373V107.366H389.465V109.373H389.865ZM389.865 105.359V103.353H389.465V105.359H389.865ZM389.865 101.346V99.3389H389.465V101.346H389.865ZM389.865 97.332V95.3252H389.465V97.332H389.865ZM389.865 93.3183V91.3115H389.465V93.3183H389.865ZM389.865 89.3046V87.2978H389.465V89.3046H389.865ZM389.865 85.2909V83.2841H389.465V85.2909H389.865ZM389.865 81.2772V79.2704H389.465V81.2772H389.865ZM389.865 77.2635V75.2567H389.465V77.2635H389.865ZM389.865 73.2498V71.243H389.465V73.2498H389.865ZM389.865 69.2361V67.2293H389.465V69.2361H389.865ZM389.865 65.2224V63.2156H389.465V65.2224H389.865ZM389.865 61.2087V59.2019H389.465V61.2087H389.865ZM389.865 57.195V55.1882H389.465V57.195H389.865ZM389.865 53.1813V51.1745H389.465V53.1813H389.865ZM389.865 49.1676V47.1608H389.465V49.1676H389.865ZM389.865 45.1539V43.1471H389.465V45.1539H389.865ZM389.865 41.1402V39.1334H389.465V41.1402H389.865ZM389.865 37.1265V35.1197H389.465V37.1265H389.865ZM389.865 33.1128V31.106H389.465V33.1128H389.865ZM389.865 29.0992V27.0923H389.465V29.0992H389.865ZM389.865 25.0855V23.0786H389.465V25.0855H389.865ZM389.865 21.0718V19.065H389.465V21.0718H389.865ZM389.865 17.0581V15.0513H389.465V17.0581H389.865ZM389.865 13.0445V11.0376H389.465V13.0445H389.865ZM389.865 9.03079V7.02396H389.465V9.03079H389.865ZM389.865 5.01712V3.01028H389.465V5.01712H389.865ZM389.865 1.00346V0H389.465V1.00346H389.865Z" fill="#D7D7D7"/>
<path d="M200.332 293.5H389.665V292.5H200.332V293.5Z" fill="#D7D7D7"/>
<path d="M389.664 293L389.664 297" stroke="#D7D7D7"/>
<path d="M389.468 0V1.00342H389.868V0H389.468ZM389.468 3.01027V5.01712H389.868V3.01027H389.468ZM389.468 7.02397V9.03082H389.868V7.02397H389.468ZM389.468 11.0377V13.0445H389.868V11.0377H389.468ZM389.468 15.0514V17.0582H389.868V15.0514H389.468ZM389.468 19.0651V21.0719H389.868V19.0651H389.468ZM389.468 23.0788V25.0856H389.868V23.0788H389.468ZM389.468 27.0925V29.0993H389.868V27.0925H389.468ZM389.468 31.1062V33.113H389.868V31.1062H389.468ZM389.468 35.1199V37.1267H389.868V35.1199H389.468ZM389.468 39.1336V41.1404H389.868V39.1336H389.468ZM389.468 43.1473V45.1541H389.868V43.1473H389.468ZM389.468 47.161V49.1678H389.868V47.161H389.468ZM389.468 51.1747V53.1815H389.868V51.1747H389.468ZM389.468 55.1884V57.1952H389.868V55.1884H389.468ZM389.468 59.2021V61.2089H389.868V59.2021H389.468ZM389.468 63.2158V65.2226H389.868V63.2158H389.468ZM389.468 67.2295V69.2363H389.868V67.2295H389.468ZM389.468 71.2432V73.25H389.868V71.2432H389.468ZM389.468 75.2569V77.2637H389.868V75.2569H389.468ZM389.468 79.2706V81.2774H389.868V79.2706H389.468ZM389.468 83.2843V85.2911H389.868V83.2843H389.468ZM389.468 87.298V89.3048H389.868V87.298H389.468ZM389.468 91.3117V93.3185H389.868V91.3117H389.468ZM389.468 95.3254V97.3322H389.868V95.3254H389.468ZM389.468 99.3391V101.346H389.868V99.3391H389.468ZM389.468 103.353V105.36H389.868V103.353H389.468ZM389.468 107.367V109.373H389.868V107.367H389.468ZM389.468 111.38V113.387H389.868V111.38H389.468ZM389.468 115.394V117.401H389.868V115.394H389.468ZM389.468 119.408V121.414H389.868V119.408H389.468ZM389.468 123.421V125.428H389.868V123.421H389.468ZM389.468 127.435V129.442H389.868V127.435H389.468ZM389.468 131.449V133.456H389.868V131.449H389.468ZM389.468 135.462V137.469H389.868V135.462H389.468ZM389.468 139.476V141.483H389.868V139.476H389.468ZM389.468 143.49V145.497H389.868V143.49H389.468ZM389.468 147.504V149.51H389.868V147.504H389.468ZM389.468 151.517V153.524H389.868V151.517H389.468ZM389.468 155.531V157.538H389.868V155.531H389.468ZM389.468 159.545V161.551H389.868V159.545H389.468ZM389.468 163.558V165.565H389.868V163.558H389.468ZM389.468 167.572V169.579H389.868V167.572H389.468ZM389.468 171.586V173.593H389.868V171.586H389.468ZM389.468 175.599V177.606H389.868V175.599H389.468ZM389.468 179.613V181.62H389.868V179.613H389.468ZM389.468 183.627V185.634H389.868V183.627H389.468ZM389.468 187.641V189.647H389.868V187.641H389.468ZM389.468 191.654V193.661H389.868V191.654H389.468ZM389.468 195.668V197.675H389.868V195.668H389.468ZM389.468 199.682V201.689H389.868V199.682H389.468ZM389.468 203.695V205.702H389.868V203.695H389.468ZM389.468 207.709V209.716H389.868V207.709H389.468ZM389.468 211.723V213.73H389.868V211.723H389.468ZM389.468 215.736V217.743H389.868V215.736H389.468ZM389.468 219.75V221.757H389.868V219.75H389.468ZM389.468 223.764V225.771H389.868V223.764H389.468ZM389.468 227.778V229.784H389.868V227.778H389.468ZM389.468 231.791V233.798H389.868V231.791H389.468ZM389.468 235.805V237.812H389.868V235.805H389.468ZM389.468 239.819V241.826H389.868V239.819H389.468ZM389.468 243.832V245.839H389.868V243.832H389.468ZM389.468 247.846V249.853H389.868V247.846H389.468ZM389.468 251.86V253.867H389.868V251.86H389.468ZM389.468 255.873V257.88H389.868V255.873H389.468ZM389.468 259.887V261.894H389.868V259.887H389.468ZM389.468 263.901V265.908H389.868V263.901H389.468ZM389.468 267.915V269.921H389.868V267.915H389.468ZM389.468 271.928V273.935H389.868V271.928H389.468ZM389.468 275.942V277.949H389.868V275.942H389.468ZM389.468 279.956V281.962H389.868V279.956H389.468ZM389.468 283.969V285.976H389.868V283.969H389.468ZM389.468 287.983V289.99H389.868V287.983H389.468ZM389.468 291.997V293H389.868V291.997H389.468ZM579.201 293V291.997H578.801V293H579.201ZM579.201 289.99V287.983H578.801V289.99H579.201ZM579.201 285.976V283.969H578.801V285.976H579.201ZM579.201 281.962V279.955H578.801V281.962H579.201ZM579.201 277.949V275.942H578.801V277.949H579.201ZM579.201 273.935V271.928H578.801V273.935H579.201ZM579.201 269.921V267.914H578.801V269.921H579.201ZM579.201 265.908V263.901H578.801V265.908H579.201ZM579.201 261.894V259.887H578.801V261.894H579.201ZM579.201 257.88V255.873H578.801V257.88H579.201ZM579.201 253.866V251.86H578.801V253.866H579.201ZM579.201 249.853V247.846H578.801V249.853H579.201ZM579.201 245.839V243.832H578.801V245.839H579.201ZM579.201 241.825V239.818H578.801V241.825H579.201ZM579.201 237.812V235.805H578.801V237.812H579.201ZM579.201 233.798V231.791H578.801V233.798H579.201ZM579.201 229.784V227.777H578.801V229.784H579.201ZM579.201 225.771V223.764H578.801V225.771H579.201ZM579.201 221.757V219.75H578.801V221.757H579.201ZM579.201 217.743V215.736H578.801V217.743H579.201ZM579.201 213.729V211.723H578.801V213.729H579.201ZM579.201 209.716V207.709H578.801V209.716H579.201ZM579.201 205.702V203.695H578.801V205.702H579.201ZM579.201 201.688V199.681H578.801V201.688H579.201ZM579.201 197.675V195.668H578.801V197.675H579.201ZM579.201 193.661V191.654H578.801V193.661H579.201ZM579.201 189.647V187.64H578.801V189.647H579.201ZM579.201 185.633V183.627H578.801V185.633H579.201ZM579.201 181.62V179.613H578.801V181.62H579.201ZM579.201 177.606V175.599H578.801V177.606H579.201ZM579.201 173.592V171.586H578.801V173.592H579.201ZM579.201 169.579V167.572H578.801V169.579H579.201ZM579.201 165.565V163.558H578.801V165.565H579.201ZM579.201 161.551V159.544H578.801V161.551H579.201ZM579.201 157.538V155.531H578.801V157.538H579.201ZM579.201 153.524V151.517H578.801V153.524H579.201ZM579.201 149.51V147.503H578.801V149.51H579.201ZM579.201 145.496V143.49H578.801V145.496H579.201ZM579.201 141.483V139.476H578.801V141.483H579.201ZM579.201 137.469V135.462H578.801V137.469H579.201ZM579.201 133.455V131.449H578.801V133.455H579.201ZM579.201 129.442V127.435H578.801V129.442H579.201ZM579.201 125.428V123.421H578.801V125.428H579.201ZM579.201 121.414V119.407H578.801V121.414H579.201ZM579.201 117.401V115.394H578.801V117.401H579.201ZM579.201 113.387V111.38H578.801V113.387H579.201ZM579.201 109.373V107.366H578.801V109.373H579.201ZM579.201 105.359V103.353H578.801V105.359H579.201ZM579.201 101.346V99.3389H578.801V101.346H579.201ZM579.201 97.332V95.3252H578.801V97.332H579.201ZM579.201 93.3183V91.3115H578.801V93.3183H579.201ZM579.201 89.3046V87.2978H578.801V89.3046H579.201ZM579.201 85.2909V83.2841H578.801V85.2909H579.201ZM579.201 81.2772V79.2704H578.801V81.2772H579.201ZM579.201 77.2635V75.2567H578.801V77.2635H579.201ZM579.201 73.2498V71.243H578.801V73.2498H579.201ZM579.201 69.2361V67.2293H578.801V69.2361H579.201ZM579.201 65.2224V63.2156H578.801V65.2224H579.201ZM579.201 61.2087V59.2019H578.801V61.2087H579.201ZM579.201 57.195V55.1882H578.801V57.195H579.201ZM579.201 53.1813V51.1745H578.801V53.1813H579.201ZM579.201 49.1676V47.1608H578.801V49.1676H579.201ZM579.201 45.1539V43.1471H578.801V45.1539H579.201ZM579.201 41.1402V39.1334H578.801V41.1402H579.201ZM579.201 37.1265V35.1197H578.801V37.1265H579.201ZM579.201 33.1128V31.106H578.801V33.1128H579.201ZM579.201 29.0992V27.0923H578.801V29.0992H579.201ZM579.201 25.0855V23.0786H578.801V25.0855H579.201ZM579.201 21.0718V19.065H578.801V21.0718H579.201ZM579.201 17.0581V15.0513H578.801V17.0581H579.201ZM579.201 13.0445V11.0376H578.801V13.0445H579.201ZM579.201 9.03079V7.02396H578.801V9.03079H579.201ZM579.201 5.01712V3.01028H578.801V5.01712H579.201ZM579.201 1.00346V0H578.801V1.00346H579.201Z" fill="#D7D7D7"/>
<path d="M389.668 293.5H579.001V292.5H389.668V293.5Z" fill="#D7D7D7"/>
<path d="M579 293L579 297" stroke="#D7D7D7"/>
<defs>
<linearGradient id="paint0_linear_19812_86374" x1="235.106" y1="154.116" x2="233.875" y2="268.008" gradientUnits="userSpaceOnUse">
<stop stop-color="#005315"/>
<stop offset="1" stop-color="#005315" stop-opacity="0"/>
</linearGradient>
</defs>
</svg>
