<svg width="41" height="42" viewBox="0 0 41 42" fill="none" xmlns="http://www.w3.org/2000/svg">
<mask id="mask0_19404_12124" style="mask-type:alpha" maskUnits="userSpaceOnUse" x="0" y="0" width="41" height="42">
<rect y="0.650391" width="40.373" height="40.373" fill="#D9D9D9"/>
</mask>
<g mask="url(#mask0_19404_12124)">
<path d="M17.8317 27.6493L29.6913 15.7897L27.3362 13.4346L17.8317 22.9391L13.0374 18.1448L10.6823 20.4999L17.8317 27.6493ZM8.4113 35.9762C7.48608 35.9762 6.69404 35.6468 6.03517 34.9879C5.37631 34.3291 5.04688 33.537 5.04688 32.6118V9.06087C5.04688 8.13566 5.37631 7.34362 6.03517 6.68475C6.69404 6.02588 7.48608 5.69645 8.4113 5.69645H15.4766C15.8411 4.68713 16.4509 3.87406 17.306 3.25725C18.1611 2.64044 19.1214 2.33203 20.1868 2.33203C21.2522 2.33203 22.2124 2.64044 23.0676 3.25725C23.9227 3.87406 24.5325 4.68713 24.897 5.69645H31.9622C32.8875 5.69645 33.6795 6.02588 34.3384 6.68475C34.9972 7.34362 35.3267 8.13566 35.3267 9.06087V32.6118C35.3267 33.537 34.9972 34.3291 34.3384 34.9879C33.6795 35.6468 32.8875 35.9762 31.9622 35.9762H8.4113ZM8.4113 32.6118H31.9622V9.06087H8.4113V32.6118ZM20.1868 7.79921C20.5512 7.79921 20.8526 7.68006 21.091 7.44175C21.3293 7.20343 21.4484 6.90204 21.4484 6.53756C21.4484 6.17308 21.3293 5.87168 21.091 5.63337C20.8526 5.39506 20.5512 5.2759 20.1868 5.2759C19.8223 5.2759 19.5209 5.39506 19.2826 5.63337C19.0443 5.87168 18.9251 6.17308 18.9251 6.53756C18.9251 6.90204 19.0443 7.20343 19.2826 7.44175C19.5209 7.68006 19.8223 7.79921 20.1868 7.79921Z" fill="black"/>
</g>
</svg>
