<svg width="46" height="72" viewBox="0 0 46 72" fill="none" xmlns="http://www.w3.org/2000/svg">
<path fill-rule="evenodd" clip-rule="evenodd" d="M8.65699 23.3104C8.01471 23.3104 7.49115 23.8339 7.49115 24.4778C7.4912 25.12 8.01462 25.6435 8.6569 25.6435C9.30084 25.6433 9.82417 25.12 9.82417 24.4778C9.82431 23.8339 9.30074 23.3104 8.65699 23.3104ZM8.65699 27.1849C7.16374 27.1849 5.94971 25.9711 5.94971 24.4778C5.94985 22.9844 7.1636 21.769 8.6569 21.769C10.1501 21.7689 11.3656 22.9845 11.3656 24.4778C11.3657 25.971 10.1501 27.1849 8.65699 27.1849Z" fill="black" stroke="black" strokeWidth="0.3"/>
<path fill-rule="evenodd" clip-rule="evenodd" d="M35.8778 25.2486H14.3284C13.9028 25.2486 13.5576 24.9034 13.5576 24.4779C13.5576 24.0508 13.9028 23.7072 14.3283 23.7072L35.8778 23.707C36.3032 23.707 36.6484 24.0508 36.6484 24.4779C36.6484 24.9034 36.3032 25.2486 35.8778 25.2486Z" fill="black" stroke="black" strokeWidth="0.3"/>
<path fill-rule="evenodd" clip-rule="evenodd" d="M8.65699 34.7458C8.01471 34.7458 7.49115 35.2695 7.49115 35.9117C7.4912 36.5555 8.01462 37.079 8.6569 37.079C9.30084 37.079 9.82417 36.5556 9.82417 35.9117C9.82431 35.2693 9.30074 34.746 8.65699 34.7458ZM8.65699 38.6203C7.16374 38.6203 5.94971 37.405 5.94971 35.9117C5.94985 34.4184 7.1636 33.2046 8.6569 33.2046C10.1501 33.2045 11.3656 34.4185 11.3656 35.9117C11.3657 37.4048 10.1501 38.6204 8.65699 38.6203Z" fill="black" stroke="black" strokeWidth="0.3"/>
<path fill-rule="evenodd" clip-rule="evenodd" d="M35.8778 36.6823H14.3284C13.9028 36.6823 13.5576 36.3389 13.5576 35.9118C13.5576 35.4862 13.9028 35.1427 14.3283 35.1427L35.8778 35.1426C36.3032 35.1426 36.6484 35.4863 36.6484 35.9118C36.6484 36.3387 36.3032 36.6825 35.8778 36.6823Z" fill="black" stroke="black" strokeWidth="0.3"/>
<path fill-rule="evenodd" clip-rule="evenodd" d="M8.65699 46.181C8.01471 46.181 7.49115 46.7045 7.49115 47.3468C7.4912 47.9906 8.01462 48.5141 8.6569 48.5141C9.30084 48.5141 9.82417 47.9906 9.82417 47.3468C9.82431 46.7044 9.30074 46.1811 8.65699 46.181ZM8.65699 50.0554C7.16374 50.0554 5.94971 48.84 5.94971 47.3468C5.94985 45.8535 7.1636 44.6396 8.6569 44.6396C10.1501 44.6396 11.3656 45.8535 11.3656 47.3468C11.3657 48.84 10.1501 50.0555 8.65699 50.0554Z" fill="black" stroke="black" strokeWidth="0.3"/>
<path fill-rule="evenodd" clip-rule="evenodd" d="M35.8778 48.118H14.3284C13.9028 48.118 13.5576 47.7729 13.5576 47.3474C13.5576 46.9219 13.9028 46.5767 14.3283 46.5767L35.8778 46.5767C36.3032 46.5767 36.6484 46.9219 36.6484 47.3474C36.6484 47.7728 36.3032 48.1181 35.8778 48.118Z" fill="black" stroke="black" strokeWidth="0.3"/>
<path fill-rule="evenodd" clip-rule="evenodd" d="M36.8681 54.0393C35.9626 54.0393 35.2255 54.7765 35.2255 55.6821L35.2256 61.9439C35.2256 62.8497 35.9625 63.5867 36.8681 63.5867C37.7738 63.5867 38.5107 62.8497 38.5107 61.9441L38.5108 55.682C38.5108 54.7763 37.7737 54.0394 36.8681 54.0393ZM36.8681 65.128C35.1116 65.128 33.6841 63.6991 33.6841 61.9441L33.6843 55.682C33.6843 53.927 35.1115 52.498 36.8681 52.498C38.6231 52.498 40.0521 53.9271 40.0521 55.6821L40.0521 61.9439C40.0521 63.699 38.6231 65.1281 36.8681 65.128Z" fill="black" stroke="black" strokeWidth="0.3"/>
<path fill-rule="evenodd" clip-rule="evenodd" d="M39.2814 59.584H34.4532C34.0278 59.584 33.6841 59.2388 33.6841 58.8133C33.6843 58.3878 34.0276 58.0426 34.4532 58.0426L39.2814 58.0425C39.707 58.0425 40.0521 58.3878 40.0521 58.8133C40.0521 59.2388 39.7068 59.5841 39.2814 59.584Z" fill="black" stroke="black" strokeWidth="0.3"/>
<path fill-rule="evenodd" clip-rule="evenodd" d="M27.8154 58.9417C26.5356 58.9417 25.4936 59.9838 25.4936 61.2636C25.4936 62.5448 26.5356 63.5869 27.8153 63.5869C29.0967 63.5869 30.1387 62.5449 30.1387 61.2636C30.1388 59.9838 29.0966 58.9418 27.8154 58.9417ZM27.8154 65.1283C25.6847 65.1283 23.9521 63.3942 23.9521 61.2636C23.9522 59.1328 25.6846 57.4004 27.8153 57.4004C29.946 57.4003 31.6801 59.1329 31.6801 61.2636C31.6801 63.3941 29.946 65.1284 27.8154 65.1283Z" fill="black" stroke="black" strokeWidth="0.3"/>
<path fill-rule="evenodd" clip-rule="evenodd" d="M30.9096 62.034H24.723C24.2958 62.034 23.9521 61.689 23.9521 61.2634C23.9522 60.8379 24.2957 60.4927 24.7229 60.4927L30.9096 60.4927C31.335 60.4927 31.6801 60.838 31.6801 61.2634C31.6801 61.6889 31.3349 62.0342 30.9096 62.034Z" fill="black" stroke="black" strokeWidth="0.3"/>
<path fill-rule="evenodd" clip-rule="evenodd" d="M43.6407 71.6002H2.36102C1.33497 71.6002 0.5 70.7654 0.5 69.741L0.500093 12.9171C0.500093 11.8911 1.33492 11.0562 2.36092 11.0562L11.5406 11.0562C11.9659 11.0562 12.3111 11.4014 12.3111 11.827C12.3113 12.2523 11.9659 12.5976 11.5405 12.5976L2.36102 12.5976C2.18433 12.5976 2.04301 12.7406 2.04301 12.9172L2.04311 69.7411C2.04311 69.9162 2.18433 70.059 2.36092 70.059L43.6407 70.059C43.7531 70.059 43.83 69.9997 43.8653 69.9659C43.8992 69.9306 43.9585 69.8551 43.9585 69.7411L43.9586 12.9172C43.9586 12.7406 43.8156 12.5978 43.6406 12.5978L34.4612 12.5977C34.0356 12.5977 33.6904 12.2526 33.6904 11.8271C33.6904 11.4015 34.0356 11.0563 34.4611 11.0563L43.6407 11.0563C44.6651 11.0563 45.4999 11.8913 45.4999 12.9173L45.5 69.7412C45.5 70.2372 45.3056 70.7031 44.954 71.0547C44.6024 71.4063 44.1367 71.6003 43.6407 71.6002Z" fill="black" stroke="black" strokeWidth="0.3"/>
<path fill-rule="evenodd" clip-rule="evenodd" d="M14.0938 9.91614C13.1111 9.91614 12.3115 10.7158 12.3115 11.6985L12.3116 15.2965H33.6908V11.6983C33.6908 10.7156 32.8911 9.91619 31.9084 9.91619L25.7814 9.91614C25.3559 9.91614 25.0106 9.57093 25.0106 9.14547L25.0107 4.55C25.0107 3.44218 24.1082 2.5414 23.0003 2.5414C21.8925 2.54131 20.9916 3.44218 20.9916 4.55009L20.9917 9.14537C20.9917 9.57093 20.6464 9.91619 20.2209 9.91619L14.0938 9.91614ZM33.6908 16.8381H12.3116C11.4621 16.8381 10.77 16.1461 10.77 15.2967L10.7701 11.6983C10.7701 9.86629 12.2601 8.37474 14.0937 8.37474L19.4503 8.37461V4.55C19.4503 2.59269 21.043 1 23.0003 1C24.9591 0.999954 26.552 2.59278 26.552 4.55009L26.552 8.37461H31.9084C33.7406 8.37461 35.2321 9.86643 35.2321 11.6985V15.2965C35.2321 16.1461 34.5401 16.8381 33.6908 16.8381Z" fill="black" stroke="black" strokeWidth="0.3"/>
</svg>
