<svg width="52" height="60" viewBox="0 0 52 60" fill="none" xmlns="http://www.w3.org/2000/svg">
<path d="M44.7197 15.9658C44.5354 15.7758 44.2832 15.6666 44.0185 15.6622C43.7537 15.6579 43.4981 15.7586 43.3076 15.9424C43.117 16.1263 43.0071 16.3781 43.002 16.6428C42.9969 16.9075 43.097 17.1635 43.2802 17.3545C46.5482 20.7444 48.7465 25.0209 49.6013 29.6512C50.4561 34.2816 49.9296 39.0611 48.0873 43.3943C46.245 47.7275 43.1685 51.4229 39.241 54.0201C35.3135 56.6172 30.7086 58.0014 26 58H3.41403L9.02683 52.3867C9.21421 52.1994 9.31956 51.9454 9.31975 51.6804C9.31994 51.4155 9.21495 51.1613 9.02783 50.9737C4.58185 46.5277 2.05863 40.5143 2.00101 34.2271C1.9434 27.9398 4.35598 21.8812 8.71974 17.3545C8.90303 17.1635 9.00308 16.9075 8.99796 16.6428C8.99284 16.3781 8.88296 16.1263 8.69242 15.9424C8.50188 15.7586 8.24623 15.6579 7.98151 15.6622C7.71679 15.6666 7.46462 15.7758 7.28027 15.9658C2.67278 20.7451 0.0684247 27.106 0.00132922 33.7442C-0.0657662 40.3824 2.40948 46.7947 6.91943 51.666L0.292974 58.293C0.153121 58.4329 0.0578755 58.611 0.0192831 58.805C-0.0193093 58.999 0.000484742 59.2 0.0761621 59.3827C0.15184 59.5655 0.280001 59.7216 0.444439 59.8315C0.608877 59.9414 0.802205 60 0.999974 60H26C31.1011 60.0013 36.0898 58.5017 40.3446 55.6879C44.5995 52.8742 47.9324 48.8707 49.9281 44.1762C51.9238 39.4817 52.4941 34.3037 51.568 29.2874C50.6418 24.2711 48.2602 19.6382 44.7197 15.9658Z" fill="black"/>
<path d="M14 44H38C38.7954 43.9991 39.5579 43.6828 40.1204 43.1204C40.6828 42.5579 40.9991 41.7954 41 41V3C40.9991 2.20462 40.6828 1.44206 40.1204 0.879639C39.5579 0.317218 38.7954 0.000868196 38 0H14C13.2046 0.000868196 12.4421 0.317218 11.8796 0.879639C11.3172 1.44206 11.0009 2.20462 11 3V41C11.0009 41.7954 11.3172 42.5579 11.8796 43.1204C12.4421 43.6828 13.2046 43.9991 14 44ZM30.1315 2L29.4648 3H22.5352L21.8685 2H30.1315ZM13 3C13.0003 2.73486 13.1057 2.48066 13.2932 2.29319C13.4807 2.10571 13.7349 2.00026 14 2H19.4648L21.168 4.55469C21.2593 4.69169 21.383 4.80402 21.5281 4.8817C21.6733 4.95939 21.8354 5.00002 22 5H30C30.1646 5.00002 30.3267 4.95939 30.4719 4.8817C30.617 4.80402 30.7407 4.69169 30.832 4.55469L32.5352 2H38C38.2651 2.00026 38.5193 2.10571 38.7068 2.29319C38.8943 2.48066 38.9997 2.73486 39 3V41C38.9997 41.2651 38.8943 41.5193 38.7068 41.7068C38.5193 41.8943 38.2651 41.9997 38 42H14C13.7349 41.9997 13.4807 41.8943 13.2932 41.7068C13.1057 41.5193 13.0003 41.2651 13 41V3Z" fill="black"/>
<path d="M26 24C26.9889 24 27.9556 23.7068 28.7779 23.1574C29.6001 22.6079 30.241 21.8271 30.6194 20.9134C30.9978 19.9998 31.0969 18.9945 30.9039 18.0246C30.711 17.0546 30.2348 16.1637 29.5355 15.4645C28.8363 14.7652 27.9454 14.289 26.9755 14.0961C26.0055 13.9031 25.0002 14.0022 24.0866 14.3806C23.173 14.759 22.3921 15.3999 21.8427 16.2222C21.2932 17.0444 21 18.0111 21 19C21.0016 20.3256 21.5288 21.5965 22.4662 22.5338C23.4035 23.4712 24.6744 23.9984 26 24ZM26 16C26.5933 16 27.1734 16.1759 27.6667 16.5056C28.1601 16.8352 28.5446 17.3038 28.7716 17.852C28.9987 18.4001 29.0581 19.0033 28.9424 19.5853C28.8266 20.1672 28.5409 20.7018 28.1213 21.1213C27.7018 21.5409 27.1672 21.8266 26.5853 21.9424C26.0033 22.0581 25.4001 21.9987 24.852 21.7716C24.3038 21.5446 23.8352 21.1601 23.5056 20.6667C23.1759 20.1734 23 19.5933 23 19C23.0009 18.2046 23.3172 17.4421 23.8796 16.8796C24.4421 16.3172 25.2046 16.0009 26 16Z" fill="black"/>
<path d="M20 40C20.1313 40 20.2614 39.9742 20.3827 39.924C20.5041 39.8737 20.6143 39.8 20.7072 39.7072C20.8 39.6143 20.8737 39.5041 20.9239 39.3827C20.9742 39.2614 21 39.1313 21 39V33C21 31.6739 21.5268 30.4021 22.4645 29.4645C23.4021 28.5268 24.6739 28 26 28C27.3261 28 28.5979 28.5268 29.5355 29.4645C30.4732 30.4021 31 31.6739 31 33V39C31 39.2652 31.1054 39.5196 31.2929 39.7071C31.4804 39.8946 31.7348 40 32 40C32.2652 40 32.5196 39.8946 32.7071 39.7071C32.8946 39.5196 33 39.2652 33 39V33C33 31.1435 32.2625 29.363 30.9497 28.0503C29.637 26.7375 27.8565 26 26 26C24.1435 26 22.363 26.7375 21.0503 28.0503C19.7375 29.363 19 31.1435 19 33V39C19 39.1313 19.0258 39.2614 19.0761 39.3827C19.1263 39.5041 19.2 39.6143 19.2928 39.7072C19.3857 39.8 19.4959 39.8737 19.6173 39.924C19.7386 39.9742 19.8687 40 20 40Z" fill="black"/>
</svg>
