<svg width="40" height="41" viewBox="0 0 40 41" fill="none" xmlns="http://www.w3.org/2000/svg">
<mask id="mask0_8113_2716" style="mask-type:alpha" maskUnits="userSpaceOnUse" x="0" y="0" width="40" height="41">
<rect y="0.41748" width="40" height="40" fill="#D9D9D9"/>
</mask>
<g mask="url(#mask0_8113_2716)">
<path d="M35.6673 24.1674L23.7507 36.0841C23.4173 36.4174 23.0423 36.6674 22.6257 36.8341C22.209 37.0007 21.7923 37.0841 21.3757 37.0841C20.959 37.0841 20.5423 37.0007 20.1257 36.8341C19.709 36.6674 19.334 36.4174 19.0007 36.0841L4.29232 21.3757C3.98676 21.0702 3.75065 20.716 3.58398 20.3132C3.41732 19.9105 3.33398 19.4868 3.33398 19.0424V7.08407C3.33398 6.1674 3.66037 5.38268 4.31315 4.7299C4.96593 4.07712 5.75065 3.75073 6.66732 3.75073H18.6257C19.0701 3.75073 19.5007 3.84101 19.9173 4.02157C20.334 4.20212 20.6951 4.44518 21.0007 4.75073L35.6673 19.4591C36.0007 19.7924 36.2437 20.1674 36.3965 20.5841C36.5493 21.0007 36.6257 21.4174 36.6257 21.8341C36.6257 22.2507 36.5493 22.6605 36.3965 23.0632C36.2437 23.466 36.0007 23.8341 35.6673 24.1674ZM21.3757 33.7507L33.2923 21.8341L18.584 7.08407H6.66732V19.0007L21.3757 33.7507ZM10.834 13.7507C11.5284 13.7507 12.1187 13.5077 12.6048 13.0216C13.0909 12.5355 13.334 11.9452 13.334 11.2507C13.334 10.5563 13.0909 9.96601 12.6048 9.4799C12.1187 8.99379 11.5284 8.75073 10.834 8.75073C10.1395 8.75073 9.54926 8.99379 9.06315 9.4799C8.57704 9.96601 8.33398 10.5563 8.33398 11.2507C8.33398 11.9452 8.57704 12.5355 9.06315 13.0216C9.54926 13.5077 10.1395 13.7507 10.834 13.7507Z" fill="#00531B"/>
</g>
</svg>
