<svg width="128" height="128" viewBox="0 0 128 128" fill="none" xmlns="http://www.w3.org/2000/svg">
<g clip-path="url(#clip0_20409_6200)">
<path d="M33.7056 122.24C35.8064 122.287 37.7264 121.058 38.5642 119.131C39.401 117.203 38.9873 114.961 37.5185 113.458C36.0497 111.955 33.8168 111.492 31.8709 112.285C29.925 113.078 28.6526 114.971 28.6526 117.072C28.6245 119.893 30.8844 122.205 33.7056 122.24ZM33.7056 115.098C34.5154 115.049 35.2721 115.499 35.6162 116.233C35.9593 116.968 35.82 117.838 35.2638 118.427C34.7087 119.018 33.8491 119.209 33.0954 118.911C32.3408 118.611 31.8459 117.883 31.8459 117.072C31.8168 116.014 32.6474 115.131 33.7056 115.098Z" fill="black"/>
<path d="M95.2429 -1.90735e-06H68.0995C62.2242 0.0062351 57.4622 4.76819 57.455 10.6445V35.6538L32.9331 55.1819C32.8822 55.2225 32.8344 55.2661 32.7886 55.3119C30.797 57.3306 29.6826 60.0541 29.6899 62.8888V105.683H26.3437C23.9934 105.685 22.0891 107.59 22.0859 109.941V123.742C22.0891 126.093 23.9934 127.997 26.3437 128H70.56C72.9103 127.997 74.8146 126.093 74.8177 123.742V109.941C74.8146 107.59 72.9103 105.685 70.56 105.683H68.8271V102.072C74.1202 101.274 78.0371 96.7297 78.0433 91.3773V84.6237H95.2439C101.12 84.6175 105.882 79.8555 105.888 73.9792V10.6445C105.882 4.76819 101.119 0.0062351 95.2429 -1.90735e-06ZM69.0412 52.4366L67.4123 50.8077C66.8385 50.2349 65.9269 50.1819 65.2918 50.685L60.6483 54.3617V13.8243H102.694V63.3347H69.9924C72.3562 59.9511 71.956 55.3597 69.0412 52.4366ZM68.0995 3.19335H95.2429C99.351 3.1975 102.683 6.52287 102.694 10.631H60.6483C60.6608 6.52287 63.9913 3.1975 68.0995 3.19335ZM71.6244 109.941V123.742C71.6244 124.331 71.1473 124.807 70.56 124.807H26.3437C25.7554 124.807 25.2793 124.331 25.2793 123.742V109.941C25.2793 109.352 25.7554 108.876 26.3437 108.876H70.56C71.1473 108.876 71.6244 109.352 71.6244 109.941ZM74.85 91.3773C74.8458 95.5832 71.4373 98.9917 67.2304 98.9969C66.3489 98.9969 65.6338 99.7121 65.6338 100.594V105.683H32.8832V62.8888C32.878 60.9231 33.6379 59.0322 35.0017 57.6164L57.455 39.736V56.8898L43.1577 68.211C42.4695 68.7599 42.3552 69.7609 42.9019 70.4501C43.4477 71.1403 44.4487 71.2578 45.14 70.7152L66.1597 54.0707L66.7834 54.6944C68.8552 56.7724 68.8552 60.1351 66.7834 62.2121L57.008 71.9875C56.7304 72.2651 56.5651 72.6341 56.5423 73.025L56.4196 75.157C56.4175 75.1882 56.4165 75.2183 56.4165 75.2495C56.4269 76.843 56.7907 78.4137 57.4809 79.8493C59.0859 83.2942 58.7845 87.3254 56.6857 90.4938C56.5111 90.7557 56.4175 91.0645 56.4175 91.3794V95.9875C56.4175 96.869 57.1327 97.5842 58.0142 97.5842C58.8957 97.5842 59.6109 96.869 59.6109 95.9875V91.8441C61.35 89.0021 62.0298 85.6383 61.5308 82.3441C63.4019 83.8212 65.7169 84.6247 68.1005 84.6227H74.85V91.3773ZM95.2429 81.4304H68.0995C63.9872 81.4262 60.6535 78.0925 60.6483 73.9792V72.8628L66.9841 66.5281H102.696V73.9792C102.691 78.0925 99.3572 81.4262 95.2429 81.4304Z" fill="black"/>
<path d="M85.8563 72.3825H77.4873C76.6048 72.3825 75.8906 73.0977 75.8906 73.9792C75.8906 74.8607 76.6048 75.5759 77.4873 75.5759H85.8563C86.7378 75.5759 87.453 74.8607 87.453 73.9792C87.453 73.0977 86.7378 72.3825 85.8563 72.3825Z" fill="black"/>
<path d="M96.5143 46.5062V32.5062H96.9665C97.848 32.5062 98.5632 31.7911 98.5632 30.9096V26.8576C98.56 24.3742 96.5476 22.3607 94.0632 22.3586H92.639C93.7274 20.4844 93.2565 18.0946 91.5392 16.7734C89.822 15.4522 87.3916 15.6102 85.8594 17.1424L81.3615 21.6393L78.1941 18.4709C76.8511 17.1279 74.7877 16.8212 73.112 17.7152C71.4374 18.6102 70.5434 20.4948 70.9124 22.3586H68.5029C66.0195 22.3607 64.006 24.3742 64.0039 26.8576V30.9096C64.0039 31.7911 64.718 32.5062 65.6006 32.5062H66.0528V46.5062C66.0548 48.9906 68.0684 51.0031 70.5517 51.0062H92.0133C94.4977 51.0042 96.5112 48.9906 96.5143 46.5062ZM93.321 46.5062C93.3199 47.2277 92.7357 47.8119 92.0143 47.8129H86.0736V32.5062H93.321V46.5062ZM81.297 25.552H81.3054H81.3137H82.8802V29.3129H79.6141V25.552H81.297ZM82.8802 32.5062V47.8129H79.6141V32.5062H82.8802ZM95.3708 26.8576V29.3129H86.0736V25.552H94.0642C94.7856 25.552 95.3698 26.1372 95.3708 26.8576ZM88.1183 19.3992C88.402 19.106 88.822 18.9896 89.216 19.0956C89.6099 19.2006 89.9155 19.5125 90.0133 19.9085C90.112 20.3046 89.9873 20.7225 89.6879 21L88.3657 22.3576H85.1609L88.1183 19.3992ZM74.3511 22.315C74.0569 22.0343 73.9384 21.6154 74.0403 21.2225C74.1432 20.8285 74.4499 20.5208 74.8438 20.4189C75.2378 20.317 75.6557 20.4355 75.9363 20.7297L77.5652 22.3597H74.3927L74.3511 22.315ZM67.1973 26.8576C67.1973 26.1372 67.7825 25.552 68.5029 25.552H76.4207V29.3129H67.1973V26.8576ZM69.2461 46.5062V32.5062H76.4197V47.8129H70.5517C69.8313 47.8119 69.2482 47.2266 69.2471 46.5062H69.2461Z" fill="black"/>
</g>
<defs>
<clipPath id="clip0_20409_6200">
<rect width="128" height="128" fill="white"/>
</clipPath>
</defs>
</svg>
