<svg width="128" height="128" viewBox="0 0 128 128" fill="none" xmlns="http://www.w3.org/2000/svg">
<g clip-path="url(#clip0_20409_6132)">
<path d="M14.7472 76.118L15.356 76.4462C18.0044 73.2666 22.5659 72.0389 26.0439 73.8012L26.0816 73.8211L27.581 74.6296C31.3506 71.4589 36.7006 70.9842 40.9693 73.4418L49.2239 77.9301H60.2123C62.5856 77.9268 64.9279 77.39 67.0662 76.3597L68.5789 75.6278C77.3858 71.3424 87.8518 72.365 95.6628 78.2728C95.7005 78.3005 95.736 78.3305 95.7704 78.3615L99.4247 81.6144C100.784 82.8221 102.39 83.7227 104.13 84.2517L106.19 77.4976C106.408 76.7801 107.069 76.291 107.819 76.291H125.492C125.98 76.2899 126.444 76.4995 126.767 76.8643C127.091 77.2292 127.242 77.7161 127.183 78.1996L121.292 126.503C121.187 127.358 120.462 128 119.6 128H93.0931C92.553 128 92.0451 127.744 91.7246 127.31C91.403 126.877 91.3065 126.316 91.464 125.8L94.9342 114.415L84.1277 107.584C82.6892 106.788 81.0024 106.571 79.4098 106.974C79.3743 106.983 79.3388 106.99 79.3033 106.997L57.2412 111.059C51.2335 112.134 45.0395 111.26 39.5642 108.564C39.4921 108.527 39.4222 108.488 39.3557 108.441L1.19691 82.2421C0.454956 81.7319 0.237587 80.7305 0.702271 79.9586C3.60242 75.1265 9.79197 73.4341 14.7472 76.118ZM24.4857 76.8322C22.526 75.8507 20.0639 76.6359 18.4658 78.1253L32.8656 85.893L33.6552 86.3089C34.1077 85.048 34.7576 83.8668 35.5816 82.811L24.4857 76.8322ZM39.3213 76.4241C39.308 76.4163 39.2936 76.4096 39.2814 76.4008C36.6918 74.9047 33.4977 74.9146 30.9181 76.4274L38.1535 80.3257C39.5132 79.3386 41.0569 78.6355 42.6939 78.2562L39.3213 76.4241ZM118.093 124.593L123.568 79.6979H109.082L95.3944 124.593H118.093ZM41.1845 105.563C45.9766 107.894 51.3843 108.645 56.6301 107.708L78.6368 103.655C81.0711 103.055 83.643 103.404 85.83 104.631C85.8567 104.646 85.8822 104.661 85.9077 104.678L95.9667 111.036L103.138 87.5145C100.926 86.8402 98.8879 85.6945 97.1611 84.1585L93.5601 80.9523C86.7727 75.8507 77.6997 74.9779 70.0639 78.6932L68.5512 79.4251C65.9505 80.6794 63.1002 81.3316 60.2134 81.336H45.5364C41.1434 81.3415 37.3638 84.4457 36.5032 88.7544L47.0668 88.2764C50.9374 88.1023 54.8157 88.2808 58.653 88.8109C59.5857 88.9407 60.2367 89.8002 60.1081 90.7318C59.9783 91.6645 59.1188 92.3155 58.1872 92.1857C54.554 91.6845 50.8842 91.5148 47.221 91.68L34.7021 92.2478C34.6766 92.2478 34.65 92.249 34.6256 92.249C33.684 92.249 32.9221 91.487 32.9221 90.5455C32.9221 90.2904 32.9321 90.0386 32.9465 89.7869L31.263 88.8997L13.128 79.1168C10.3099 77.5897 6.81863 78.132 4.59612 80.4421L41.1845 105.563Z" fill="black"/>
<path d="M112.973 117.846C112.973 120.738 110.627 123.082 107.734 123.082C104.841 123.081 102.497 120.736 102.498 117.843C102.498 114.95 104.843 112.605 107.736 112.606C110.628 112.61 112.97 114.954 112.973 117.846ZM107.735 116.015C106.724 116.015 105.905 116.834 105.905 117.846C105.905 118.856 106.724 119.677 107.735 119.677C108.746 119.677 109.566 118.856 109.566 117.846C109.566 116.834 108.747 116.015 107.736 116.013L107.735 116.015Z" fill="black"/>
<g clip-path="url(#clip1_20409_6132)">
<path d="M63.8143 65.2736C80.4092 65.2736 93.9098 51.7533 93.9098 35.1344C93.9098 18.5154 80.4092 4.99512 63.8143 4.99512C47.2194 4.99512 33.7188 18.5154 33.7188 35.1344C33.7188 51.7533 47.2194 65.2736 63.8143 65.2736ZM63.8143 7.27134C79.1565 7.27134 91.6369 19.7713 91.6369 35.1344C91.6369 50.4974 79.1565 62.9974 63.8143 62.9974C48.472 62.9974 35.9917 50.4989 35.9917 35.1344C35.9917 19.7698 48.472 7.27134 63.8143 7.27134Z" fill="black" stroke="black"/>
<path d="M63.8801 47.4832C63.8587 47.4817 63.838 47.4795 63.8158 47.4795C63.7943 47.4795 63.7729 47.4817 63.7514 47.4832C60.6439 47.4446 58.1438 44.9128 58.1401 41.8007C58.1401 41.1724 57.6318 40.6626 57.0037 40.6626C56.3762 40.6626 55.8672 41.1724 55.8672 41.8007C55.8724 45.7552 58.772 49.1081 62.6793 49.6779V52.681C62.6793 53.3101 63.1883 53.8191 63.8158 53.8191C64.4432 53.8191 64.9522 53.3101 64.9522 52.681V49.6779C69.0778 49.0814 72.0425 45.3937 71.7436 41.2302C71.4447 37.066 67.9843 33.8414 63.8158 33.8414C60.6816 33.8414 58.1401 31.2962 58.1401 28.1575C58.1401 25.018 60.6816 22.4736 63.8158 22.4736C66.9507 22.4736 69.4914 25.018 69.4914 28.1575C69.4914 28.7858 70.0005 29.2956 70.6279 29.2956C71.2553 29.2956 71.7643 28.7858 71.7643 28.1575C71.7592 24.203 68.8596 20.8501 64.9522 20.2803V17.5884C64.9522 16.9601 64.4432 16.4503 63.8158 16.4503C63.1883 16.4503 62.6793 16.9601 62.6793 17.5884V20.2818C58.5537 20.879 55.5897 24.566 55.8879 28.7302C56.1868 32.8937 59.6473 36.1191 63.8158 36.1191C66.9366 36.1198 69.4714 38.6443 69.4892 41.7696C69.507 44.895 67.001 47.4483 63.8801 47.4846V47.4832Z" fill="black" stroke="black"/>
</g>
<g clip-path="url(#clip2_20409_6132)">
<path d="M63.8143 65.2736C80.4092 65.2736 93.9098 51.7533 93.9098 35.1344C93.9098 18.5154 80.4092 4.99512 63.8143 4.99512C47.2194 4.99512 33.7188 18.5154 33.7188 35.1344C33.7188 51.7533 47.2194 65.2736 63.8143 65.2736ZM63.8143 7.27134C79.1565 7.27134 91.6369 19.7713 91.6369 35.1344C91.6369 50.4974 79.1565 62.9974 63.8143 62.9974C48.472 62.9974 35.9917 50.4989 35.9917 35.1344C35.9917 19.7698 48.472 7.27134 63.8143 7.27134Z" fill="black" stroke="black"/>
<path d="M63.8801 47.4832C63.8587 47.4817 63.838 47.4795 63.8158 47.4795C63.7943 47.4795 63.7729 47.4817 63.7514 47.4832C60.6439 47.4446 58.1438 44.9128 58.1401 41.8007C58.1401 41.1724 57.6318 40.6626 57.0037 40.6626C56.3762 40.6626 55.8672 41.1724 55.8672 41.8007C55.8724 45.7552 58.772 49.1081 62.6793 49.6779V52.681C62.6793 53.3101 63.1883 53.8191 63.8158 53.8191C64.4432 53.8191 64.9522 53.3101 64.9522 52.681V49.6779C69.0778 49.0814 72.0425 45.3937 71.7436 41.2302C71.4447 37.066 67.9843 33.8414 63.8158 33.8414C60.6816 33.8414 58.1401 31.2962 58.1401 28.1575C58.1401 25.018 60.6816 22.4736 63.8158 22.4736C66.9507 22.4736 69.4914 25.018 69.4914 28.1575C69.4914 28.7858 70.0005 29.2956 70.6279 29.2956C71.2553 29.2956 71.7643 28.7858 71.7643 28.1575C71.7592 24.203 68.8596 20.8501 64.9522 20.2803V17.5884C64.9522 16.9601 64.4432 16.4503 63.8158 16.4503C63.1883 16.4503 62.6793 16.9601 62.6793 17.5884V20.2818C58.5537 20.879 55.5897 24.566 55.8879 28.7302C56.1868 32.8937 59.6473 36.1191 63.8158 36.1191C66.9366 36.1198 69.4714 38.6443 69.4892 41.7696C69.507 44.895 67.001 47.4483 63.8801 47.4846V47.4832Z" fill="black" stroke="black"/>
</g>
<path d="M21.9918 19.2119C22.9334 19.2119 23.6953 19.9749 23.6953 20.9154V23.7545C23.6953 24.6961 22.9334 25.458 21.9918 25.458C21.0514 25.458 20.2883 24.6961 20.2883 23.7545V20.9154C20.2883 19.9749 21.0514 19.2119 21.9918 19.2119Z" fill="black"/>
<path d="M21.9918 27.7294C22.9334 27.7294 23.6953 28.4924 23.6953 29.4329V32.272C23.6953 33.2136 22.9334 33.9755 21.9918 33.9755C21.0514 33.9755 20.2883 33.2136 20.2883 32.272V29.4329C20.2883 28.4924 21.0514 27.7294 21.9918 27.7294Z" fill="black"/>
<path d="M27.6676 24.8903C28.6092 24.8903 29.3711 25.6533 29.3711 26.5937C29.3711 27.5353 28.6092 28.2972 27.6676 28.2972H24.8285C23.888 28.2972 23.125 27.5353 23.125 26.5937C23.125 25.6533 23.888 24.8903 24.8285 24.8903H27.6676Z" fill="black"/>
<path d="M16.3128 28.2972C15.3724 28.2972 14.6094 27.5353 14.6094 26.5937C14.6094 25.6533 15.3724 24.8903 16.3128 24.8903H19.152C20.0936 24.8903 20.8555 25.6533 20.8555 26.5937C20.8555 27.5353 20.0936 28.2972 19.152 28.2972H16.3128Z" fill="black"/>
<path d="M96.6989 0C97.6393 0 98.4023 0.76302 98.4023 1.70349V4.54263C98.4023 5.4831 97.6393 6.24612 96.6989 6.24612C95.7573 6.24612 94.9954 5.4831 94.9954 4.54263V1.70349C94.9954 0.76302 95.7573 0 96.6989 0Z" fill="black"/>
<path d="M96.6989 8.51746C97.6393 8.51746 98.4023 9.28048 98.4023 10.2209V13.0601C98.4023 14.0006 97.6393 14.7636 96.6989 14.7636C95.7573 14.7636 94.9954 14.0006 94.9954 13.0601V10.2209C94.9954 9.28048 95.7573 8.51746 96.6989 8.51746Z" fill="black"/>
<path d="M102.379 5.67834C103.319 5.67834 104.082 6.44136 104.082 7.38183C104.082 8.3223 103.319 9.08532 102.379 9.08532H99.5394C98.5978 9.08532 97.8359 8.3223 97.8359 7.38183C97.8359 6.44136 98.5978 5.67834 99.5394 5.67834H102.379Z" fill="black"/>
<path d="M91.0199 5.67834H93.859C94.7995 5.67834 95.5625 6.44136 95.5625 7.38183C95.5625 8.3223 94.7995 9.08532 93.859 9.08532H91.0199C90.0783 9.08532 89.3164 8.3223 89.3164 7.38183C89.3164 6.44136 90.0783 5.67834 91.0199 5.67834Z" fill="black"/>
</g>
<defs>
<clipPath id="clip0_20409_6132">
<rect width="128" height="128" fill="white" transform="matrix(-1 0 0 1 128 0)"/>
</clipPath>
<clipPath id="clip1_20409_6132">
<rect width="60.1912" height="60.2786" fill="white" transform="translate(33.7188 4.99512)"/>
</clipPath>
<clipPath id="clip2_20409_6132">
<rect width="60.1912" height="60.2786" fill="white" transform="translate(33.7188 4.99512)"/>
</clipPath>
</defs>
</svg>
