<svg width="40" height="41" viewBox="0 0 40 41" fill="none" xmlns="http://www.w3.org/2000/svg">
<mask id="mask0_19404_12129" style="mask-type:alpha" maskUnits="userSpaceOnUse" x="0" y="0" width="40" height="41">
<rect y="0.0234375" width="40" height="40" fill="#D9D9D9"/>
</mask>
<g mask="url(#mask0_19404_12129)">
<path d="M6.66927 36.6908C5.7526 36.6908 4.96788 36.3644 4.3151 35.7116C3.66233 35.0588 3.33594 34.2741 3.33594 33.3574V15.0241C3.33594 14.1074 3.66233 13.3227 4.3151 12.6699C4.96788 12.0171 5.7526 11.6908 6.66927 11.6908H15.0026V6.69076C15.0026 5.77409 15.329 4.98937 15.9818 4.33659C16.6345 3.68381 17.4193 3.35742 18.3359 3.35742H21.6693C22.5859 3.35742 23.3707 3.68381 24.0234 4.33659C24.6762 4.98937 25.0026 5.77409 25.0026 6.69076V11.6908H33.3359C34.2526 11.6908 35.0373 12.0171 35.6901 12.6699C36.3429 13.3227 36.6693 14.1074 36.6693 15.0241V33.3574C36.6693 34.2741 36.3429 35.0588 35.6901 35.7116C35.0373 36.3644 34.2526 36.6908 33.3359 36.6908H6.66927ZM6.66927 33.3574H33.3359V15.0241H25.0026C25.0026 15.9408 24.6762 16.7255 24.0234 17.3783C23.3707 18.031 22.5859 18.3574 21.6693 18.3574H18.3359C17.4193 18.3574 16.6345 18.031 15.9818 17.3783C15.329 16.7255 15.0026 15.9408 15.0026 15.0241H6.66927V33.3574ZM10.0026 30.0241H20.0026V29.2741C20.0026 28.8019 19.8707 28.3644 19.6068 27.9616C19.3429 27.5588 18.9748 27.2463 18.5026 27.0241C17.947 26.7741 17.3845 26.5866 16.8151 26.4616C16.2457 26.3366 15.6415 26.2741 15.0026 26.2741C14.3637 26.2741 13.7595 26.3366 13.1901 26.4616C12.6207 26.5866 12.0582 26.7741 11.5026 27.0241C11.0304 27.2463 10.6623 27.5588 10.3984 27.9616C10.1345 28.3644 10.0026 28.8019 10.0026 29.2741V30.0241ZM23.3359 27.5241H30.0026V25.0241H23.3359V27.5241ZM15.0026 25.0241C15.697 25.0241 16.2873 24.781 16.7734 24.2949C17.2595 23.8088 17.5026 23.2185 17.5026 22.5241C17.5026 21.8296 17.2595 21.2394 16.7734 20.7533C16.2873 20.2671 15.697 20.0241 15.0026 20.0241C14.3082 20.0241 13.7179 20.2671 13.2318 20.7533C12.7457 21.2394 12.5026 21.8296 12.5026 22.5241C12.5026 23.2185 12.7457 23.8088 13.2318 24.2949C13.7179 24.781 14.3082 25.0241 15.0026 25.0241ZM23.3359 22.5241H30.0026V20.0241H23.3359V22.5241ZM18.3359 15.0241H21.6693V6.69076H18.3359V15.0241Z" fill="black"/>
</g>
</svg>
