<svg width="70" height="62" viewBox="0 0 70 62" fill="none" xmlns="http://www.w3.org/2000/svg">
<path fill-rule="evenodd" clip-rule="evenodd" d="M60.6459 26.3034C56.8584 26.3034 53.7762 29.3611 53.7762 33.1192V52.7107C53.7762 56.4688 56.8583 59.5269 60.6458 59.5269C64.4332 59.5269 67.5153 56.469 67.5153 52.7108L67.5154 33.1191C67.5154 29.3611 64.4331 26.3035 60.6459 26.3034ZM60.6459 60.9999C56.0388 60.9999 52.2915 57.2813 52.2915 52.7108L52.2915 33.1191C52.2915 28.5488 56.0387 24.8306 60.6458 24.8306C65.2529 24.8305 68.9999 28.5488 68.9999 33.1192L69.0001 52.7107C69.0001 57.2812 65.2528 60.9999 60.6459 60.9999Z" fill="black" stroke="black" strokeWidth="0.3"/>
<path fill-rule="evenodd" clip-rule="evenodd" d="M68.2577 43.6512H53.034C52.624 43.6512 52.2915 43.3216 52.2915 42.9148C52.2915 42.5079 52.624 42.1784 53.0338 42.1784L68.2577 42.1782C68.6676 42.1782 68.9999 42.5081 68.9999 42.9148C69.0001 43.3215 68.6674 43.6513 68.2577 43.6512Z" fill="black" stroke="black" strokeWidth="0.3"/>
<path fill-rule="evenodd" clip-rule="evenodd" d="M38.4114 40.2416C33.0527 40.2416 28.6931 44.5674 28.6931 49.8842C28.6933 55.201 33.0527 59.527 38.4114 59.527C43.77 59.527 48.1296 55.2011 48.1296 49.8842C48.1297 44.5672 43.77 40.2416 38.4114 40.2416ZM38.4114 61C32.2347 61 27.2085 56.0133 27.2085 49.8842C27.2085 43.755 32.2347 38.7686 38.4114 38.7686C44.5896 38.7685 49.6142 43.755 49.6142 49.8842C49.6142 56.0132 44.5896 61.0001 38.4114 61Z" fill="black" stroke="black" strokeWidth="0.3"/>
<path fill-rule="evenodd" clip-rule="evenodd" d="M48.6945 52.5421H28.1306C27.7207 52.5421 27.3882 52.2127 27.3882 51.806C27.3882 51.3991 27.7207 51.0694 28.1305 51.0694L48.6945 51.0693C49.1042 51.0693 49.4367 51.3992 49.4367 51.806C49.4367 52.2126 49.1042 52.5423 48.6945 52.5421Z" fill="black" stroke="black" strokeWidth="0.3"/>
<path fill-rule="evenodd" clip-rule="evenodd" d="M48.6925 48.6987H28.1301C27.7202 48.6987 27.3877 48.3691 27.3877 47.9623C27.3877 47.5554 27.7202 47.2257 28.13 47.2257L48.6925 47.2256C49.1038 47.2256 49.4362 47.5555 49.4362 47.9623C49.4363 48.3691 49.1037 48.6988 48.6925 48.6987Z" fill="black" stroke="black" strokeWidth="0.3"/>
<path fill-rule="evenodd" clip-rule="evenodd" d="M5.50972 2.47311C5.06901 2.47311 4.71168 2.82858 4.71168 3.2654L4.71181 8.02227C4.71181 8.45901 5.06892 8.81452 5.50967 8.81452L27.9387 8.81443C28.3794 8.81443 28.7381 8.4591 28.7381 8.02227L28.7382 3.26532C28.7382 2.8284 28.3794 2.47316 27.9386 2.47316L5.50972 2.47311ZM27.9387 10.2876H5.50972C4.25098 10.2876 3.22705 9.27149 3.22705 8.02227L3.2271 3.26532C3.2271 2.01641 4.25084 1.00018 5.50967 1.00018L27.9387 1C29.1975 1 30.2228 2.01641 30.2228 3.2654L30.2229 8.02227C30.2229 9.2714 29.1975 10.2877 27.9387 10.2876Z" fill="black" stroke="black" strokeWidth="0.3"/>
<path fill-rule="evenodd" clip-rule="evenodd" d="M31.7075 30.6714H1.74247C1.33254 30.6714 1 30.3417 1 29.935C1.00004 29.5282 1.33254 29.1984 1.74238 29.1984L31.7075 29.1982C32.1174 29.1982 32.4497 29.5282 32.4497 29.935C32.4498 30.3415 32.1173 30.6714 31.7075 30.6714Z" fill="black" stroke="black" strokeWidth="0.3"/>
<path fill-rule="evenodd" clip-rule="evenodd" d="M28.6083 46.9956H1.74247C1.33254 46.9956 1 46.6658 1 46.259C1.00004 45.8521 1.33254 45.5225 1.74238 45.5225L28.6083 45.5225C29.018 45.5225 29.3506 45.8522 29.3506 46.259C29.3506 46.6657 29.018 46.9957 28.6083 46.9956Z" fill="black" stroke="black" strokeWidth="0.3"/>
<path fill-rule="evenodd" clip-rule="evenodd" d="M8.51781 24.9737C8.10807 24.9737 7.77539 24.644 7.77539 24.2372V21.38C7.77539 20.9731 8.10793 20.6436 8.51773 20.6436C8.9277 20.6435 9.26006 20.9733 9.26006 21.3801L9.26015 24.2371C9.26015 24.6438 8.92756 24.9737 8.51781 24.9737Z" fill="black" stroke="black" strokeWidth="0.3"/>
<path fill-rule="evenodd" clip-rule="evenodd" d="M13.989 24.9737C13.5793 24.9737 13.2466 24.644 13.2466 24.2372V21.38C13.2466 20.9731 13.5791 20.6436 13.9889 20.6436C14.3989 20.6435 14.7313 20.9733 14.7313 21.3801L14.7314 24.2371C14.7314 24.6438 14.3988 24.9737 13.989 24.9737Z" fill="black" stroke="black" strokeWidth="0.3"/>
<path fill-rule="evenodd" clip-rule="evenodd" d="M19.4606 24.9737C19.0508 24.9737 18.7183 24.644 18.7183 24.2372V21.38C18.7183 20.9731 19.0508 20.6436 19.4606 20.6436C19.8704 20.6435 20.2028 20.9733 20.2028 21.3801L20.203 24.2371C20.203 24.6438 19.8704 24.9737 19.4606 24.9737Z" fill="black" stroke="black" strokeWidth="0.3"/>
<path fill-rule="evenodd" clip-rule="evenodd" d="M24.9323 24.9737C24.5208 24.9737 24.1899 24.644 24.1899 24.2372V21.38C24.1899 20.9731 24.5208 20.6436 24.9322 20.6436C25.3421 20.6435 25.6745 20.9733 25.6745 21.3801V24.2371C25.6745 24.6438 25.342 24.9737 24.9323 24.9737Z" fill="black" stroke="black" strokeWidth="0.3"/>
<path fill-rule="evenodd" clip-rule="evenodd" d="M8.51781 55.5502C8.10807 55.5502 7.77539 55.2205 7.77539 54.8138V51.9565C7.77539 51.5498 8.10793 51.2202 8.51773 51.2202C8.9277 51.2202 9.26006 51.5499 9.26006 51.9567L9.26015 54.8138C9.26015 55.2204 8.92756 55.5503 8.51781 55.5502Z" fill="black" stroke="black" strokeWidth="0.3"/>
<path fill-rule="evenodd" clip-rule="evenodd" d="M13.989 55.5502C13.5793 55.5502 13.2466 55.2205 13.2466 54.8138V51.9565C13.2466 51.5498 13.5791 51.2202 13.9889 51.2202C14.3989 51.2202 14.7313 51.5499 14.7313 51.9567L14.7314 54.8138C14.7314 55.2204 14.3988 55.5503 13.989 55.5502Z" fill="black" stroke="black" strokeWidth="0.3"/>
<path fill-rule="evenodd" clip-rule="evenodd" d="M19.4606 55.5502C19.0508 55.5502 18.7183 55.2205 18.7183 54.8138V51.9565C18.7183 51.5498 19.0508 51.2202 19.4606 51.2202C19.8704 51.2202 20.2028 51.5499 20.2028 51.9567L20.203 54.8138C20.203 55.2204 19.8704 55.5503 19.4606 55.5502Z" fill="black" stroke="black" strokeWidth="0.3"/>
<path fill-rule="evenodd" clip-rule="evenodd" d="M24.9323 55.5502C24.5208 55.5502 24.1899 55.2205 24.1899 54.8138V51.9565C24.1899 51.5498 24.5208 51.2202 24.9322 51.2202C25.3421 51.2202 25.6745 51.5499 25.6745 51.9567V54.8138C25.6745 55.2204 25.342 55.5503 24.9323 55.5502Z" fill="black" stroke="black" strokeWidth="0.3"/>
<path fill-rule="evenodd" clip-rule="evenodd" d="M16.0012 42.3749H17.4474V39.5513C17.4474 39.1444 17.7797 38.8148 18.1895 38.8148L21.0367 38.8147V37.3795H18.1895C17.7798 37.3795 17.4472 37.0497 17.4472 36.643L17.4474 33.8192H16.0012V36.643C16.0012 37.0496 15.6687 37.3796 15.2589 37.3796L12.4133 37.3795V38.8147H15.259C15.6687 38.8147 16.0012 39.1445 16.0012 39.5513V42.3749ZM18.1895 43.8477H15.259C14.8491 43.8477 14.5166 43.5181 14.5166 43.1115L14.5166 40.2877H11.6711C11.2613 40.2877 10.9287 39.9581 10.9287 39.5513L10.9288 36.643C10.9288 36.2361 11.2612 35.9065 11.671 35.9065L14.5166 35.9064V33.0829C14.5166 32.6761 14.8491 32.3463 15.2589 32.3463L18.1895 32.3462C18.5994 32.3462 18.9318 32.6762 18.9318 33.0829L18.9319 35.9064H21.7774C22.1889 35.9064 22.5213 36.2362 22.5213 36.643L22.5213 39.5513C22.5213 39.958 22.1888 40.2878 21.7774 40.2878L18.9319 40.2877V43.1115C18.9319 43.518 18.5993 43.8478 18.1895 43.8477Z" fill="black" stroke="black" strokeWidth="0.3"/>
<path fill-rule="evenodd" clip-rule="evenodd" d="M31.7075 42.6551C31.2976 42.6551 30.9651 42.3255 30.9651 41.9187L30.9651 21.9351C30.9651 19.7656 29.4387 17.8383 27.2535 17.248C26.2065 16.9653 25.5044 16.0666 25.5044 15.0118L25.5045 9.5513C25.5045 9.14462 25.8369 8.81494 26.2467 8.81494C26.6566 8.8149 26.989 9.14471 26.989 9.55148L26.9891 15.0117C26.9891 15.3994 27.2458 15.7194 27.6432 15.8266C30.4734 16.591 32.4497 19.1029 32.4497 21.9352L32.4499 41.9187C32.4499 42.3254 32.1173 42.6552 31.7075 42.6551ZM25.8848 61.0002H7.56352C3.94469 61.0002 1 58.1553 1 54.6587L1.00004 21.9351C1.00004 19.1027 2.97647 16.5909 5.80499 15.8266C6.20248 15.7193 6.45919 15.3994 6.45919 15.0118L6.45923 9.5513C6.45923 9.14462 6.79169 8.81494 7.20153 8.81494C7.61136 8.8149 7.94382 9.14471 7.94382 9.55148L7.94386 15.0117C7.94386 16.0666 7.24173 16.9653 6.19626 17.248C4.01114 17.838 2.48467 19.7657 2.48467 21.9352L2.4848 54.6585C2.4848 57.3428 4.76267 59.5273 7.56339 59.5273L25.8848 59.5272C27.7793 59.5272 29.5052 58.5199 30.3898 56.8989C30.5848 56.5413 31.0362 56.4084 31.3966 56.6022C31.7569 56.7958 31.8899 57.243 31.695 57.6005C30.5507 59.6974 28.3237 61.0003 25.8848 61.0002Z" fill="black" stroke="black" strokeWidth="0.3"/>
</svg>
