<svg width="448" height="224" viewBox="0 0 448 224" fill="none" xmlns="http://www.w3.org/2000/svg">
<path d="M76.1906 35.6136V34.4545L81.3042 26.3636H82.1451V28.1591H81.5769L77.7133 34.2727V34.3636H84.5997V35.6136H76.1906ZM81.6678 38V35.2614V34.7216V26.3636H83.0088V38H81.6678ZM88.0489 36.5114C87.7686 36.5114 87.5281 36.411 87.3273 36.2102C87.1266 36.0095 87.0262 35.7689 87.0262 35.4886C87.0262 35.2083 87.1266 34.9678 87.3273 34.767C87.5281 34.5663 87.7686 34.4659 88.0489 34.4659C88.3292 34.4659 88.5698 34.5663 88.7705 34.767C88.9713 34.9678 89.0716 35.2083 89.0716 35.4886C89.0716 35.6742 89.0243 35.8447 88.9296 36C88.8387 36.1553 88.7156 36.2803 88.5603 36.375C88.4088 36.4659 88.2383 36.5114 88.0489 36.5114ZM88.0489 30.625C87.7686 30.625 87.5281 30.5246 87.3273 30.3239C87.1266 30.1231 87.0262 29.8826 87.0262 29.6023C87.0262 29.322 87.1266 29.0814 87.3273 28.8807C87.5281 28.6799 87.7686 28.5795 88.0489 28.5795C88.3292 28.5795 88.5698 28.6799 88.7705 28.8807C88.9713 29.0814 89.0716 29.322 89.0716 29.6023C89.0716 29.7879 89.0243 29.9583 88.9296 30.1136C88.8387 30.2689 88.7156 30.3939 88.5603 30.4886C88.4088 30.5795 88.2383 30.625 88.0489 30.625ZM95.5706 38.1591C94.7146 38.1591 93.9854 37.9261 93.3831 37.4602C92.7809 36.9905 92.3206 36.3106 92.0024 35.4205C91.6843 34.5265 91.5252 33.447 91.5252 32.1818C91.5252 30.9242 91.6843 29.8504 92.0024 28.9602C92.3244 28.0663 92.7865 27.3845 93.3888 26.9148C93.9949 26.4413 94.7221 26.2045 95.5706 26.2045C96.4191 26.2045 97.1445 26.4413 97.7468 26.9148C98.3528 27.3845 98.8149 28.0663 99.1331 28.9602C99.4551 29.8504 99.6161 30.9242 99.6161 32.1818C99.6161 33.447 99.457 34.5265 99.1388 35.4205C98.8206 36.3106 98.3604 36.9905 97.7581 37.4602C97.1559 37.9261 96.4267 38.1591 95.5706 38.1591ZM95.5706 36.9091C96.4191 36.9091 97.0782 36.5 97.5479 35.6818C98.0176 34.8636 98.2524 33.697 98.2524 32.1818C98.2524 31.1742 98.1445 30.3163 97.9286 29.608C97.7165 28.8996 97.4096 28.3598 97.0081 27.9886C96.6104 27.6174 96.1312 27.4318 95.5706 27.4318C94.7297 27.4318 94.0725 27.8466 93.599 28.6761C93.1255 29.5019 92.8888 30.6705 92.8888 32.1818C92.8888 33.1894 92.9949 34.0455 93.207 34.75C93.4191 35.4545 93.724 35.9905 94.1218 36.358C94.5233 36.7254 95.0062 36.9091 95.5706 36.9091ZM105.891 38.1591C105.035 38.1591 104.305 37.9261 103.703 37.4602C103.101 36.9905 102.641 36.3106 102.322 35.4205C102.004 34.5265 101.845 33.447 101.845 32.1818C101.845 30.9242 102.004 29.8504 102.322 28.9602C102.644 28.0663 103.107 27.3845 103.709 26.9148C104.315 26.4413 105.042 26.2045 105.891 26.2045C106.739 26.2045 107.464 26.4413 108.067 26.9148C108.673 27.3845 109.135 28.0663 109.453 28.9602C109.775 29.8504 109.936 30.9242 109.936 32.1818C109.936 33.447 109.777 34.5265 109.459 35.4205C109.141 36.3106 108.68 36.9905 108.078 37.4602C107.476 37.9261 106.747 38.1591 105.891 38.1591ZM105.891 36.9091C106.739 36.9091 107.398 36.5 107.868 35.6818C108.338 34.8636 108.572 33.697 108.572 32.1818C108.572 31.1742 108.464 30.3163 108.249 29.608C108.036 28.8996 107.73 28.3598 107.328 27.9886C106.93 27.6174 106.451 27.4318 105.891 27.4318C105.05 27.4318 104.393 27.8466 103.919 28.6761C103.446 29.5019 103.209 30.6705 103.209 32.1818C103.209 33.1894 103.315 34.0455 103.527 34.75C103.739 35.4545 104.044 35.9905 104.442 36.358C104.843 36.7254 105.326 36.9091 105.891 36.9091ZM117.44 38V26.3636H121.372C122.284 26.3636 123.031 26.5284 123.61 26.858C124.194 27.1837 124.625 27.625 124.906 28.1818C125.186 28.7386 125.326 29.3598 125.326 30.0455C125.326 30.7311 125.186 31.3542 124.906 31.9148C124.629 32.4754 124.201 32.9223 123.622 33.2557C123.042 33.5852 122.3 33.75 121.394 33.75H118.576V32.5H121.349C121.974 32.5 122.476 32.392 122.854 32.1761C123.233 31.9602 123.508 31.6686 123.678 31.3011C123.853 30.9299 123.94 30.5114 123.94 30.0455C123.94 29.5795 123.853 29.1629 123.678 28.7955C123.508 28.428 123.231 28.1402 122.849 27.9318C122.466 27.7197 121.959 27.6136 121.326 27.6136H118.849V38H117.44ZM127.916 26.3636H129.598L133.552 36.0227H133.689L137.643 26.3636H139.325V38H138.007V29.1591H137.893L134.257 38H132.984L129.348 29.1591H129.234V38H127.916V26.3636Z" fill="#1B1B1B"/>
<rect x="0.5" y="0.5" width="215" height="63" rx="11.5" stroke="#D8D8D8"/>
<path d="M308.097 35.6136V34.4545L313.21 26.3636H314.051V28.1591H313.483L309.62 34.2727V34.3636H316.506V35.6136H308.097ZM313.574 38V35.2614V34.7216V26.3636H314.915V38H313.574ZM319.955 36.5114C319.675 36.5114 319.434 36.411 319.234 36.2102C319.033 36.0095 318.932 35.7689 318.932 35.4886C318.932 35.2083 319.033 34.9678 319.234 34.767C319.434 34.5663 319.675 34.4659 319.955 34.4659C320.235 34.4659 320.476 34.5663 320.677 34.767C320.878 34.9678 320.978 35.2083 320.978 35.4886C320.978 35.6742 320.931 35.8447 320.836 36C320.745 36.1553 320.622 36.2803 320.467 36.375C320.315 36.4659 320.145 36.5114 319.955 36.5114ZM319.955 30.625C319.675 30.625 319.434 30.5246 319.234 30.3239C319.033 30.1231 318.932 29.8826 318.932 29.6023C318.932 29.322 319.033 29.0814 319.234 28.8807C319.434 28.6799 319.675 28.5795 319.955 28.5795C320.235 28.5795 320.476 28.6799 320.677 28.8807C320.878 29.0814 320.978 29.322 320.978 29.6023C320.978 29.7879 320.931 29.9583 320.836 30.1136C320.745 30.2689 320.622 30.3939 320.467 30.4886C320.315 30.5795 320.145 30.625 319.955 30.625ZM327.613 38.1591C326.863 38.1591 326.195 38.0303 325.608 37.7727C325.024 37.5152 324.56 37.1572 324.216 36.6989C323.875 36.2367 323.689 35.7008 323.659 35.0909H325.091C325.121 35.4659 325.25 35.7898 325.477 36.0625C325.704 36.3314 326.001 36.5398 326.369 36.6875C326.736 36.8352 327.144 36.9091 327.591 36.9091C328.091 36.9091 328.534 36.822 328.92 36.6477C329.306 36.4735 329.609 36.2311 329.829 35.9205C330.049 35.6098 330.159 35.25 330.159 34.8409C330.159 34.4129 330.053 34.036 329.841 33.7102C329.628 33.3807 329.318 33.1231 328.909 32.9375C328.5 32.7519 328 32.6591 327.409 32.6591H326.477V31.4091H327.409C327.871 31.4091 328.276 31.3258 328.625 31.1591C328.977 30.9924 329.251 30.7576 329.448 30.4545C329.649 30.1515 329.75 29.7955 329.75 29.3864C329.75 28.9924 329.662 28.6496 329.488 28.358C329.314 28.0663 329.068 27.839 328.75 27.6761C328.435 27.5133 328.064 27.4318 327.636 27.4318C327.234 27.4318 326.856 27.5057 326.5 27.6534C326.147 27.7973 325.859 28.0076 325.636 28.2841C325.412 28.5568 325.291 28.8864 325.272 29.2727H323.909C323.931 28.6629 324.115 28.1288 324.46 27.6705C324.805 27.2083 325.255 26.8485 325.812 26.5909C326.373 26.3333 326.988 26.2045 327.659 26.2045C328.378 26.2045 328.996 26.3504 329.511 26.642C330.026 26.9299 330.422 27.3106 330.698 27.7841C330.975 28.2576 331.113 28.7689 331.113 29.3182C331.113 29.9735 330.941 30.5322 330.596 30.9943C330.255 31.4564 329.791 31.7765 329.204 31.9545V32.0455C329.939 32.1667 330.513 32.4792 330.926 32.983C331.339 33.483 331.545 34.1023 331.545 34.8409C331.545 35.4735 331.373 36.0417 331.028 36.5455C330.687 37.0455 330.221 37.4394 329.63 37.7273C329.039 38.0152 328.367 38.1591 327.613 38.1591ZM337.984 38.1591C337.128 38.1591 336.399 37.9261 335.797 37.4602C335.195 36.9905 334.734 36.3106 334.416 35.4205C334.098 34.5265 333.939 33.447 333.939 32.1818C333.939 30.9242 334.098 29.8504 334.416 28.9602C334.738 28.0663 335.2 27.3845 335.803 26.9148C336.409 26.4413 337.136 26.2045 337.984 26.2045C338.833 26.2045 339.558 26.4413 340.161 26.9148C340.767 27.3845 341.229 28.0663 341.547 28.9602C341.869 29.8504 342.03 30.9242 342.03 32.1818C342.03 33.447 341.871 34.5265 341.553 35.4205C341.234 36.3106 340.774 36.9905 340.172 37.4602C339.57 37.9261 338.84 38.1591 337.984 38.1591ZM337.984 36.9091C338.833 36.9091 339.492 36.5 339.962 35.6818C340.431 34.8636 340.666 33.697 340.666 32.1818C340.666 31.1742 340.558 30.3163 340.342 29.608C340.13 28.8996 339.823 28.3598 339.422 27.9886C339.024 27.6174 338.545 27.4318 337.984 27.4318C337.143 27.4318 336.486 27.8466 336.013 28.6761C335.539 29.5019 335.303 30.6705 335.303 32.1818C335.303 33.1894 335.409 34.0455 335.621 34.75C335.833 35.4545 336.138 35.9905 336.536 36.358C336.937 36.7254 337.42 36.9091 337.984 36.9091ZM349.533 38V26.3636H353.465C354.378 26.3636 355.124 26.5284 355.704 26.858C356.287 27.1837 356.719 27.625 356.999 28.1818C357.28 28.7386 357.42 29.3598 357.42 30.0455C357.42 30.7311 357.28 31.3542 356.999 31.9148C356.723 32.4754 356.295 32.9223 355.715 33.2557C355.136 33.5852 354.393 33.75 353.488 33.75H350.67V32.5H353.443C354.068 32.5 354.569 32.392 354.948 32.1761C355.327 31.9602 355.602 31.6686 355.772 31.3011C355.946 30.9299 356.033 30.5114 356.033 30.0455C356.033 29.5795 355.946 29.1629 355.772 28.7955C355.602 28.428 355.325 28.1402 354.943 27.9318C354.56 27.7197 354.052 27.6136 353.42 27.6136H350.943V38H349.533ZM360.01 26.3636H361.692L365.646 36.0227H365.782L369.737 26.3636H371.419V38H370.101V29.1591H369.987L366.351 38H365.078L361.442 29.1591H361.328V38H360.01V26.3636Z" fill="#1B1B1B"/>
<rect x="232.5" y="0.5" width="215" height="63" rx="11.5" stroke="#D8D8D8"/>
<path d="M80.3653 118.159C79.6986 118.159 79.0982 118.027 78.5641 117.761C78.0301 117.496 77.602 117.133 77.2801 116.67C76.9581 116.208 76.782 115.682 76.7516 115.091H78.1153C78.1683 115.617 78.407 116.053 78.8312 116.398C79.2592 116.739 79.7706 116.909 80.3653 116.909C80.8426 116.909 81.2668 116.797 81.638 116.574C82.013 116.35 82.3066 116.044 82.5187 115.653C82.7346 115.259 82.8426 114.814 82.8426 114.318C82.8426 113.811 82.7308 113.358 82.5073 112.96C82.2876 112.559 81.9846 112.242 81.5982 112.011C81.2119 111.78 80.7706 111.663 80.2744 111.659C79.9183 111.655 79.5528 111.71 79.1778 111.824C78.8028 111.934 78.4941 112.076 78.2516 112.25L76.9335 112.091L77.638 106.364H83.6835V107.614H78.8198L78.4107 111.045H78.4789C78.7176 110.856 79.0168 110.699 79.3766 110.574C79.7365 110.449 80.1115 110.386 80.5016 110.386C81.2138 110.386 81.8482 110.557 82.4051 110.898C82.9657 111.235 83.4051 111.697 83.7232 112.284C84.0452 112.871 84.2062 113.542 84.2062 114.295C84.2062 115.038 84.0395 115.701 83.7062 116.284C83.3766 116.864 82.9221 117.322 82.3426 117.659C81.763 117.992 81.1039 118.159 80.3653 118.159ZM87.7833 116.511C87.503 116.511 87.2625 116.411 87.0617 116.21C86.8609 116.009 86.7606 115.769 86.7606 115.489C86.7606 115.208 86.8609 114.968 87.0617 114.767C87.2625 114.566 87.503 114.466 87.7833 114.466C88.0636 114.466 88.3041 114.566 88.5049 114.767C88.7056 114.968 88.806 115.208 88.806 115.489C88.806 115.674 88.7587 115.845 88.664 116C88.5731 116.155 88.45 116.28 88.2947 116.375C88.1431 116.466 87.9727 116.511 87.7833 116.511ZM87.7833 110.625C87.503 110.625 87.2625 110.525 87.0617 110.324C86.8609 110.123 86.7606 109.883 86.7606 109.602C86.7606 109.322 86.8609 109.081 87.0617 108.881C87.2625 108.68 87.503 108.58 87.7833 108.58C88.0636 108.58 88.3041 108.68 88.5049 108.881C88.7056 109.081 88.806 109.322 88.806 109.602C88.806 109.788 88.7587 109.958 88.664 110.114C88.5731 110.269 88.45 110.394 88.2947 110.489C88.1431 110.58 87.9727 110.625 87.7833 110.625ZM95.305 118.159C94.4489 118.159 93.7198 117.926 93.1175 117.46C92.5152 116.991 92.055 116.311 91.7368 115.42C91.4186 114.527 91.2595 113.447 91.2595 112.182C91.2595 110.924 91.4186 109.85 91.7368 108.96C92.0588 108.066 92.5209 107.384 93.1232 106.915C93.7292 106.441 94.4565 106.205 95.305 106.205C96.1535 106.205 96.8789 106.441 97.4811 106.915C98.0872 107.384 98.5493 108.066 98.8675 108.96C99.1895 109.85 99.3505 110.924 99.3505 112.182C99.3505 113.447 99.1914 114.527 98.8732 115.42C98.555 116.311 98.0948 116.991 97.4925 117.46C96.8902 117.926 96.1611 118.159 95.305 118.159ZM95.305 116.909C96.1535 116.909 96.8126 116.5 97.2823 115.682C97.752 114.864 97.9868 113.697 97.9868 112.182C97.9868 111.174 97.8789 110.316 97.663 109.608C97.4508 108.9 97.144 108.36 96.7425 107.989C96.3448 107.617 95.8656 107.432 95.305 107.432C94.4641 107.432 93.8069 107.847 93.3334 108.676C92.8599 109.502 92.6232 110.67 92.6232 112.182C92.6232 113.189 92.7292 114.045 92.9414 114.75C93.1535 115.455 93.4584 115.991 93.8561 116.358C94.2577 116.725 94.7406 116.909 95.305 116.909ZM105.625 118.159C104.769 118.159 104.04 117.926 103.438 117.46C102.835 116.991 102.375 116.311 102.057 115.42C101.739 114.527 101.58 113.447 101.58 112.182C101.58 110.924 101.739 109.85 102.057 108.96C102.379 108.066 102.841 107.384 103.443 106.915C104.049 106.441 104.777 106.205 105.625 106.205C106.473 106.205 107.199 106.441 107.801 106.915C108.407 107.384 108.869 108.066 109.188 108.96C109.509 109.85 109.67 110.924 109.67 112.182C109.67 113.447 109.511 114.527 109.193 115.42C108.875 116.311 108.415 116.991 107.812 117.46C107.21 117.926 106.481 118.159 105.625 118.159ZM105.625 116.909C106.473 116.909 107.133 116.5 107.602 115.682C108.072 114.864 108.307 113.697 108.307 112.182C108.307 111.174 108.199 110.316 107.983 109.608C107.771 108.9 107.464 108.36 107.062 107.989C106.665 107.617 106.186 107.432 105.625 107.432C104.784 107.432 104.127 107.847 103.653 108.676C103.18 109.502 102.943 110.67 102.943 112.182C102.943 113.189 103.049 114.045 103.261 114.75C103.473 115.455 103.778 115.991 104.176 116.358C104.578 116.725 105.061 116.909 105.625 116.909ZM117.174 118V106.364H121.106C122.019 106.364 122.765 106.528 123.345 106.858C123.928 107.184 124.36 107.625 124.64 108.182C124.92 108.739 125.06 109.36 125.06 110.045C125.06 110.731 124.92 111.354 124.64 111.915C124.363 112.475 123.935 112.922 123.356 113.256C122.776 113.585 122.034 113.75 121.129 113.75H118.31V112.5H121.083C121.708 112.5 122.21 112.392 122.589 112.176C122.968 111.96 123.242 111.669 123.413 111.301C123.587 110.93 123.674 110.511 123.674 110.045C123.674 109.58 123.587 109.163 123.413 108.795C123.242 108.428 122.966 108.14 122.583 107.932C122.201 107.72 121.693 107.614 121.06 107.614H118.583V118H117.174ZM127.65 106.364H129.332L133.287 116.023H133.423L137.378 106.364H139.059V118H137.741V109.159H137.628L133.991 118H132.719L129.082 109.159H128.969V118H127.65V106.364Z" fill="#1B1B1B"/>
<rect x="0.5" y="80.5" width="215" height="63" rx="11.5" stroke="#D8D8D8"/>
<path d="M312.272 118.159C311.605 118.159 311.004 118.027 310.47 117.761C309.936 117.496 309.508 117.133 309.186 116.67C308.864 116.208 308.688 115.682 308.658 115.091H310.022C310.075 115.617 310.313 116.053 310.737 116.398C311.165 116.739 311.677 116.909 312.272 116.909C312.749 116.909 313.173 116.797 313.544 116.574C313.919 116.35 314.213 116.044 314.425 115.653C314.641 115.259 314.749 114.814 314.749 114.318C314.749 113.811 314.637 113.358 314.414 112.96C314.194 112.559 313.891 112.242 313.504 112.011C313.118 111.78 312.677 111.663 312.181 111.659C311.825 111.655 311.459 111.71 311.084 111.824C310.709 111.934 310.4 112.076 310.158 112.25L308.84 112.091L309.544 106.364H315.59V107.614H310.726L310.317 111.045H310.385C310.624 110.856 310.923 110.699 311.283 110.574C311.643 110.449 312.018 110.386 312.408 110.386C313.12 110.386 313.754 110.557 314.311 110.898C314.872 111.235 315.311 111.697 315.629 112.284C315.951 112.871 316.112 113.542 316.112 114.295C316.112 115.038 315.946 115.701 315.612 116.284C315.283 116.864 314.828 117.322 314.249 117.659C313.669 117.992 313.01 118.159 312.272 118.159ZM319.69 116.511C319.409 116.511 319.169 116.411 318.968 116.21C318.767 116.009 318.667 115.769 318.667 115.489C318.667 115.208 318.767 114.968 318.968 114.767C319.169 114.566 319.409 114.466 319.69 114.466C319.97 114.466 320.21 114.566 320.411 114.767C320.612 114.968 320.712 115.208 320.712 115.489C320.712 115.674 320.665 115.845 320.57 116C320.479 116.155 320.356 116.28 320.201 116.375C320.049 116.466 319.879 116.511 319.69 116.511ZM319.69 110.625C319.409 110.625 319.169 110.525 318.968 110.324C318.767 110.123 318.667 109.883 318.667 109.602C318.667 109.322 318.767 109.081 318.968 108.881C319.169 108.68 319.409 108.58 319.69 108.58C319.97 108.58 320.21 108.68 320.411 108.881C320.612 109.081 320.712 109.322 320.712 109.602C320.712 109.788 320.665 109.958 320.57 110.114C320.479 110.269 320.356 110.394 320.201 110.489C320.049 110.58 319.879 110.625 319.69 110.625ZM327.348 118.159C326.598 118.159 325.929 118.03 325.342 117.773C324.759 117.515 324.295 117.157 323.95 116.699C323.609 116.237 323.423 115.701 323.393 115.091H324.825C324.855 115.466 324.984 115.79 325.211 116.062C325.439 116.331 325.736 116.54 326.103 116.688C326.471 116.835 326.878 116.909 327.325 116.909C327.825 116.909 328.268 116.822 328.654 116.648C329.041 116.473 329.344 116.231 329.564 115.92C329.783 115.61 329.893 115.25 329.893 114.841C329.893 114.413 329.787 114.036 329.575 113.71C329.363 113.381 329.052 113.123 328.643 112.938C328.234 112.752 327.734 112.659 327.143 112.659H326.211V111.409H327.143C327.605 111.409 328.01 111.326 328.359 111.159C328.711 110.992 328.986 110.758 329.183 110.455C329.384 110.152 329.484 109.795 329.484 109.386C329.484 108.992 329.397 108.65 329.223 108.358C329.048 108.066 328.802 107.839 328.484 107.676C328.17 107.513 327.798 107.432 327.37 107.432C326.969 107.432 326.59 107.506 326.234 107.653C325.882 107.797 325.594 108.008 325.37 108.284C325.147 108.557 325.026 108.886 325.007 109.273H323.643C323.666 108.663 323.85 108.129 324.194 107.67C324.539 107.208 324.99 106.848 325.546 106.591C326.107 106.333 326.723 106.205 327.393 106.205C328.113 106.205 328.73 106.35 329.245 106.642C329.76 106.93 330.156 107.311 330.433 107.784C330.709 108.258 330.848 108.769 330.848 109.318C330.848 109.973 330.675 110.532 330.331 110.994C329.99 111.456 329.526 111.777 328.939 111.955V112.045C329.673 112.167 330.247 112.479 330.66 112.983C331.073 113.483 331.279 114.102 331.279 114.841C331.279 115.473 331.107 116.042 330.762 116.545C330.421 117.045 329.956 117.439 329.365 117.727C328.774 118.015 328.101 118.159 327.348 118.159ZM337.719 118.159C336.863 118.159 336.134 117.926 335.531 117.46C334.929 116.991 334.469 116.311 334.151 115.42C333.832 114.527 333.673 113.447 333.673 112.182C333.673 110.924 333.832 109.85 334.151 108.96C334.473 108.066 334.935 107.384 335.537 106.915C336.143 106.441 336.87 106.205 337.719 106.205C338.567 106.205 339.293 106.441 339.895 106.915C340.501 107.384 340.963 108.066 341.281 108.96C341.603 109.85 341.764 110.924 341.764 112.182C341.764 113.447 341.605 114.527 341.287 115.42C340.969 116.311 340.509 116.991 339.906 117.46C339.304 117.926 338.575 118.159 337.719 118.159ZM337.719 116.909C338.567 116.909 339.226 116.5 339.696 115.682C340.166 114.864 340.401 113.697 340.401 112.182C340.401 111.174 340.293 110.316 340.077 109.608C339.865 108.9 339.558 108.36 339.156 107.989C338.759 107.617 338.279 107.432 337.719 107.432C336.878 107.432 336.221 107.847 335.747 108.676C335.274 109.502 335.037 110.67 335.037 112.182C335.037 113.189 335.143 114.045 335.355 114.75C335.567 115.455 335.872 115.991 336.27 116.358C336.671 116.725 337.154 116.909 337.719 116.909ZM349.268 118V106.364H353.2C354.113 106.364 354.859 106.528 355.438 106.858C356.022 107.184 356.453 107.625 356.734 108.182C357.014 108.739 357.154 109.36 357.154 110.045C357.154 110.731 357.014 111.354 356.734 111.915C356.457 112.475 356.029 112.922 355.45 113.256C354.87 113.585 354.128 113.75 353.222 113.75H350.404V112.5H353.177C353.802 112.5 354.304 112.392 354.683 112.176C355.061 111.96 355.336 111.669 355.506 111.301C355.681 110.93 355.768 110.511 355.768 110.045C355.768 109.58 355.681 109.163 355.506 108.795C355.336 108.428 355.06 108.14 354.677 107.932C354.294 107.72 353.787 107.614 353.154 107.614H350.677V118H349.268ZM359.744 106.364H361.426L365.38 116.023H365.517L369.471 106.364H371.153V118H369.835V109.159H369.721L366.085 118H364.812L361.176 109.159H361.062V118H359.744V106.364Z" fill="#1B1B1B"/>
<rect x="232.5" y="80.5" width="215" height="63" rx="11.5" stroke="#D8D8D8"/>
<path d="M184.37 186.364L187.398 195.523H187.518L190.54 186.364H192.858L188.756 198H186.154L182.057 186.364H184.37ZM194.62 198V189.273H196.677V198H194.62ZM195.654 188.034C195.329 188.034 195.048 187.926 194.813 187.71C194.579 187.491 194.461 187.227 194.461 186.92C194.461 186.61 194.579 186.347 194.813 186.131C195.048 185.911 195.329 185.801 195.654 185.801C195.984 185.801 196.264 185.911 196.495 186.131C196.73 186.347 196.848 186.61 196.848 186.92C196.848 187.227 196.73 187.491 196.495 187.71C196.264 187.926 195.984 188.034 195.654 188.034ZM202.976 198.17C202.101 198.17 201.345 197.989 200.709 197.625C200.076 197.258 199.589 196.739 199.248 196.068C198.908 195.394 198.737 194.6 198.737 193.688C198.737 192.79 198.908 192.002 199.248 191.324C199.593 190.642 200.074 190.112 200.692 189.733C201.309 189.35 202.034 189.159 202.868 189.159C203.406 189.159 203.913 189.246 204.391 189.42C204.872 189.591 205.296 189.856 205.663 190.216C206.034 190.576 206.326 191.034 206.538 191.591C206.75 192.144 206.856 192.803 206.856 193.568V194.199H199.703V192.812H204.885C204.881 192.419 204.796 192.068 204.629 191.761C204.463 191.451 204.23 191.206 203.93 191.028C203.635 190.85 203.29 190.761 202.896 190.761C202.476 190.761 202.106 190.864 201.788 191.068C201.47 191.269 201.222 191.534 201.044 191.864C200.87 192.189 200.781 192.547 200.777 192.938V194.148C200.777 194.655 200.87 195.091 201.055 195.455C201.241 195.814 201.5 196.091 201.834 196.284C202.167 196.473 202.557 196.568 203.004 196.568C203.303 196.568 203.574 196.527 203.817 196.443C204.059 196.356 204.269 196.229 204.447 196.062C204.625 195.896 204.76 195.689 204.851 195.443L206.771 195.659C206.65 196.167 206.419 196.61 206.078 196.989C205.741 197.364 205.309 197.655 204.783 197.864C204.256 198.068 203.654 198.17 202.976 198.17ZM210.671 198L208.205 189.273H210.301L211.836 195.409H211.915L213.483 189.273H215.557L217.125 195.375H217.211L218.722 189.273H220.824L218.353 198H216.211L214.574 192.102H214.455L212.818 198H210.671ZM226.869 198V189.273H228.835V190.756H228.937C229.119 190.256 229.42 189.866 229.841 189.585C230.261 189.301 230.763 189.159 231.346 189.159C231.937 189.159 232.435 189.303 232.841 189.591C233.25 189.875 233.538 190.263 233.704 190.756H233.795C233.988 190.271 234.314 189.884 234.772 189.597C235.235 189.305 235.782 189.159 236.414 189.159C237.217 189.159 237.873 189.413 238.38 189.92C238.888 190.428 239.142 191.169 239.142 192.142V198H237.079V192.46C237.079 191.919 236.935 191.523 236.647 191.273C236.36 191.019 236.007 190.892 235.591 190.892C235.094 190.892 234.706 191.047 234.426 191.358C234.149 191.665 234.011 192.064 234.011 192.557V198H231.994V192.375C231.994 191.924 231.858 191.564 231.585 191.295C231.316 191.027 230.964 190.892 230.528 190.892C230.233 190.892 229.964 190.968 229.721 191.119C229.479 191.267 229.286 191.477 229.142 191.75C228.998 192.019 228.926 192.333 228.926 192.693V198H226.869ZM245.355 198.17C244.503 198.17 243.764 197.983 243.139 197.608C242.514 197.233 242.029 196.708 241.685 196.034C241.344 195.36 241.173 194.572 241.173 193.67C241.173 192.769 241.344 191.979 241.685 191.301C242.029 190.623 242.514 190.097 243.139 189.722C243.764 189.347 244.503 189.159 245.355 189.159C246.207 189.159 246.946 189.347 247.571 189.722C248.196 190.097 248.679 190.623 249.02 191.301C249.365 191.979 249.537 192.769 249.537 193.67C249.537 194.572 249.365 195.36 249.02 196.034C248.679 196.708 248.196 197.233 247.571 197.608C246.946 197.983 246.207 198.17 245.355 198.17ZM245.367 196.523C245.829 196.523 246.215 196.396 246.526 196.142C246.836 195.884 247.067 195.54 247.219 195.108C247.374 194.676 247.452 194.195 247.452 193.665C247.452 193.131 247.374 192.648 247.219 192.216C247.067 191.78 246.836 191.434 246.526 191.176C246.215 190.919 245.829 190.79 245.367 190.79C244.893 190.79 244.499 190.919 244.185 191.176C243.874 191.434 243.641 191.78 243.486 192.216C243.334 192.648 243.259 193.131 243.259 193.665C243.259 194.195 243.334 194.676 243.486 195.108C243.641 195.54 243.874 195.884 244.185 196.142C244.499 196.396 244.893 196.523 245.367 196.523ZM251.603 198V189.273H253.597V190.727H253.688C253.847 190.223 254.12 189.835 254.506 189.562C254.896 189.286 255.341 189.148 255.841 189.148C255.955 189.148 256.082 189.153 256.222 189.165C256.366 189.172 256.485 189.186 256.58 189.205V191.097C256.493 191.066 256.355 191.04 256.165 191.017C255.98 190.991 255.8 190.977 255.625 190.977C255.25 190.977 254.913 191.059 254.614 191.222C254.319 191.381 254.086 191.602 253.915 191.886C253.745 192.17 253.66 192.498 253.66 192.869V198H251.603ZM261.771 198.17C260.896 198.17 260.14 197.989 259.504 197.625C258.871 197.258 258.384 196.739 258.043 196.068C257.703 195.394 257.532 194.6 257.532 193.688C257.532 192.79 257.703 192.002 258.043 191.324C258.388 190.642 258.869 190.112 259.487 189.733C260.104 189.35 260.829 189.159 261.663 189.159C262.201 189.159 262.708 189.246 263.186 189.42C263.667 189.591 264.091 189.856 264.458 190.216C264.829 190.576 265.121 191.034 265.333 191.591C265.545 192.144 265.651 192.803 265.651 193.568V194.199H258.498V192.812H263.68C263.676 192.419 263.591 192.068 263.424 191.761C263.258 191.451 263.025 191.206 262.725 191.028C262.43 190.85 262.085 190.761 261.691 190.761C261.271 190.761 260.901 190.864 260.583 191.068C260.265 191.269 260.017 191.534 259.839 191.864C259.665 192.189 259.576 192.547 259.572 192.938V194.148C259.572 194.655 259.665 195.091 259.85 195.455C260.036 195.814 260.295 196.091 260.629 196.284C260.962 196.473 261.352 196.568 261.799 196.568C262.098 196.568 262.369 196.527 262.612 196.443C262.854 196.356 263.064 196.229 263.242 196.062C263.42 195.896 263.555 195.689 263.646 195.443L265.566 195.659C265.445 196.167 265.214 196.61 264.873 196.989C264.536 197.364 264.104 197.655 263.578 197.864C263.051 198.068 262.449 198.17 261.771 198.17Z" fill="#1B1B1B"/>
<rect x="0.5" y="160.5" width="447" height="63" rx="11.5" stroke="#D8D8D8"/>
</svg>
