<svg width="448" height="492" viewBox="0 0 448 492" fill="none" xmlns="http://www.w3.org/2000/svg">
<path d="M33.1477 50V38.3636H40.6023V40.1307H35.2557V43.2898H40.0909V45.0568H35.2557V50H33.1477ZM45.5588 50.1705C44.6838 50.1705 43.9281 49.9886 43.2918 49.625C42.6592 49.2576 42.1725 48.7386 41.8316 48.0682C41.4906 47.3939 41.3202 46.6004 41.3202 45.6875C41.3202 44.7898 41.4906 44.0019 41.8316 43.3239C42.1763 42.642 42.6573 42.1117 43.2747 41.733C43.8922 41.3504 44.6175 41.1591 45.4509 41.1591C45.9888 41.1591 46.4963 41.2462 46.9736 41.4205C47.4547 41.5909 47.8789 41.8561 48.2463 42.2159C48.6175 42.5758 48.9092 43.0341 49.1213 43.5909C49.3335 44.1439 49.4395 44.803 49.4395 45.5682V46.1989H42.2861V44.8125H47.4679C47.4641 44.4186 47.3789 44.0682 47.2122 43.7614C47.0456 43.4508 46.8126 43.2064 46.5134 43.0284C46.2179 42.8504 45.8732 42.7614 45.4793 42.7614C45.0588 42.7614 44.6895 42.8636 44.3713 43.0682C44.0531 43.2689 43.805 43.5341 43.627 43.8636C43.4528 44.1894 43.3638 44.5473 43.36 44.9375V46.1477C43.36 46.6553 43.4528 47.0909 43.6384 47.4545C43.824 47.8144 44.0835 48.0909 44.4168 48.2841C44.7501 48.4735 45.1403 48.5682 45.5872 48.5682C45.8865 48.5682 46.1573 48.5265 46.3997 48.4432C46.6422 48.3561 46.8524 48.2292 47.0304 48.0625C47.2085 47.8958 47.3429 47.6894 47.4338 47.4432L49.3543 47.6591C49.2331 48.1667 49.002 48.6098 48.6611 48.9886C48.324 49.3636 47.8922 49.6553 47.3656 49.8636C46.8391 50.0682 46.2369 50.1705 45.5588 50.1705ZM51.1745 50V38.3636H53.2313V42.7159H53.3165C53.4226 42.5038 53.5722 42.2784 53.7654 42.0398C53.9586 41.7973 54.2199 41.5909 54.5495 41.4205C54.879 41.2462 55.2995 41.1591 55.8108 41.1591C56.4851 41.1591 57.093 41.3314 57.6347 41.6761C58.1802 42.017 58.612 42.5227 58.9302 43.1932C59.2521 43.8598 59.4131 44.678 59.4131 45.6477C59.4131 46.6061 59.2559 47.4205 58.9415 48.0909C58.6271 48.7614 58.1991 49.2727 57.6574 49.625C57.1158 49.9773 56.5021 50.1534 55.8165 50.1534C55.3165 50.1534 54.9018 50.0701 54.5722 49.9034C54.2427 49.7367 53.9775 49.536 53.7768 49.3011C53.5798 49.0625 53.4264 48.8371 53.3165 48.625H53.1972V50H51.1745ZM53.1915 45.6364C53.1915 46.2008 53.2711 46.6951 53.4302 47.1193C53.593 47.5436 53.826 47.875 54.129 48.1136C54.4358 48.3485 54.8071 48.4659 55.2427 48.4659C55.6972 48.4659 56.0779 48.3447 56.3847 48.1023C56.6915 47.8561 56.9226 47.5208 57.0779 47.0966C57.237 46.6686 57.3165 46.1818 57.3165 45.6364C57.3165 45.0947 57.2389 44.6136 57.0836 44.1932C56.9283 43.7727 56.6972 43.4432 56.3904 43.2045C56.0836 42.9659 55.701 42.8466 55.2427 42.8466C54.8033 42.8466 54.4302 42.9621 54.1233 43.1932C53.8165 43.4242 53.5836 43.7481 53.4245 44.1648C53.2692 44.5814 53.1915 45.072 53.1915 45.6364ZM61.0657 50V41.2727H63.06V42.7273H63.1509C63.31 42.2235 63.5827 41.8352 63.9691 41.5625C64.3593 41.286 64.8043 41.1477 65.3043 41.1477C65.418 41.1477 65.5449 41.1534 65.685 41.1648C65.829 41.1723 65.9483 41.1856 66.043 41.2045V43.0966C65.9558 43.0663 65.8176 43.0398 65.6282 43.017C65.4426 42.9905 65.2627 42.9773 65.0884 42.9773C64.7134 42.9773 64.3763 43.0587 64.0771 43.2216C63.7816 43.3807 63.5486 43.6023 63.3782 43.8864C63.2077 44.1705 63.1225 44.4981 63.1225 44.8693V50H61.0657ZM72.8759 46.3295V41.2727H74.9328V50H72.9384V48.4489H72.8475C72.6506 48.9375 72.3267 49.3371 71.8759 49.6477C71.429 49.9583 70.8778 50.1136 70.2225 50.1136C69.6506 50.1136 69.1449 49.9867 68.7055 49.733C68.2699 49.4754 67.929 49.1023 67.6828 48.6136C67.4366 48.1212 67.3134 47.5265 67.3134 46.8295V41.2727H69.3703V46.5114C69.3703 47.0644 69.5218 47.5038 69.8248 47.8295C70.1278 48.1553 70.5256 48.3182 71.018 48.3182C71.321 48.3182 71.6146 48.2443 71.8987 48.0966C72.1828 47.9489 72.4157 47.7292 72.5975 47.4375C72.7831 47.142 72.8759 46.7727 72.8759 46.3295ZM79.4632 50.1761C78.9102 50.1761 78.412 50.0777 77.9689 49.8807C77.5295 49.6799 77.181 49.3845 76.9234 48.9943C76.6696 48.6042 76.5427 48.1231 76.5427 47.5511C76.5427 47.0587 76.6336 46.6515 76.8155 46.3295C76.9973 46.0076 77.2454 45.75 77.5598 45.5568C77.8742 45.3636 78.2283 45.2178 78.6223 45.1193C79.02 45.017 79.431 44.9432 79.8552 44.8977C80.3666 44.8447 80.7814 44.7973 81.0995 44.7557C81.4177 44.7102 81.6488 44.642 81.7927 44.5511C81.9405 44.4564 82.0143 44.3106 82.0143 44.1136V44.0795C82.0143 43.6515 81.8874 43.3201 81.6336 43.0852C81.3798 42.8504 81.0143 42.733 80.537 42.733C80.0333 42.733 79.6336 42.8428 79.3382 43.0625C79.0465 43.2822 78.8495 43.5417 78.7473 43.8409L76.8268 43.5682C76.9783 43.0379 77.2283 42.5947 77.5768 42.2386C77.9253 41.8788 78.3514 41.6098 78.8552 41.4318C79.359 41.25 79.9158 41.1591 80.5257 41.1591C80.9461 41.1591 81.3647 41.2083 81.7814 41.3068C82.198 41.4053 82.5787 41.5682 82.9234 41.7955C83.2681 42.0189 83.5446 42.3239 83.753 42.7102C83.9651 43.0966 84.0711 43.5795 84.0711 44.1591V50H82.0939V48.8011H82.0257C81.9007 49.0436 81.7245 49.2708 81.4973 49.483C81.2738 49.6913 80.9916 49.8598 80.6507 49.9886C80.3136 50.1136 79.9177 50.1761 79.4632 50.1761ZM79.9973 48.6648C80.4102 48.6648 80.7681 48.5833 81.0711 48.4205C81.3742 48.2538 81.6071 48.0341 81.77 47.7614C81.9367 47.4886 82.02 47.1913 82.02 46.8693V45.8409C81.9556 45.8939 81.8458 45.9432 81.6905 45.9886C81.5389 46.0341 81.3685 46.0739 81.1791 46.108C80.9897 46.142 80.8022 46.1723 80.6166 46.1989C80.431 46.2254 80.27 46.2481 80.1336 46.267C79.8268 46.3087 79.5522 46.3769 79.3098 46.4716C79.0673 46.5663 78.8761 46.6989 78.7359 46.8693C78.5958 47.036 78.5257 47.2519 78.5257 47.517C78.5257 47.8958 78.6639 48.1818 78.9405 48.375C79.217 48.5682 79.5692 48.6648 79.9973 48.6648ZM86.0433 50V41.2727H88.0376V42.7273H88.1285C88.2876 42.2235 88.5604 41.8352 88.9467 41.5625C89.3369 41.286 89.782 41.1477 90.282 41.1477C90.3956 41.1477 90.5225 41.1534 90.6626 41.1648C90.8066 41.1723 90.9259 41.1856 91.0206 41.2045V43.0966C90.9335 43.0663 90.7952 43.0398 90.6058 43.017C90.4202 42.9905 90.2403 42.9773 90.066 42.9773C89.691 42.9773 89.3539 43.0587 89.0547 43.2216C88.7592 43.3807 88.5263 43.6023 88.3558 43.8864C88.1854 44.1705 88.1001 44.4981 88.1001 44.8693V50H86.0433ZM93.8351 53.2727C93.5548 53.2727 93.2953 53.25 93.0567 53.2045C92.8218 53.1629 92.6343 53.1136 92.4942 53.0568L92.9715 51.4545C93.2707 51.5417 93.5378 51.5833 93.7726 51.5795C94.0074 51.5758 94.2139 51.5019 94.3919 51.358C94.5737 51.2178 94.7271 50.983 94.8521 50.6534L95.0283 50.1818L91.8635 41.2727H94.0453L96.0567 47.8636H96.1476L98.1646 41.2727H100.352L96.8578 51.0568C96.6949 51.5189 96.479 51.9148 96.2101 52.2443C95.9412 52.5777 95.6116 52.8314 95.2215 53.0057C94.8351 53.1837 94.373 53.2727 93.8351 53.2727ZM105.529 50V48.4773L109.569 44.517C109.956 44.1269 110.278 43.7803 110.535 43.4773C110.793 43.1742 110.986 42.8807 111.115 42.5966C111.243 42.3125 111.308 42.0095 111.308 41.6875C111.308 41.3201 111.225 41.0057 111.058 40.7443C110.891 40.4792 110.662 40.2746 110.37 40.1307C110.079 39.9867 109.747 39.9148 109.376 39.9148C108.993 39.9148 108.658 39.9943 108.37 40.1534C108.082 40.3087 107.859 40.5303 107.7 40.8182C107.545 41.1061 107.467 41.4489 107.467 41.8466H105.461C105.461 41.108 105.63 40.4659 105.967 39.9205C106.304 39.375 106.768 38.9527 107.359 38.6534C107.954 38.3542 108.636 38.2045 109.404 38.2045C110.185 38.2045 110.87 38.3504 111.461 38.642C112.052 38.9337 112.511 39.3333 112.836 39.8409C113.166 40.3485 113.331 40.928 113.331 41.5795C113.331 42.0152 113.247 42.4432 113.081 42.8636C112.914 43.2841 112.62 43.75 112.2 44.2614C111.783 44.7727 111.198 45.392 110.444 46.1193L108.439 48.1591V48.2386H113.507V50H105.529ZM119.672 50.2216C118.736 50.2216 117.933 49.9848 117.263 49.5114C116.596 49.0341 116.083 48.3466 115.723 47.4489C115.367 46.5473 115.189 45.4621 115.189 44.1932C115.193 42.9242 115.373 41.8447 115.729 40.9545C116.089 40.0606 116.602 39.3788 117.269 38.9091C117.939 38.4394 118.74 38.2045 119.672 38.2045C120.604 38.2045 121.405 38.4394 122.076 38.9091C122.746 39.3788 123.259 40.0606 123.615 40.9545C123.975 41.8485 124.155 42.928 124.155 44.1932C124.155 45.4659 123.975 46.553 123.615 47.4545C123.259 48.3523 122.746 49.0379 122.076 49.5114C121.409 49.9848 120.608 50.2216 119.672 50.2216ZM119.672 48.4432C120.399 48.4432 120.973 48.0852 121.394 47.3693C121.818 46.6496 122.03 45.5909 122.03 44.1932C122.03 43.2689 121.933 42.4924 121.74 41.8636C121.547 41.2348 121.274 40.7614 120.922 40.4432C120.57 40.1212 120.153 39.9602 119.672 39.9602C118.949 39.9602 118.377 40.3201 117.956 41.0398C117.536 41.7557 117.324 42.8068 117.32 44.1932C117.316 45.1212 117.409 45.9015 117.598 46.5341C117.791 47.1667 118.064 47.6439 118.416 47.9659C118.769 48.2841 119.187 48.4432 119.672 48.4432ZM125.947 50V48.4773L129.987 44.517C130.373 44.1269 130.695 43.7803 130.953 43.4773C131.21 43.1742 131.403 42.8807 131.532 42.5966C131.661 42.3125 131.725 42.0095 131.725 41.6875C131.725 41.3201 131.642 41.0057 131.475 40.7443C131.309 40.4792 131.079 40.2746 130.788 40.1307C130.496 39.9867 130.165 39.9148 129.793 39.9148C129.411 39.9148 129.076 39.9943 128.788 40.1534C128.5 40.3087 128.276 40.5303 128.117 40.8182C127.962 41.1061 127.884 41.4489 127.884 41.8466H125.879C125.879 41.108 126.047 40.4659 126.384 39.9205C126.721 39.375 127.185 38.9527 127.776 38.6534C128.371 38.3542 129.053 38.2045 129.822 38.2045C130.602 38.2045 131.288 38.3504 131.879 38.642C132.47 38.9337 132.928 39.3333 133.254 39.8409C133.583 40.3485 133.748 40.928 133.748 41.5795C133.748 42.0152 133.665 42.4432 133.498 42.8636C133.331 43.2841 133.038 43.75 132.617 44.2614C132.201 44.7727 131.615 45.392 130.862 46.1193L128.856 48.1591V48.2386H133.924V50H125.947ZM139.964 50.1591C139.146 50.1591 138.419 50.0189 137.783 49.7386C137.15 49.4583 136.65 49.0682 136.283 48.5682C135.915 48.0682 135.72 47.4905 135.697 46.8352H137.834C137.853 47.1496 137.957 47.4242 138.146 47.6591C138.336 47.8902 138.588 48.0701 138.902 48.1989C139.216 48.3277 139.569 48.392 139.959 48.392C140.375 48.392 140.745 48.3201 141.067 48.1761C141.389 48.0284 141.641 47.8239 141.822 47.5625C142.004 47.3011 142.093 47 142.089 46.6591C142.093 46.3068 142.002 45.9962 141.817 45.7273C141.631 45.4583 141.362 45.2481 141.01 45.0966C140.661 44.9451 140.241 44.8693 139.749 44.8693H138.72V43.2443H139.749C140.154 43.2443 140.508 43.1742 140.811 43.0341C141.118 42.8939 141.358 42.697 141.533 42.4432C141.707 42.1856 141.792 41.8883 141.788 41.5511C141.792 41.2216 141.718 40.9356 141.567 40.6932C141.419 40.447 141.209 40.2557 140.936 40.1193C140.667 39.983 140.351 39.9148 139.987 39.9148C139.631 39.9148 139.302 39.9792 138.999 40.108C138.696 40.2367 138.451 40.4205 138.266 40.6591C138.08 40.8939 137.982 41.1742 137.97 41.5H135.942C135.957 40.8485 136.144 40.2765 136.504 39.7841C136.868 39.2879 137.353 38.9015 137.959 38.625C138.565 38.3447 139.245 38.2045 139.999 38.2045C140.775 38.2045 141.449 38.3504 142.021 38.642C142.597 38.9299 143.042 39.3182 143.357 39.8068C143.671 40.2955 143.828 40.8352 143.828 41.4261C143.832 42.0814 143.639 42.6307 143.249 43.0739C142.862 43.517 142.355 43.8068 141.726 43.9432V44.0341C142.544 44.1477 143.171 44.4508 143.607 44.9432C144.046 45.4318 144.264 46.0398 144.26 46.767C144.26 47.4186 144.074 48.0019 143.703 48.517C143.336 49.0284 142.828 49.4299 142.18 49.7216C141.536 50.0133 140.798 50.1591 139.964 50.1591Z" fill="#1B1B1B"/>
<path d="M359 38L353 44L359 50" stroke="#1B1B1B" strokeWidth="2" strokeLinecap="round" strokeLinejoin="round"/>
<path d="M401 38L407 44L401 50" stroke="#1B1B1B" strokeWidth="2" strokeLinecap="round" strokeLinejoin="round"/>
<path d="M57.5376 99.6172C57.4912 99.183 57.2957 98.8449 56.951 98.603C56.6096 98.361 56.1655 98.2401 55.6186 98.2401C55.2341 98.2401 54.9044 98.2981 54.6293 98.4141C54.3542 98.5301 54.1437 98.6875 53.9979 98.8864C53.852 99.0852 53.7775 99.3123 53.7741 99.5675C53.7741 99.7796 53.8222 99.9635 53.9183 100.119C54.0178 100.275 54.152 100.408 54.321 100.517C54.4901 100.623 54.6773 100.713 54.8828 100.786C55.0883 100.858 55.2955 100.92 55.5043 100.969L56.4588 101.208C56.8433 101.298 57.2128 101.419 57.5675 101.571C57.9254 101.723 58.2453 101.916 58.527 102.148C58.812 102.38 59.0374 102.66 59.2031 102.988C59.3688 103.316 59.4517 103.701 59.4517 104.141C59.4517 104.738 59.2992 105.263 58.9943 105.717C58.6894 106.168 58.2486 106.521 57.6719 106.776C57.0985 107.028 56.4041 107.154 55.5888 107.154C54.7966 107.154 54.1089 107.031 53.5256 106.786C52.9455 106.541 52.4915 106.183 52.1634 105.712C51.8385 105.242 51.6629 104.668 51.6364 103.992H53.451C53.4775 104.347 53.5869 104.642 53.7791 104.877C53.9714 105.112 54.2216 105.288 54.5298 105.404C54.8414 105.52 55.1894 105.578 55.5739 105.578C55.9749 105.578 56.3262 105.518 56.6278 105.399C56.9328 105.277 57.1714 105.107 57.3438 104.892C57.5161 104.673 57.6039 104.418 57.6072 104.126C57.6039 103.861 57.526 103.643 57.3736 103.47C57.2211 103.295 57.0073 103.149 56.7322 103.033C56.4605 102.913 56.1423 102.807 55.7777 102.714L54.6193 102.416C53.7808 102.201 53.1179 101.874 52.6307 101.437C52.1468 100.996 51.9048 100.411 51.9048 99.6818C51.9048 99.0819 52.0672 98.5566 52.392 98.1058C52.7202 97.6551 53.166 97.3054 53.7294 97.0568C54.2929 96.8049 54.9309 96.679 55.6435 96.679C56.366 96.679 56.9991 96.8049 57.5426 97.0568C58.0895 97.3054 58.5187 97.6518 58.8303 98.0959C59.1418 98.5367 59.3026 99.0438 59.3125 99.6172H57.5376Z" fill="#777777"/>
<path d="M106.504 96.8182H108.761L111.784 104.196H111.903L114.926 96.8182H117.183V107H115.413V100.005H115.319L112.505 106.97H111.183L108.369 99.9901H108.274V107H106.504V96.8182Z" fill="#777777"/>
<path d="M163.557 98.3643V96.8182H171.68V98.3643H168.533V107H166.704V98.3643H163.557Z" fill="#777777"/>
<path d="M219.647 107L216.773 96.8182H218.757L220.592 104.3H220.686L222.645 96.8182H224.45L226.413 104.305H226.503L228.337 96.8182H230.321L227.447 107H225.628L223.589 99.8558H223.51L221.467 107H219.647Z" fill="#777777"/>
<path d="M275.557 98.3643V96.8182H283.68V98.3643H280.533V107H278.704V98.3643H275.557Z" fill="#777777"/>
<path d="M332.504 107V96.8182H339.027V98.3643H334.349V101.129H338.58V102.675H334.349V107H332.504Z" fill="#777777"/>
<path d="M393.538 99.6172C393.491 99.183 393.296 98.8449 392.951 98.603C392.61 98.361 392.165 98.2401 391.619 98.2401C391.234 98.2401 390.904 98.2981 390.629 98.4141C390.354 98.5301 390.144 98.6875 389.998 98.8864C389.852 99.0852 389.777 99.3123 389.774 99.5675C389.774 99.7796 389.822 99.9635 389.918 100.119C390.018 100.275 390.152 100.408 390.321 100.517C390.49 100.623 390.677 100.713 390.883 100.786C391.088 100.858 391.295 100.92 391.504 100.969L392.459 101.208C392.843 101.298 393.213 101.419 393.567 101.571C393.925 101.723 394.245 101.916 394.527 102.148C394.812 102.38 395.037 102.66 395.203 102.988C395.369 103.316 395.452 103.701 395.452 104.141C395.452 104.738 395.299 105.263 394.994 105.717C394.689 106.168 394.249 106.521 393.672 106.776C393.098 107.028 392.404 107.154 391.589 107.154C390.797 107.154 390.109 107.031 389.526 106.786C388.946 106.541 388.491 106.183 388.163 105.712C387.839 105.242 387.663 104.668 387.636 103.992H389.451C389.478 104.347 389.587 104.642 389.779 104.877C389.971 105.112 390.222 105.288 390.53 105.404C390.841 105.52 391.189 105.578 391.574 105.578C391.975 105.578 392.326 105.518 392.628 105.399C392.933 105.277 393.171 105.107 393.344 104.892C393.516 104.673 393.604 104.418 393.607 104.126C393.604 103.861 393.526 103.643 393.374 103.47C393.221 103.295 393.007 103.149 392.732 103.033C392.46 102.913 392.142 102.807 391.778 102.714L390.619 102.416C389.781 102.201 389.118 101.874 388.631 101.437C388.147 100.996 387.905 100.411 387.905 99.6818C387.905 99.0819 388.067 98.5566 388.392 98.1058C388.72 97.6551 389.166 97.3054 389.729 97.0568C390.293 96.8049 390.931 96.679 391.643 96.679C392.366 96.679 392.999 96.8049 393.543 97.0568C394.089 97.3054 394.519 97.6518 394.83 98.0959C395.142 98.5367 395.303 99.0438 395.312 99.6172H393.538Z" fill="#777777"/>
<path d="M48.054 163V162.105L51.4148 158.426C51.8092 157.995 52.134 157.621 52.3892 157.303C52.6444 156.981 52.8333 156.679 52.956 156.398C53.0819 156.113 53.1449 155.814 53.1449 155.503C53.1449 155.145 53.0587 154.835 52.8864 154.573C52.7173 154.311 52.4853 154.109 52.1903 153.967C51.8954 153.824 51.5639 153.753 51.196 153.753C50.8049 153.753 50.4635 153.834 50.1719 153.996C49.8835 154.156 49.6598 154.379 49.5007 154.668C49.3449 154.956 49.267 155.294 49.267 155.682H48.0938C48.0938 155.085 48.2313 154.562 48.5064 154.111C48.7815 153.66 49.156 153.309 49.63 153.057C50.1072 152.805 50.6425 152.679 51.2358 152.679C51.8324 152.679 52.361 152.805 52.8217 153.057C53.2824 153.309 53.6437 153.648 53.9055 154.076C54.1674 154.504 54.2983 154.979 54.2983 155.503C54.2983 155.877 54.2304 156.244 54.0945 156.602C53.9619 156.956 53.7299 157.352 53.3984 157.79C53.0703 158.224 52.6146 158.754 52.0312 159.381L49.7443 161.827V161.906H54.4773V163H48.054ZM60.052 152.679C60.4696 152.682 60.8872 152.762 61.3049 152.918C61.7225 153.073 62.1036 153.332 62.4483 153.693C62.793 154.051 63.0698 154.54 63.2786 155.16C63.4874 155.78 63.5918 156.557 63.5918 157.491C63.5918 158.396 63.5056 159.2 63.3333 159.903C63.1642 160.602 62.919 161.192 62.5975 161.673C62.2793 162.153 61.8915 162.518 61.4341 162.766C60.98 163.015 60.4663 163.139 59.8929 163.139C59.3229 163.139 58.8141 163.027 58.3666 162.801C57.9225 162.572 57.5579 162.256 57.2729 161.852C56.9912 161.444 56.8105 160.972 56.731 160.435H57.9441C58.0534 160.902 58.2705 161.288 58.5953 161.593C58.9235 161.895 59.356 162.045 59.8929 162.045C60.6784 162.045 61.2982 161.702 61.7523 161.016C62.2097 160.33 62.4384 159.361 62.4384 158.108H62.3588C62.1732 158.386 61.9528 158.627 61.6976 158.829C61.4424 159.031 61.159 159.187 60.8475 159.296C60.5359 159.406 60.2045 159.46 59.8532 159.46C59.2698 159.46 58.7345 159.316 58.2473 159.028C57.7634 158.736 57.3756 158.337 57.084 157.83C56.7956 157.319 56.6514 156.736 56.6514 156.08C56.6514 155.456 56.7907 154.886 57.0691 154.369C57.3508 153.849 57.7452 153.435 58.2523 153.126C58.7627 152.818 59.3626 152.669 60.052 152.679ZM60.052 153.773C59.6344 153.773 59.2582 153.877 58.9235 154.086C58.592 154.291 58.3285 154.57 58.133 154.921C57.9407 155.269 57.8446 155.655 57.8446 156.08C57.8446 156.504 57.9374 156.89 58.123 157.238C58.312 157.583 58.5688 157.858 58.8936 158.063C59.2218 158.265 59.5946 158.366 60.0122 158.366C60.3271 158.366 60.6204 158.305 60.8922 158.183C61.164 158.057 61.401 157.886 61.6032 157.67C61.8086 157.452 61.9694 157.205 62.0854 156.93C62.2014 156.651 62.2594 156.361 62.2594 156.06C62.2594 155.662 62.1633 155.289 61.9711 154.941C61.7821 154.593 61.5203 154.311 61.1855 154.096C60.8541 153.88 60.4763 153.773 60.052 153.773Z" fill="#777777"/>
<path d="M107.494 163.139C106.838 163.139 106.253 163.027 105.739 162.801C105.229 162.576 104.823 162.263 104.521 161.862C104.223 161.457 104.061 160.988 104.034 160.455H105.287C105.313 160.783 105.426 161.066 105.625 161.305C105.824 161.54 106.084 161.722 106.406 161.852C106.727 161.981 107.083 162.045 107.474 162.045C107.912 162.045 108.3 161.969 108.638 161.817C108.976 161.664 109.241 161.452 109.433 161.18C109.625 160.909 109.722 160.594 109.722 160.236C109.722 159.861 109.629 159.531 109.443 159.246C109.258 158.958 108.986 158.733 108.628 158.57C108.27 158.408 107.832 158.327 107.315 158.327H106.5V157.233H107.315C107.72 157.233 108.074 157.16 108.379 157.014C108.688 156.868 108.928 156.663 109.1 156.398C109.276 156.133 109.364 155.821 109.364 155.463C109.364 155.118 109.287 154.818 109.135 154.563C108.982 154.308 108.767 154.109 108.489 153.967C108.214 153.824 107.889 153.753 107.514 153.753C107.163 153.753 106.831 153.817 106.52 153.947C106.212 154.073 105.96 154.257 105.764 154.499C105.569 154.737 105.463 155.026 105.446 155.364H104.253C104.273 154.83 104.433 154.363 104.735 153.962C105.037 153.557 105.431 153.242 105.918 153.017C106.409 152.792 106.947 152.679 107.534 152.679C108.164 152.679 108.704 152.807 109.155 153.062C109.606 153.314 109.952 153.647 110.194 154.061C110.436 154.475 110.557 154.923 110.557 155.403C110.557 155.977 110.406 156.466 110.104 156.87C109.806 157.274 109.4 157.554 108.886 157.71V157.79C109.529 157.896 110.031 158.169 110.393 158.61C110.754 159.048 110.935 159.589 110.935 160.236C110.935 160.789 110.784 161.286 110.482 161.727C110.184 162.165 109.776 162.509 109.259 162.761C108.742 163.013 108.154 163.139 107.494 163.139ZM116.569 163.139C115.82 163.139 115.182 162.935 114.655 162.528C114.128 162.117 113.725 161.522 113.447 160.743C113.168 159.961 113.029 159.016 113.029 157.909C113.029 156.809 113.168 155.869 113.447 155.09C113.729 154.308 114.133 153.711 114.66 153.3C115.19 152.886 115.827 152.679 116.569 152.679C117.311 152.679 117.946 152.886 118.473 153.3C119.003 153.711 119.408 154.308 119.686 155.09C119.968 155.869 120.109 156.809 120.109 157.909C120.109 159.016 119.97 159.961 119.691 160.743C119.413 161.522 119.01 162.117 118.483 162.528C117.956 162.935 117.318 163.139 116.569 163.139ZM116.569 162.045C117.311 162.045 117.888 161.687 118.299 160.972C118.71 160.256 118.916 159.235 118.916 157.909C118.916 157.027 118.821 156.277 118.632 155.657C118.447 155.037 118.178 154.565 117.827 154.24C117.479 153.915 117.06 153.753 116.569 153.753C115.833 153.753 115.258 154.116 114.844 154.842C114.43 155.564 114.222 156.587 114.222 157.909C114.222 158.791 114.315 159.54 114.501 160.156C114.686 160.773 114.953 161.242 115.301 161.563C115.653 161.885 116.075 162.045 116.569 162.045Z" fill="#777777"/>
<path d="M164.494 163.139C163.838 163.139 163.253 163.027 162.739 162.801C162.229 162.576 161.823 162.263 161.521 161.862C161.223 161.457 161.061 160.988 161.034 160.455H162.287C162.313 160.783 162.426 161.066 162.625 161.305C162.824 161.54 163.084 161.722 163.406 161.852C163.727 161.981 164.083 162.045 164.474 162.045C164.912 162.045 165.3 161.969 165.638 161.817C165.976 161.664 166.241 161.452 166.433 161.18C166.625 160.909 166.722 160.594 166.722 160.236C166.722 159.861 166.629 159.531 166.443 159.246C166.258 158.958 165.986 158.733 165.628 158.57C165.27 158.408 164.832 158.327 164.315 158.327H163.5V157.233H164.315C164.72 157.233 165.074 157.16 165.379 157.014C165.688 156.868 165.928 156.663 166.1 156.398C166.276 156.133 166.364 155.821 166.364 155.463C166.364 155.118 166.287 154.818 166.135 154.563C165.982 154.308 165.767 154.109 165.489 153.967C165.214 153.824 164.889 153.753 164.514 153.753C164.163 153.753 163.831 153.817 163.52 153.947C163.212 154.073 162.96 154.257 162.764 154.499C162.569 154.737 162.463 155.026 162.446 155.364H161.253C161.273 154.83 161.433 154.363 161.735 153.962C162.037 153.557 162.431 153.242 162.918 153.017C163.409 152.792 163.947 152.679 164.534 152.679C165.164 152.679 165.704 152.807 166.155 153.062C166.606 153.314 166.952 153.647 167.194 154.061C167.436 154.475 167.557 154.923 167.557 155.403C167.557 155.977 167.406 156.466 167.104 156.87C166.806 157.274 166.4 157.554 165.886 157.71V157.79C166.529 157.896 167.031 158.169 167.393 158.61C167.754 159.048 167.935 159.589 167.935 160.236C167.935 160.789 167.784 161.286 167.482 161.727C167.184 162.165 166.776 162.509 166.259 162.761C165.742 163.013 165.154 163.139 164.494 163.139ZM173.828 152.818V163H172.595V154.111H172.535L170.049 155.761V154.509L172.595 152.818H173.828Z" fill="#777777"/>
<path d="M225.134 152.818V163H223.901V154.111H223.841L221.355 155.761V154.509L223.901 152.818H225.134Z" fill="#777777"/>
<path d="M276.554 163V162.105L279.915 158.426C280.309 157.995 280.634 157.621 280.889 157.303C281.144 156.981 281.333 156.679 281.456 156.398C281.582 156.113 281.645 155.814 281.645 155.503C281.645 155.145 281.559 154.835 281.386 154.573C281.217 154.311 280.985 154.109 280.69 153.967C280.395 153.824 280.064 153.753 279.696 153.753C279.305 153.753 278.964 153.834 278.672 153.996C278.384 154.156 278.16 154.379 278.001 154.668C277.845 154.956 277.767 155.294 277.767 155.682H276.594C276.594 155.085 276.731 154.562 277.006 154.111C277.281 153.66 277.656 153.309 278.13 153.057C278.607 152.805 279.143 152.679 279.736 152.679C280.332 152.679 280.861 152.805 281.322 153.057C281.782 153.309 282.144 153.648 282.406 154.076C282.667 154.504 282.798 154.979 282.798 155.503C282.798 155.877 282.73 156.244 282.594 156.602C282.462 156.956 282.23 157.352 281.898 157.79C281.57 158.224 281.115 158.754 280.531 159.381L278.244 161.827V161.906H282.977V163H276.554Z" fill="#777777"/>
<path d="M335.994 163.139C335.338 163.139 334.753 163.027 334.239 162.801C333.729 162.576 333.323 162.263 333.021 161.862C332.723 161.457 332.561 160.988 332.534 160.455H333.787C333.813 160.783 333.926 161.066 334.125 161.305C334.324 161.54 334.584 161.722 334.906 161.852C335.227 161.981 335.583 162.045 335.974 162.045C336.412 162.045 336.8 161.969 337.138 161.817C337.476 161.664 337.741 161.452 337.933 161.18C338.125 160.909 338.222 160.594 338.222 160.236C338.222 159.861 338.129 159.531 337.943 159.246C337.758 158.958 337.486 158.733 337.128 158.57C336.77 158.408 336.332 158.327 335.815 158.327H335V157.233H335.815C336.22 157.233 336.574 157.16 336.879 157.014C337.188 156.868 337.428 156.663 337.6 156.398C337.776 156.133 337.864 155.821 337.864 155.463C337.864 155.118 337.787 154.818 337.635 154.563C337.482 154.308 337.267 154.109 336.989 153.967C336.714 153.824 336.389 153.753 336.014 153.753C335.663 153.753 335.331 153.817 335.02 153.947C334.712 154.073 334.46 154.257 334.264 154.499C334.069 154.737 333.963 155.026 333.946 155.364H332.753C332.773 154.83 332.933 154.363 333.235 153.962C333.537 153.557 333.931 153.242 334.418 153.017C334.909 152.792 335.447 152.679 336.034 152.679C336.664 152.679 337.204 152.807 337.655 153.062C338.106 153.314 338.452 153.647 338.694 154.061C338.936 154.475 339.057 154.923 339.057 155.403C339.057 155.977 338.906 156.466 338.604 156.87C338.306 157.274 337.9 157.554 337.386 157.71V157.79C338.029 157.896 338.531 158.169 338.893 158.61C339.254 159.048 339.435 159.589 339.435 160.236C339.435 160.789 339.284 161.286 338.982 161.727C338.684 162.165 338.276 162.509 337.759 162.761C337.242 163.013 336.654 163.139 335.994 163.139Z" fill="#777777"/>
<path d="M388.315 160.912V159.898L392.79 152.818H393.526V154.389H393.028L389.648 159.739V159.818H395.673V160.912H388.315ZM393.108 163V160.604V160.131V152.818H394.281V163H393.108Z" fill="#777777"/>
<path d="M55.7358 219.139C55.1525 219.139 54.6271 219.023 54.1598 218.791C53.6925 218.559 53.3179 218.241 53.0362 217.837C52.7545 217.432 52.6004 216.972 52.5739 216.455H53.767C53.8134 216.915 54.0223 217.296 54.3935 217.598C54.768 217.896 55.2154 218.045 55.7358 218.045C56.1534 218.045 56.5246 217.948 56.8494 217.752C57.1776 217.557 57.4344 217.288 57.62 216.947C57.8089 216.602 57.9034 216.213 57.9034 215.778C57.9034 215.334 57.8056 214.938 57.6101 214.59C57.4179 214.239 57.1527 213.962 56.8146 213.76C56.4766 213.558 56.0904 213.455 55.6562 213.452C55.3447 213.448 55.0249 213.496 54.6967 213.596C54.3686 213.692 54.0985 213.816 53.8864 213.969L52.733 213.83L53.3494 208.818H58.6392V209.912H54.3835L54.0256 212.915H54.0852C54.294 212.749 54.5559 212.612 54.8707 212.502C55.1856 212.393 55.5137 212.338 55.8551 212.338C56.4782 212.338 57.0334 212.487 57.5206 212.786C58.0111 213.08 58.3956 213.485 58.674 213.999C58.9557 214.512 59.0966 215.099 59.0966 215.759C59.0966 216.408 58.9508 216.988 58.6591 217.499C58.3707 218.006 57.973 218.407 57.4659 218.702C56.9588 218.993 56.3821 219.139 55.7358 219.139Z" fill="#777777"/>
<path d="M111.935 219.139C111.517 219.133 111.099 219.053 110.682 218.901C110.264 218.748 109.883 218.491 109.538 218.13C109.194 217.765 108.917 217.273 108.708 216.653C108.499 216.03 108.395 215.248 108.395 214.307C108.395 213.405 108.479 212.607 108.648 211.911C108.817 211.211 109.063 210.623 109.384 210.146C109.706 209.665 110.094 209.3 110.548 209.052C111.005 208.803 111.52 208.679 112.094 208.679C112.664 208.679 113.171 208.793 113.615 209.022C114.063 209.247 114.427 209.562 114.709 209.967C114.991 210.371 115.173 210.837 115.256 211.364H114.043C113.93 210.906 113.711 210.527 113.386 210.225C113.062 209.924 112.631 209.773 112.094 209.773C111.305 209.773 110.683 210.116 110.229 210.802C109.779 211.488 109.552 212.451 109.548 213.69H109.628C109.813 213.409 110.034 213.168 110.289 212.969C110.548 212.767 110.833 212.612 111.144 212.502C111.456 212.393 111.786 212.338 112.134 212.338C112.717 212.338 113.25 212.484 113.734 212.776C114.218 213.064 114.606 213.463 114.898 213.974C115.189 214.481 115.335 215.062 115.335 215.719C115.335 216.348 115.194 216.925 114.913 217.449C114.631 217.969 114.235 218.384 113.724 218.692C113.217 218.997 112.621 219.146 111.935 219.139ZM111.935 218.045C112.352 218.045 112.727 217.941 113.058 217.732C113.393 217.523 113.656 217.243 113.849 216.892C114.044 216.541 114.142 216.15 114.142 215.719C114.142 215.298 114.048 214.915 113.859 214.57C113.673 214.222 113.416 213.946 113.088 213.74C112.763 213.535 112.392 213.432 111.974 213.432C111.66 213.432 111.366 213.495 111.094 213.621C110.823 213.743 110.584 213.912 110.379 214.128C110.176 214.343 110.017 214.59 109.901 214.869C109.785 215.144 109.727 215.434 109.727 215.739C109.727 216.143 109.822 216.521 110.011 216.872C110.203 217.223 110.465 217.507 110.796 217.722C111.131 217.938 111.51 218.045 111.935 218.045Z" fill="#777777"/>
<path d="M165.372 219L169.926 209.991V209.912H164.676V208.818H171.199V209.972L166.665 219H165.372Z" fill="#777777"/>
<path d="M223.815 219.139C223.133 219.139 222.529 219.018 222.006 218.776C221.485 218.531 221.079 218.195 220.788 217.767C220.496 217.336 220.352 216.846 220.355 216.295C220.352 215.865 220.436 215.467 220.609 215.102C220.781 214.734 221.016 214.428 221.315 214.183C221.616 213.934 221.953 213.777 222.324 213.71V213.651C221.837 213.525 221.449 213.251 221.161 212.83C220.872 212.406 220.73 211.924 220.733 211.384C220.73 210.866 220.861 210.404 221.126 209.996C221.391 209.589 221.755 209.267 222.219 209.032C222.687 208.797 223.219 208.679 223.815 208.679C224.405 208.679 224.932 208.797 225.396 209.032C225.86 209.267 226.225 209.589 226.49 209.996C226.759 210.404 226.894 210.866 226.898 211.384C226.894 211.924 226.747 212.406 226.455 212.83C226.167 213.251 225.784 213.525 225.307 213.651V213.71C225.675 213.777 226.006 213.934 226.301 214.183C226.596 214.428 226.831 214.734 227.007 215.102C227.183 215.467 227.272 215.865 227.276 216.295C227.272 216.846 227.123 217.336 226.828 217.767C226.536 218.195 226.13 218.531 225.61 218.776C225.093 219.018 224.495 219.139 223.815 219.139ZM223.815 218.045C224.276 218.045 224.674 217.971 225.009 217.822C225.343 217.673 225.602 217.462 225.784 217.19C225.966 216.919 226.059 216.6 226.062 216.236C226.059 215.851 225.96 215.512 225.764 215.217C225.569 214.922 225.302 214.69 224.964 214.521C224.629 214.352 224.246 214.267 223.815 214.267C223.381 214.267 222.993 214.352 222.652 214.521C222.314 214.69 222.047 214.922 221.852 215.217C221.659 215.512 221.565 215.851 221.568 216.236C221.565 216.6 221.653 216.919 221.832 217.19C222.014 217.462 222.274 217.673 222.612 217.822C222.95 217.971 223.351 218.045 223.815 218.045ZM223.815 213.213C224.18 213.213 224.503 213.14 224.785 212.994C225.07 212.848 225.294 212.645 225.456 212.383C225.618 212.121 225.701 211.814 225.705 211.463C225.701 211.118 225.62 210.818 225.461 210.563C225.302 210.305 225.081 210.106 224.8 209.967C224.518 209.824 224.19 209.753 223.815 209.753C223.434 209.753 223.101 209.824 222.816 209.967C222.531 210.106 222.311 210.305 222.155 210.563C221.999 210.818 221.923 211.118 221.926 211.463C221.923 211.814 222.001 212.121 222.16 212.383C222.322 212.645 222.546 212.848 222.831 212.994C223.116 213.14 223.444 213.213 223.815 213.213Z" fill="#777777"/>
<path d="M279.795 208.679C280.213 208.682 280.631 208.762 281.048 208.918C281.466 209.073 281.847 209.332 282.192 209.693C282.536 210.051 282.813 210.54 283.022 211.16C283.231 211.78 283.335 212.557 283.335 213.491C283.335 214.396 283.249 215.2 283.077 215.903C282.908 216.602 282.662 217.192 282.341 217.673C282.023 218.153 281.635 218.518 281.178 218.766C280.723 219.015 280.21 219.139 279.636 219.139C279.066 219.139 278.558 219.027 278.11 218.801C277.666 218.572 277.301 218.256 277.016 217.852C276.735 217.444 276.554 216.972 276.474 216.435H277.688C277.797 216.902 278.014 217.288 278.339 217.593C278.667 217.895 279.099 218.045 279.636 218.045C280.422 218.045 281.042 217.702 281.496 217.016C281.953 216.33 282.182 215.361 282.182 214.108H282.102C281.917 214.386 281.696 214.627 281.441 214.829C281.186 215.031 280.902 215.187 280.591 215.296C280.279 215.406 279.948 215.46 279.597 215.46C279.013 215.46 278.478 215.316 277.991 215.028C277.507 214.736 277.119 214.337 276.827 213.83C276.539 213.319 276.395 212.736 276.395 212.08C276.395 211.456 276.534 210.886 276.812 210.369C277.094 209.849 277.489 209.435 277.996 209.126C278.506 208.818 279.106 208.669 279.795 208.679ZM279.795 209.773C279.378 209.773 279.002 209.877 278.667 210.086C278.335 210.291 278.072 210.57 277.876 210.921C277.684 211.269 277.588 211.655 277.588 212.08C277.588 212.504 277.681 212.89 277.866 213.238C278.055 213.583 278.312 213.858 278.637 214.063C278.965 214.265 279.338 214.366 279.756 214.366C280.071 214.366 280.364 214.305 280.636 214.183C280.907 214.057 281.144 213.886 281.347 213.67C281.552 213.452 281.713 213.205 281.829 212.93C281.945 212.651 282.003 212.361 282.003 212.06C282.003 211.662 281.907 211.289 281.714 210.941C281.526 210.593 281.264 210.311 280.929 210.096C280.598 209.88 280.22 209.773 279.795 209.773Z" fill="#777777"/>
<path d="M332.634 208.818V219H331.401V210.111H331.341L328.855 211.761V210.509L331.401 208.818H332.634ZM339.163 219.139C338.414 219.139 337.776 218.935 337.249 218.528C336.722 218.117 336.319 217.522 336.041 216.743C335.762 215.961 335.623 215.016 335.623 213.909C335.623 212.809 335.762 211.869 336.041 211.09C336.322 210.308 336.727 209.711 337.254 209.3C337.784 208.886 338.42 208.679 339.163 208.679C339.905 208.679 340.54 208.886 341.067 209.3C341.597 209.711 342.002 210.308 342.28 211.09C342.562 211.869 342.703 212.809 342.703 213.909C342.703 215.016 342.563 215.961 342.285 216.743C342.007 217.522 341.604 218.117 341.077 218.528C340.55 218.935 339.912 219.139 339.163 219.139ZM339.163 218.045C339.905 218.045 340.482 217.687 340.893 216.972C341.304 216.256 341.509 215.235 341.509 213.909C341.509 213.027 341.415 212.277 341.226 211.657C341.04 211.037 340.772 210.565 340.421 210.24C340.073 209.915 339.653 209.753 339.163 209.753C338.427 209.753 337.852 210.116 337.438 210.842C337.023 211.564 336.816 212.587 336.816 213.909C336.816 214.791 336.909 215.54 337.095 216.156C337.28 216.773 337.547 217.242 337.895 217.563C338.246 217.885 338.669 218.045 339.163 218.045Z" fill="#777777"/>
<path d="M389.634 208.818V219H388.401V210.111H388.341L385.855 211.761V210.509L388.401 208.818H389.634ZM396.421 208.818V219H395.188V210.111H395.129L392.643 211.761V210.509L395.188 208.818H396.421Z" fill="#777777"/>
<path d="M52.6335 264.818V275H51.4006V266.111H51.3409L48.8551 267.761V266.509L51.4006 264.818H52.6335ZM55.8418 275V274.105L59.2026 270.426C59.597 269.995 59.9218 269.621 60.177 269.303C60.4322 268.981 60.6211 268.679 60.7438 268.398C60.8697 268.113 60.9327 267.814 60.9327 267.503C60.9327 267.145 60.8465 266.835 60.6742 266.573C60.5051 266.311 60.2731 266.109 59.9782 265.967C59.6832 265.824 59.3517 265.753 58.9838 265.753C58.5927 265.753 58.2514 265.834 57.9597 265.996C57.6713 266.156 57.4476 266.379 57.2885 266.668C57.1327 266.956 57.0549 267.294 57.0549 267.682H55.8816C55.8816 267.085 56.0191 266.562 56.2942 266.111C56.5693 265.66 56.9438 265.309 57.4178 265.057C57.8951 264.805 58.4303 264.679 59.0236 264.679C59.6202 264.679 60.1488 264.805 60.6095 265.057C61.0702 265.309 61.4315 265.648 61.6934 266.076C61.9552 266.504 62.0861 266.979 62.0861 267.503C62.0861 267.877 62.0182 268.244 61.8823 268.602C61.7497 268.956 61.5177 269.352 61.1863 269.79C60.8581 270.224 60.4024 270.754 59.8191 271.381L57.5321 273.827V273.906H62.2651V275H55.8418Z" fill="#777777"/>
<path d="M108.634 264.818V275H107.401V266.111H107.341L104.855 267.761V266.509L107.401 264.818H108.634ZM115.282 275.139C114.626 275.139 114.041 275.027 113.527 274.801C113.017 274.576 112.611 274.263 112.309 273.862C112.011 273.457 111.848 272.988 111.822 272.455H113.075C113.101 272.783 113.214 273.066 113.413 273.305C113.612 273.54 113.872 273.722 114.193 273.852C114.515 273.981 114.871 274.045 115.262 274.045C115.7 274.045 116.088 273.969 116.426 273.817C116.764 273.664 117.029 273.452 117.221 273.18C117.413 272.909 117.509 272.594 117.509 272.236C117.509 271.861 117.417 271.531 117.231 271.246C117.045 270.958 116.774 270.733 116.416 270.57C116.058 270.408 115.62 270.327 115.103 270.327H114.288V269.233H115.103C115.508 269.233 115.862 269.16 116.167 269.014C116.475 268.868 116.716 268.663 116.888 268.398C117.064 268.133 117.151 267.821 117.151 267.463C117.151 267.118 117.075 266.818 116.923 266.563C116.77 266.308 116.555 266.109 116.276 265.967C116.001 265.824 115.677 265.753 115.302 265.753C114.951 265.753 114.619 265.817 114.308 265.947C113.999 266.073 113.748 266.257 113.552 266.499C113.356 266.737 113.25 267.026 113.234 267.364H112.041C112.061 266.83 112.221 266.363 112.523 265.962C112.825 265.557 113.219 265.242 113.706 265.017C114.197 264.792 114.735 264.679 115.322 264.679C115.952 264.679 116.492 264.807 116.943 265.062C117.393 265.314 117.74 265.647 117.982 266.061C118.224 266.475 118.345 266.923 118.345 267.403C118.345 267.977 118.194 268.466 117.892 268.87C117.594 269.274 117.188 269.554 116.674 269.71V269.79C117.317 269.896 117.819 270.169 118.181 270.61C118.542 271.048 118.722 271.589 118.722 272.236C118.722 272.789 118.572 273.286 118.27 273.727C117.972 274.165 117.564 274.509 117.047 274.761C116.53 275.013 115.942 275.139 115.282 275.139Z" fill="#777777"/>
<path d="M164.634 264.818V275H163.401V266.111H163.341L160.855 267.761V266.509L163.401 264.818H164.634ZM167.603 272.912V271.898L172.078 264.818H172.813V266.389H172.316L168.936 271.739V271.818H174.961V272.912H167.603ZM172.396 275V272.604V272.131V264.818H173.569V275H172.396Z" fill="#777777"/>
<path d="M220.634 264.818V275H219.401V266.111H219.341L216.855 267.761V266.509L219.401 264.818H220.634ZM227.024 275.139C226.44 275.139 225.915 275.023 225.448 274.791C224.98 274.559 224.606 274.241 224.324 273.837C224.042 273.432 223.888 272.972 223.862 272.455H225.055C225.101 272.915 225.31 273.296 225.681 273.598C226.056 273.896 226.503 274.045 227.024 274.045C227.441 274.045 227.812 273.948 228.137 273.752C228.465 273.557 228.722 273.288 228.908 272.947C229.097 272.602 229.191 272.213 229.191 271.778C229.191 271.334 229.093 270.938 228.898 270.59C228.706 270.239 228.441 269.962 228.102 269.76C227.764 269.558 227.378 269.455 226.944 269.452C226.633 269.448 226.313 269.496 225.985 269.596C225.656 269.692 225.386 269.816 225.174 269.969L224.021 269.83L224.637 264.818H229.927V265.912H225.671L225.313 268.915H225.373C225.582 268.749 225.844 268.612 226.159 268.502C226.473 268.393 226.802 268.338 227.143 268.338C227.766 268.338 228.321 268.487 228.808 268.786C229.299 269.08 229.683 269.485 229.962 269.999C230.244 270.512 230.384 271.099 230.384 271.759C230.384 272.408 230.239 272.988 229.947 273.499C229.659 274.006 229.261 274.407 228.754 274.702C228.247 274.993 227.67 275.139 227.024 275.139Z" fill="#777777"/>
<path d="M276.634 264.818V275H275.401V266.111H275.341L272.855 267.761V266.509L275.401 264.818H276.634ZM283.222 275.139C282.805 275.133 282.387 275.053 281.97 274.901C281.552 274.748 281.171 274.491 280.826 274.13C280.481 273.765 280.205 273.273 279.996 272.653C279.787 272.03 279.683 271.248 279.683 270.307C279.683 269.405 279.767 268.607 279.936 267.911C280.105 267.211 280.351 266.623 280.672 266.146C280.994 265.665 281.381 265.3 281.835 265.052C282.293 264.803 282.808 264.679 283.382 264.679C283.952 264.679 284.459 264.793 284.903 265.022C285.35 265.247 285.715 265.562 285.997 265.967C286.278 266.371 286.461 266.837 286.543 267.364H285.33C285.218 266.906 284.999 266.527 284.674 266.225C284.349 265.924 283.918 265.773 283.382 265.773C282.593 265.773 281.971 266.116 281.517 266.802C281.066 267.488 280.839 268.451 280.836 269.69H280.916C281.101 269.409 281.322 269.168 281.577 268.969C281.835 268.767 282.12 268.612 282.432 268.502C282.744 268.393 283.073 268.338 283.421 268.338C284.005 268.338 284.538 268.484 285.022 268.776C285.506 269.064 285.894 269.463 286.186 269.974C286.477 270.481 286.623 271.062 286.623 271.719C286.623 272.348 286.482 272.925 286.2 273.449C285.919 273.969 285.523 274.384 285.012 274.692C284.505 274.997 283.909 275.146 283.222 275.139ZM283.222 274.045C283.64 274.045 284.015 273.941 284.346 273.732C284.681 273.523 284.944 273.243 285.137 272.892C285.332 272.541 285.43 272.15 285.43 271.719C285.43 271.298 285.335 270.915 285.146 270.57C284.961 270.222 284.704 269.946 284.376 269.74C284.051 269.535 283.68 269.432 283.262 269.432C282.947 269.432 282.654 269.495 282.382 269.621C282.11 269.743 281.872 269.912 281.666 270.128C281.464 270.343 281.305 270.59 281.189 270.869C281.073 271.144 281.015 271.434 281.015 271.739C281.015 272.143 281.11 272.521 281.298 272.872C281.491 273.223 281.753 273.507 282.084 273.722C282.419 273.938 282.798 274.045 283.222 274.045Z" fill="#777777"/>
<path d="M333.134 264.818V275H331.901V266.111H331.841L329.355 267.761V266.509L331.901 264.818H333.134ZM336.66 275L341.214 265.991V265.912H335.964V264.818H342.487V265.972L337.953 275H336.66Z" fill="#777777"/>
<path d="M388.634 264.818V275H387.401V266.111H387.341L384.855 267.761V266.509L387.401 264.818H388.634ZM395.103 275.139C394.42 275.139 393.817 275.018 393.293 274.776C392.773 274.531 392.367 274.195 392.075 273.767C391.784 273.336 391.64 272.846 391.643 272.295C391.64 271.865 391.724 271.467 391.896 271.102C392.069 270.734 392.304 270.428 392.602 270.183C392.904 269.934 393.24 269.777 393.612 269.71V269.651C393.124 269.525 392.737 269.251 392.448 268.83C392.16 268.406 392.017 267.924 392.021 267.384C392.017 266.866 392.148 266.404 392.414 265.996C392.679 265.589 393.043 265.267 393.507 265.032C393.975 264.797 394.507 264.679 395.103 264.679C395.693 264.679 396.22 264.797 396.684 265.032C397.148 265.267 397.513 265.589 397.778 265.996C398.046 266.404 398.182 266.866 398.186 267.384C398.182 267.924 398.035 268.406 397.743 268.83C397.455 269.251 397.072 269.525 396.595 269.651V269.71C396.963 269.777 397.294 269.934 397.589 270.183C397.884 270.428 398.119 270.734 398.295 271.102C398.471 271.467 398.56 271.865 398.563 272.295C398.56 272.846 398.411 273.336 398.116 273.767C397.824 274.195 397.418 274.531 396.898 274.776C396.381 275.018 395.783 275.139 395.103 275.139ZM395.103 274.045C395.564 274.045 395.962 273.971 396.296 273.822C396.631 273.673 396.89 273.462 397.072 273.19C397.254 272.919 397.347 272.6 397.35 272.236C397.347 271.851 397.248 271.512 397.052 271.217C396.856 270.922 396.59 270.69 396.252 270.521C395.917 270.352 395.534 270.267 395.103 270.267C394.669 270.267 394.281 270.352 393.94 270.521C393.602 270.69 393.335 270.922 393.139 271.217C392.947 271.512 392.853 271.851 392.856 272.236C392.853 272.6 392.941 272.919 393.119 273.19C393.302 273.462 393.562 273.673 393.9 273.822C394.238 273.971 394.639 274.045 395.103 274.045ZM395.103 269.213C395.468 269.213 395.791 269.14 396.073 268.994C396.358 268.848 396.581 268.645 396.744 268.383C396.906 268.121 396.989 267.814 396.992 267.463C396.989 267.118 396.908 266.818 396.749 266.563C396.59 266.305 396.369 266.106 396.088 265.967C395.806 265.824 395.478 265.753 395.103 265.753C394.722 265.753 394.389 265.824 394.104 265.967C393.819 266.106 393.598 266.305 393.443 266.563C393.287 266.818 393.211 267.118 393.214 267.463C393.211 267.814 393.289 268.121 393.448 268.383C393.61 268.645 393.834 268.848 394.119 268.994C394.404 269.14 394.732 269.213 395.103 269.213Z" fill="#777777"/>
<path d="M52.6335 320.818V331H51.4006V322.111H51.3409L48.8551 323.761V322.509L51.4006 320.818H52.6335ZM59.0833 320.679C59.5009 320.682 59.9185 320.762 60.3361 320.918C60.7537 321.073 61.1349 321.332 61.4796 321.693C61.8243 322.051 62.101 322.54 62.3098 323.16C62.5186 323.78 62.623 324.557 62.623 325.491C62.623 326.396 62.5369 327.2 62.3645 327.903C62.1955 328.602 61.9502 329.192 61.6287 329.673C61.3105 330.153 60.9228 330.518 60.4654 330.766C60.0113 331.015 59.4976 331.139 58.9242 331.139C58.3541 331.139 57.8453 331.027 57.3979 330.801C56.9538 330.572 56.5892 330.256 56.3041 329.852C56.0224 329.444 55.8418 328.972 55.7622 328.435H56.9753C57.0847 328.902 57.3018 329.288 57.6266 329.593C57.9547 329.895 58.3872 330.045 58.9242 330.045C59.7097 330.045 60.3295 329.702 60.7836 329.016C61.2409 328.33 61.4696 327.361 61.4696 326.108H61.3901C61.2045 326.386 60.9841 326.627 60.7289 326.829C60.4737 327.031 60.1903 327.187 59.8787 327.296C59.5672 327.406 59.2357 327.46 58.8844 327.46C58.3011 327.46 57.7658 327.316 57.2786 327.028C56.7947 326.736 56.4069 326.337 56.1152 325.83C55.8269 325.319 55.6827 324.736 55.6827 324.08C55.6827 323.456 55.8219 322.886 56.1003 322.369C56.382 321.849 56.7764 321.435 57.2836 321.126C57.794 320.818 58.3939 320.669 59.0833 320.679ZM59.0833 321.773C58.6657 321.773 58.2895 321.877 57.9547 322.086C57.6233 322.291 57.3598 322.57 57.1642 322.921C56.972 323.269 56.8759 323.655 56.8759 324.08C56.8759 324.504 56.9687 324.89 57.1543 325.238C57.3432 325.583 57.6001 325.858 57.9249 326.063C58.253 326.265 58.6259 326.366 59.0435 326.366C59.3584 326.366 59.6517 326.305 59.9235 326.183C60.1952 326.057 60.4322 325.886 60.6344 325.67C60.8399 325.452 61.0006 325.205 61.1166 324.93C61.2327 324.651 61.2907 324.361 61.2907 324.06C61.2907 323.662 61.1945 323.289 61.0023 322.941C60.8134 322.593 60.5515 322.311 60.2168 322.096C59.8854 321.88 59.5075 321.773 59.0833 321.773Z" fill="#777777"/>
<path d="M104.054 331V330.105L107.415 326.426C107.809 325.995 108.134 325.621 108.389 325.303C108.644 324.981 108.833 324.679 108.956 324.398C109.082 324.113 109.145 323.814 109.145 323.503C109.145 323.145 109.059 322.835 108.886 322.573C108.717 322.311 108.485 322.109 108.19 321.967C107.895 321.824 107.564 321.753 107.196 321.753C106.805 321.753 106.464 321.834 106.172 321.996C105.884 322.156 105.66 322.379 105.501 322.668C105.345 322.956 105.267 323.294 105.267 323.682H104.094C104.094 323.085 104.231 322.562 104.506 322.111C104.781 321.66 105.156 321.309 105.63 321.057C106.107 320.805 106.643 320.679 107.236 320.679C107.832 320.679 108.361 320.805 108.822 321.057C109.282 321.309 109.644 321.648 109.906 322.076C110.167 322.504 110.298 322.979 110.298 323.503C110.298 323.877 110.23 324.244 110.094 324.602C109.962 324.956 109.73 325.352 109.398 325.79C109.07 326.224 108.615 326.754 108.031 327.381L105.744 329.827V329.906H110.477V331H104.054ZM116.132 331.139C115.383 331.139 114.744 330.935 114.217 330.528C113.691 330.117 113.288 329.522 113.009 328.743C112.731 327.961 112.592 327.016 112.592 325.909C112.592 324.809 112.731 323.869 113.009 323.09C113.291 322.308 113.695 321.711 114.222 321.3C114.753 320.886 115.389 320.679 116.132 320.679C116.874 320.679 117.509 320.886 118.036 321.3C118.566 321.711 118.97 322.308 119.249 323.09C119.53 323.869 119.671 324.809 119.671 325.909C119.671 327.016 119.532 327.961 119.254 328.743C118.975 329.522 118.573 330.117 118.046 330.528C117.519 330.935 116.881 331.139 116.132 331.139ZM116.132 330.045C116.874 330.045 117.451 329.687 117.862 328.972C118.273 328.256 118.478 327.235 118.478 325.909C118.478 325.027 118.384 324.277 118.195 323.657C118.009 323.037 117.741 322.565 117.389 322.24C117.041 321.915 116.622 321.753 116.132 321.753C115.396 321.753 114.821 322.116 114.406 322.842C113.992 323.564 113.785 324.587 113.785 325.909C113.785 326.791 113.878 327.54 114.063 328.156C114.249 328.773 114.516 329.242 114.864 329.563C115.215 329.885 115.638 330.045 116.132 330.045Z" fill="#777777"/>
<rect x="146" y="304" width="44" height="44" rx="22" fill="#6699FF"/>
<path d="M160.905 331V329.668L164.44 326.202C164.778 325.861 165.059 325.558 165.285 325.293C165.51 325.027 165.679 324.771 165.792 324.522C165.905 324.273 165.961 324.008 165.961 323.727C165.961 323.405 165.888 323.13 165.742 322.901C165.596 322.669 165.396 322.49 165.141 322.364C164.885 322.238 164.595 322.175 164.271 322.175C163.936 322.175 163.643 322.245 163.391 322.384C163.139 322.52 162.943 322.714 162.804 322.966C162.668 323.218 162.6 323.518 162.6 323.866H160.845C160.845 323.219 160.993 322.658 161.288 322.18C161.583 321.703 161.989 321.334 162.506 321.072C163.026 320.81 163.623 320.679 164.295 320.679C164.978 320.679 165.578 320.807 166.095 321.062C166.612 321.317 167.013 321.667 167.298 322.111C167.587 322.555 167.731 323.062 167.731 323.632C167.731 324.013 167.658 324.388 167.512 324.756C167.366 325.124 167.109 325.531 166.741 325.979C166.377 326.426 165.865 326.968 165.205 327.604L163.45 329.389V329.459H167.885V331H160.905ZM174.021 320.818V331H172.177V322.613H172.117L169.736 324.134V322.444L172.267 320.818H174.021Z" fill="white"/>
<rect x="202" y="304" width="44" height="44" rx="22" fill="#EBEBEB"/>
<path d="M215.905 331V329.668L219.44 326.202C219.778 325.861 220.059 325.558 220.285 325.293C220.51 325.027 220.679 324.771 220.792 324.522C220.905 324.273 220.961 324.008 220.961 323.727C220.961 323.405 220.888 323.13 220.742 322.901C220.596 322.669 220.396 322.49 220.141 322.364C219.885 322.238 219.595 322.175 219.271 322.175C218.936 322.175 218.643 322.245 218.391 322.384C218.139 322.52 217.943 322.714 217.804 322.966C217.668 323.218 217.6 323.518 217.6 323.866H215.845C215.845 323.219 215.993 322.658 216.288 322.18C216.583 321.703 216.989 321.334 217.506 321.072C218.026 320.81 218.623 320.679 219.295 320.679C219.978 320.679 220.578 320.807 221.095 321.062C221.612 321.317 222.013 321.667 222.298 322.111C222.587 322.555 222.731 323.062 222.731 323.632C222.731 324.013 222.658 324.388 222.512 324.756C222.366 325.124 222.109 325.531 221.741 325.979C221.377 326.426 220.865 326.968 220.205 327.604L218.45 329.389V329.459H222.885V331H215.905ZM224.88 331V329.668L228.415 326.202C228.753 325.861 229.035 325.558 229.26 325.293C229.485 325.027 229.655 324.771 229.767 324.522C229.88 324.273 229.936 324.008 229.936 323.727C229.936 323.405 229.863 323.13 229.717 322.901C229.572 322.669 229.371 322.49 229.116 322.364C228.861 322.238 228.571 322.175 228.246 322.175C227.911 322.175 227.618 322.245 227.366 322.384C227.114 322.52 226.918 322.714 226.779 322.966C226.643 323.218 226.575 323.518 226.575 323.866H224.82C224.82 323.219 224.968 322.658 225.263 322.18C225.558 321.703 225.964 321.334 226.481 321.072C227.001 320.81 227.598 320.679 228.271 320.679C228.954 320.679 229.553 320.807 230.07 321.062C230.588 321.317 230.989 321.667 231.274 322.111C231.562 322.555 231.706 323.062 231.706 323.632C231.706 324.013 231.633 324.388 231.487 324.756C231.342 325.124 231.085 325.531 230.717 325.979C230.352 326.426 229.84 326.968 229.181 327.604L227.426 329.389V329.459H231.86V331H224.88Z" fill="#1B1B1B"/>
<rect x="258" y="304" width="44" height="44" rx="22" fill="#EBEBEB"/>
<path d="M271.405 331V329.668L274.94 326.202C275.278 325.861 275.559 325.558 275.785 325.293C276.01 325.027 276.179 324.771 276.292 324.522C276.405 324.273 276.461 324.008 276.461 323.727C276.461 323.405 276.388 323.13 276.242 322.901C276.096 322.669 275.896 322.49 275.641 322.364C275.385 322.238 275.095 322.175 274.771 322.175C274.436 322.175 274.143 322.245 273.891 322.384C273.639 322.52 273.443 322.714 273.304 322.966C273.168 323.218 273.1 323.518 273.1 323.866H271.345C271.345 323.219 271.493 322.658 271.788 322.18C272.083 321.703 272.489 321.334 273.006 321.072C273.526 320.81 274.123 320.679 274.795 320.679C275.478 320.679 276.078 320.807 276.595 321.062C277.112 321.317 277.513 321.667 277.798 322.111C278.087 322.555 278.231 323.062 278.231 323.632C278.231 324.013 278.158 324.388 278.012 324.756C277.866 325.124 277.609 325.531 277.241 325.979C276.877 326.426 276.365 326.968 275.705 327.604L273.95 329.389V329.459H278.385V331H271.405ZM284.034 331.139C283.318 331.139 282.682 331.017 282.125 330.771C281.572 330.526 281.134 330.185 280.813 329.747C280.491 329.31 280.32 328.804 280.301 328.231H282.17C282.186 328.506 282.278 328.746 282.443 328.952C282.609 329.154 282.829 329.311 283.105 329.424C283.38 329.537 283.688 329.593 284.029 329.593C284.394 329.593 284.717 329.53 284.999 329.404C285.28 329.275 285.501 329.096 285.66 328.867C285.819 328.638 285.897 328.375 285.894 328.077C285.897 327.768 285.817 327.497 285.655 327.261C285.493 327.026 285.257 326.842 284.949 326.71C284.644 326.577 284.276 326.511 283.845 326.511H282.945V325.089H283.845C284.2 325.089 284.51 325.027 284.775 324.905C285.043 324.782 285.254 324.61 285.406 324.388C285.559 324.162 285.633 323.902 285.63 323.607C285.633 323.319 285.569 323.069 285.436 322.857C285.307 322.641 285.123 322.474 284.884 322.354C284.649 322.235 284.372 322.175 284.054 322.175C283.743 322.175 283.454 322.232 283.189 322.344C282.924 322.457 282.71 322.618 282.548 322.827C282.385 323.032 282.299 323.277 282.289 323.562H280.514C280.528 322.992 280.692 322.492 281.007 322.061C281.325 321.627 281.749 321.289 282.279 321.047C282.81 320.802 283.405 320.679 284.064 320.679C284.744 320.679 285.334 320.807 285.834 321.062C286.338 321.314 286.727 321.653 287.002 322.081C287.277 322.509 287.415 322.981 287.415 323.498C287.418 324.071 287.249 324.552 286.908 324.94C286.57 325.327 286.126 325.581 285.575 325.7V325.78C286.291 325.879 286.84 326.144 287.221 326.575C287.606 327.003 287.796 327.535 287.793 328.171C287.793 328.741 287.63 329.252 287.306 329.702C286.984 330.15 286.54 330.501 285.973 330.756C285.41 331.012 284.763 331.139 284.034 331.139Z" fill="#1B1B1B"/>
<rect x="314" y="304" width="44" height="44" rx="22" fill="#EBEBEB"/>
<path d="M327.405 331V329.668L330.94 326.202C331.278 325.861 331.559 325.558 331.785 325.293C332.01 325.027 332.179 324.771 332.292 324.522C332.405 324.273 332.461 324.008 332.461 323.727C332.461 323.405 332.388 323.13 332.242 322.901C332.096 322.669 331.896 322.49 331.641 322.364C331.385 322.238 331.095 322.175 330.771 322.175C330.436 322.175 330.143 322.245 329.891 322.384C329.639 322.52 329.443 322.714 329.304 322.966C329.168 323.218 329.1 323.518 329.1 323.866H327.345C327.345 323.219 327.493 322.658 327.788 322.18C328.083 321.703 328.489 321.334 329.006 321.072C329.526 320.81 330.123 320.679 330.795 320.679C331.478 320.679 332.078 320.807 332.595 321.062C333.112 321.317 333.513 321.667 333.798 322.111C334.087 322.555 334.231 323.062 334.231 323.632C334.231 324.013 334.158 324.388 334.012 324.756C333.866 325.124 333.609 325.531 333.241 325.979C332.877 326.426 332.365 326.968 331.705 327.604L329.95 329.389V329.459H334.385V331H327.405ZM335.977 329.111V327.644L340.298 320.818H341.521V322.906H340.775L337.867 327.515V327.594H343.897V329.111H335.977ZM340.835 331V328.663L340.855 328.007V320.818H342.595V331H340.835Z" fill="#1B1B1B"/>
<path d="M384.054 331V330.105L387.415 326.426C387.809 325.995 388.134 325.621 388.389 325.303C388.644 324.981 388.833 324.679 388.956 324.398C389.082 324.113 389.145 323.814 389.145 323.503C389.145 323.145 389.059 322.835 388.886 322.573C388.717 322.311 388.485 322.109 388.19 321.967C387.895 321.824 387.564 321.753 387.196 321.753C386.805 321.753 386.464 321.834 386.172 321.996C385.884 322.156 385.66 322.379 385.501 322.668C385.345 322.956 385.267 323.294 385.267 323.682H384.094C384.094 323.085 384.231 322.562 384.506 322.111C384.781 321.66 385.156 321.309 385.63 321.057C386.107 320.805 386.643 320.679 387.236 320.679C387.832 320.679 388.361 320.805 388.822 321.057C389.282 321.309 389.644 321.648 389.906 322.076C390.167 322.504 390.298 322.979 390.298 323.503C390.298 323.877 390.23 324.244 390.094 324.602C389.962 324.956 389.73 325.352 389.398 325.79C389.07 326.224 388.615 326.754 388.031 327.381L385.744 329.827V329.906H390.477V331H384.054ZM395.992 331.139C395.409 331.139 394.884 331.023 394.416 330.791C393.949 330.559 393.575 330.241 393.293 329.837C393.011 329.432 392.857 328.972 392.83 328.455H394.024C394.07 328.915 394.279 329.296 394.65 329.598C395.025 329.896 395.472 330.045 395.992 330.045C396.41 330.045 396.781 329.948 397.106 329.752C397.434 329.557 397.691 329.288 397.877 328.947C398.066 328.602 398.16 328.213 398.16 327.778C398.16 327.334 398.062 326.938 397.867 326.59C397.674 326.239 397.409 325.962 397.071 325.76C396.733 325.558 396.347 325.455 395.913 325.452C395.601 325.448 395.281 325.496 394.953 325.596C394.625 325.692 394.355 325.816 394.143 325.969L392.99 325.83L393.606 320.818H398.896V321.912H394.64L394.282 324.915H394.342C394.551 324.749 394.812 324.612 395.127 324.502C395.442 324.393 395.77 324.338 396.112 324.338C396.735 324.338 397.29 324.487 397.777 324.786C398.268 325.08 398.652 325.485 398.931 325.999C399.212 326.512 399.353 327.099 399.353 327.759C399.353 328.408 399.207 328.988 398.916 329.499C398.627 330.006 398.23 330.407 397.722 330.702C397.215 330.993 396.639 331.139 395.992 331.139Z" fill="#777777"/>
<path d="M48.054 387V386.105L51.4148 382.426C51.8092 381.995 52.134 381.621 52.3892 381.303C52.6444 380.981 52.8333 380.679 52.956 380.398C53.0819 380.113 53.1449 379.814 53.1449 379.503C53.1449 379.145 53.0587 378.835 52.8864 378.573C52.7173 378.311 52.4853 378.109 52.1903 377.967C51.8954 377.824 51.5639 377.753 51.196 377.753C50.8049 377.753 50.4635 377.834 50.1719 377.996C49.8835 378.156 49.6598 378.379 49.5007 378.668C49.3449 378.956 49.267 379.294 49.267 379.682H48.0938C48.0938 379.085 48.2313 378.562 48.5064 378.111C48.7815 377.66 49.156 377.309 49.63 377.057C50.1072 376.805 50.6425 376.679 51.2358 376.679C51.8324 376.679 52.361 376.805 52.8217 377.057C53.2824 377.309 53.6437 377.648 53.9055 378.076C54.1674 378.504 54.2983 378.979 54.2983 379.503C54.2983 379.877 54.2304 380.244 54.0945 380.602C53.9619 380.956 53.7299 381.352 53.3984 381.79C53.0703 382.224 52.6146 382.754 52.0312 383.381L49.7443 385.827V385.906H54.4773V387H48.054ZM60.1912 387.139C59.7736 387.133 59.356 387.053 58.9384 386.901C58.5208 386.748 58.1396 386.491 57.7949 386.13C57.4502 385.765 57.1735 385.273 56.9647 384.653C56.7559 384.03 56.6514 383.248 56.6514 382.307C56.6514 381.405 56.736 380.607 56.905 379.911C57.074 379.211 57.3193 378.623 57.6408 378.146C57.9623 377.665 58.3501 377.3 58.8041 377.052C59.2615 376.803 59.7769 376.679 60.3503 376.679C60.9204 376.679 61.4275 376.793 61.8716 377.022C62.3191 377.247 62.6836 377.562 62.9654 377.967C63.2471 378.371 63.4294 378.837 63.5122 379.364H62.2992C62.1865 378.906 61.9677 378.527 61.6429 378.225C61.3181 377.924 60.8872 377.773 60.3503 377.773C59.5615 377.773 58.94 378.116 58.486 378.802C58.0352 379.488 57.8082 380.451 57.8049 381.69H57.8844C58.07 381.409 58.2904 381.168 58.5456 380.969C58.8041 380.767 59.0892 380.612 59.4007 380.502C59.7123 380.393 60.0421 380.338 60.3901 380.338C60.9734 380.338 61.507 380.484 61.9909 380.776C62.4748 381.064 62.8626 381.463 63.1543 381.974C63.446 382.481 63.5918 383.062 63.5918 383.719C63.5918 384.348 63.4509 384.925 63.1692 385.449C62.8875 385.969 62.4914 386.384 61.981 386.692C61.4739 386.997 60.8773 387.146 60.1912 387.139ZM60.1912 386.045C60.6088 386.045 60.9834 385.941 61.3148 385.732C61.6496 385.523 61.913 385.243 62.1053 384.892C62.3008 384.541 62.3986 384.15 62.3986 383.719C62.3986 383.298 62.3041 382.915 62.1152 382.57C61.9296 382.222 61.6728 381.946 61.3446 381.74C61.0198 381.535 60.6486 381.432 60.231 381.432C59.9161 381.432 59.6228 381.495 59.351 381.621C59.0792 381.743 58.8406 381.912 58.6351 382.128C58.4329 382.343 58.2738 382.59 58.1578 382.869C58.0418 383.144 57.9838 383.434 57.9838 383.739C57.9838 384.143 58.0783 384.521 58.2672 384.872C58.4595 385.223 58.7213 385.507 59.0527 385.722C59.3875 385.938 59.767 386.045 60.1912 386.045Z" fill="#777777"/>
<rect x="90" y="360" width="44" height="44" rx="22" fill="#EBEBEB"/>
<path d="M103.905 387V385.668L107.44 382.202C107.778 381.861 108.059 381.558 108.285 381.293C108.51 381.027 108.679 380.771 108.792 380.522C108.905 380.273 108.961 380.008 108.961 379.727C108.961 379.405 108.888 379.13 108.742 378.901C108.596 378.669 108.396 378.49 108.141 378.364C107.885 378.238 107.595 378.175 107.271 378.175C106.936 378.175 106.643 378.245 106.391 378.384C106.139 378.52 105.943 378.714 105.804 378.966C105.668 379.218 105.6 379.518 105.6 379.866H103.845C103.845 379.219 103.993 378.658 104.288 378.18C104.583 377.703 104.989 377.334 105.506 377.072C106.026 376.81 106.623 376.679 107.295 376.679C107.978 376.679 108.578 376.807 109.095 377.062C109.612 377.317 110.013 377.667 110.298 378.111C110.587 378.555 110.731 379.062 110.731 379.632C110.731 380.013 110.658 380.388 110.512 380.756C110.366 381.124 110.109 381.531 109.741 381.979C109.377 382.426 108.865 382.968 108.205 383.604L106.45 385.389V385.459H110.885V387H103.905ZM113.253 387L117.583 378.429V378.359H112.557V376.818H119.492V378.394L115.167 387H113.253Z" fill="#1B1B1B"/>
<rect x="146" y="360" width="44" height="44" rx="22" fill="#F6F6F6"/>
<path d="M160.054 387V386.105L163.415 382.426C163.809 381.995 164.134 381.621 164.389 381.303C164.644 380.981 164.833 380.679 164.956 380.398C165.082 380.113 165.145 379.814 165.145 379.503C165.145 379.145 165.059 378.835 164.886 378.573C164.717 378.311 164.485 378.109 164.19 377.967C163.895 377.824 163.564 377.753 163.196 377.753C162.805 377.753 162.464 377.834 162.172 377.996C161.884 378.156 161.66 378.379 161.501 378.668C161.345 378.956 161.267 379.294 161.267 379.682H160.094C160.094 379.085 160.231 378.562 160.506 378.111C160.781 377.66 161.156 377.309 161.63 377.057C162.107 376.805 162.643 376.679 163.236 376.679C163.832 376.679 164.361 376.805 164.822 377.057C165.282 377.309 165.644 377.648 165.906 378.076C166.167 378.504 166.298 378.979 166.298 379.503C166.298 379.877 166.23 380.244 166.094 380.602C165.962 380.956 165.73 381.352 165.398 381.79C165.07 382.224 164.615 382.754 164.031 383.381L161.744 385.827V385.906H166.477V387H160.054ZM172.072 387.139C171.389 387.139 170.786 387.018 170.262 386.776C169.742 386.531 169.336 386.195 169.044 385.767C168.753 385.336 168.608 384.846 168.612 384.295C168.608 383.865 168.693 383.467 168.865 383.102C169.038 382.734 169.273 382.428 169.571 382.183C169.873 381.934 170.209 381.777 170.58 381.71V381.651C170.093 381.525 169.705 381.251 169.417 380.83C169.129 380.406 168.986 379.924 168.99 379.384C168.986 378.866 169.117 378.404 169.382 377.996C169.647 377.589 170.012 377.267 170.476 377.032C170.943 376.797 171.475 376.679 172.072 376.679C172.662 376.679 173.189 376.797 173.653 377.032C174.117 377.267 174.481 377.589 174.747 377.996C175.015 378.404 175.151 378.866 175.154 379.384C175.151 379.924 175.003 380.406 174.712 380.83C174.423 381.251 174.041 381.525 173.563 381.651V381.71C173.931 381.777 174.263 381.934 174.558 382.183C174.853 382.428 175.088 382.734 175.264 383.102C175.439 383.467 175.529 383.865 175.532 384.295C175.529 384.846 175.38 385.336 175.085 385.767C174.793 386.195 174.387 386.531 173.867 386.776C173.35 387.018 172.751 387.139 172.072 387.139ZM172.072 386.045C172.533 386.045 172.93 385.971 173.265 385.822C173.6 385.673 173.858 385.462 174.041 385.19C174.223 384.919 174.316 384.6 174.319 384.236C174.316 383.851 174.216 383.512 174.021 383.217C173.825 382.922 173.558 382.69 173.22 382.521C172.886 382.352 172.503 382.267 172.072 382.267C171.638 382.267 171.25 382.352 170.909 382.521C170.57 382.69 170.304 382.922 170.108 383.217C169.916 383.512 169.821 383.851 169.825 384.236C169.821 384.6 169.909 384.919 170.088 385.19C170.271 385.462 170.531 385.673 170.869 385.822C171.207 385.971 171.608 386.045 172.072 386.045ZM172.072 381.213C172.436 381.213 172.76 381.14 173.041 380.994C173.326 380.848 173.55 380.645 173.713 380.383C173.875 380.121 173.958 379.814 173.961 379.463C173.958 379.118 173.877 378.818 173.717 378.563C173.558 378.305 173.338 378.106 173.056 377.967C172.775 377.824 172.446 377.753 172.072 377.753C171.691 377.753 171.358 377.824 171.073 377.967C170.788 378.106 170.567 378.305 170.411 378.563C170.256 378.818 170.179 379.118 170.183 379.463C170.179 379.814 170.257 380.121 170.416 380.383C170.579 380.645 170.802 380.848 171.088 380.994C171.373 381.14 171.701 381.213 172.072 381.213Z" fill="#777777"/>
<path d="M225.134 376.818V387H223.901V378.111H223.841L221.355 379.761V378.509L223.901 376.818H225.134Z" fill="#777777"/>
<path d="M276.554 387V386.105L279.915 382.426C280.309 381.995 280.634 381.621 280.889 381.303C281.144 380.981 281.333 380.679 281.456 380.398C281.582 380.113 281.645 379.814 281.645 379.503C281.645 379.145 281.559 378.835 281.386 378.573C281.217 378.311 280.985 378.109 280.69 377.967C280.395 377.824 280.064 377.753 279.696 377.753C279.305 377.753 278.964 377.834 278.672 377.996C278.384 378.156 278.16 378.379 278.001 378.668C277.845 378.956 277.767 379.294 277.767 379.682H276.594C276.594 379.085 276.731 378.562 277.006 378.111C277.281 377.66 277.656 377.309 278.13 377.057C278.607 376.805 279.143 376.679 279.736 376.679C280.332 376.679 280.861 376.805 281.322 377.057C281.782 377.309 282.144 377.648 282.406 378.076C282.667 378.504 282.798 378.979 282.798 379.503C282.798 379.877 282.73 380.244 282.594 380.602C282.462 380.956 282.23 381.352 281.898 381.79C281.57 382.224 281.115 382.754 280.531 383.381L278.244 385.827V385.906H282.977V387H276.554Z" fill="#777777"/>
<path d="M335.994 387.139C335.338 387.139 334.753 387.027 334.239 386.801C333.729 386.576 333.323 386.263 333.021 385.862C332.723 385.457 332.561 384.988 332.534 384.455H333.787C333.813 384.783 333.926 385.066 334.125 385.305C334.324 385.54 334.584 385.722 334.906 385.852C335.227 385.981 335.583 386.045 335.974 386.045C336.412 386.045 336.8 385.969 337.138 385.817C337.476 385.664 337.741 385.452 337.933 385.18C338.125 384.909 338.222 384.594 338.222 384.236C338.222 383.861 338.129 383.531 337.943 383.246C337.758 382.958 337.486 382.733 337.128 382.57C336.77 382.408 336.332 382.327 335.815 382.327H335V381.233H335.815C336.22 381.233 336.574 381.16 336.879 381.014C337.188 380.868 337.428 380.663 337.6 380.398C337.776 380.133 337.864 379.821 337.864 379.463C337.864 379.118 337.787 378.818 337.635 378.563C337.482 378.308 337.267 378.109 336.989 377.967C336.714 377.824 336.389 377.753 336.014 377.753C335.663 377.753 335.331 377.817 335.02 377.947C334.712 378.073 334.46 378.257 334.264 378.499C334.069 378.737 333.963 379.026 333.946 379.364H332.753C332.773 378.83 332.933 378.363 333.235 377.962C333.537 377.557 333.931 377.242 334.418 377.017C334.909 376.792 335.447 376.679 336.034 376.679C336.664 376.679 337.204 376.807 337.655 377.062C338.106 377.314 338.452 377.647 338.694 378.061C338.936 378.475 339.057 378.923 339.057 379.403C339.057 379.977 338.906 380.466 338.604 380.87C338.306 381.274 337.9 381.554 337.386 381.71V381.79C338.029 381.896 338.531 382.169 338.893 382.61C339.254 383.048 339.435 383.589 339.435 384.236C339.435 384.789 339.284 385.286 338.982 385.727C338.684 386.165 338.276 386.509 337.759 386.761C337.242 387.013 336.654 387.139 335.994 387.139Z" fill="#777777"/>
<path d="M388.315 384.912V383.898L392.79 376.818H393.526V378.389H393.028L389.648 383.739V383.818H395.673V384.912H388.315ZM393.108 387V384.604V384.131V376.818H394.281V387H393.108Z" fill="#777777"/>
<path d="M55.7358 443.139C55.1525 443.139 54.6271 443.023 54.1598 442.791C53.6925 442.559 53.3179 442.241 53.0362 441.837C52.7545 441.432 52.6004 440.972 52.5739 440.455H53.767C53.8134 440.915 54.0223 441.296 54.3935 441.598C54.768 441.896 55.2154 442.045 55.7358 442.045C56.1534 442.045 56.5246 441.948 56.8494 441.752C57.1776 441.557 57.4344 441.288 57.62 440.947C57.8089 440.602 57.9034 440.213 57.9034 439.778C57.9034 439.334 57.8056 438.938 57.6101 438.59C57.4179 438.239 57.1527 437.962 56.8146 437.76C56.4766 437.558 56.0904 437.455 55.6562 437.452C55.3447 437.448 55.0249 437.496 54.6967 437.596C54.3686 437.692 54.0985 437.816 53.8864 437.969L52.733 437.83L53.3494 432.818H58.6392V433.912H54.3835L54.0256 436.915H54.0852C54.294 436.749 54.5559 436.612 54.8707 436.502C55.1856 436.393 55.5137 436.338 55.8551 436.338C56.4782 436.338 57.0334 436.487 57.5206 436.786C58.0111 437.08 58.3956 437.485 58.674 437.999C58.9557 438.512 59.0966 439.099 59.0966 439.759C59.0966 440.408 58.9508 440.988 58.6591 441.499C58.3707 442.006 57.973 442.407 57.4659 442.702C56.9588 442.993 56.3821 443.139 55.7358 443.139Z" fill="#777777"/>
<path d="M111.935 443.139C111.517 443.133 111.099 443.053 110.682 442.901C110.264 442.748 109.883 442.491 109.538 442.13C109.194 441.765 108.917 441.273 108.708 440.653C108.499 440.03 108.395 439.248 108.395 438.307C108.395 437.405 108.479 436.607 108.648 435.911C108.817 435.211 109.063 434.623 109.384 434.146C109.706 433.665 110.094 433.3 110.548 433.052C111.005 432.803 111.52 432.679 112.094 432.679C112.664 432.679 113.171 432.793 113.615 433.022C114.063 433.247 114.427 433.562 114.709 433.967C114.991 434.371 115.173 434.837 115.256 435.364H114.043C113.93 434.906 113.711 434.527 113.386 434.225C113.062 433.924 112.631 433.773 112.094 433.773C111.305 433.773 110.683 434.116 110.229 434.802C109.779 435.488 109.552 436.451 109.548 437.69H109.628C109.813 437.409 110.034 437.168 110.289 436.969C110.548 436.767 110.833 436.612 111.144 436.502C111.456 436.393 111.786 436.338 112.134 436.338C112.717 436.338 113.25 436.484 113.734 436.776C114.218 437.064 114.606 437.463 114.898 437.974C115.189 438.481 115.335 439.062 115.335 439.719C115.335 440.348 115.194 440.925 114.913 441.449C114.631 441.969 114.235 442.384 113.724 442.692C113.217 442.997 112.621 443.146 111.935 443.139ZM111.935 442.045C112.352 442.045 112.727 441.941 113.058 441.732C113.393 441.523 113.656 441.243 113.849 440.892C114.044 440.541 114.142 440.15 114.142 439.719C114.142 439.298 114.048 438.915 113.859 438.57C113.673 438.222 113.416 437.946 113.088 437.74C112.763 437.535 112.392 437.432 111.974 437.432C111.66 437.432 111.366 437.495 111.094 437.621C110.823 437.743 110.584 437.912 110.379 438.128C110.176 438.343 110.017 438.59 109.901 438.869C109.785 439.144 109.727 439.434 109.727 439.739C109.727 440.143 109.822 440.521 110.011 440.872C110.203 441.223 110.465 441.507 110.796 441.722C111.131 441.938 111.51 442.045 111.935 442.045Z" fill="#777777"/>
<path d="M165.372 443L169.926 433.991V433.912H164.676V432.818H171.199V433.972L166.665 443H165.372Z" fill="#777777"/>
<path d="M223.815 443.139C223.133 443.139 222.529 443.018 222.006 442.776C221.485 442.531 221.079 442.195 220.788 441.767C220.496 441.336 220.352 440.846 220.355 440.295C220.352 439.865 220.436 439.467 220.609 439.102C220.781 438.734 221.016 438.428 221.315 438.183C221.616 437.934 221.953 437.777 222.324 437.71V437.651C221.837 437.525 221.449 437.251 221.161 436.83C220.872 436.406 220.73 435.924 220.733 435.384C220.73 434.866 220.861 434.404 221.126 433.996C221.391 433.589 221.755 433.267 222.219 433.032C222.687 432.797 223.219 432.679 223.815 432.679C224.405 432.679 224.932 432.797 225.396 433.032C225.86 433.267 226.225 433.589 226.49 433.996C226.759 434.404 226.894 434.866 226.898 435.384C226.894 435.924 226.747 436.406 226.455 436.83C226.167 437.251 225.784 437.525 225.307 437.651V437.71C225.675 437.777 226.006 437.934 226.301 438.183C226.596 438.428 226.831 438.734 227.007 439.102C227.183 439.467 227.272 439.865 227.276 440.295C227.272 440.846 227.123 441.336 226.828 441.767C226.536 442.195 226.13 442.531 225.61 442.776C225.093 443.018 224.495 443.139 223.815 443.139ZM223.815 442.045C224.276 442.045 224.674 441.971 225.009 441.822C225.343 441.673 225.602 441.462 225.784 441.19C225.966 440.919 226.059 440.6 226.062 440.236C226.059 439.851 225.96 439.512 225.764 439.217C225.569 438.922 225.302 438.69 224.964 438.521C224.629 438.352 224.246 438.267 223.815 438.267C223.381 438.267 222.993 438.352 222.652 438.521C222.314 438.69 222.047 438.922 221.852 439.217C221.659 439.512 221.565 439.851 221.568 440.236C221.565 440.6 221.653 440.919 221.832 441.19C222.014 441.462 222.274 441.673 222.612 441.822C222.95 441.971 223.351 442.045 223.815 442.045ZM223.815 437.213C224.18 437.213 224.503 437.14 224.785 436.994C225.07 436.848 225.294 436.645 225.456 436.383C225.618 436.121 225.701 435.814 225.705 435.463C225.701 435.118 225.62 434.818 225.461 434.563C225.302 434.305 225.081 434.106 224.8 433.967C224.518 433.824 224.19 433.753 223.815 433.753C223.434 433.753 223.101 433.824 222.816 433.967C222.531 434.106 222.311 434.305 222.155 434.563C221.999 434.818 221.923 435.118 221.926 435.463C221.923 435.814 222.001 436.121 222.16 436.383C222.322 436.645 222.546 436.848 222.831 436.994C223.116 437.14 223.444 437.213 223.815 437.213Z" fill="#777777"/>
<rect x="258" y="416" width="44" height="44" rx="22" fill="#EBEBEB"/>
<path opacity="0.9" d="M279.44 432.679C279.927 432.682 280.401 432.768 280.862 432.938C281.326 433.103 281.743 433.375 282.114 433.753C282.486 434.127 282.781 434.629 282.999 435.259C283.218 435.889 283.327 436.668 283.327 437.596C283.331 438.471 283.238 439.253 283.049 439.942C282.863 440.629 282.597 441.209 282.249 441.683C281.901 442.156 281.481 442.518 280.991 442.766C280.5 443.015 279.948 443.139 279.335 443.139C278.692 443.139 278.122 443.013 277.625 442.761C277.131 442.509 276.732 442.165 276.427 441.727C276.122 441.29 275.935 440.789 275.865 440.226H277.68C277.772 440.63 277.961 440.952 278.246 441.19C278.535 441.426 278.898 441.543 279.335 441.543C280.041 441.543 280.585 441.237 280.966 440.624C281.347 440.01 281.538 439.159 281.538 438.068H281.468C281.306 438.36 281.095 438.612 280.837 438.824C280.578 439.033 280.285 439.193 279.957 439.306C279.632 439.419 279.287 439.475 278.923 439.475C278.326 439.475 277.789 439.333 277.312 439.048C276.838 438.763 276.462 438.371 276.183 437.874C275.908 437.377 275.769 436.809 275.766 436.169C275.766 435.506 275.918 434.911 276.223 434.384C276.531 433.854 276.96 433.436 277.511 433.131C278.061 432.823 278.704 432.672 279.44 432.679ZM279.445 434.17C279.087 434.17 278.763 434.258 278.475 434.434C278.19 434.606 277.965 434.842 277.799 435.14C277.637 435.435 277.555 435.765 277.555 436.129C277.559 436.491 277.64 436.819 277.799 437.114C277.961 437.409 278.182 437.642 278.46 437.815C278.742 437.987 279.063 438.073 279.425 438.073C279.693 438.073 279.943 438.022 280.175 437.919C280.407 437.816 280.61 437.674 280.782 437.491C280.958 437.306 281.094 437.095 281.19 436.86C281.289 436.625 281.337 436.376 281.334 436.114C281.334 435.766 281.251 435.445 281.085 435.15C280.923 434.855 280.699 434.618 280.414 434.439C280.132 434.26 279.809 434.17 279.445 434.17Z" fill="#1B1B1B"/>
<rect x="314" y="416" width="44" height="44" rx="22" fill="#EBEBEB"/>
<path opacity="0.9" d="M332.546 432.818V443H330.702V434.613H330.642L328.261 436.134V434.444L330.791 432.818H332.546ZM339.175 443.194C338.356 443.194 337.654 442.987 337.067 442.572C336.484 442.155 336.034 441.553 335.72 440.768C335.408 439.979 335.252 439.029 335.252 437.919C335.256 436.809 335.413 435.864 335.725 435.085C336.039 434.303 336.489 433.706 337.072 433.295C337.659 432.884 338.36 432.679 339.175 432.679C339.99 432.679 340.691 432.884 341.278 433.295C341.865 433.706 342.314 434.303 342.625 435.085C342.94 435.867 343.097 436.812 343.097 437.919C343.097 439.033 342.94 439.984 342.625 440.773C342.314 441.558 341.865 442.158 341.278 442.572C340.695 442.987 339.994 443.194 339.175 443.194ZM339.175 441.638C339.811 441.638 340.313 441.325 340.681 440.698C341.052 440.068 341.238 439.142 341.238 437.919C341.238 437.11 341.154 436.431 340.985 435.881C340.816 435.33 340.577 434.916 340.269 434.638C339.96 434.356 339.596 434.215 339.175 434.215C338.542 434.215 338.041 434.53 337.673 435.16C337.306 435.786 337.12 436.706 337.117 437.919C337.113 438.731 337.195 439.414 337.36 439.967C337.529 440.521 337.768 440.938 338.076 441.22C338.384 441.499 338.751 441.638 339.175 441.638Z" fill="#1B1B1B"/>
<path d="M389.634 432.818V443H388.401V434.111H388.341L385.855 435.761V434.509L388.401 432.818H389.634ZM396.421 432.818V443H395.188V434.111H395.129L392.643 435.761V434.509L395.188 432.818H396.421Z" fill="#777777"/>
<rect x="0.5" y="0.5" width="447" height="491" rx="23.5" stroke="#D8D8D8"/>
</svg>
